<svg version="1.1" id="Layer_1" xmlns="http://www.w3.org/2000/svg" xmlns:xlink="http://www.w3.org/1999/xlink" x="0px" y="0px"
	 width="100%" viewBox="0 0 512 165" enable-background="new 0 0 512 165" xml:space="preserve">
<path fill="#FDFDFD" opacity="1.000000" stroke="none" 
	d="
M325.000000,166.000000 
	C216.666687,166.000000 108.833374,166.000000 1.000043,166.000000 
	C1.000029,111.000031 1.000029,56.000057 1.000015,1.000066 
	C171.666611,1.000044 342.333221,1.000044 512.999878,1.000022 
	C512.999878,55.999928 512.999878,110.999855 512.999939,165.999893 
	C450.500000,166.000000 388.000000,166.000000 325.000000,166.000000 
M73.590401,159.253113 
	C86.195717,151.670456 98.801041,144.087799 111.749138,136.298935 
	C109.059120,131.294342 106.651009,126.792336 104.223091,122.301048 
	C93.830269,103.075882 83.431610,83.853874 72.599937,64.203346 
	C65.687881,76.856575 58.746628,89.493973 51.872524,102.167786 
	C45.792992,113.376640 39.788254,124.626060 33.504978,136.314285 
	C41.253468,140.967972 48.594620,145.458878 56.018391,149.808792 
	C61.570591,153.062073 67.229332,156.133545 73.590401,159.253113 
M71.978661,7.228632 
	C51.410107,7.321226 31.178877,9.953174 11.270314,15.149805 
	C8.292940,15.926974 6.828831,17.182720 7.087266,20.574448 
	C7.428001,25.046284 7.123289,29.564259 7.179187,34.061363 
	C7.425417,53.870731 7.340466,73.693787 8.110705,93.483261 
	C8.530727,104.274719 12.684701,114.094910 19.778248,123.067696 
	C20.915405,121.181358 21.919924,119.687370 22.754471,118.103813 
	C30.356480,103.678940 37.881775,89.213470 45.522156,74.809029 
	C54.559822,57.770287 63.689358,40.780270 73.125572,24.438126 
	C90.472343,57.269161 107.819107,90.100197 125.323723,123.229965 
	C131.871597,115.193993 136.284088,106.444359 136.658051,96.956680 
	C137.686295,70.868881 137.659286,44.738625 137.894547,18.623764 
	C137.903366,17.645184 136.463715,16.048363 135.414978,15.754925 
	C114.967033,10.033600 94.132912,7.068857 71.978661,7.228632 
M484.022278,49.476627 
	C476.026428,40.995392 467.572998,32.890297 460.188416,23.906593 
	C454.869232,17.435545 448.573883,20.299742 443.331635,19.277990 
	C445.307709,22.450998 448.607391,25.354679 448.760254,28.415514 
	C449.374298,40.710434 448.954193,53.054489 449.053650,65.379272 
	C449.080566,68.716301 447.702545,70.707199 444.604584,71.709419 
	C443.671356,72.011314 442.805115,72.520103 441.908173,72.934105 
	C441.989655,73.197937 442.071106,73.461761 442.152588,73.725586 
	C448.474884,73.725586 454.797180,73.725586 461.861908,73.725586 
	C453.468414,67.526604 453.468384,67.526604 453.468384,58.332546 
	C453.468384,50.004444 453.447784,41.676243 453.489288,33.348343 
	C453.496002,32.002319 453.779175,30.657671 454.121277,27.695549 
	C469.364319,44.433167 483.534393,59.992657 498.537476,76.466812 
	C498.665741,73.858154 498.801788,72.458199 498.792786,71.059181 
	C498.711548,58.403988 498.812286,45.742447 498.415070,33.096733 
	C498.226868,27.105303 498.879761,22.144241 505.574005,20.223228 
	C505.693878,20.188822 505.666138,19.639992 505.722046,19.220564 
	C499.306610,19.220564 492.944733,19.220564 486.582855,19.220564 
	C486.181610,19.675995 485.780334,20.131426 485.379059,20.586857 
	C494.291748,21.234350 494.287964,26.865154 494.005920,32.836777 
	C493.794006,37.323944 493.964020,41.829151 493.964020,46.326324 
	C493.964020,50.513191 493.964050,54.700054 493.964050,60.116829 
	C490.141968,56.030224 487.320953,53.013962 484.022278,49.476627 
M245.251862,26.205429 
	C247.570419,24.019299 249.888962,21.833166 252.273514,19.584797 
	C245.193436,19.584797 238.247894,19.584797 230.587662,19.584797 
	C231.456604,20.715921 231.779282,21.564947 232.196487,21.614264 
	C237.837036,22.281006 238.273438,26.069340 238.142715,30.666273 
	C237.924973,38.323505 237.937180,45.995731 238.134521,53.654377 
	C238.450012,65.898605 244.314178,73.215576 255.124313,74.869171 
	C258.391052,75.368889 261.778198,75.475945 265.080841,75.276627 
	C278.140198,74.488525 285.531464,66.974838 285.990356,53.895550 
	C286.258911,46.240784 286.322021,38.561665 286.030884,30.910496 
	C285.840332,25.902897 286.459595,21.972221 292.346436,21.072151 
	C292.704956,21.017340 292.945312,20.189602 293.399597,19.469566 
	C286.319885,19.469566 279.733612,19.469566 273.147339,19.469566 
	C273.055420,19.883438 272.963501,20.297312 272.871552,20.711184 
	C274.102173,21.171209 275.613159,21.329556 276.502869,22.156397 
	C278.165070,23.701086 280.640564,25.582533 280.720673,27.413818 
	C281.127808,36.723530 281.234619,46.080448 280.758453,55.385620 
	C280.228302,65.746040 273.978088,71.629395 264.316956,71.850037 
	C253.396225,72.099434 246.874344,67.172234 245.924072,56.521339 
	C245.053833,46.767387 245.429489,36.902279 245.251862,26.205429 
M215.123199,68.406082 
	C213.239517,70.095177 211.355835,71.784279 208.780197,74.093857 
	C216.457321,74.093857 223.500290,74.093857 230.543259,74.093857 
	C223.617844,71.469734 222.067245,64.899086 219.530518,59.152981 
	C214.099792,46.851467 208.820404,34.483162 203.470764,22.145790 
	C202.833282,20.675613 202.144562,19.227650 200.907196,16.514109 
	C199.221863,18.804197 197.831039,20.103065 197.156509,21.703779 
	C191.552155,35.003624 186.113602,48.373219 180.549103,61.690044 
	C178.692123,66.134155 176.947937,70.736237 171.685226,72.477295 
	C171.290573,72.607857 171.250244,73.809532 171.183960,74.037025 
	C177.488602,74.037025 183.583603,74.037025 189.895599,74.037025 
	C189.564743,73.067947 189.557785,72.870071 189.455780,72.780708 
	C189.091187,72.461304 188.738037,72.042793 188.303024,71.902977 
	C183.291916,70.292305 182.666290,67.368378 184.723709,62.689350 
	C188.203476,54.775562 187.970703,54.673206 196.465729,54.741299 
	C210.255951,54.851833 210.255951,54.851833 215.123199,68.406082 
M320.003632,40.589447 
	C317.928680,39.214737 315.745789,37.976028 313.803589,36.434086 
	C310.737000,33.999428 309.891968,30.673487 311.034821,27.016155 
	C312.181152,23.347708 315.166077,22.093758 318.742615,21.764147 
	C325.175385,21.171301 330.097992,23.374296 333.360229,29.138723 
	C334.077637,30.406384 335.430023,31.314678 336.489990,32.388451 
	C337.155579,32.004120 337.821136,31.619791 338.486694,31.235462 
	C337.116058,27.562616 336.770477,22.674828 334.159546,20.472023 
	C328.865540,16.005499 315.087921,17.389286 309.512299,21.686722 
	C302.605194,27.010403 302.205505,36.374180 309.004120,41.879341 
	C312.462524,44.679806 316.545746,46.706718 320.336090,49.099842 
	C323.846191,51.316044 327.663361,53.181877 330.774811,55.863869 
	C336.442322,60.749115 334.464355,68.998604 327.302612,71.163818 
	C321.084564,73.043716 315.418121,71.935371 310.716248,67.275757 
	C309.188934,65.762161 308.005890,63.905853 306.534027,62.328892 
	C306.053162,61.813702 305.060852,61.328873 304.477295,61.484745 
	C303.915680,61.634750 303.264191,62.599174 303.197601,63.260658 
	C302.828949,66.923943 306.853149,73.263275 310.416992,74.209480 
	C317.308258,76.039124 324.310760,76.303017 330.999573,73.516541 
	C341.810059,69.013039 343.654541,56.093033 334.369873,49.021866 
	C330.176270,45.828072 325.253876,43.591232 320.003632,40.589447 
M378.185822,31.586143 
	C378.187195,29.421864 378.029541,27.240278 378.262360,25.101196 
	C378.366211,24.147213 379.038635,22.809624 379.823090,22.447145 
	C385.113190,20.002745 395.421234,24.090857 397.876740,29.405537 
	C398.541412,30.844152 399.361206,32.211086 400.109833,33.610912 
	C400.680603,33.443741 401.251404,33.276566 401.822174,33.109394 
	C401.473450,28.367224 401.124695,23.625055 400.785370,19.010954 
	C383.105255,19.010954 366.168396,19.010954 348.885376,19.010954 
	C348.374573,24.031975 347.879211,28.901558 347.383850,33.771141 
	C347.887543,34.181721 348.391235,34.592297 348.894958,35.002872 
	C352.544495,23.365992 360.579956,20.994570 371.023926,22.707510 
	C371.023926,34.839630 370.817871,46.490250 371.104279,58.128754 
	C371.265747,64.689781 371.504669,70.852547 363.418152,72.948616 
	C363.349579,72.966393 363.351898,73.257759 363.218750,73.965851 
	C371.138153,73.965851 378.953766,73.965851 386.769409,73.965851 
	C386.305542,72.688522 385.695068,72.038300 385.012726,71.951241 
	C379.347504,71.228416 377.885071,67.889565 378.072693,62.527573 
	C378.421783,52.551571 378.168579,42.554501 378.185822,31.586143 
M227.260498,112.672020 
	C227.908875,128.924423 239.692688,138.919937 255.863678,136.934418 
	C267.278931,135.532822 276.506531,126.122169 277.168945,115.206436 
	C277.912506,102.953896 271.048981,93.095398 259.304169,90.418510 
	C241.338104,86.323662 228.154251,98.001938 227.260498,112.672020 
M449.328613,128.122940 
	C448.361206,129.507095 447.702911,131.445801 446.376221,132.185318 
	C437.828918,136.949615 425.884186,133.680557 421.055847,125.110641 
	C416.580444,117.167183 416.661957,108.805145 420.651123,100.707466 
	C423.706787,94.504700 429.467285,92.349861 435.995941,92.291885 
	C442.193817,92.236839 447.433350,94.166626 450.269989,100.362122 
	C450.810974,101.543777 452.106476,102.379982 453.560760,103.908226 
	C454.945160,93.361702 454.055603,91.740166 445.141418,90.360573 
	C440.592041,89.656494 435.793579,89.521233 431.236267,90.115280 
	C420.105988,91.566116 411.466309,101.301628 410.984344,112.188324 
	C410.450714,124.242676 417.103729,133.801056 429.169617,135.956741 
	C435.293457,137.050842 441.950439,135.933823 448.250854,135.019836 
	C453.227173,134.297943 456.056152,131.079437 455.166290,125.454094 
	C454.471222,121.059990 454.711334,116.914215 460.378906,115.825798 
	C460.433075,115.815407 460.385651,115.276184 460.385651,114.595642 
	C454.636383,114.595642 448.896820,114.595642 442.611816,114.595642 
	C449.331177,119.796738 449.331177,119.796738 449.328613,128.122940 
M373.303497,100.672516 
	C373.303497,109.492722 373.273651,118.313072 373.317810,127.133057 
	C373.335999,130.768845 373.999329,134.665909 368.816681,135.875168 
	C379.741516,135.875168 390.666351,135.875168 401.676819,135.875168 
	C402.032257,132.556396 402.349365,129.595581 402.666443,126.634766 
	C402.345093,126.353912 402.023712,126.073059 401.702332,125.792213 
	C397.907654,134.791000 390.521912,133.836945 383.430878,132.943756 
	C381.872681,132.747482 379.485779,130.620941 379.346527,129.200363 
	C378.848053,124.115913 379.151245,118.952858 379.151245,113.569534 
	C384.900879,113.270073 390.732910,111.457001 393.627319,118.904633 
	C393.627319,114.396423 393.627319,109.888206 393.627319,105.379997 
	C391.142273,113.694099 384.500061,109.331764 379.132599,111.166565 
	C379.132599,105.478134 378.958221,100.689812 379.285645,95.936073 
	C379.348145,95.028770 381.400879,93.530212 382.519043,93.544960 
	C388.695099,93.626389 395.689423,91.735924 399.811340,99.307434 
	C399.811340,96.328941 399.811340,93.350449 399.811340,90.805542 
	C389.202301,90.805542 378.861145,90.805542 369.850220,90.805542 
	C371.005707,93.791855 372.154602,96.761040 373.303497,100.672516 
M470.082855,134.270142 
	C469.417358,134.599014 468.751831,134.927872 466.734161,135.924942 
	C479.065308,135.924942 489.906403,135.924942 501.152008,135.924942 
	C501.483307,132.852051 501.809784,129.823807 502.136261,126.795570 
	C496.277527,132.966797 489.745880,135.197067 482.004333,132.895203 
	C480.762543,132.525955 479.119995,130.817429 479.051941,129.647278 
	C478.737213,124.232269 478.912872,118.788757 478.912872,113.400803 
	C484.858765,113.193527 490.572906,111.872627 493.298401,118.895828 
	C493.298401,114.353745 493.298401,109.811661 493.298401,105.269569 
	C490.628510,113.434059 484.140961,109.589264 479.142944,110.848572 
	C479.142944,104.775467 479.142944,99.362076 479.142944,93.420410 
	C486.278381,94.163925 494.189117,90.652924 499.278107,99.390800 
	C499.489899,96.426704 499.701691,93.462616 499.893921,90.772194 
	C488.887329,90.772194 478.539093,90.772194 468.948425,90.772194 
	C470.294739,93.245674 472.682251,95.659073 472.786316,98.167206 
	C473.220886,108.641434 473.053497,119.145561 472.875305,129.634796 
	C472.849731,131.139206 471.558533,132.622101 470.082855,134.270142 
M216.518616,101.014839 
	C215.926575,92.027908 214.816376,90.781822 205.675552,89.999870 
	C202.050964,89.689812 198.330109,89.575668 194.734787,90.025444 
	C183.422302,91.440636 174.595505,101.072189 174.018112,112.231972 
	C173.415024,123.888832 180.094543,133.546127 191.776291,135.901596 
	C197.613708,137.078644 203.935333,136.324066 209.986221,135.820984 
	C214.652740,135.433029 217.463333,132.432785 217.483078,127.493156 
	C217.488159,126.224358 216.948883,124.953377 216.659698,123.683403 
	C215.670685,124.543739 214.259811,125.210678 213.762146,126.296257 
	C210.851242,132.645813 205.801910,134.834152 199.173645,134.340012 
	C186.732468,133.412521 178.861389,121.983131 181.251068,108.276367 
	C182.796249,99.413498 187.976776,93.992340 196.304169,92.524086 
	C204.130249,91.144203 207.907288,93.304245 213.066193,102.108299 
	C214.442581,104.457207 215.615631,104.592354 216.518616,101.014839 
M411.427765,18.908335 
	C407.963928,20.192568 409.857483,20.927809 411.755676,21.323586 
	C415.439606,22.091692 416.281342,24.411787 416.234161,27.870754 
	C416.082306,39.003498 415.921143,50.147987 416.283966,61.270966 
	C416.470337,66.984627 416.296783,71.782059 409.277618,72.828156 
	C409.231384,72.835045 409.271881,73.423744 409.271881,73.550110 
	C416.197815,73.550110 423.111694,73.550110 430.025574,73.550110 
	C430.352142,73.102364 430.678741,72.654617 431.005341,72.206871 
	C422.784546,71.825005 423.034668,66.623413 423.136139,61.208733 
	C423.313568,51.739155 423.464264,42.252651 423.084015,32.795036 
	C422.845337,26.858519 423.209961,21.871296 430.229889,20.363140 
	C430.326538,20.342373 430.305756,19.774990 430.395355,18.952650 
	C424.316376,18.952650 418.284546,18.952650 411.427765,18.908335 
M327.974884,135.499649 
	C338.612000,135.499649 349.249146,135.499649 360.215271,135.499649 
	C360.509155,132.751144 360.836853,129.686325 361.164581,126.621506 
	C360.744019,126.285553 360.323486,125.949600 359.902954,125.613647 
	C357.429901,133.567490 351.482697,133.568192 345.257324,133.334518 
	C340.501099,133.155991 338.352234,131.209091 338.534119,126.259735 
	C338.790771,119.275574 338.414001,112.268433 338.659363,105.283463 
	C338.844635,100.008675 335.994843,93.465698 343.782959,90.608368 
	C338.544678,90.608368 333.306366,90.608368 328.068054,90.608368 
	C334.186066,93.626572 332.815277,99.029999 332.840790,103.871651 
	C332.883789,112.030617 332.727112,120.192802 332.911163,128.347839 
	C332.990082,131.845703 332.065277,134.189728 327.974884,135.499649 
M292.047272,101.686768 
	C292.047272,109.511314 292.086700,117.336143 292.031250,125.160294 
	C292.001862,129.309662 293.589050,134.202820 287.564453,136.039642 
	C298.135437,136.039642 308.706390,136.039642 319.549988,136.039642 
	C319.923767,132.727890 320.271057,129.650620 320.618378,126.573341 
	C320.281097,126.324471 319.943848,126.075607 319.606567,125.826736 
	C316.390961,133.712662 310.101471,133.874252 303.370300,133.214157 
	C299.488983,132.833542 297.843536,131.017975 297.926544,127.058846 
	C298.093994,119.071350 297.931824,111.077530 297.993256,103.086998 
	C298.029388,98.389671 296.124329,92.781380 303.153625,90.819397 
	C297.888885,90.819397 292.624176,90.819397 286.585693,90.819397 
	C292.007355,94.840950 292.007355,94.840950 292.047272,101.686768 
z"/>
<path fill="#FDB916" opacity="1.000000" stroke="none" 
	d="
M72.779068,23.769135 
	C63.689358,40.780270 54.559822,57.770287 45.522156,74.809029 
	C37.881775,89.213470 30.356480,103.678940 22.754471,118.103813 
	C21.919924,119.687370 20.915405,121.181358 19.778248,123.067696 
	C12.684701,114.094910 8.530727,104.274719 8.110705,93.483261 
	C7.340466,73.693787 7.425417,53.870731 7.179187,34.061363 
	C7.123289,29.564259 7.428001,25.046284 7.087266,20.574448 
	C6.828831,17.182720 8.292940,15.926974 11.270314,15.149805 
	C31.178877,9.953174 51.410107,7.321226 72.440063,7.755418 
	C72.860657,13.444514 72.819862,18.606825 72.779068,23.769135 
z"/>
<path fill="#B30A38" opacity="1.000000" stroke="none" 
	d="
M72.952316,24.103630 
	C72.819862,18.606825 72.860657,13.444514 72.884445,7.844696 
	C94.132912,7.068857 114.967033,10.033600 135.414978,15.754925 
	C136.463715,16.048363 137.903366,17.645184 137.894547,18.623764 
	C137.659286,44.738625 137.686295,70.868881 136.658051,96.956680 
	C136.284088,106.444359 131.871597,115.193993 125.323723,123.229965 
	C107.819107,90.100197 90.472343,57.269161 72.952316,24.103630 
z"/>
<path fill="#FCB717" opacity="1.000000" stroke="none" 
	d="
M72.840637,159.285965 
	C67.229332,156.133545 61.570591,153.062073 56.018391,149.808792 
	C48.594620,145.458878 41.253468,140.967972 33.504978,136.314285 
	C39.788254,124.626060 45.792992,113.376640 51.872524,102.167786 
	C58.746628,89.493973 65.687881,76.856575 72.778427,64.911980 
	C72.918159,96.842400 72.879402,128.064178 72.840637,159.285965 
z"/>
<path fill="#B30A39" opacity="1.000000" stroke="none" 
	d="
M73.215515,159.269531 
	C72.879402,128.064178 72.918159,96.842400 72.995995,65.125664 
	C83.431610,83.853874 93.830269,103.075882 104.223091,122.301048 
	C106.651009,126.792336 109.059120,131.294342 111.749138,136.298935 
	C98.801041,144.087799 86.195717,151.670456 73.215515,159.269531 
z"/>
<path fill="#0A0A0A" opacity="1.000000" stroke="none" 
	d="
M484.261108,49.737164 
	C487.320953,53.013962 490.141968,56.030224 493.964050,60.116829 
	C493.964050,54.700054 493.964020,50.513191 493.964020,46.326324 
	C493.964020,41.829151 493.794006,37.323944 494.005920,32.836777 
	C494.287964,26.865154 494.291748,21.234350 485.379059,20.586857 
	C485.780334,20.131426 486.181610,19.675995 486.582855,19.220564 
	C492.944733,19.220564 499.306610,19.220564 505.722046,19.220564 
	C505.666138,19.639992 505.693878,20.188822 505.574005,20.223228 
	C498.879761,22.144241 498.226868,27.105303 498.415070,33.096733 
	C498.812286,45.742447 498.711548,58.403988 498.792786,71.059181 
	C498.801788,72.458199 498.665741,73.858154 498.537476,76.466812 
	C483.534393,59.992657 469.364319,44.433167 454.121277,27.695549 
	C453.779175,30.657671 453.496002,32.002319 453.489288,33.348343 
	C453.447784,41.676243 453.468384,50.004444 453.468384,58.332546 
	C453.468384,67.526604 453.468414,67.526604 461.861908,73.725586 
	C454.797180,73.725586 448.474884,73.725586 442.152588,73.725586 
	C442.071106,73.461761 441.989655,73.197937 441.908173,72.934105 
	C442.805115,72.520103 443.671356,72.011314 444.604584,71.709419 
	C447.702545,70.707199 449.080566,68.716301 449.053650,65.379272 
	C448.954193,53.054489 449.374298,40.710434 448.760254,28.415514 
	C448.607391,25.354679 445.307709,22.450998 443.331635,19.277990 
	C448.573883,20.299742 454.869232,17.435545 460.188416,23.906593 
	C467.572998,32.890297 476.026428,40.995392 484.261108,49.737164 
z"/>
<path fill="#0C0C0C" opacity="1.000000" stroke="none" 
	d="
M245.253998,26.645790 
	C245.429489,36.902279 245.053833,46.767387 245.924072,56.521339 
	C246.874344,67.172234 253.396225,72.099434 264.316956,71.850037 
	C273.978088,71.629395 280.228302,65.746040 280.758453,55.385620 
	C281.234619,46.080448 281.127808,36.723530 280.720673,27.413818 
	C280.640564,25.582533 278.165070,23.701086 276.502869,22.156397 
	C275.613159,21.329556 274.102173,21.171209 272.871552,20.711184 
	C272.963501,20.297312 273.055420,19.883438 273.147339,19.469566 
	C279.733612,19.469566 286.319885,19.469566 293.399597,19.469566 
	C292.945312,20.189602 292.704956,21.017340 292.346436,21.072151 
	C286.459595,21.972221 285.840332,25.902897 286.030884,30.910496 
	C286.322021,38.561665 286.258911,46.240784 285.990356,53.895550 
	C285.531464,66.974838 278.140198,74.488525 265.080841,75.276627 
	C261.778198,75.475945 258.391052,75.368889 255.124313,74.869171 
	C244.314178,73.215576 238.450012,65.898605 238.134521,53.654377 
	C237.937180,45.995731 237.924973,38.323505 238.142715,30.666273 
	C238.273438,26.069340 237.837036,22.281006 232.196487,21.614264 
	C231.779282,21.564947 231.456604,20.715921 230.587662,19.584797 
	C238.247894,19.584797 245.193436,19.584797 252.273514,19.584797 
	C249.888962,21.833166 247.570419,24.019299 245.253998,26.645790 
z"/>
<path fill="#0D0D0D" opacity="1.000000" stroke="none" 
	d="
M215.074921,68.016098 
	C210.255951,54.851833 210.255951,54.851833 196.465729,54.741299 
	C187.970703,54.673206 188.203476,54.775562 184.723709,62.689350 
	C182.666290,67.368378 183.291916,70.292305 188.303024,71.902977 
	C188.738037,72.042793 189.091187,72.461304 189.455780,72.780708 
	C189.557785,72.870071 189.564743,73.067947 189.895599,74.037025 
	C183.583603,74.037025 177.488602,74.037025 171.183960,74.037025 
	C171.250244,73.809532 171.290573,72.607857 171.685226,72.477295 
	C176.947937,70.736237 178.692123,66.134155 180.549103,61.690044 
	C186.113602,48.373219 191.552155,35.003624 197.156509,21.703779 
	C197.831039,20.103065 199.221863,18.804197 200.907196,16.514109 
	C202.144562,19.227650 202.833282,20.675613 203.470764,22.145790 
	C208.820404,34.483162 214.099792,46.851467 219.530518,59.152981 
	C222.067245,64.899086 223.617844,71.469734 230.543259,74.093857 
	C223.500290,74.093857 216.457321,74.093857 208.780197,74.093857 
	C211.355835,71.784279 213.239517,70.095177 215.074921,68.016098 
M192.010635,45.522930 
	C191.341766,47.317856 190.672913,49.112782 189.825211,51.387627 
	C196.162308,51.387627 201.946823,51.387627 208.234589,51.387627 
	C205.001816,44.169388 202.028534,37.530514 198.583832,29.839033 
	C196.121338,35.681717 194.199142,40.242455 192.010635,45.522930 
z"/>
<path fill="#0D0D0D" opacity="1.000000" stroke="none" 
	d="
M320.332886,40.754829 
	C325.253876,43.591232 330.176270,45.828072 334.369873,49.021866 
	C343.654541,56.093033 341.810059,69.013039 330.999573,73.516541 
	C324.310760,76.303017 317.308258,76.039124 310.416992,74.209480 
	C306.853149,73.263275 302.828949,66.923943 303.197601,63.260658 
	C303.264191,62.599174 303.915680,61.634750 304.477295,61.484745 
	C305.060852,61.328873 306.053162,61.813702 306.534027,62.328892 
	C308.005890,63.905853 309.188934,65.762161 310.716248,67.275757 
	C315.418121,71.935371 321.084564,73.043716 327.302612,71.163818 
	C334.464355,68.998604 336.442322,60.749115 330.774811,55.863869 
	C327.663361,53.181877 323.846191,51.316044 320.336090,49.099842 
	C316.545746,46.706718 312.462524,44.679806 309.004120,41.879341 
	C302.205505,36.374180 302.605194,27.010403 309.512299,21.686722 
	C315.087921,17.389286 328.865540,16.005499 334.159546,20.472023 
	C336.770477,22.674828 337.116058,27.562616 338.486694,31.235462 
	C337.821136,31.619791 337.155579,32.004120 336.489990,32.388451 
	C335.430023,31.314678 334.077637,30.406384 333.360229,29.138723 
	C330.097992,23.374296 325.175385,21.171301 318.742615,21.764147 
	C315.166077,22.093758 312.181152,23.347708 311.034821,27.016155 
	C309.891968,30.673487 310.737000,33.999428 313.803589,36.434086 
	C315.745789,37.976028 317.928680,39.214737 320.332886,40.754829 
z"/>
<path fill="#0C0C0C" opacity="1.000000" stroke="none" 
	d="
M378.175964,32.076172 
	C378.168579,42.554501 378.421783,52.551571 378.072693,62.527573 
	C377.885071,67.889565 379.347504,71.228416 385.012726,71.951241 
	C385.695068,72.038300 386.305542,72.688522 386.769409,73.965851 
	C378.953766,73.965851 371.138153,73.965851 363.218750,73.965851 
	C363.351898,73.257759 363.349579,72.966393 363.418152,72.948616 
	C371.504669,70.852547 371.265747,64.689781 371.104279,58.128754 
	C370.817871,46.490250 371.023926,34.839630 371.023926,22.707510 
	C360.579956,20.994570 352.544495,23.365992 348.894958,35.002872 
	C348.391235,34.592297 347.887543,34.181721 347.383850,33.771141 
	C347.879211,28.901558 348.374573,24.031975 348.885376,19.010954 
	C366.168396,19.010954 383.105255,19.010954 400.785370,19.010954 
	C401.124695,23.625055 401.473450,28.367224 401.822174,33.109394 
	C401.251404,33.276566 400.680603,33.443741 400.109833,33.610912 
	C399.361206,32.211086 398.541412,30.844152 397.876740,29.405537 
	C395.421234,24.090857 385.113190,20.002745 379.823090,22.447145 
	C379.038635,22.809624 378.366211,24.147213 378.262360,25.101196 
	C378.029541,27.240278 378.187195,29.421864 378.175964,32.076172 
z"/>
<path fill="#0E0E0E" opacity="1.000000" stroke="none" 
	d="
M227.284149,112.247032 
	C228.154251,98.001938 241.338104,86.323662 259.304169,90.418510 
	C271.048981,93.095398 277.912506,102.953896 277.168945,115.206436 
	C276.506531,126.122169 267.278931,135.532822 255.863678,136.934418 
	C239.692688,138.919937 227.908875,128.924423 227.284149,112.247032 
M234.053970,111.637779 
	C234.255386,113.779892 234.254913,115.964172 234.692047,118.057053 
	C236.979782,129.010132 244.422440,134.739456 255.278488,134.042618 
	C263.961884,133.485229 269.936829,126.285103 270.587250,115.594666 
	C271.341522,103.198212 264.248077,93.880577 253.262817,92.837982 
	C242.256683,91.793419 235.545013,98.061707 234.053970,111.637779 
z"/>
<path fill="#111111" opacity="1.000000" stroke="none" 
	d="
M449.331116,127.674980 
	C449.331177,119.796738 449.331177,119.796738 442.611816,114.595642 
	C448.896820,114.595642 454.636383,114.595642 460.385651,114.595642 
	C460.385651,115.276184 460.433075,115.815407 460.378906,115.825798 
	C454.711334,116.914215 454.471222,121.059990 455.166290,125.454094 
	C456.056152,131.079437 453.227173,134.297943 448.250854,135.019836 
	C441.950439,135.933823 435.293457,137.050842 429.169617,135.956741 
	C417.103729,133.801056 410.450714,124.242676 410.984344,112.188324 
	C411.466309,101.301628 420.105988,91.566116 431.236267,90.115280 
	C435.793579,89.521233 440.592041,89.656494 445.141418,90.360573 
	C454.055603,91.740166 454.945160,93.361702 453.560760,103.908226 
	C452.106476,102.379982 450.810974,101.543777 450.269989,100.362122 
	C447.433350,94.166626 442.193817,92.236839 435.995941,92.291885 
	C429.467285,92.349861 423.706787,94.504700 420.651123,100.707466 
	C416.661957,108.805145 416.580444,117.167183 421.055847,125.110641 
	C425.884186,133.680557 437.828918,136.949615 446.376221,132.185318 
	C447.702911,131.445801 448.361206,129.507095 449.331116,127.674980 
z"/>
<path fill="#131313" opacity="1.000000" stroke="none" 
	d="
M373.303467,100.201370 
	C372.154602,96.761040 371.005707,93.791855 369.850220,90.805542 
	C378.861145,90.805542 389.202301,90.805542 399.811340,90.805542 
	C399.811340,93.350449 399.811340,96.328941 399.811340,99.307434 
	C395.689423,91.735924 388.695099,93.626389 382.519043,93.544960 
	C381.400879,93.530212 379.348145,95.028770 379.285645,95.936073 
	C378.958221,100.689812 379.132599,105.478134 379.132599,111.166565 
	C384.500061,109.331764 391.142273,113.694099 393.627319,105.379997 
	C393.627319,109.888206 393.627319,114.396423 393.627319,118.904633 
	C390.732910,111.457001 384.900879,113.270073 379.151245,113.569534 
	C379.151245,118.952858 378.848053,124.115913 379.346527,129.200363 
	C379.485779,130.620941 381.872681,132.747482 383.430878,132.943756 
	C390.521912,133.836945 397.907654,134.791000 401.702332,125.792213 
	C402.023712,126.073059 402.345093,126.353912 402.666443,126.634766 
	C402.349365,129.595581 402.032257,132.556396 401.676819,135.875168 
	C390.666351,135.875168 379.741516,135.875168 368.816681,135.875168 
	C373.999329,134.665909 373.335999,130.768845 373.317810,127.133057 
	C373.273651,118.313072 373.303497,109.492722 373.303467,100.201370 
z"/>
<path fill="#101010" opacity="1.000000" stroke="none" 
	d="
M470.467957,134.192551 
	C471.558533,132.622101 472.849731,131.139206 472.875305,129.634796 
	C473.053497,119.145561 473.220886,108.641434 472.786316,98.167206 
	C472.682251,95.659073 470.294739,93.245674 468.948425,90.772194 
	C478.539093,90.772194 488.887329,90.772194 499.893921,90.772194 
	C499.701691,93.462616 499.489899,96.426704 499.278107,99.390800 
	C494.189117,90.652924 486.278381,94.163925 479.142944,93.420410 
	C479.142944,99.362076 479.142944,104.775467 479.142944,110.848572 
	C484.140961,109.589264 490.628510,113.434059 493.298401,105.269569 
	C493.298401,109.811661 493.298401,114.353745 493.298401,118.895828 
	C490.572906,111.872627 484.858765,113.193527 478.912872,113.400803 
	C478.912872,118.788757 478.737213,124.232269 479.051941,129.647278 
	C479.119995,130.817429 480.762543,132.525955 482.004333,132.895203 
	C489.745880,135.197067 496.277527,132.966797 502.136261,126.795570 
	C501.809784,129.823807 501.483307,132.852051 501.152008,135.924942 
	C489.906403,135.924942 479.065308,135.924942 466.734161,135.924942 
	C468.751831,134.927872 469.417358,134.599014 470.467957,134.192551 
z"/>
<path fill="#0F0F0F" opacity="1.000000" stroke="none" 
	d="
M216.516312,101.401253 
	C215.615631,104.592354 214.442581,104.457207 213.066193,102.108299 
	C207.907288,93.304245 204.130249,91.144203 196.304169,92.524086 
	C187.976776,93.992340 182.796249,99.413498 181.251068,108.276367 
	C178.861389,121.983131 186.732468,133.412521 199.173645,134.340012 
	C205.801910,134.834152 210.851242,132.645813 213.762146,126.296257 
	C214.259811,125.210678 215.670685,124.543739 216.659698,123.683403 
	C216.948883,124.953377 217.488159,126.224358 217.483078,127.493156 
	C217.463333,132.432785 214.652740,135.433029 209.986221,135.820984 
	C203.935333,136.324066 197.613708,137.078644 191.776291,135.901596 
	C180.094543,133.546127 173.415024,123.888832 174.018112,112.231972 
	C174.595505,101.072189 183.422302,91.440636 194.734787,90.025444 
	C198.330109,89.575668 202.050964,89.689812 205.675552,89.999870 
	C214.816376,90.781822 215.926575,92.027908 216.516312,101.401253 
z"/>
<path fill="#0A0A0A" opacity="1.000000" stroke="none" 
	d="
M411.840240,18.930492 
	C418.284546,18.952650 424.316376,18.952650 430.395355,18.952650 
	C430.305756,19.774990 430.326538,20.342373 430.229889,20.363140 
	C423.209961,21.871296 422.845337,26.858519 423.084015,32.795036 
	C423.464264,42.252651 423.313568,51.739155 423.136139,61.208733 
	C423.034668,66.623413 422.784546,71.825005 431.005341,72.206871 
	C430.678741,72.654617 430.352142,73.102364 430.025574,73.550110 
	C423.111694,73.550110 416.197815,73.550110 409.271881,73.550110 
	C409.271881,73.423744 409.231384,72.835045 409.277618,72.828156 
	C416.296783,71.782059 416.470337,66.984627 416.283966,61.270966 
	C415.921143,50.147987 416.082306,39.003498 416.234161,27.870754 
	C416.281342,24.411787 415.439606,22.091692 411.755676,21.323586 
	C409.857483,20.927809 407.963928,20.192568 411.840240,18.930492 
z"/>
<path fill="#141414" opacity="1.000000" stroke="none" 
	d="
M328.173157,135.163345 
	C332.065277,134.189728 332.990082,131.845703 332.911163,128.347839 
	C332.727112,120.192802 332.883789,112.030617 332.840790,103.871651 
	C332.815277,99.029999 334.186066,93.626572 328.068054,90.608368 
	C333.306366,90.608368 338.544678,90.608368 343.782959,90.608368 
	C335.994843,93.465698 338.844635,100.008675 338.659363,105.283463 
	C338.414001,112.268433 338.790771,119.275574 338.534119,126.259735 
	C338.352234,131.209091 340.501099,133.155991 345.257324,133.334518 
	C351.482697,133.568192 357.429901,133.567490 359.902954,125.613647 
	C360.323486,125.949600 360.744019,126.285553 361.164581,126.621506 
	C360.836853,129.686325 360.509155,132.751144 360.215271,135.499649 
	C349.249146,135.499649 338.612000,135.499649 328.173157,135.163345 
z"/>
<path fill="#0E0E0E" opacity="1.000000" stroke="none" 
	d="
M292.047272,101.218269 
	C292.007355,94.840950 292.007355,94.840950 286.585693,90.819397 
	C292.624176,90.819397 297.888885,90.819397 303.153625,90.819397 
	C296.124329,92.781380 298.029388,98.389671 297.993256,103.086998 
	C297.931824,111.077530 298.093994,119.071350 297.926544,127.058846 
	C297.843536,131.017975 299.488983,132.833542 303.370300,133.214157 
	C310.101471,133.874252 316.390961,133.712662 319.606567,125.826736 
	C319.943848,126.075607 320.281097,126.324471 320.618378,126.573341 
	C320.271057,129.650620 319.923767,132.727890 319.549988,136.039642 
	C308.706390,136.039642 298.135437,136.039642 287.564453,136.039642 
	C293.589050,134.202820 292.001862,129.309662 292.031250,125.160294 
	C292.086700,117.336143 292.047272,109.511314 292.047272,101.218269 
z"/>
<path fill="#F2F1F1" opacity="1.000000" stroke="none" 
	d="
M192.143799,45.163059 
	C194.199142,40.242455 196.121338,35.681717 198.583832,29.839033 
	C202.028534,37.530514 205.001816,44.169388 208.234589,51.387627 
	C201.946823,51.387627 196.162308,51.387627 189.825211,51.387627 
	C190.672913,49.112782 191.341766,47.317856 192.143799,45.163059 
z"/>
<path fill="#FBFBFB" opacity="1.000000" stroke="none" 
	d="
M234.059326,111.202835 
	C235.545013,98.061707 242.256683,91.793419 253.262817,92.837982 
	C264.248077,93.880577 271.341522,103.198212 270.587250,115.594666 
	C269.936829,126.285103 263.961884,133.485229 255.278488,134.042618 
	C244.422440,134.739456 236.979782,129.010132 234.692047,118.057053 
	C234.254913,115.964172 234.255386,113.779892 234.059326,111.202835 
z"/>
</svg>