<svg version="1.1" id="Layer_1" xmlns="http://www.w3.org/2000/svg" xmlns:xlink="http://www.w3.org/1999/xlink" x="0px" y="0px"
	 width="100%" viewBox="0 0 685 229" enable-background="new 0 0 685 229" xml:space="preserve">
<path fill="none" opacity="1.000000" stroke="#000000" stroke-linecap="round" stroke-linejoin="round" stroke-width="2.000000"
	d="
M685.500000,1.500000 
	C457.666656,1.500000 229.833328,1.500000 1.750000,1.500000 
	C1.750000,77.332603 1.750000,153.166306 1.750000,229.250000 
	C229.499756,229.250000 457.499878,229.250000 685.500000,229.250000 
	C685.500000,154.166672 685.500000,78.833336 685.500000,3.500000 
"/>
<path fill="none" opacity="1.000000" stroke="#000000" stroke-linecap="round" stroke-linejoin="round" stroke-width="6.000000"
	d="
M474.500000,85.500000 
	C474.500000,94.333336 474.610809,103.168938 474.429779,111.998558 
	C474.378174,114.514992 475.226257,115.802658 477.496552,116.511002 
	C484.339203,118.645950 491.002625,118.208473 496.416138,113.405495 
	C502.069061,108.390091 502.667603,101.417336 500.905151,94.524246 
	C499.140106,87.620758 493.738739,84.853142 487.007202,83.946465 
	C483.033417,83.411240 479.180847,82.913139 475.500000,85.000000 
"/>
<path fill="none" opacity="1.000000" stroke="#000000" stroke-linecap="round" stroke-linejoin="round" stroke-width="6.000000"
	d="
M323.500000,85.500000 
	C323.500000,94.166664 323.713959,102.841431 323.386688,111.495712 
	C323.268402,114.622368 324.613434,116.041130 327.009186,116.976456 
	C335.521851,120.299881 346.552307,115.234032 350.000000,106.500000 
	C353.391541,97.908104 348.654816,87.574631 339.467926,84.599022 
	C334.609863,83.025513 329.419708,82.424789 324.500000,85.000000 
"/>
<path fill="none" opacity="1.000000" stroke="#000000" stroke-linecap="round" stroke-linejoin="round" stroke-width="3.000000"
	d="
M232.500000,89.500000 
	C232.473221,85.804710 230.831421,83.307930 226.996643,83.049835 
	C223.118073,82.788780 219.348999,82.819046 217.427765,87.470161 
	C215.806839,91.394302 217.158630,94.121140 220.020081,96.475601 
	C222.591461,98.591400 225.324570,100.511826 228.002136,102.497124 
	C231.628525,105.185959 232.594543,108.885109 231.431503,112.980545 
	C230.433487,116.494904 225.702759,118.725868 221.009811,117.941338 
	C216.976273,117.267044 213.959137,115.225555 213.978027,110.499908 
	C213.979355,110.167259 213.666656,109.833336 213.500000,109.500000 
"/>
<path fill="none" opacity="1.000000" stroke="#000000" stroke-linecap="round" stroke-linejoin="round" stroke-width="5.000000"
	d="
M176.000000,95.500000 
	C171.887756,93.972946 167.689423,93.594940 163.509247,95.026978 
	C158.470215,96.753235 153.500000,96.331032 148.500000,95.000000 
"/>
<path fill="none" opacity="1.000000" stroke="#000000" stroke-linecap="round" stroke-linejoin="round" stroke-width="3.000000"
	d="
M157.500000,97.000000 
	C158.268417,107.819946 158.598251,118.653389 158.477020,129.648010 
	C164.173355,130.287872 169.430603,133.905182 175.500000,132.000000 
"/>
<path fill="none" opacity="1.000000" stroke="#000000" stroke-linecap="round" stroke-linejoin="round" stroke-width="3.000000"
	d="
M535.000000,88.500000 
	C534.936829,85.208923 533.325378,83.206924 529.998291,83.032478 
	C526.113098,82.828773 522.014893,82.413322 520.007385,87.003227 
	C518.692749,90.008774 518.973267,93.218933 521.105774,95.396400 
	C523.657654,98.001984 527.031799,99.790916 529.992126,102.010529 
	C533.845154,104.899521 535.424377,111.881020 533.000000,115.000000 
	C530.448914,118.282043 522.525940,119.195732 519.019836,116.474434 
	C516.785400,114.740150 517.030640,111.941444 516.500000,109.500000 
"/>
<path fill="none" opacity="1.000000" stroke="#000000" stroke-linecap="round" stroke-linejoin="round" stroke-width="2.000000"
	d="
M436.500000,131.500000 
	C436.174713,129.430450 435.145782,127.736923 432.994049,127.583031 
	C431.350647,127.465508 429.610413,126.941917 427.941315,128.434357 
	C425.610718,130.518265 425.146667,132.592194 427.036804,134.970749 
	C428.215210,136.453690 429.644257,137.703308 431.476166,138.551483 
	C434.112549,139.772110 435.925201,142.216171 435.307709,144.956680 
	C434.888428,146.817535 433.684174,149.109222 430.500458,149.121277 
	C426.919037,149.134872 424.790283,147.988113 424.000000,144.500000 
"/>
<path fill="none" opacity="1.000000" stroke="#000000" stroke-linecap="round" stroke-linejoin="round" stroke-width="2.000000"
	d="
M147.750000,91.500000 
	C148.478348,96.489792 147.790115,101.248520 144.962601,105.474983 
	C143.263443,108.014816 143.755951,110.770119 143.453323,113.494812 
	C142.784821,119.513298 141.862747,125.503624 140.951660,132.183334 
	C146.725327,133.478622 152.081833,131.400101 157.500000,130.000000 
"/>
<path fill="none" opacity="1.000000" stroke="#000000" stroke-linecap="round" stroke-linejoin="round" stroke-width="3.000000"
	d="
M232.000000,129.000000 
	C232.000000,133.000000 232.049408,137.000763 231.987503,140.999802 
	C231.910187,145.994354 229.101440,148.947571 224.500000,149.000000 
	C220.262421,149.048309 217.862091,146.495056 217.506317,141.499542 
	C217.304703,138.668716 217.302704,135.817032 216.965714,133.004105 
	C216.541458,129.462875 217.706604,127.456924 221.500000,127.500000 
"/>
<path fill="none" opacity="1.000000" stroke="#000000" stroke-linecap="round" stroke-linejoin="round" stroke-width="3.000000"
	d="
M403.500000,83.500000 
	C400.239410,82.942436 398.590607,84.741814 397.489502,87.495804 
	C394.352722,95.341087 391.065338,103.128532 388.088989,111.033508 
	C387.522095,112.539116 386.818604,113.404381 385.500000,114.000000 
"/>
<path fill="none" opacity="1.000000" stroke="#000000" stroke-linecap="round" stroke-linejoin="round" stroke-width="6.000000"
	d="
M293.500000,85.500000 
	C293.500000,95.500000 293.500000,105.500000 293.499512,115.505127 
	C298.799805,118.202118 304.495483,116.838272 310.000549,116.859421 
	C312.376770,116.868553 312.859833,113.821198 314.000000,112.000000 
"/>
<path fill="none" opacity="1.000000" stroke="#000000" stroke-linecap="round" stroke-linejoin="round" stroke-width="5.000000"
	d="
M252.000000,85.500000 
	C252.000000,95.500000 252.000000,105.500000 252.000000,115.500000 
"/>
<path fill="none" opacity="1.000000" stroke="#000000" stroke-linecap="round" stroke-linejoin="round" stroke-width="4.000000"
	d="
M371.000000,118.500000 
	C371.323700,113.947655 368.803894,110.353905 367.018555,106.491417 
	C363.951447,99.855766 360.862762,93.221756 358.141388,86.443230 
	C357.711365,85.372185 357.073914,85.111229 356.500000,84.500000 
"/>
<path fill="none" opacity="1.000000" stroke="#000000" stroke-linecap="round" stroke-linejoin="round" stroke-width="2.000000"
	d="
M441.000000,101.500000 
	C442.833344,101.500000 444.864197,100.985023 446.462372,101.598061 
	C450.977631,103.329979 452.711548,99.761200 454.948395,97.450058 
	C457.594299,94.716286 457.526093,91.140190 455.894562,88.055771 
	C454.462982,85.349327 451.534058,83.919907 448.490723,83.583977 
	C446.545807,83.369301 444.426453,82.950775 442.500000,84.000000 
"/>
<path fill="none" opacity="1.000000" stroke="#000000" stroke-linecap="round" stroke-linejoin="round" stroke-width="4.000000"
	d="
M385.500000,118.500000 
	C386.198395,113.541519 382.936188,109.778717 381.401886,105.535477 
	C378.994354,98.877350 375.247192,92.775986 372.865509,86.047600 
	C372.021484,83.663086 369.001007,83.464073 366.500000,83.500000 
"/>
<path fill="none" opacity="1.000000" stroke="#000000" stroke-linecap="round" stroke-linejoin="round" stroke-width="5.000000"
	d="
M359.000000,129.500000 
	C359.000000,134.333328 359.269867,139.187698 358.895447,143.991852 
	C358.681976,146.731125 360.111023,148.401932 361.992889,148.325394 
	C365.260498,148.192459 369.627991,150.599762 371.500000,145.500000 
"/>
<path fill="none" opacity="1.000000" stroke="#000000" stroke-linecap="round" stroke-linejoin="round" stroke-width="4.000000"
	d="
M515.500000,127.500000 
	C517.996216,128.078278 519.334106,129.683060 520.598022,131.945251 
	C523.245789,136.684479 525.081177,141.525650 525.000000,147.000000 
"/>
<path fill="none" opacity="1.000000" stroke="#000000" stroke-linecap="round" stroke-linejoin="round" stroke-width="4.000000"
	d="
M322.500000,129.500000 
	C323.686035,134.263702 326.022064,138.567490 328.063568,142.970520 
	C329.102173,145.210556 329.277832,147.260681 328.500000,149.500000 
"/>
<path fill="none" opacity="1.000000" stroke="#000000" stroke-linecap="round" stroke-linejoin="round" stroke-width="3.000000"
	d="
M413.000000,88.000000 
	C410.603333,90.128540 410.575745,93.303978 409.537720,96.014442 
	C406.955200,102.757919 404.564087,109.574707 401.971497,116.704842 
	C400.511536,116.917007 398.505768,117.208504 396.500000,117.500000 
"/>
<path fill="none" opacity="1.000000" stroke="#000000" stroke-linecap="round" stroke-linejoin="round" stroke-width="4.000000"
	d="
M256.500000,131.000000 
	C261.935242,134.295166 264.117493,140.825745 269.653839,144.159683 
	C270.892120,144.905380 270.916656,147.666672 271.500000,149.500000 
"/>
<path fill="none" opacity="1.000000" stroke="#000000" stroke-linecap="round" stroke-linejoin="round" stroke-width="5.000000"
	d="
M415.500000,82.500000 
	C414.740936,84.737877 414.886536,86.633003 415.835876,89.064087 
	C418.629395,96.217728 420.869080,103.610489 422.925751,111.020607 
	C424.205322,115.630783 426.724762,117.872734 431.500000,117.500000 
"/>
<path fill="none" opacity="1.000000" stroke="#000000" stroke-linecap="round" stroke-linejoin="round" stroke-width="2.000000"
	d="
M310.500000,89.500000 
	C310.703033,87.726059 310.219635,86.089409 309.051208,84.410408 
	C304.860840,83.563095 300.213867,82.845207 295.500000,84.000000 
"/>
<path fill="none" opacity="1.000000" stroke="#000000" stroke-linecap="round" stroke-linejoin="round" stroke-width="4.000000"
	d="
M451.000000,102.500000 
	C454.546051,108.870895 457.671692,115.635094 465.500000,118.000000 
"/>
<path fill="none" opacity="1.000000" stroke="#000000" stroke-linecap="round" stroke-linejoin="round" stroke-width="4.000000"
	d="
M296.500000,129.000000 
	C296.500000,134.000000 296.479645,139.000137 296.514465,143.999893 
	C296.523071,145.232300 296.017090,146.661789 297.500000,147.500000 
"/>
<path fill="none" opacity="1.000000" stroke="#000000" stroke-linecap="round" stroke-linejoin="round" stroke-width="5.000000"
	d="
M489.000000,129.500000 
	C489.000000,135.333328 489.000000,141.166672 489.000000,147.000000 
"/>
<path fill="none" opacity="1.000000" stroke="#000000" stroke-linecap="round" stroke-linejoin="round" stroke-width="5.000000"
	d="
M458.000000,129.500000 
	C458.000000,135.333328 458.000000,141.166672 458.000000,147.000000 
"/>
<path fill="none" opacity="1.000000" stroke="#000000" stroke-linecap="round" stroke-linejoin="round" stroke-width="3.000000"
	d="
M390.500000,83.500000 
	C387.462311,83.276794 385.519928,84.347069 384.414429,87.469704 
	C383.303558,90.607460 381.500031,93.500008 380.000031,96.500008 
"/>
<path fill="none" opacity="1.000000" stroke="#000000" stroke-linecap="round" stroke-linejoin="round" stroke-width="3.000000"
	d="
M251.500000,127.500000 
	C255.084747,128.089447 256.753082,128.932281 255.283676,133.589508 
	C253.944580,137.833679 255.000000,142.833328 255.000000,147.500000 
"/>
<path fill="none" opacity="1.000000" stroke="#000000" stroke-linecap="round" stroke-linejoin="round" stroke-width="6.000000"
	d="
M440.500000,85.500000 
	C440.500000,95.500000 440.500000,105.500000 440.500000,115.500000 
"/>
<path fill="none" opacity="1.000000" stroke="#000000" stroke-linecap="round" stroke-linejoin="round" stroke-width="2.000000"
	d="
M340.500000,127.500000 
	C338.500885,127.528824 337.884216,128.574005 336.787262,130.370087 
	C334.110809,134.752335 333.537476,140.124374 330.000000,144.000000 
"/>
<path fill="none" opacity="1.000000" stroke="#000000" stroke-linecap="round" stroke-linejoin="round" stroke-width="2.000000"
	d="
M268.500000,81.500000 
	C268.021576,82.512215 267.543152,83.524437 267.074036,84.517021 
	C262.154510,84.314262 257.420471,82.216606 252.390823,84.786293 
	C250.758728,85.620125 248.074188,83.394913 245.500626,83.381401 
	C241.105148,83.358330 237.451828,84.070312 235.500000,88.500000 
"/>
<path fill="none" opacity="1.000000" stroke="#000000" stroke-linecap="round" stroke-linejoin="round" stroke-width="2.000000"
	d="
M534.500000,127.500000 
	C532.258484,127.628723 531.273682,128.932404 530.409668,130.961533 
	C529.278320,133.618500 527.500000,135.999985 526.000000,138.499985 
"/>
<path fill="none" opacity="1.000000" stroke="#000000" stroke-linecap="round" stroke-linejoin="round" stroke-width="3.000000"
	d="
M399.000000,139.499985 
	C399.166656,139.333328 399.384491,139.194427 399.492249,138.995789 
	C400.928955,136.347198 404.445801,134.031693 401.456390,130.537308 
	C399.029999,127.701035 396.072449,126.506966 392.436523,128.903717 
	C391.892609,129.262268 390.500000,128.333328 389.500000,128.000000 
"/>
<path fill="none" opacity="1.000000" stroke="#000000" stroke-linecap="round" stroke-linejoin="round" stroke-width="3.000000"
	d="
M379.000000,102.000000 
	C376.591583,103.505074 376.023071,106.138771 374.993835,108.497307 
	C374.113190,110.515274 373.187866,112.516960 371.000000,113.500000 
"/>
<path fill="none" opacity="1.000000" stroke="#000000" stroke-linecap="round" stroke-linejoin="round" stroke-width="2.000000"
	d="
M149.500000,119.500000 
	C149.206573,123.754692 147.027481,127.459404 146.000000,131.500000 
"/>
<path fill="none" opacity="1.000000" stroke="#000000" stroke-linecap="round" stroke-linejoin="round" stroke-width="3.000000"
	d="
M369.500000,131.500000 
	C368.957550,125.477966 364.166931,127.972015 361.533417,128.283005 
	C359.223846,128.555725 357.433746,128.461578 355.500000,127.500000 
"/>
<path fill="none" opacity="1.000000" stroke="#000000" stroke-linecap="round" stroke-linejoin="round" stroke-width="3.000000"
	d="
M164.500000,87.000000 
	C160.500000,83.662582 156.500000,82.790062 152.500000,87.000000 
"/>
<path fill="none" opacity="1.000000" stroke="#000000" stroke-linecap="round" stroke-linejoin="round" stroke-width="2.000000"
	d="
M507.500000,93.500000 
	C513.411987,88.512260 513.563904,86.992867 508.500000,83.500000 
"/>
<path fill="none" opacity="1.000000" stroke="#000000" stroke-linecap="round" stroke-linejoin="round" stroke-width="3.000000"
	d="
M306.000000,99.500000 
	C302.204559,100.538445 298.330200,99.760986 294.500000,100.000000 
"/>
<path fill="none" opacity="1.000000" stroke="#000000" stroke-linecap="round" stroke-linejoin="round" stroke-width="3.000000"
	d="
M499.000000,130.500000 
	C499.247986,128.585358 498.418793,127.918518 496.499146,127.966209 
	C492.168488,128.073807 487.832245,128.057587 483.500488,127.974167 
	C481.524567,127.936104 479.831451,128.063644 479.500000,130.500000 
"/>
<path fill="none" opacity="1.000000" stroke="#000000" stroke-linecap="round" stroke-linejoin="round" stroke-width="3.000000"
	d="
M408.000000,102.500000 
	C411.627472,103.528702 415.336914,102.754662 419.000000,103.000000 
"/>
<path fill="none" opacity="1.000000" stroke="#000000" stroke-linecap="round" stroke-linejoin="round" stroke-width="4.000000"
	d="
M393.000000,139.000000 
	C396.506348,138.010193 398.960297,139.341843 400.488373,142.505615 
	C401.908844,145.446686 404.016388,147.650284 407.000000,149.000000 
"/>
<path fill="none" opacity="1.000000" stroke="#000000" stroke-linecap="round" stroke-linejoin="round" stroke-width="5.000000"
	d="
M154.000000,137.500000 
	C154.000000,140.666672 154.000000,143.833328 154.000000,147.000000 
"/>
<path fill="none" opacity="1.000000" stroke="#000000" stroke-linecap="round" stroke-linejoin="round" stroke-width="5.000000"
	d="
M392.000000,129.500000 
	C392.000000,135.333328 392.000000,141.166672 392.000000,147.000000 
"/>
<path fill="none" opacity="1.000000" stroke="#000000" stroke-linecap="round" stroke-linejoin="round" stroke-width="2.000000"
	d="
M271.000000,129.000000 
	C270.816711,133.500000 272.224823,138.000000 271.000000,142.500000 
"/>
<path fill="none" opacity="1.000000" stroke="#000000" stroke-linecap="round" stroke-linejoin="round" stroke-width="4.000000"
	d="
M147.000000,139.500000 
	C147.971588,142.116364 147.301010,144.835358 147.500000,147.500000 
"/>
<path fill="none" opacity="1.000000" stroke="#000000" stroke-linecap="round" stroke-linejoin="round" stroke-width="3.000000"
	d="
M360.000000,138.000000 
	C362.166656,138.000000 364.333344,138.000000 366.500000,138.000000 
"/>
<path fill="none" opacity="1.000000" stroke="#000000" stroke-linecap="round" stroke-linejoin="round" stroke-width="2.000000"
	d="
M245.500000,117.500000 
	C249.833328,116.091087 254.166672,116.091087 258.500000,117.500000 
"/>
<path fill="none" opacity="1.000000" stroke="#000000" stroke-linecap="round" stroke-linejoin="round" stroke-width="2.000000"
	d="
M292.500000,116.000000 
	C290.797272,117.689064 288.642059,117.568184 286.500000,117.500000 
"/>
<path fill="none" opacity="1.000000" stroke="#000000" stroke-linecap="round" stroke-linejoin="round" stroke-width="2.000000"
	d="
M292.500000,85.000000 
	C291.072632,83.702370 289.365204,83.338234 287.500000,83.500000 
"/>
<path fill="none" opacity="1.000000" stroke="#000000" stroke-linecap="round" stroke-linejoin="round" stroke-width="3.000000"
	d="
M307.500000,94.500000 
	C306.785126,97.833336 306.089294,101.166664 307.500000,104.500000 
"/>
<path fill="none" opacity="1.000000" stroke="#000000" stroke-linecap="round" stroke-linejoin="round" stroke-width="2.000000"
	d="
M266.500000,85.000000 
	C267.281586,86.400391 267.691010,87.883484 267.500000,89.500000 
"/>
<path fill="none" opacity="1.000000" stroke="#000000" stroke-linecap="round" stroke-linejoin="round" stroke-width="3.000000"
	d="
M318.500000,127.500000 
	C320.833344,128.815933 323.166656,129.192230 325.500000,127.500000 
"/>
<path fill="none" opacity="1.000000" stroke="#000000" stroke-linecap="round" stroke-linejoin="round" stroke-width="2.000000"
	d="
M462.500000,127.500000 
	C459.833344,127.979301 457.166656,129.908920 454.500000,127.500000 
"/>
<path fill="none" opacity="1.000000" stroke="#000000" stroke-linecap="round" stroke-linejoin="round" stroke-width="2.000000"
	d="
M355.500000,84.000000 
	C354.278076,82.941986 352.820648,83.768204 351.500000,83.500000 
"/>
<path fill="none" opacity="1.000000" stroke="#000000" stroke-linecap="round" stroke-linejoin="round" stroke-width="2.000000"
	d="
M397.500000,84.000000 
	C396.278076,82.941986 394.820648,83.768204 393.500000,83.500000 
"/>
<path fill="none" opacity="1.000000" stroke="#000000" stroke-linecap="round" stroke-linejoin="round" stroke-width="2.000000"
	d="
M300.500000,127.500000 
	C297.833344,128.386185 295.166656,128.386185 292.500000,127.500000 
"/>
<path fill="none" opacity="1.000000" stroke="#000000" stroke-linecap="round" stroke-linejoin="round" stroke-width="2.000000"
	d="
M152.000000,109.000000 
	C152.166672,110.166664 152.333328,111.333336 152.500000,112.500000 
"/>
<path fill="none" opacity="1.000000" stroke="#000000" stroke-linecap="round" stroke-linejoin="round" stroke-width="2.000000"
	d="
M234.500000,127.500000 
	C232.500000,129.435287 230.500000,127.340950 228.500000,127.500000 
"/>
<path fill="none" opacity="1.000000" stroke="#000000" stroke-linecap="round" stroke-linejoin="round" stroke-width="2.000000"
	d="
M274.500000,127.500000 
	C272.500000,127.340950 270.500000,129.435287 268.500000,127.500000 
"/>
<path fill="none" opacity="1.000000" stroke="#000000" stroke-linecap="round" stroke-linejoin="round" stroke-width="2.000000"
	d="
M367.500000,135.500000 
	C367.500000,137.166672 367.500000,138.833328 367.500000,140.500000 
"/>
<path fill="none" opacity="1.000000" stroke="#000000" stroke-linecap="round" stroke-linejoin="round" stroke-width="2.000000"
	d="
M257.500000,148.500000 
	C255.833328,148.500000 254.166672,148.500000 252.500000,148.500000 
"/>
</svg>