<svg version="1.1" id="Layer_1" xmlns="http://www.w3.org/2000/svg" xmlns:xlink="http://www.w3.org/1999/xlink" x="0px" y="0px"
	 width="100%" viewBox="0 0 474 106" enable-background="new 0 0 474 106" xml:space="preserve">
<path fill="#FBFCFD" opacity="1.000000" stroke="none" 
	d="
M475.000000,92.000000 
	C475.000000,96.995087 475.000000,101.990173 475.000000,106.992630 
	C332.311890,107.000000 189.623810,107.000000 46.649620,106.681297 
	C54.769676,103.909248 61.817829,99.213470 68.340103,93.104980 
	C68.808975,92.687729 69.013985,92.379112 69.523422,91.941284 
	C77.070656,84.712021 82.231842,76.321152 85.377480,66.687813 
	C91.734558,47.219559 90.170609,27.089317 90.876823,6.161796 
	C80.014885,4.684558 69.544952,3.260634 59.049339,1.628155 
	C59.023666,1.419599 59.000000,1.000000 59.000000,1.000000 
	C197.545425,1.000000 336.090851,1.000000 475.000000,1.000000 
	C475.000000,28.353689 475.000000,55.708992 474.647766,83.526901 
	C473.423492,83.429298 472.565002,82.846344 471.675354,82.315643 
	C470.882385,81.842598 470.054932,81.427330 469.242706,80.986557 
	C469.161407,81.992462 469.080109,82.998360 468.556702,83.875687 
	C466.722961,83.820778 465.331329,83.894440 464.356201,83.946053 
	C464.356201,86.999733 464.356201,89.473358 464.356201,93.267677 
	C465.497681,91.069199 465.963043,90.172928 466.458954,89.217842 
	C467.692047,90.247169 468.674683,91.067398 470.440338,92.541260 
	C469.894287,90.664436 469.670746,89.896011 469.788391,88.962616 
	C470.747894,87.678650 471.366180,86.559647 471.879364,85.630867 
	C472.991028,87.899719 473.995514,89.949860 475.000000,92.000000 
M460.758453,84.982841 
	C461.190857,84.335503 461.623291,83.688164 462.491455,82.779327 
	C462.466919,82.388046 462.442413,81.996773 462.417877,81.605492 
	C462.258606,82.050987 462.099304,82.496483 461.307220,83.043503 
	C460.828125,83.663452 460.349030,84.283401 459.470245,85.210991 
	C459.501251,85.613342 459.532257,86.015686 459.563232,86.418037 
	C459.758942,85.991455 459.954651,85.564873 460.758453,84.982841 
M380.662750,24.144579 
	C381.667450,25.564201 382.672150,26.983824 383.676849,28.403446 
	C384.073059,28.159151 384.469238,27.914858 384.865417,27.670563 
	C384.865417,25.775705 384.865417,23.880850 384.595947,21.159164 
	C377.179626,21.108545 369.763214,21.020536 362.346985,21.031311 
	C360.266266,21.034334 360.266449,21.167610 361.503113,23.851303 
	C362.043518,24.913237 363.049103,25.973972 363.051849,27.037287 
	C363.077148,36.859695 362.929199,46.682552 361.990509,56.796684 
	C361.216003,57.226936 360.441528,57.657192 359.667023,58.087444 
	C359.787964,58.396683 359.908875,58.705925 360.029816,59.015167 
	C368.558868,59.015167 377.087921,59.015167 385.660767,59.015167 
	C385.660767,56.675377 385.660767,54.503323 385.660767,52.331268 
	C385.279938,52.152946 384.899109,51.974625 384.518280,51.796307 
	C383.449188,53.312214 382.380096,54.828121 380.889832,56.941219 
	C378.364838,56.941219 375.228638,56.941219 371.460510,56.474968 
	C370.941162,51.175438 370.421814,45.875912 369.755219,39.073647 
	C374.527771,40.559227 377.740356,41.559223 380.745605,42.494686 
	C380.745605,40.818459 380.745605,38.478859 380.745605,35.807270 
	C379.247437,36.787979 378.156799,37.501919 376.233765,37.979427 
	C374.803253,38.058239 373.372742,38.137051 371.159515,37.936596 
	C370.863251,33.296097 370.566986,28.655600 370.269745,24.000195 
	C373.451569,23.791758 375.743256,23.641634 378.658020,23.707790 
	C379.095886,23.720282 379.533722,23.732773 380.662750,24.144579 
M253.762650,48.918159 
	C253.883179,49.600189 254.003693,50.282223 254.078659,51.676350 
	C256.049713,56.640408 259.147522,60.125771 265.853302,60.204231 
	C271.715332,60.553425 276.795349,59.491421 279.225800,52.229435 
	C279.567200,48.773174 279.784210,45.299091 280.276276,41.864414 
	C281.260651,34.993458 277.217590,27.244154 284.294952,21.532305 
	C280.219879,21.532305 276.638489,21.532305 273.057068,21.532305 
	C277.997620,23.760103 276.867188,27.895811 276.903625,31.521437 
	C276.962097,37.345989 276.958313,43.171169 276.707825,49.662220 
	C274.604309,56.943256 273.592377,57.733616 265.543854,57.539516 
	C263.870209,54.677231 262.196594,51.814949 260.599213,48.119095 
	C260.511627,40.683022 260.424042,33.246948 260.773254,25.354080 
	C261.785736,24.631433 262.798187,23.908789 263.810638,23.186144 
	C263.578949,22.688427 263.347290,22.190712 263.115601,21.692995 
	C258.787994,21.692995 254.460403,21.692995 250.204025,21.864422 
	C250.204025,21.864422 250.023544,21.803082 250.023544,21.803082 
	C250.023544,21.803082 250.260681,21.767153 249.784576,22.422979 
	C250.983231,23.627607 252.181885,24.832235 253.317993,26.966862 
	C253.475357,33.700989 253.632721,40.435116 253.523743,47.499359 
	C253.490082,47.815998 253.607361,48.060242 253.762650,48.918159 
M444.640961,84.595665 
	C447.653412,79.847198 450.665863,75.098732 453.959137,69.907616 
	C444.830139,68.049377 445.554077,76.512177 441.416229,79.207130 
	C437.520691,76.280724 437.964935,68.118477 428.730072,70.004906 
	C431.816925,74.690582 434.553497,78.844536 437.615967,83.762367 
	C437.926056,85.807709 438.181366,87.863327 438.562195,89.895409 
	C438.915619,91.781189 439.403168,93.641830 440.449249,95.690964 
	C441.296631,95.627815 442.143982,95.564659 443.791748,95.350212 
	C443.909454,91.913277 444.027161,88.476349 444.640961,84.595665 
M125.938805,71.932465 
	C125.926704,75.547340 125.653625,79.185295 125.970650,82.771072 
	C126.340744,86.957092 124.507759,90.550735 121.084900,91.288513 
	C119.268356,91.680046 116.543427,87.857170 114.325623,85.012993 
	C114.325623,79.963371 114.325623,74.913750 114.325623,69.554176 
	C112.120033,69.674637 110.591156,69.758141 109.129189,69.837982 
	C109.129189,75.817322 109.129189,81.390160 109.027260,87.690613 
	C111.143951,93.564072 114.280807,95.955437 119.920876,95.995316 
	C125.648079,96.035812 129.009399,93.600708 131.229126,87.401466 
	C131.221863,86.962158 131.214584,86.522842 131.491531,85.309784 
	C131.500931,80.566124 131.510345,75.822464 131.673264,70.402733 
	C129.710999,69.377457 127.662971,67.622116 125.938805,71.932465 
M147.103241,56.040913 
	C146.906815,56.233833 146.837021,56.464981 146.042892,56.869255 
	C145.298477,57.292278 144.554077,57.715305 143.809662,58.138329 
	C143.942871,58.434563 144.076065,58.730793 144.209274,59.027023 
	C152.761627,59.027023 161.313980,59.027023 170.207382,59.027023 
	C170.207382,57.797123 170.393005,56.785355 170.162277,55.879654 
	C169.845169,54.634850 169.212799,53.470356 168.715515,52.271458 
	C168.058273,53.188843 167.533356,54.256668 166.707855,54.982754 
	C165.821426,55.762421 164.698151,56.611877 163.597702,56.740158 
	C161.138992,57.026775 158.630188,56.883949 155.534622,56.315968 
	C155.201462,51.107143 154.868301,45.898315 154.442383,39.239254 
	C158.740829,40.561237 161.801498,41.502541 164.823624,42.431992 
	C164.823624,40.787636 164.823624,38.452568 164.823624,36.834263 
	C161.531128,37.336502 158.454086,37.805878 155.171692,38.306576 
	C155.171692,33.032127 155.171692,28.611631 155.171692,23.757992 
	C159.666061,24.228813 164.757736,21.713671 167.079559,27.928885 
	C167.107391,28.003384 167.698685,27.867390 168.874832,27.666248 
	C168.985886,25.575090 169.096924,23.483934 169.228439,21.007288 
	C161.314987,21.007288 153.753479,20.995098 146.192062,21.016876 
	C144.545486,21.021618 142.755798,21.065504 145.277557,23.705463 
	C146.080185,24.165228 146.882828,24.624992 147.670868,26.010868 
	C147.599533,35.978668 147.528183,45.946468 147.103241,56.040913 
M122.755737,16.420816 
	C124.254890,15.344548 125.754044,14.268280 127.253197,13.192011 
	C127.013763,12.893040 126.774338,12.594069 126.534904,12.295097 
	C120.672104,12.295097 114.809303,12.295097 108.185844,12.295097 
	C109.093803,13.589562 109.563950,14.284859 110.059692,14.961397 
	C111.077522,16.350405 112.969055,17.711174 112.998756,19.115335 
	C113.234367,30.254408 113.231201,41.403667 112.966125,52.541817 
	C112.932281,53.964211 110.967705,55.340656 109.099571,57.143295 
	C109.818008,57.851963 110.533012,59.172890 111.255394,59.176926 
	C121.170975,59.232388 131.087570,59.106258 141.814774,58.709064 
	C141.814774,55.263474 141.814774,51.817886 141.814774,48.119755 
	C140.315018,48.188335 139.093658,48.244183 138.707108,48.261860 
	C137.452438,51.199638 136.435562,55.574314 135.439484,55.569580 
	C131.008286,55.548523 125.942665,58.377689 122.200356,52.923840 
	C122.211433,40.913120 122.222519,28.902403 122.755737,16.420816 
M231.735733,60.221058 
	C238.604935,59.783760 244.102386,56.326897 245.523651,49.890392 
	C246.866013,43.811203 246.722458,37.037453 245.570633,30.880089 
	C244.483093,25.066448 239.655807,21.400444 233.464020,20.869408 
	C225.746933,20.207554 218.295761,20.873781 214.430237,29.089172 
	C213.259674,31.576965 212.575607,34.406860 212.233719,37.150475 
	C211.143112,45.902611 214.370056,58.338982 226.416168,60.516640 
	C227.924210,60.489002 229.432266,60.461361 231.735733,60.221058 
M199.602295,15.016833 
	C203.714172,15.079723 208.808212,13.541379 208.585022,20.657492 
	C208.574600,20.989750 210.215988,21.757944 210.950653,21.615290 
	C211.610565,21.487154 212.500565,20.417919 212.558914,19.704142 
	C212.758072,17.267675 212.635162,14.804884 212.635162,12.306577 
	C198.928772,12.306577 185.749146,12.306577 172.586319,12.306577 
	C172.586319,15.617109 172.586319,18.544863 172.586319,21.472616 
	C173.067078,21.770575 173.547836,22.068531 174.028580,22.366489 
	C174.994965,21.090637 176.617935,19.897324 176.790848,18.521730 
	C177.149460,15.668906 178.481155,14.855669 181.071716,14.992234 
	C183.314163,15.110449 185.567810,15.016804 188.013031,15.016804 
	C188.013031,26.383659 188.037018,37.022846 188.000992,47.661827 
	C187.986954,51.800018 189.136353,56.589275 182.253204,57.172962 
	C186.830246,60.378017 197.347931,59.936020 200.048096,57.766663 
	C198.927155,55.401154 197.207886,53.417957 197.157944,51.393585 
	C196.887177,40.415062 196.980621,29.425833 197.100510,18.441944 
	C197.112991,17.298199 198.124634,16.165359 199.602295,15.016833 
M310.136444,59.078773 
	C312.407074,59.078773 314.677704,59.078773 318.349365,59.078773 
	C314.430695,52.905148 310.982635,47.472878 307.403900,41.834770 
	C308.313049,41.129932 309.098450,40.590420 309.804657,39.961960 
	C313.618317,36.568283 314.970154,30.970398 313.035950,26.330029 
	C311.121094,21.736111 307.209991,20.860168 302.785583,20.935408 
	C298.960083,21.000462 295.129639,20.886084 291.308380,21.032845 
	C289.814453,21.090218 288.339600,21.643700 286.385315,22.075155 
	C290.931641,25.592434 291.899048,53.084221 287.583099,58.666183 
	C291.431610,58.951878 294.708923,59.195164 297.767944,59.422249 
	C297.466187,53.512371 297.200348,48.306015 296.934509,43.099659 
	C297.364838,42.822124 297.795166,42.544590 298.225494,42.267059 
	C299.405823,43.257473 300.928406,44.034122 301.704651,45.276924 
	C304.429840,49.640186 306.898163,54.163857 310.136444,59.078773 
M324.656891,24.000158 
	C325.137848,25.631954 325.994629,27.254765 326.033936,28.897127 
	C326.193237,35.559441 326.244354,42.232117 326.041351,48.892002 
	C325.941315,52.173119 325.200165,55.434689 324.708252,59.001698 
	C326.608063,59.001698 329.000214,59.001698 330.482971,59.001698 
	C330.482971,50.277176 330.482971,41.502750 330.482971,32.424847 
	C336.027802,40.765900 341.323242,49.008175 346.969116,57.002934 
	C348.168732,58.701633 350.645874,59.498150 353.585175,61.384773 
	C353.585175,50.176094 353.431488,40.852779 353.669800,31.539495 
	C353.751495,28.347221 354.814514,25.180056 355.381744,22.246658 
	C353.234741,22.246658 350.042236,22.246658 347.903839,22.246658 
	C352.548187,30.656359 348.847534,39.696308 350.357025,49.157017 
	C349.214691,48.243893 349.064575,48.172653 348.985901,48.054050 
	C343.836639,40.289825 338.700165,32.517101 333.545288,24.756620 
	C331.731476,22.026031 326.095306,20.832586 323.245575,22.587183 
	C323.215393,22.605766 323.627808,23.343178 324.656891,24.000158 
M154.362595,93.163841 
	C154.704056,88.849770 155.045517,84.535698 155.451874,79.401535 
	C159.223999,84.350777 162.329697,88.836815 165.903732,92.912125 
	C167.328812,94.537086 169.788757,95.254478 172.595642,96.850029 
	C172.595642,86.755379 172.595642,78.351379 172.595642,69.811005 
	C170.606308,69.811005 168.885971,69.811005 166.711761,69.811005 
	C166.711761,74.823906 166.711761,79.505402 166.711761,85.065414 
	C163.680557,81.128128 161.299408,77.948357 158.823486,74.844200 
	C156.460434,71.881546 154.726868,67.535393 149.517700,70.119919 
	C149.517700,78.610466 149.517700,87.017326 149.517700,96.742142 
	C151.615845,95.540359 152.981277,94.758270 154.362595,93.163841 
M451.993866,32.593525 
	C451.977386,38.257797 452.302124,43.950741 451.829498,49.576691 
	C451.490784,53.608170 449.835815,57.348061 444.864044,57.856518 
	C440.957977,58.255989 437.397827,57.178463 436.968872,52.934189 
	C435.901276,42.371151 433.597137,31.596651 438.795349,21.322441 
	C434.712097,21.322441 429.901978,21.322441 424.901001,21.322441 
	C428.814606,28.311954 428.733276,28.312849 428.857849,39.628632 
	C428.903351,43.762886 428.939636,48.007401 429.867096,51.995335 
	C431.177917,57.631790 435.719818,60.260647 442.475616,60.257050 
	C448.867584,60.253647 452.982971,57.930500 453.943054,52.088142 
	C454.997528,45.671364 454.516235,39.017155 455.082977,32.499344 
	C455.392700,28.937273 456.485931,25.443333 457.165588,22.205593 
	C455.489868,22.205593 452.431824,22.205593 450.823517,22.205593 
	C451.226410,25.450022 451.610199,28.540508 451.993866,32.593525 
M294.484131,94.736870 
	C296.218506,95.138206 297.952881,95.539536 300.277527,96.077469 
	C300.277527,92.536224 300.277527,89.953621 300.277527,87.631691 
	C304.700256,85.886063 306.169403,88.927200 307.517944,91.486221 
	C309.492584,95.233368 312.139618,96.746239 316.676575,95.246941 
	C314.741333,92.240921 312.898834,89.378960 310.921112,86.306953 
	C315.912109,83.848618 317.230225,79.744003 315.707428,74.961380 
	C314.182831,70.173019 309.886292,69.554443 305.569855,69.486130 
	C301.969452,69.429146 298.367462,69.474449 294.353241,69.474449 
	C294.353241,78.007706 294.353241,85.935524 294.484131,94.736870 
M389.512207,57.071133 
	C391.111389,57.985420 392.710571,58.899708 395.150299,60.294552 
	C393.363617,52.114494 396.565613,48.016712 403.332977,48.016678 
	C405.328461,48.016670 407.413696,47.657383 409.291901,48.126740 
	C410.885651,48.525005 412.948364,49.564842 413.536285,50.885113 
	C414.438293,52.910805 414.252808,55.420746 414.678314,58.972927 
	C416.882385,59.074345 420.377258,59.235157 424.660309,59.432240 
	C419.183777,46.404644 414.032074,34.094898 408.713623,21.857622 
	C408.596924,21.589144 405.906891,21.771044 405.557068,22.388542 
	C404.109497,24.943794 403.121735,27.756926 401.927338,30.458662 
	C398.041626,39.248150 394.139343,48.030308 389.512207,57.071133 
M265.547119,95.722534 
	C269.314026,95.722534 273.080902,95.722534 277.165039,95.722534 
	C276.995453,93.648071 276.880066,92.236755 276.733551,90.444847 
	C271.973389,90.444847 267.555786,90.444847 263.144257,90.444847 
	C263.144257,88.440132 263.144257,86.850311 263.144257,84.936905 
	C265.873810,84.936905 268.344421,84.951515 270.814819,84.933578 
	C274.779938,84.904785 274.779877,84.895676 274.632019,80.935318 
	C270.880554,80.935318 267.109100,80.935318 263.112640,80.935318 
	C263.112640,78.654770 263.112640,76.740479 263.112640,74.368195 
	C267.723053,74.368195 272.150177,74.368195 276.676727,74.368195 
	C276.676727,72.532852 276.676727,71.171936 276.676727,69.851852 
	C269.965363,69.851852 263.569519,69.851852 257.313843,69.851852 
	C257.313843,78.616463 257.313843,87.023506 257.313843,95.722496 
	C259.965210,95.722496 262.273987,95.722496 265.547119,95.722534 
M349.474670,94.182899 
	C354.936371,88.387115 353.708069,83.099442 346.292908,80.587738 
	C344.728546,80.057846 342.983765,79.900421 341.577637,79.114319 
	C340.460541,78.489822 339.733612,77.167480 338.833435,76.154991 
	C340.201477,75.493103 341.609955,74.222252 342.928162,74.309875 
	C344.983582,74.446510 346.977753,75.504776 349.164459,76.227562 
	C350.023254,74.973030 350.839203,73.781151 351.759155,72.437332 
	C347.456970,69.145515 342.753662,67.739212 338.096283,70.033211 
	C335.848663,71.140266 333.396790,74.299934 333.305389,76.619522 
	C333.215027,78.913498 335.623779,81.707001 337.614746,83.547447 
	C339.052948,84.876938 341.710297,84.788467 343.616638,85.745392 
	C344.891602,86.385376 345.802948,87.749763 346.877014,88.789970 
	C345.362762,89.482574 343.762726,90.883095 342.353149,90.712196 
	C339.849365,90.408630 337.461060,89.152420 334.890320,88.247520 
	C334.013733,89.334175 333.099609,90.467346 331.957184,91.883545 
	C337.251160,95.996986 342.682953,97.272102 349.474670,94.182899 
M225.773438,82.616409 
	C224.650009,79.678886 223.238449,76.814369 222.471359,73.786568 
	C221.347000,69.348495 218.961197,68.410042 214.803436,70.300514 
	C218.245987,78.801575 221.652542,87.213737 224.995834,95.469666 
	C228.771713,96.716415 230.748093,95.386246 231.898376,91.901382 
	C233.193466,87.977966 234.906754,84.193146 236.421936,80.341682 
	C237.773651,76.905807 239.103317,73.461258 240.479889,69.925079 
	C236.133820,68.752686 234.152023,70.023972 233.039993,73.573242 
	C231.622040,78.098976 229.737366,82.478477 227.729263,87.777527 
	C226.929245,85.683777 226.480301,84.508804 225.773438,82.616409 
M392.819061,71.595116 
	C392.748169,78.098091 398.694611,72.673843 401.010498,76.487701 
	C401.010498,82.171371 401.010498,88.886116 401.010498,95.853256 
	C403.114563,95.682777 404.682373,95.555748 406.782532,95.385590 
	C406.782532,88.345467 406.782532,81.640015 406.782532,74.956367 
	C409.605927,74.799866 411.863220,74.674736 414.530396,74.526894 
	C414.384796,72.645119 414.266724,71.119255 414.138519,69.462639 
	C408.464203,69.462639 403.329102,69.357674 398.202454,69.519623 
	C396.410828,69.576233 394.639954,70.290558 392.819061,71.595116 
M198.049347,89.353363 
	C198.049347,82.798096 198.049347,76.242836 198.049347,69.653671 
	C195.811661,69.653671 194.234879,69.653671 192.551041,69.653671 
	C192.551041,78.431465 192.551041,86.923141 192.551041,95.762291 
	C194.487915,95.671707 196.064072,95.598000 198.049347,95.505157 
	C198.049347,93.540329 198.049347,91.921677 198.049347,89.353363 
M376.012085,86.443871 
	C376.012085,81.033173 376.012085,75.622475 376.012085,70.146790 
	C373.736206,70.146790 372.024323,70.146790 370.429321,70.146790 
	C370.429321,78.729889 370.429321,87.089157 370.429321,95.476357 
	C372.380920,95.476357 373.973663,95.476357 376.012085,95.476357 
	C376.012085,92.650307 376.012085,90.036301 376.012085,86.443871 
M463.919342,95.717705 
	C465.634827,95.403999 467.350311,95.090294 469.065796,94.776596 
	C468.983704,94.415565 468.901642,94.054535 468.819550,93.693504 
	C467.034515,94.191650 465.249481,94.689804 463.919342,95.717705 
M460.920349,89.485054 
	C460.775452,89.241127 460.630554,88.997200 460.485657,88.753288 
	C460.351532,89.004982 460.057465,89.318115 460.124451,89.492516 
	C460.204834,89.701721 460.593079,89.792618 460.920349,89.485054 
M465.525818,81.376587 
	C465.525818,81.376587 465.426208,81.550552 465.426208,81.550552 
	C465.426208,81.550552 465.627502,81.525612 465.525818,81.376587 
M461.482819,92.584183 
	C461.482819,92.584183 461.417969,92.473412 461.482819,92.584183 
z"/>
<path fill="#08226C" opacity="1.000000" stroke="none" 
	d="
M59.075016,1.836710 
	C69.544952,3.260634 80.014885,4.684558 90.876823,6.161796 
	C90.170609,27.089317 91.734558,47.219559 85.377480,66.687813 
	C82.231842,76.321152 77.070656,84.712021 69.257782,92.045670 
	C68.483894,92.590721 68.280067,92.902176 68.076248,93.213623 
	C61.817829,99.213470 54.769676,103.909248 46.181770,106.681297 
	C45.555553,107.000000 45.111111,107.000000 44.209732,106.672501 
	C21.366491,96.380341 7.591249,79.607277 3.290887,55.291969 
	C2.679390,51.834408 1.770986,48.429356 1.000000,45.000000 
	C1.000000,43.933331 1.000000,42.866661 1.329704,41.288414 
	C1.722136,39.871361 1.784864,38.965881 1.908625,37.694946 
	C1.646438,36.219658 1.323219,35.109829 1.000000,34.000000 
	C1.000000,25.312437 1.000000,16.624874 1.366914,7.322688 
	C7.661116,5.545144 13.596232,4.420298 19.512545,3.203982 
	C22.691696,2.550390 25.838564,1.739767 29.000000,1.000000 
	C30.388889,1.000000 31.777779,1.000000 33.709824,1.317467 
	C35.145756,1.698196 36.038525,1.761459 37.291325,1.886145 
	C38.378490,1.913325 39.105633,1.879083 40.305187,1.898202 
	C44.918549,1.918776 49.059498,1.885989 53.619217,1.854626 
	C55.716995,1.849603 57.396008,1.843157 59.075016,1.836710 
M57.972336,94.240730 
	C58.397911,93.914581 58.823483,93.588432 59.884350,93.030472 
	C81.557747,76.173653 81.709656,54.646301 73.130211,30.683748 
	C75.872040,30.683748 78.473732,30.541178 81.053589,30.717686 
	C84.778198,30.972515 85.835587,29.510950 84.526474,26.037880 
	C82.944763,25.887039 81.472084,25.746593 79.870895,25.061504 
	C78.247375,25.243055 76.623848,25.424604 74.217972,25.787752 
	C72.084015,24.940462 69.597206,24.535307 67.880463,23.165237 
	C62.099747,18.551876 56.844135,13.246659 50.861523,8.936354 
	C48.362690,7.136015 44.541332,7.171319 41.578186,6.435768 
	C48.567062,12.851268 55.264397,18.999142 61.984493,25.333242 
	C61.984493,25.333242 61.991104,25.520739 61.147308,25.773039 
	C59.097748,25.717411 57.048183,25.661783 54.888107,25.101389 
	C54.259102,25.269644 53.630096,25.437901 52.136616,25.789728 
	C50.710144,25.894043 49.283672,25.998358 47.920559,26.098040 
	C47.754543,32.057549 51.893158,30.633991 54.938316,30.652180 
	C68.139114,30.731031 69.665382,31.933626 72.138397,45.080753 
	C72.626526,47.675747 72.961136,50.323936 73.078201,52.960400 
	C73.755028,68.204330 68.019859,81.059448 57.786232,92.673546 
	C57.494873,93.088417 57.203518,93.503296 56.327065,94.081566 
	C56.106747,94.411186 55.886425,94.740807 55.101868,95.111000 
	C54.630054,95.508179 54.158241,95.905357 53.686420,96.302528 
	C53.897110,96.497101 54.259277,96.885719 54.295811,96.857193 
	C54.863647,96.413902 55.389317,95.916595 56.515682,95.233810 
	C56.829838,94.969383 57.143993,94.704964 57.972336,94.240730 
M33.937454,7.308021 
	C32.086189,5.313756 30.413771,5.060092 28.271448,7.889719 
	C18.686146,10.535373 12.663830,17.637810 7.223052,25.222452 
	C5.692501,27.356096 6.590466,29.825249 9.975121,29.925459 
	C12.209488,29.991611 14.447401,29.937977 16.426390,29.937977 
	C14.878132,37.851410 13.450974,45.145878 11.952226,52.806267 
	C11.199133,53.180870 9.916631,53.818817 8.634129,54.456760 
	C9.188833,54.522598 9.743537,54.588436 10.298242,54.654274 
	C11.190679,57.069195 12.369238,59.421345 12.915702,61.912167 
	C14.036593,67.021286 13.850520,72.525352 18.005960,76.644859 
	C16.883665,70.024094 15.761372,63.403320 14.575545,56.407753 
	C22.081106,56.407753 28.823343,56.407753 35.773926,56.407753 
	C35.773926,65.109093 35.773926,73.653893 35.773926,82.667091 
	C30.911880,82.667091 26.360559,82.667091 21.809238,82.667091 
	C21.773174,83.216331 21.737110,83.765564 21.701044,84.314804 
	C24.561502,84.519241 27.460186,85.114998 30.273825,84.840141 
	C34.972149,84.381187 36.626015,86.125069 36.156818,90.758133 
	C35.950695,92.793472 36.715847,94.927177 37.039989,97.016228 
	C37.683392,96.927010 38.326797,96.837799 38.970200,96.748589 
	C38.970200,92.885506 38.970200,89.022430 38.970200,85.139359 
	C43.643089,85.139359 47.726273,85.139359 52.870701,85.139359 
	C49.374786,90.343910 46.293354,94.931404 43.211922,99.518890 
	C44.636280,99.692764 45.631435,99.442764 46.130890,98.804733 
	C48.177811,96.189911 50.280384,93.579674 51.970760,90.734993 
	C53.919647,87.455261 55.518864,84.030441 60.212498,84.391212 
	C60.442356,84.408875 60.728668,83.692108 61.055077,83.221649 
	C59.734837,82.554573 58.536922,81.949303 57.830601,81.592415 
	C59.656639,72.889122 61.377663,64.686348 63.110233,56.428532 
	C65.326401,56.161064 67.727211,55.871307 70.128021,55.581554 
	C70.130127,55.011036 70.132240,54.440514 70.134346,53.869991 
	C67.556175,53.568199 64.977997,53.266403 62.505753,52.977009 
	C60.506229,36.048939 60.506229,36.048939 56.927910,33.800594 
	C57.226566,35.216797 57.553009,36.257996 57.652107,37.320400 
	C58.141342,42.565475 58.570393,47.816166 58.452072,52.442505 
	C56.324650,52.294647 54.197639,52.026249 52.069733,52.018879 
	C40.008289,51.977097 39.979713,51.998257 40.023350,39.741890 
	C40.039066,35.327511 38.558804,30.182602 44.532227,27.958540 
	C37.143612,25.831285 39.061161,19.796921 38.933537,14.621688 
	C38.908997,13.626527 39.247486,12.384540 38.775398,11.699803 
	C38.212692,10.883633 36.957058,10.545197 35.923393,9.381782 
	C35.328918,8.924859 34.734444,8.467937 33.937454,7.308021 
M63.448086,8.952819 
	C61.092152,8.194245 58.736214,7.435672 55.224174,6.304851 
	C63.693558,12.317582 70.985153,17.494158 78.276749,22.670732 
	C78.635384,22.190439 78.994026,21.710146 79.352661,21.229853 
	C74.269356,17.252926 69.186050,13.276001 63.448086,8.952819 
z"/>
<path fill="#FCFCFD" opacity="1.000000" stroke="none" 
	d="
M1.000000,45.468658 
	C1.770986,48.429356 2.679390,51.834408 3.290887,55.291969 
	C7.591249,79.607277 21.366491,96.380341 43.876404,106.672501 
	C29.726650,107.000000 15.453299,107.000000 1.000000,107.000000 
	C1.000000,86.646126 1.000000,66.291718 1.000000,45.468658 
z"/>
<path fill="#F3F4F7" opacity="1.000000" stroke="none" 
	d="
M28.531342,1.000000 
	C25.838564,1.739767 22.691696,2.550390 19.512545,3.203982 
	C13.596232,4.420298 7.661116,5.545144 1.366914,6.854033 
	C1.000000,5.026108 1.000000,3.052217 1.000000,1.000000 
	C10.020779,1.000000 19.041731,1.000000 28.531342,1.000000 
z"/>
<path fill="#EBEDF3" opacity="1.000000" stroke="none" 
	d="
M468.998810,84.004257 
	C469.080109,82.998360 469.161407,81.992462 469.242706,80.986557 
	C470.054932,81.427330 470.882385,81.842598 471.675354,82.315643 
	C472.565002,82.846344 473.423492,83.429298 474.647766,83.994751 
	C475.000000,86.370560 475.000000,88.741112 475.000000,91.555832 
	C473.995514,89.949860 472.991028,87.899719 471.879364,85.630867 
	C471.366180,86.559647 470.747894,87.678650 469.688660,88.718636 
	C469.156464,88.120407 469.065216,87.601189 468.985016,86.794357 
	C468.990112,86.314949 468.984131,86.123161 469.014954,85.611404 
	C469.034088,84.862373 469.016449,84.433319 468.998810,84.004257 
z"/>
<path fill="#30437F" opacity="1.000000" stroke="none" 
	d="
M53.200443,1.853203 
	C49.059498,1.885989 44.918549,1.918776 40.359890,1.689849 
	C39.942177,1.428134 40.000000,1.000000 40.000000,1.000000 
	C44.025185,1.000000 48.050365,1.000000 52.566399,1.218348 
	C53.057251,1.436697 53.200443,1.853203 53.200443,1.853203 
z"/>
<path fill="#AAB1C8" opacity="1.000000" stroke="none" 
	d="
M53.619217,1.854626 
	C53.200443,1.853203 53.057251,1.436697 53.028625,1.218348 
	C54.714203,1.000000 56.428410,1.000000 58.571304,1.000000 
	C59.000000,1.000000 59.023666,1.419599 59.049339,1.628155 
	C57.396008,1.843157 55.716995,1.849603 53.619217,1.854626 
z"/>
<path fill="#7A86AB" opacity="1.000000" stroke="none" 
	d="
M1.000000,34.399994 
	C1.323219,35.109829 1.646438,36.219658 1.696964,37.678864 
	C1.424269,38.028236 1.000000,38.000000 1.000000,38.000000 
	C1.000000,36.933331 1.000000,35.866661 1.000000,34.399994 
z"/>
<path fill="#AAB1C8" opacity="1.000000" stroke="none" 
	d="
M36.931297,1.824722 
	C36.038525,1.761459 35.145756,1.698196 34.126492,1.317467 
	C34.750000,1.000000 35.500000,1.000000 36.613132,1.206623 
	C36.976265,1.413245 36.931297,1.824722 36.931297,1.824722 
z"/>
<path fill="#7A86AB" opacity="1.000000" stroke="none" 
	d="
M37.291325,1.886145 
	C36.931297,1.824722 36.976265,1.413245 36.988132,1.206623 
	C37.750000,1.000000 38.500000,1.000000 39.625000,1.000000 
	C40.000000,1.000000 39.942177,1.428134 39.887474,1.636488 
	C39.105633,1.879083 38.378490,1.913325 37.291325,1.886145 
z"/>
<path fill="#AAB1C8" opacity="1.000000" stroke="none" 
	d="
M1.000000,38.375000 
	C1.000000,38.000000 1.424269,38.028236 1.635931,38.044319 
	C1.784864,38.965881 1.722136,39.871361 1.329704,40.888420 
	C1.000000,40.250000 1.000000,39.500000 1.000000,38.375000 
z"/>
<path fill="#F8F9FB" opacity="1.000000" stroke="none" 
	d="
M230.940308,60.433720 
	C229.432266,60.461361 227.924210,60.489002 226.341339,59.922218 
	C226.260574,58.703709 226.510849,57.868649 226.202209,57.493824 
	C225.139099,56.202778 223.603806,55.243786 222.743118,53.852299 
	C218.256348,46.598373 218.443054,38.580090 220.391266,30.825556 
	C221.128464,27.891163 224.157852,24.511057 226.967163,23.376755 
	C230.499222,21.950624 234.746536,22.528297 237.276443,26.875250 
	C242.637329,36.086506 240.294647,50.891697 232.217361,57.922607 
	C231.560654,58.494251 231.355362,59.584476 230.940308,60.433720 
z"/>
<path fill="#0A246D" opacity="1.000000" stroke="none" 
	d="
M199.137497,15.022146 
	C198.124634,16.165359 197.112991,17.298199 197.100510,18.441944 
	C196.980621,29.425833 196.887177,40.415062 197.157944,51.393585 
	C197.207886,53.417957 198.927155,55.401154 200.048096,57.766663 
	C197.347931,59.936020 186.830246,60.378017 182.253204,57.172962 
	C189.136353,56.589275 187.986954,51.800018 188.000992,47.661827 
	C188.037018,37.022846 188.013031,26.383659 188.013031,15.016804 
	C185.567810,15.016804 183.314163,15.110449 181.071716,14.992234 
	C178.481155,14.855669 177.149460,15.668906 176.790848,18.521730 
	C176.617935,19.897324 174.994965,21.090637 174.028580,22.366489 
	C173.547836,22.068531 173.067078,21.770575 172.586319,21.472616 
	C172.586319,18.544863 172.586319,15.617109 172.586319,12.306577 
	C185.749146,12.306577 198.928772,12.306577 212.635162,12.306577 
	C212.635162,14.804884 212.758072,17.267675 212.558914,19.704142 
	C212.500565,20.417919 211.610565,21.487154 210.950653,21.615290 
	C210.215988,21.757944 208.574600,20.989750 208.585022,20.657492 
	C208.808212,13.541379 203.714172,15.079723 199.137497,15.022146 
z"/>
<path fill="#0B246D" opacity="1.000000" stroke="none" 
	d="
M309.800232,58.852703 
	C306.898163,54.163857 304.429840,49.640186 301.704651,45.276924 
	C300.928406,44.034122 299.405823,43.257473 298.225494,42.267059 
	C297.795166,42.544590 297.364838,42.822124 296.934509,43.099659 
	C297.200348,48.306015 297.466187,53.512371 297.767944,59.422249 
	C294.708923,59.195164 291.431610,58.951878 287.583099,58.666183 
	C291.899048,53.084221 290.931641,25.592434 286.385315,22.075155 
	C288.339600,21.643700 289.814453,21.090218 291.308380,21.032845 
	C295.129639,20.886084 298.960083,21.000462 302.785583,20.935408 
	C307.209991,20.860168 311.121094,21.736111 313.035950,26.330029 
	C314.970154,30.970398 313.618317,36.568283 309.804657,39.961960 
	C309.098450,40.590420 308.313049,41.129932 307.403900,41.834770 
	C310.982635,47.472878 314.430695,52.905148 318.349365,59.078773 
	C314.677704,59.078773 312.407074,59.078773 309.800232,58.852703 
M297.085724,30.541626 
	C297.085724,33.645939 297.085724,36.750248 297.085724,39.842461 
	C303.690399,39.942108 307.044250,36.482841 306.623016,30.461130 
	C306.246552,25.079796 303.856415,23.452763 297.085724,24.255442 
	C297.085724,26.001511 297.085724,27.793240 297.085724,30.541626 
z"/>
<path fill="#0E256E" opacity="1.000000" stroke="none" 
	d="
M324.245239,23.872591 
	C323.627808,23.343178 323.215393,22.605766 323.245575,22.587183 
	C326.095306,20.832586 331.731476,22.026031 333.545288,24.756620 
	C338.700165,32.517101 343.836639,40.289825 348.985901,48.054050 
	C349.064575,48.172653 349.214691,48.243893 350.357025,49.157017 
	C348.847534,39.696308 352.548187,30.656359 347.903839,22.246658 
	C350.042236,22.246658 353.234741,22.246658 355.381744,22.246658 
	C354.814514,25.180056 353.751495,28.347221 353.669800,31.539495 
	C353.431488,40.852779 353.585175,50.176094 353.585175,61.384773 
	C350.645874,59.498150 348.168732,58.701633 346.969116,57.002934 
	C341.323242,49.008175 336.027802,40.765900 330.482971,32.424847 
	C330.482971,41.502750 330.482971,50.277176 330.482971,59.001698 
	C329.000214,59.001698 326.608063,59.001698 324.708252,59.001698 
	C325.200165,55.434689 325.941315,52.173119 326.041351,48.892002 
	C326.244354,42.232117 326.193237,35.559441 326.033936,28.897127 
	C325.994629,27.254765 325.137848,25.631954 324.245239,23.872591 
z"/>
<path fill="#041B69" opacity="1.000000" stroke="none" 
	d="
M231.338013,60.327389 
	C231.355362,59.584476 231.560654,58.494251 232.217361,57.922607 
	C240.294647,50.891697 242.637329,36.086506 237.276443,26.875250 
	C234.746536,22.528297 230.499222,21.950624 226.967163,23.376755 
	C224.157852,24.511057 221.128464,27.891163 220.391266,30.825556 
	C218.443054,38.580090 218.256348,46.598373 222.743118,53.852299 
	C223.603806,55.243786 225.139099,56.202778 226.202209,57.493824 
	C226.510849,57.868649 226.260574,58.703709 226.131622,59.657837 
	C214.370056,58.338982 211.143112,45.902611 212.233719,37.150475 
	C212.575607,34.406860 213.259674,31.576965 214.430237,29.089172 
	C218.295761,20.873781 225.746933,20.207554 233.464020,20.869408 
	C239.655807,21.400444 244.483093,25.066448 245.570633,30.880089 
	C246.722458,37.037453 246.866013,43.811203 245.523651,49.890392 
	C244.102386,56.326897 238.604935,59.783760 231.338013,60.327389 
z"/>
<path fill="#0A246D" opacity="1.000000" stroke="none" 
	d="
M122.095924,53.834953 
	C125.942665,58.377689 131.008286,55.548523 135.439484,55.569580 
	C136.435562,55.574314 137.452438,51.199638 138.707108,48.261860 
	C139.093658,48.244183 140.315018,48.188335 141.814774,48.119755 
	C141.814774,51.817886 141.814774,55.263474 141.122925,58.560265 
	C131.913605,58.271152 123.394310,58.192566 114.880295,57.937630 
	C113.208916,57.887581 111.557953,57.155769 109.897575,56.738392 
	C110.967705,55.340656 112.932281,53.964211 112.966125,52.541817 
	C113.231201,41.403667 113.234367,30.254408 112.998756,19.115335 
	C112.969055,17.711174 111.077522,16.350405 110.059692,14.961397 
	C109.563950,14.284859 109.093803,13.589562 108.185844,12.295097 
	C114.809303,12.295097 120.672104,12.295097 126.534904,12.295097 
	C126.774338,12.594069 127.013763,12.893040 127.253197,13.192011 
	C125.754044,14.268280 124.254890,15.344548 122.154106,16.927910 
	C121.371269,29.467737 121.187523,41.500446 121.054001,53.533714 
	C121.052933,53.630260 121.733574,53.734375 122.095924,53.834953 
z"/>
<path fill="#0F276F" opacity="1.000000" stroke="none" 
	d="
M154.354645,93.570007 
	C152.981277,94.758270 151.615845,95.540359 149.517700,96.742142 
	C149.517700,87.017326 149.517700,78.610466 149.517700,70.119919 
	C154.726868,67.535393 156.460434,71.881546 158.823486,74.844200 
	C161.299408,77.948357 163.680557,81.128128 166.711761,85.065414 
	C166.711761,79.505402 166.711761,74.823906 166.711761,69.811005 
	C168.885971,69.811005 170.606308,69.811005 172.595642,69.811005 
	C172.595642,78.351379 172.595642,86.755379 172.595642,96.850029 
	C169.788757,95.254478 167.328812,94.537086 165.903732,92.912125 
	C162.329697,88.836815 159.223999,84.350777 155.451874,79.401535 
	C155.045517,84.535698 154.704056,88.849770 154.354645,93.570007 
z"/>
<path fill="#041B69" opacity="1.000000" stroke="none" 
	d="
M451.993927,32.112259 
	C451.610199,28.540508 451.226410,25.450022 450.823517,22.205593 
	C452.431824,22.205593 455.489868,22.205593 457.165588,22.205593 
	C456.485931,25.443333 455.392700,28.937273 455.082977,32.499344 
	C454.516235,39.017155 454.997528,45.671364 453.943054,52.088142 
	C452.982971,57.930500 448.867584,60.253647 442.475616,60.257050 
	C435.719818,60.260647 431.177917,57.631790 429.867096,51.995335 
	C428.939636,48.007401 428.903351,43.762886 428.857849,39.628632 
	C428.733276,28.312849 428.814606,28.311954 424.901001,21.322441 
	C429.901978,21.322441 434.712097,21.322441 438.795349,21.322441 
	C433.597137,31.596651 435.901276,42.371151 436.968872,52.934189 
	C437.397827,57.178463 440.957977,58.255989 444.864044,57.856518 
	C449.835815,57.348061 451.490784,53.608170 451.829498,49.576691 
	C452.302124,43.950741 451.977386,38.257797 451.993927,32.112259 
z"/>
<path fill="#10266F" opacity="1.000000" stroke="none" 
	d="
M294.418701,94.300110 
	C294.353241,85.935524 294.353241,78.007706 294.353241,69.474449 
	C298.367462,69.474449 301.969452,69.429146 305.569855,69.486130 
	C309.886292,69.554443 314.182831,70.173019 315.707428,74.961380 
	C317.230225,79.744003 315.912109,83.848618 310.921112,86.306953 
	C312.898834,89.378960 314.741333,92.240921 316.676575,95.246941 
	C312.139618,96.746239 309.492584,95.233368 307.517944,91.486221 
	C306.169403,88.927200 304.700256,85.886063 300.277527,87.631691 
	C300.277527,89.953621 300.277527,92.536224 300.277527,96.077469 
	C297.952881,95.539536 296.218506,95.138206 294.418701,94.300110 
M303.500000,74.452751 
	C296.967590,74.780670 301.269196,79.252312 300.058685,82.151375 
	C302.289764,82.151375 303.910461,82.153587 305.531158,82.149529 
	C305.859131,82.148712 306.301941,82.257278 306.496490,82.089256 
	C307.846130,80.923416 310.191620,79.756927 310.263672,78.480370 
	C310.485565,74.549789 307.195679,74.563339 303.500000,74.452751 
z"/>
<path fill="#051A69" opacity="1.000000" stroke="none" 
	d="
M389.877808,56.943207 
	C394.139343,48.030308 398.041626,39.248150 401.927338,30.458662 
	C403.121735,27.756926 404.109497,24.943794 405.557068,22.388542 
	C405.906891,21.771044 408.596924,21.589144 408.713623,21.857622 
	C414.032074,34.094898 419.183777,46.404644 424.660309,59.432240 
	C420.377258,59.235157 416.882385,59.074345 414.678314,58.972927 
	C414.252808,55.420746 414.438293,52.910805 413.536285,50.885113 
	C412.948364,49.564842 410.885651,48.525005 409.291901,48.126740 
	C407.413696,47.657383 405.328461,48.016670 403.332977,48.016678 
	C396.565613,48.016712 393.363617,52.114494 395.150299,60.294552 
	C392.710571,58.899708 391.111389,57.985420 389.877808,56.943207 
M402.281036,35.785427 
	C401.192627,38.686958 400.104187,41.588490 398.942413,44.685505 
	C403.112030,44.685505 406.915436,44.685505 411.142639,44.685505 
	C409.014404,39.835541 407.077423,35.421497 404.541473,29.642408 
	C403.556519,32.488430 403.102539,33.800251 402.281036,35.785427 
z"/>
<path fill="#0A206C" opacity="1.000000" stroke="none" 
	d="
M265.064941,95.722519 
	C262.273987,95.722496 259.965210,95.722496 257.313843,95.722496 
	C257.313843,87.023506 257.313843,78.616463 257.313843,69.851852 
	C263.569519,69.851852 269.965363,69.851852 276.676727,69.851852 
	C276.676727,71.171936 276.676727,72.532852 276.676727,74.368195 
	C272.150177,74.368195 267.723053,74.368195 263.112640,74.368195 
	C263.112640,76.740479 263.112640,78.654770 263.112640,80.935318 
	C267.109100,80.935318 270.880554,80.935318 274.632019,80.935318 
	C274.779877,84.895676 274.779938,84.904785 270.814819,84.933578 
	C268.344421,84.951515 265.873810,84.936905 263.144257,84.936905 
	C263.144257,86.850311 263.144257,88.440132 263.144257,90.444847 
	C267.555786,90.444847 271.973389,90.444847 276.733551,90.444847 
	C276.880066,92.236755 276.995453,93.648071 277.165039,95.722534 
	C273.080902,95.722534 269.314026,95.722534 265.064941,95.722519 
z"/>
<path fill="#0E246E" opacity="1.000000" stroke="none" 
	d="
M349.139282,94.391830 
	C342.682953,97.272102 337.251160,95.996986 331.957184,91.883545 
	C333.099609,90.467346 334.013733,89.334175 334.890320,88.247520 
	C337.461060,89.152420 339.849365,90.408630 342.353149,90.712196 
	C343.762726,90.883095 345.362762,89.482574 346.877014,88.789978 
	C345.802948,87.749763 344.891602,86.385376 343.616638,85.745392 
	C341.710297,84.788467 339.052948,84.876938 337.614746,83.547447 
	C335.623779,81.707001 333.215027,78.913498 333.305389,76.619522 
	C333.396790,74.299934 335.848663,71.140266 338.096283,70.033211 
	C342.753662,67.739212 347.456970,69.145515 351.759155,72.437332 
	C350.839203,73.781151 350.023254,74.973030 349.164459,76.227562 
	C346.977753,75.504776 344.983582,74.446510 342.928162,74.309875 
	C341.609955,74.222252 340.201477,75.493103 338.833435,76.154984 
	C339.733612,77.167480 340.460541,78.489822 341.577637,79.114319 
	C342.983765,79.900421 344.728546,80.057846 346.292908,80.587738 
	C353.708069,83.099442 354.936371,88.387115 349.139282,94.391830 
z"/>
<path fill="#08216C" opacity="1.000000" stroke="none" 
	d="
M378.034912,23.491508 
	C375.743256,23.641634 373.451569,23.791758 370.269745,24.000195 
	C370.566986,28.655600 370.863251,33.296097 371.827789,38.268658 
	C374.019440,38.472435 375.542786,38.344151 377.066162,38.215862 
	C378.156799,37.501919 379.247437,36.787979 380.745605,35.807270 
	C380.745605,38.478859 380.745605,40.818459 380.745605,42.494686 
	C377.740356,41.559223 374.527771,40.559227 369.755219,39.073647 
	C370.421814,45.875912 370.941162,51.175438 371.403320,56.882088 
	C368.507965,57.027897 365.669800,56.766586 362.831635,56.505280 
	C362.929199,46.682552 363.077148,36.859695 363.051849,27.037287 
	C363.049103,25.973972 362.043518,24.913237 361.424988,23.268675 
	C366.909546,22.954535 372.472229,23.223021 378.034912,23.491508 
z"/>
<path fill="#0C226D" opacity="1.000000" stroke="none" 
	d="
M225.902390,82.975113 
	C226.480301,84.508804 226.929245,85.683777 227.729263,87.777527 
	C229.737366,82.478477 231.622040,78.098976 233.039993,73.573242 
	C234.152023,70.023972 236.133820,68.752686 240.479889,69.925079 
	C239.103317,73.461258 237.773651,76.905807 236.421936,80.341682 
	C234.906754,84.193146 233.193466,87.977966 231.898376,91.901382 
	C230.748093,95.386246 228.771713,96.716415 224.995834,95.469666 
	C221.652542,87.213737 218.245987,78.801575 214.803436,70.300514 
	C218.961197,68.410042 221.347000,69.348495 222.471359,73.786568 
	C223.238449,76.814369 224.650009,79.678886 225.902390,82.975113 
z"/>
<path fill="#0A226D" opacity="1.000000" stroke="none" 
	d="
M146.893860,56.734356 
	C146.837021,56.464981 146.906815,56.233833 147.668610,55.785889 
	C148.403473,45.710148 148.583252,35.889553 148.697342,26.068199 
	C148.701111,25.744347 148.037796,25.412743 147.685455,25.084755 
	C146.882828,24.624992 146.080185,24.165228 145.343781,23.158245 
	C152.713684,22.611029 160.017349,22.611029 167.769104,22.611029 
	C167.853180,24.312462 167.940079,26.071056 168.026978,27.829647 
	C167.698685,27.867390 167.107391,28.003384 167.079559,27.928885 
	C164.757736,21.713671 159.666061,24.228813 155.171692,23.757992 
	C155.171692,28.611631 155.171692,33.032127 155.171692,38.306576 
	C158.454086,37.805878 161.531128,37.336502 164.823624,36.834263 
	C164.823624,38.452568 164.823624,40.787636 164.823624,42.431992 
	C161.801498,41.502541 158.740829,40.561237 154.442383,39.239254 
	C154.868301,45.898315 155.201462,51.107143 155.465729,56.791679 
	C152.562515,57.089710 149.728195,56.912033 146.893860,56.734356 
z"/>
<path fill="#07216C" opacity="1.000000" stroke="none" 
	d="
M130.946243,88.008026 
	C129.009399,93.600708 125.648079,96.035812 119.920876,95.995316 
	C114.280807,95.955437 111.143951,93.564072 109.351257,87.018539 
	C109.933037,81.280418 110.190826,76.214386 110.448616,71.148346 
	C111.077980,71.142792 111.707336,71.137245 112.336693,71.131691 
	C112.556160,72.908592 112.768593,74.686401 112.996635,76.462204 
	C113.402290,79.621025 113.817398,82.778633 114.228546,85.936745 
	C116.543427,87.857170 119.268356,91.680046 121.084900,91.288513 
	C124.507759,90.550735 126.340744,86.957092 125.970650,82.771072 
	C125.653625,79.185295 125.926704,75.547340 126.458710,71.520630 
	C128.492325,71.098801 130.006042,71.088806 131.519745,71.078812 
	C131.510345,75.822464 131.500931,80.566124 131.117859,85.803421 
	C130.811539,86.867378 130.878891,87.437706 130.946243,88.008026 
z"/>
<path fill="#142671" opacity="1.000000" stroke="none" 
	d="
M392.839355,71.149818 
	C394.639954,70.290558 396.410828,69.576233 398.202454,69.519623 
	C403.329102,69.357674 408.464203,69.462639 414.138519,69.462639 
	C414.266724,71.119255 414.384796,72.645119 414.530396,74.526894 
	C411.863220,74.674736 409.605927,74.799866 406.782532,74.956367 
	C406.782532,81.640015 406.782532,88.345467 406.782532,95.385590 
	C404.682373,95.555748 403.114563,95.682777 401.010498,95.853256 
	C401.010498,88.886116 401.010498,82.171371 401.010498,76.487701 
	C398.694611,72.673843 392.748169,78.098091 392.839355,71.149818 
z"/>
<path fill="#08206B" opacity="1.000000" stroke="none" 
	d="
M442.991364,95.501511 
	C442.143982,95.564659 441.296631,95.627815 440.185394,95.118538 
	C439.233856,90.653725 442.138641,85.942680 437.290039,82.998482 
	C434.553497,78.844536 431.816925,74.690582 428.730072,70.004906 
	C437.964935,68.118477 437.520691,76.280724 441.416229,79.207130 
	C445.554077,76.512177 444.830139,68.049377 453.959137,69.907616 
	C450.665863,75.098732 447.653412,79.847198 444.073242,85.066071 
	C443.334137,88.858162 443.162750,92.179832 442.991364,95.501511 
z"/>
<path fill="#122B71" opacity="1.000000" stroke="none" 
	d="
M264.998901,59.997467 
	C259.147522,60.125771 256.049713,56.640408 254.384583,51.018173 
	C254.798340,43.129162 254.963074,35.898151 254.940262,28.667736 
	C254.937500,27.789148 253.925034,26.913744 253.380539,26.036863 
	C252.181885,24.832235 250.983231,23.627607 249.978790,22.097000 
	C250.173004,21.771021 250.132812,21.692995 250.132812,21.692995 
	C254.460403,21.692995 258.787994,21.692995 263.115601,21.692995 
	C263.347290,22.190712 263.578949,22.688427 263.810638,23.186144 
	C262.798187,23.908789 261.785736,24.631433 260.201172,25.855408 
	C259.457092,33.468811 259.261017,40.580589 259.174591,47.693699 
	C259.169556,48.107830 260.053009,48.532753 260.522949,48.952660 
	C262.196594,51.814949 263.870209,54.677231 265.576538,57.903336 
	C265.405762,58.843922 265.202332,59.420692 264.998901,59.997467 
z"/>
<path fill="#1B3175" opacity="1.000000" stroke="none" 
	d="
M198.049347,89.828194 
	C198.049347,91.921677 198.049347,93.540329 198.049347,95.505157 
	C196.064072,95.598000 194.487915,95.671707 192.551041,95.762291 
	C192.551041,86.923141 192.551041,78.431465 192.551041,69.653671 
	C194.234879,69.653671 195.811661,69.653671 198.049347,69.653671 
	C198.049347,76.242836 198.049347,82.798096 198.049347,89.828194 
z"/>
<path fill="#0B246D" opacity="1.000000" stroke="none" 
	d="
M376.012085,86.933090 
	C376.012085,90.036301 376.012085,92.650307 376.012085,95.476357 
	C373.973663,95.476357 372.380920,95.476357 370.429321,95.476357 
	C370.429321,87.089157 370.429321,78.729889 370.429321,70.146790 
	C372.024323,70.146790 373.736206,70.146790 376.012085,70.146790 
	C376.012085,75.622475 376.012085,81.033173 376.012085,86.933090 
z"/>
<path fill="#041B69" opacity="1.000000" stroke="none" 
	d="
M276.980835,48.996078 
	C276.958313,43.171169 276.962097,37.345989 276.903625,31.521437 
	C276.867188,27.895811 277.997620,23.760103 273.057068,21.532305 
	C276.638489,21.532305 280.219879,21.532305 284.294952,21.532305 
	C277.217590,27.244154 281.260651,34.993458 280.276276,41.864414 
	C279.784210,45.299091 279.567200,48.773174 278.745239,52.565041 
	C277.836761,51.599129 277.408813,50.297604 276.980835,48.996078 
z"/>
<path fill="#050B64" opacity="1.000000" stroke="none" 
	d="
M362.411072,56.650982 
	C365.669800,56.766586 368.507965,57.027897 371.719299,57.115211 
	C375.228638,56.941219 378.364838,56.941219 380.889832,56.941219 
	C382.380096,54.828121 383.449188,53.312214 384.518280,51.796307 
	C384.899109,51.974625 385.279938,52.152946 385.660767,52.331268 
	C385.660767,54.503323 385.660767,56.675377 385.660767,59.015167 
	C377.087921,59.015167 368.558868,59.015167 360.029816,59.015167 
	C359.908875,58.705925 359.787964,58.396683 359.667023,58.087444 
	C360.441528,57.657192 361.216003,57.226936 362.411072,56.650982 
z"/>
<path fill="#050B64" opacity="1.000000" stroke="none" 
	d="
M146.468384,56.801804 
	C149.728195,56.912033 152.562515,57.089710 155.769318,57.091728 
	C158.630188,56.883949 161.138992,57.026775 163.597702,56.740158 
	C164.698151,56.611877 165.821426,55.762421 166.707855,54.982754 
	C167.533356,54.256668 168.058273,53.188843 168.715515,52.271454 
	C169.212799,53.470356 169.845169,54.634850 170.162277,55.879654 
	C170.393005,56.785355 170.207382,57.797123 170.207382,59.027023 
	C161.313980,59.027023 152.761627,59.027023 144.209274,59.027023 
	C144.076065,58.730793 143.942871,58.434563 143.809662,58.138329 
	C144.554077,57.715305 145.298477,57.292278 146.468384,56.801804 
z"/>
<path fill="#000D64" opacity="1.000000" stroke="none" 
	d="
M253.349274,26.501863 
	C253.925034,26.913744 254.937500,27.789148 254.940262,28.667736 
	C254.963074,35.898151 254.798340,43.129162 254.407349,50.662125 
	C254.003693,50.282223 253.883179,49.600189 253.885941,48.397400 
	C254.041748,47.608131 253.968704,47.372334 253.790100,47.169243 
	C253.632721,40.435116 253.475357,33.700989 253.349274,26.501863 
z"/>
<path fill="#101D6D" opacity="1.000000" stroke="none" 
	d="
M276.844360,49.329147 
	C277.408813,50.297604 277.836761,51.599129 278.564148,52.947594 
	C276.795349,59.491421 271.715332,60.553425 265.426086,60.100849 
	C265.202332,59.420692 265.405762,58.843922 265.872192,58.093578 
	C273.592377,57.733616 274.604309,56.943256 276.844360,49.329147 
z"/>
<path fill="#1B216F" opacity="1.000000" stroke="none" 
	d="
M468.556702,83.875687 
	C469.016449,84.433319 469.034088,84.862373 468.762085,85.694885 
	C468.639618,86.426216 468.806763,86.754097 468.973938,87.081970 
	C469.065216,87.601189 469.156464,88.120407 469.347473,88.883606 
	C469.670746,89.896011 469.894287,90.664436 470.440338,92.541260 
	C468.674683,91.067398 467.692047,90.247169 466.458954,89.217842 
	C465.963043,90.172928 465.497681,91.069199 464.356201,93.267677 
	C464.356201,89.473358 464.356201,86.999733 464.356201,83.946053 
	C465.331329,83.894440 466.722961,83.820778 468.556702,83.875687 
z"/>
<path fill="#000D64" opacity="1.000000" stroke="none" 
	d="
M122.148140,53.379398 
	C121.733574,53.734375 121.052933,53.630260 121.054001,53.533714 
	C121.187523,41.500446 121.371269,29.467737 121.893036,17.163342 
	C122.222519,28.902403 122.211433,40.913120 122.148140,53.379398 
z"/>
<path fill="#000060" opacity="1.000000" stroke="none" 
	d="
M114.277084,85.474869 
	C113.817398,82.778633 113.402290,79.621025 112.996635,76.462204 
	C112.768593,74.686401 112.556160,72.908592 112.336693,71.131691 
	C111.707336,71.137245 111.077980,71.142792 110.448616,71.148346 
	C110.190826,76.214386 109.933037,81.280418 109.402222,86.654724 
	C109.129189,81.390160 109.129189,75.817322 109.129189,69.837982 
	C110.591156,69.758141 112.120033,69.674637 114.325623,69.554176 
	C114.325623,74.913750 114.325623,79.963371 114.277084,85.474869 
z"/>
<path fill="#000060" opacity="1.000000" stroke="none" 
	d="
M109.498573,56.940842 
	C111.557953,57.155769 113.208916,57.887581 114.880295,57.937630 
	C123.394310,58.192566 131.913605,58.271152 140.717499,58.718102 
	C131.087570,59.106258 121.170975,59.232388 111.255394,59.176926 
	C110.533012,59.172890 109.818008,57.851963 109.498573,56.940842 
z"/>
<path fill="#00005F" opacity="1.000000" stroke="none" 
	d="
M168.450897,27.747948 
	C167.940079,26.071056 167.853180,24.312462 167.769104,22.611029 
	C160.017349,22.611029 152.713684,22.611029 145.142944,22.954998 
	C142.755798,21.065504 144.545486,21.021618 146.192062,21.016876 
	C153.753479,20.995098 161.314987,21.007288 169.228439,21.007288 
	C169.096924,23.483934 168.985886,25.575090 168.450897,27.747948 
z"/>
<path fill="#000060" opacity="1.000000" stroke="none" 
	d="
M147.678162,25.547810 
	C148.037796,25.412743 148.701111,25.744347 148.697342,26.068199 
	C148.583252,35.889553 148.403473,45.710148 147.845398,55.722565 
	C147.528183,45.946468 147.599533,35.978668 147.678162,25.547810 
z"/>
<path fill="#00005F" opacity="1.000000" stroke="none" 
	d="
M378.346466,23.599649 
	C372.472229,23.223021 366.909546,22.954535 361.095520,23.049139 
	C360.266449,21.167610 360.266266,21.034334 362.346985,21.031311 
	C369.763214,21.020536 377.179626,21.108545 384.356140,21.580246 
	C382.734772,22.582640 381.353180,23.163950 379.971588,23.745262 
	C379.533722,23.732773 379.095886,23.720282 378.346466,23.599649 
z"/>
<path fill="#000863" opacity="1.000000" stroke="none" 
	d="
M260.561096,48.535873 
	C260.053009,48.532753 259.169556,48.107830 259.174591,47.693699 
	C259.261017,40.580589 259.457092,33.468811 259.982788,26.083805 
	C260.424042,33.246948 260.511627,40.683022 260.561096,48.535873 
z"/>
<path fill="#08216C" opacity="1.000000" stroke="none" 
	d="
M380.317169,23.944920 
	C381.353180,23.163950 382.734772,22.582640 384.490906,21.993662 
	C384.865417,23.880850 384.865417,25.775705 384.865417,27.670563 
	C384.469238,27.914858 384.073059,28.159151 383.676849,28.403446 
	C382.672150,26.983824 381.667450,25.564201 380.317169,23.944920 
z"/>
<path fill="#12186C" opacity="1.000000" stroke="none" 
	d="
M437.453003,83.380417 
	C442.138641,85.942680 439.233856,90.653725 439.876587,95.029831 
	C439.403168,93.641830 438.915619,91.781189 438.562195,89.895409 
	C438.181366,87.863327 437.926056,85.807709 437.453003,83.380417 
z"/>
<path fill="#303E7F" opacity="1.000000" stroke="none" 
	d="
M131.596497,70.740768 
	C130.006042,71.088806 128.492325,71.098801 126.600777,71.075867 
	C127.662971,67.622116 129.710999,69.377457 131.596497,70.740768 
z"/>
<path fill="#12186C" opacity="1.000000" stroke="none" 
	d="
M443.391541,95.425858 
	C443.162750,92.179832 443.334137,88.858162 443.825195,85.287949 
	C444.027161,88.476349 443.909454,91.913277 443.391541,95.425858 
z"/>
<path fill="#EBEDF3" opacity="1.000000" stroke="none" 
	d="
M463.691895,95.452827 
	C465.249481,94.689804 467.034515,94.191650 468.819550,93.693504 
	C468.901642,94.054535 468.983704,94.415565 469.065796,94.776596 
	C467.350311,95.090294 465.634827,95.403999 463.691895,95.452827 
z"/>
<path fill="#606E9B" opacity="1.000000" stroke="none" 
	d="
M376.649963,38.097645 
	C375.542786,38.344151 374.019440,38.472435 372.219147,38.408291 
	C373.372742,38.137051 374.803253,38.058239 376.649963,38.097645 
z"/>
<path fill="#EBEDF3" opacity="1.000000" stroke="none" 
	d="
M462.055725,83.040817 
	C461.623291,83.688164 461.190857,84.335503 460.385498,85.000404 
	C460.012543,85.017967 459.869965,84.903374 459.869934,84.903366 
	C460.349030,84.283401 460.828125,83.663452 461.651672,83.018494 
	C461.996094,82.993484 462.055725,83.040825 462.055725,83.040817 
z"/>
<path fill="#EBEDF3" opacity="1.000000" stroke="none" 
	d="
M460.884186,89.709900 
	C460.593079,89.792618 460.204834,89.701721 460.124451,89.492516 
	C460.057465,89.318115 460.351532,89.004982 460.485657,88.753281 
	C460.630554,88.997200 460.775452,89.241127 460.884186,89.709900 
z"/>
<path fill="#EBEDF3" opacity="1.000000" stroke="none" 
	d="
M460.081451,85.078125 
	C459.954651,85.564873 459.758942,85.991455 459.563232,86.418037 
	C459.532257,86.015686 459.501251,85.613342 459.670105,85.057182 
	C459.869965,84.903374 460.012543,85.017967 460.081451,85.078125 
z"/>
<path fill="#303E7F" opacity="1.000000" stroke="none" 
	d="
M131.087677,87.704742 
	C130.878891,87.437706 130.811539,86.867378 130.975739,86.190292 
	C131.214584,86.522842 131.221863,86.962158 131.087677,87.704742 
z"/>
<path fill="#EBEDF3" opacity="1.000000" stroke="none" 
	d="
M461.968079,82.967728 
	C462.099304,82.496483 462.258606,82.050987 462.417877,81.605492 
	C462.442413,81.996773 462.466919,82.388046 462.273590,82.910080 
	C462.055725,83.040825 461.996094,82.993484 461.968079,82.967728 
z"/>
<path fill="#122B71" opacity="1.000000" stroke="none" 
	d="
M250.216843,21.769087 
	C250.260681,21.767153 250.023544,21.803082 250.023544,21.803082 
	C250.023544,21.803082 250.204025,21.864422 250.168427,21.778709 
	C250.132812,21.692995 250.173004,21.771021 250.216843,21.769087 
z"/>
<path fill="#EBEDF3" opacity="1.000000" stroke="none" 
	d="
M465.576660,81.451096 
	C465.627502,81.525612 465.426208,81.550552 465.426208,81.550552 
	C465.426208,81.550552 465.525818,81.376587 465.576660,81.451096 
z"/>
<path fill="#07216B" opacity="1.000000" stroke="none" 
	d="
M68.340103,93.104980 
	C68.280067,92.902176 68.483894,92.590721 68.953354,92.174881 
	C69.013985,92.379112 68.808975,92.687729 68.340103,93.104980 
z"/>
<path fill="#EBEDF3" opacity="1.000000" stroke="none" 
	d="
M461.450378,92.528793 
	C461.417969,92.473412 461.482819,92.584183 461.450378,92.528793 
z"/>
<path fill="#122B71" opacity="1.000000" stroke="none" 
	d="
M253.656921,47.334301 
	C253.968704,47.372334 254.041748,47.608131 253.942413,48.054363 
	C253.607361,48.060242 253.490082,47.815998 253.656921,47.334301 
z"/>
<path fill="#DCDFE9" opacity="1.000000" stroke="none" 
	d="
M59.020672,53.064873 
	C58.570393,47.816166 58.141342,42.565475 57.652107,37.320400 
	C57.553009,36.257996 57.226566,35.216797 56.927910,33.800594 
	C60.506229,36.048939 60.506229,36.048939 62.505753,52.977009 
	C64.977997,53.266403 67.556175,53.568199 70.134346,53.869991 
	C70.132240,54.440514 70.130127,55.011036 70.128021,55.581554 
	C67.727211,55.871307 65.326401,56.161064 63.110233,56.428532 
	C61.377663,64.686348 59.656639,72.889122 57.830601,81.592415 
	C58.536922,81.949303 59.734837,82.554573 61.055077,83.221649 
	C60.728668,83.692108 60.442356,84.408875 60.212498,84.391212 
	C55.518864,84.030441 53.919647,87.455261 51.970760,90.734993 
	C50.280384,93.579674 48.177811,96.189911 46.130890,98.804733 
	C45.631435,99.442764 44.636280,99.692764 43.211922,99.518890 
	C46.293354,94.931404 49.374786,90.343910 52.870701,85.139359 
	C47.726273,85.139359 43.643089,85.139359 38.970200,85.139359 
	C38.970200,89.022430 38.970200,92.885506 38.970200,96.748589 
	C38.326797,96.837799 37.683392,96.927010 37.039989,97.016228 
	C36.715847,94.927177 35.950695,92.793472 36.156818,90.758133 
	C36.626015,86.125069 34.972149,84.381187 30.273825,84.840141 
	C27.460186,85.114998 24.561502,84.519241 21.701044,84.314804 
	C21.737110,83.765564 21.773174,83.216331 21.809238,82.667091 
	C26.360559,82.667091 30.911880,82.667091 35.773926,82.667091 
	C35.773926,73.653893 35.773926,65.109093 35.773926,56.407753 
	C28.823343,56.407753 22.081106,56.407753 14.575545,56.407753 
	C15.761372,63.403320 16.883665,70.024094 18.005960,76.644859 
	C13.850520,72.525352 14.036593,67.021286 12.915702,61.912167 
	C12.369238,59.421345 11.190679,57.069195 10.298242,54.654274 
	C9.743537,54.588436 9.188833,54.522598 8.634129,54.456760 
	C9.916631,53.818817 11.199133,53.180870 11.952226,52.806267 
	C13.450974,45.145878 14.878132,37.851410 16.426390,29.937977 
	C14.447401,29.937977 12.209488,29.991611 9.975121,29.925459 
	C6.590466,29.825249 5.692501,27.356096 7.223052,25.222452 
	C12.663830,17.637810 18.686146,10.535373 28.683676,8.215418 
	C22.635176,13.569555 16.174446,18.597994 9.368927,23.894787 
	C15.175012,27.428841 18.236309,26.562929 21.031704,21.941889 
	C23.423716,17.987675 26.154364,14.238308 28.735235,10.398339 
	C29.179916,10.660400 29.624596,10.922462 30.069275,11.184523 
	C29.886030,12.074709 29.702784,12.964894 29.267021,14.052547 
	C26.824316,17.767672 24.634127,21.285326 22.268780,25.165339 
	C26.590363,25.833534 31.087099,26.139372 35.964695,26.471115 
	C35.964695,20.512371 35.964695,15.253648 35.973221,10.001320 
	C35.981743,10.007715 36.001621,9.999792 36.001621,9.999792 
	C36.957058,10.545197 38.212692,10.883633 38.775398,11.699803 
	C39.247486,12.384540 38.908997,13.626527 38.933537,14.621688 
	C39.061161,19.796921 37.143612,25.831285 44.301720,28.382084 
	C42.467693,28.924322 40.864182,29.043016 39.267799,29.161180 
	C39.267799,37.341118 39.267799,45.243721 39.267799,53.064873 
	C46.065601,53.064873 52.543137,53.064873 59.020672,53.064873 
M16.903105,53.265289 
	C23.163595,53.265289 29.424084,53.265289 35.722553,53.265289 
	C35.722553,44.896473 35.722553,37.021858 35.722553,28.952946 
	C31.255186,28.952946 27.101902,28.816885 22.968561,29.043930 
	C21.867949,29.104387 20.828466,30.277760 19.238832,31.446955 
	C18.675694,33.163116 17.819555,34.843346 17.603870,36.602119 
	C16.933289,42.070374 16.505634,47.568428 16.903105,53.265289 
M45.454586,82.418457 
	C47.284668,82.417969 49.172260,82.694176 50.926647,82.329514 
	C52.332146,82.037384 54.452621,81.223534 54.751762,80.201164 
	C57.006359,72.495506 58.888660,64.680916 61.024750,56.365234 
	C52.848923,56.365234 46.106785,56.365234 39.206276,56.365234 
	C39.206276,65.136688 39.206276,73.688057 39.206276,82.418625 
	C41.164543,82.418625 42.820187,82.418625 45.454586,82.418457 
z"/>
<path fill="#E9AB39" opacity="1.000000" stroke="none" 
	d="
M61.961727,25.147018 
	C55.264397,18.999142 48.567062,12.851268 41.578186,6.435768 
	C44.541332,7.171319 48.362690,7.136015 50.861523,8.936354 
	C56.844135,13.246659 62.099747,18.551876 67.880463,23.165237 
	C69.597206,24.535307 72.084015,24.940462 75.019211,25.787952 
	C77.213440,25.727488 78.606415,25.666819 79.999397,25.606150 
	C81.472084,25.746593 82.944763,25.887039 84.526474,26.037880 
	C85.835587,29.510950 84.778198,30.972515 81.053589,30.717686 
	C78.473732,30.541178 75.872040,30.683748 73.130211,30.683748 
	C81.709656,54.646301 81.557747,76.173653 59.316475,92.907394 
	C58.566822,92.642334 58.385052,92.500366 58.203278,92.358391 
	C68.019859,81.059448 73.755028,68.204330 73.078201,52.960400 
	C72.961136,50.323936 72.626526,47.675747 72.138397,45.080753 
	C69.665382,31.933626 68.139114,30.731031 54.938316,30.652180 
	C51.893158,30.633991 47.754543,32.057549 47.920559,26.098040 
	C49.283672,25.998358 50.710144,25.894043 52.898026,25.784737 
	C54.105831,25.721884 54.552227,25.664019 54.998623,25.606155 
	C57.048183,25.661783 59.097748,25.717411 61.712936,25.696657 
	C62.278564,25.620275 62.373135,25.289345 62.373135,25.289345 
	C62.373135,25.289345 61.961727,25.147018 61.961727,25.147018 
z"/>
<path fill="#0B226D" opacity="1.000000" stroke="none" 
	d="
M29.519539,13.855081 
	C29.702784,12.964894 29.886030,12.074709 30.069275,11.184523 
	C29.624596,10.922462 29.179916,10.660400 28.735235,10.398339 
	C26.154364,14.238308 23.423716,17.987675 21.031704,21.941889 
	C18.236309,26.562929 15.175012,27.428841 9.368927,23.894787 
	C16.174446,18.597994 22.635176,13.569555 29.072948,8.175663 
	C30.413771,5.060092 32.086189,5.313756 33.861343,7.969885 
	C32.363335,10.372860 30.941437,12.113970 29.519539,13.855081 
z"/>
<path fill="#07216B" opacity="1.000000" stroke="none" 
	d="
M29.267021,14.052547 
	C30.941437,12.113970 32.363335,10.372860 33.962601,8.321382 
	C34.734444,8.467937 35.328918,8.924859 35.962509,9.690786 
	C36.001621,9.999792 35.981743,10.007715 35.683922,10.300633 
	C35.256477,11.556304 35.031765,12.517079 35.011688,13.482110 
	C34.761097,25.528509 34.768715,25.528667 22.443935,24.802982 
	C24.634127,21.285326 26.824316,17.767672 29.267021,14.052547 
z"/>
<path fill="#D8DBE5" opacity="1.000000" stroke="none" 
	d="
M63.775421,9.125948 
	C69.186050,13.276001 74.269356,17.252926 79.352661,21.229853 
	C78.994026,21.710146 78.635384,22.190439 78.276749,22.670732 
	C70.985153,17.494158 63.693558,12.317582 55.224174,6.304851 
	C58.736214,7.435672 61.092152,8.194245 63.775421,9.125948 
z"/>
<path fill="#000360" opacity="1.000000" stroke="none" 
	d="
M58.736374,52.753689 
	C52.543137,53.064873 46.065601,53.064873 39.267799,53.064873 
	C39.267799,45.243721 39.267799,37.341118 39.267799,29.161180 
	C40.864182,29.043016 42.467693,28.924322 44.499405,28.657700 
	C38.558804,30.182602 40.039066,35.327511 40.023350,39.741890 
	C39.979713,51.998257 40.008289,51.977097 52.069733,52.018879 
	C54.197639,52.026249 56.324650,52.294647 58.736374,52.753689 
z"/>
<path fill="#07216B" opacity="1.000000" stroke="none" 
	d="
M79.935150,25.333828 
	C78.606415,25.666819 77.213440,25.727488 75.410393,25.697155 
	C76.623848,25.424604 78.247375,25.243055 79.935150,25.333828 
z"/>
<path fill="#07216B" opacity="1.000000" stroke="none" 
	d="
M55.924732,95.431778 
	C55.389317,95.916595 54.863647,96.413902 54.295811,96.857193 
	C54.259277,96.885719 53.897110,96.497101 53.686424,96.302536 
	C54.158241,95.905357 54.630054,95.508179 55.525620,95.125961 
	C55.949375,95.140923 55.924732,95.431778 55.924732,95.431778 
z"/>
<path fill="#07216B" opacity="1.000000" stroke="none" 
	d="
M54.943367,25.353771 
	C54.552227,25.664019 54.105831,25.721884 53.330261,25.692951 
	C53.630096,25.437901 54.259102,25.269644 54.943367,25.353771 
z"/>
<path fill="#E9AB39" opacity="1.000000" stroke="none" 
	d="
M56.912163,93.918175 
	C57.203518,93.503296 57.494873,93.088417 57.994755,92.515968 
	C58.385052,92.500366 58.566822,92.642334 58.998825,93.023293 
	C58.823483,93.588432 58.397911,93.914581 57.579124,94.207520 
	C57.185917,94.174309 56.912163,93.918175 56.912163,93.918175 
z"/>
<path fill="#07216B" opacity="1.000000" stroke="none" 
	d="
M61.973110,25.240131 
	C61.961727,25.147018 62.373135,25.289345 62.373135,25.289345 
	C62.373135,25.289345 62.278564,25.620275 62.134834,25.570507 
	C61.991104,25.520739 61.984493,25.333242 61.973110,25.240131 
z"/>
<path fill="#E9AB39" opacity="1.000000" stroke="none" 
	d="
M55.807739,95.105682 
	C55.886425,94.740807 56.106747,94.411186 56.619614,93.999870 
	C56.912163,93.918175 57.185917,94.174309 57.322029,94.307426 
	C57.143993,94.704964 56.829838,94.969383 56.220207,95.332794 
	C55.924732,95.431778 55.949375,95.140923 55.807739,95.105682 
z"/>
<path fill="#FBFCFD" opacity="1.000000" stroke="none" 
	d="
M468.984985,86.794357 
	C468.806763,86.754097 468.639618,86.426216 468.725342,86.014847 
	C468.984131,86.123161 468.990112,86.314949 468.984985,86.794357 
z"/>
<path fill="#F3F5F8" opacity="1.000000" stroke="none" 
	d="
M297.085724,30.063297 
	C297.085724,27.793240 297.085724,26.001511 297.085724,24.255442 
	C303.856415,23.452763 306.246552,25.079796 306.623016,30.461130 
	C307.044250,36.482841 303.690399,39.942108 297.085724,39.842461 
	C297.085724,36.750248 297.085724,33.645939 297.085724,30.063297 
z"/>
<path fill="#EEEFF3" opacity="1.000000" stroke="none" 
	d="
M303.920349,74.452675 
	C307.195679,74.563339 310.485565,74.549789 310.263672,78.480370 
	C310.191620,79.756927 307.846130,80.923416 306.496490,82.089256 
	C306.301941,82.257278 305.859131,82.148712 305.531158,82.149529 
	C303.910461,82.153587 302.289764,82.151375 300.058685,82.151375 
	C301.269196,79.252312 296.967590,74.780670 303.920349,74.452675 
z"/>
<path fill="#F0F1F5" opacity="1.000000" stroke="none" 
	d="
M402.464783,35.448753 
	C403.102539,33.800251 403.556519,32.488430 404.541473,29.642408 
	C407.077423,35.421497 409.014404,39.835541 411.142639,44.685505 
	C406.915436,44.685505 403.112030,44.685505 398.942413,44.685505 
	C400.104187,41.588490 401.192627,38.686958 402.464783,35.448753 
z"/>
<path fill="#07216C" opacity="1.000000" stroke="none" 
	d="
M44.965210,82.418541 
	C42.820187,82.418625 41.164543,82.418625 39.206276,82.418625 
	C39.206276,73.688057 39.206276,65.136688 39.206276,56.365234 
	C46.106785,56.365234 52.848923,56.365234 61.024750,56.365234 
	C58.888660,64.680916 57.006359,72.495506 54.751762,80.201164 
	C54.452621,81.223534 52.332146,82.037384 50.926647,82.329514 
	C49.172260,82.694176 47.284668,82.417969 44.965210,82.418541 
z"/>
<path fill="#021F6A" opacity="1.000000" stroke="none" 
	d="
M15.983742,53.054920 
	C16.505634,47.568428 16.933289,42.070374 17.603870,36.602119 
	C17.819555,34.843346 18.675694,33.163116 19.912018,31.071426 
	C24.044804,30.465912 27.510094,30.298901 30.962271,29.986816 
	C33.938221,29.717783 35.270885,30.811438 35.039051,33.931992 
	C34.842239,36.581116 34.999874,39.256546 34.999924,41.920334 
	C35.000114,52.001705 34.998928,51.920448 25.130957,52.050034 
	C22.078012,52.090122 19.032600,52.703838 15.983742,53.054920 
z"/>
<path fill="#000561" opacity="1.000000" stroke="none" 
	d="
M16.443422,53.160103 
	C19.032600,52.703838 22.078012,52.090122 25.130957,52.050034 
	C34.998928,51.920448 35.000114,52.001705 34.999924,41.920334 
	C34.999874,39.256546 34.842239,36.581116 35.039051,33.931992 
	C35.270885,30.811438 33.938221,29.717783 30.962271,29.986816 
	C27.510094,30.298901 24.044804,30.465912 20.173061,30.818031 
	C20.828466,30.277760 21.867949,29.104387 22.968561,29.043930 
	C27.101902,28.816885 31.255186,28.952946 35.722553,28.952946 
	C35.722553,37.021858 35.722553,44.896473 35.722553,53.265289 
	C29.424084,53.265289 23.163595,53.265289 16.443422,53.160103 
z"/>
<path fill="#000561" opacity="1.000000" stroke="none" 
	d="
M22.268780,25.165339 
	C34.768715,25.528667 34.761097,25.528509 35.011688,13.482110 
	C35.031765,12.517079 35.256477,11.556304 35.675396,10.294237 
	C35.964695,15.253648 35.964695,20.512371 35.964695,26.471115 
	C31.087099,26.139372 26.590363,25.833534 22.268780,25.165339 
z"/>
</svg>