<?xml version="1.0" encoding="UTF-8"?>
<svg version="1.1" xmlns="http://www.w3.org/2000/svg" width="760" height="565">
<path d="M0 0 C250.8 0 501.6 0 760 0 C760 186.45 760 372.9 760 565 C509.2 565 258.4 565 0 565 C0 378.55 0 192.1 0 0 Z " fill="#324052" transform="translate(0,0)"/>
<path d="M0 0 C1.79069206 1.66103334 3.46008448 3.37528329 5.12109375 5.1640625 C8.16323038 8.00779891 10.2562453 8.8282131 14.1015625 10.078125 C17.75362476 11.56907 20.06740981 14.36485888 22.11669922 17.64550781 C23.234978 20.45082905 23.22219088 22.69404397 23.19140625 25.7109375 C23.18496094 26.82597656 23.17851562 27.94101562 23.171875 29.08984375 C23.15511719 30.24871094 23.13835937 31.40757812 23.12109375 32.6015625 C23.11207031 33.77589844 23.10304688 34.95023437 23.09375 36.16015625 C23.07019438 39.05749786 23.03730027 41.95442691 22.99609375 44.8515625 C23.81698486 44.83061523 24.63787598 44.80966797 25.48364258 44.78808594 C28.58304549 44.7191667 31.6820529 44.66940629 34.78198242 44.63183594 C36.76182283 44.60226116 38.74130876 44.55138717 40.72070312 44.5 C50.13659969 44.40464915 57.61723838 45.7437794 65.80859375 50.4765625 C71.7583756 56.93632565 75.12581856 63.67044213 75.10961914 72.43432617 C75.10976517 73.09800705 75.10991119 73.76168793 75.11006165 74.44548035 C75.10936557 76.63686402 75.10158745 78.82816245 75.09375 81.01953125 C75.09188474 82.53981988 75.09046134 84.06010911 75.08946228 85.58039856 C75.08564563 89.58020693 75.0758226 93.57997894 75.0647583 97.57977295 C75.05452588 101.66190092 75.04996073 105.74403477 75.04492188 109.82617188 C75.03419958 117.83465395 75.01660966 125.84309951 74.99609375 133.8515625 C79.28609375 133.8515625 83.57609375 133.8515625 87.99609375 133.8515625 C88.05083538 124.45405713 88.06239264 115.05776357 88.0194397 105.66019344 C88.00083606 101.29597342 87.99687975 96.9327817 88.02685547 92.56860352 C88.05526098 88.35346516 88.04459252 84.1400407 88.0072937 79.9249897 C87.99987049 78.32032177 88.00631907 76.71552541 88.02713013 75.11097527 C88.39452602 66.27949913 88.39452602 66.27949913 85.21435547 58.3487854 C83.22367072 56.60842443 81.23852319 55.23946955 78.99609375 53.8515625 C73.81891894 47.38009399 73.28126727 40.4282346 73.57421875 32.34765625 C74.13009858 27.7410595 75.29329464 24.58357319 77.99609375 20.8515625 C78.67671875 19.8203125 79.35734375 18.7890625 80.05859375 17.7265625 C84.70034473 12.60657051 90.67262296 9.37808989 97.47265625 8.30078125 C105.48996937 7.99511027 111.31228217 9.45096137 117.99609375 13.8515625 C118.92421875 14.4496875 119.85234375 15.0478125 120.80859375 15.6640625 C127.11734111 21.97280986 129.09259398 28.2448968 129.37109375 37.0390625 C129.29710164 43.58736392 128.04448553 48.63925808 123.99609375 53.8515625 C123.36977051 54.24147873 122.74344727 54.63139496 122.09814453 55.03312683 C118.16957817 57.63526284 116.26414232 59.61288972 115.24951172 64.30157471 C114.86918741 68.69855303 114.93891115 73.09507947 114.99609375 77.50390625 C114.98856865 79.13059932 114.9775289 80.7572796 114.96313477 82.38392639 C114.93478657 86.64722002 114.95393295 90.90900586 114.98321533 95.17224121 C115.00465982 99.52963951 114.98085349 103.88676981 114.9609375 108.24414062 C114.92854933 116.78032976 114.94636989 125.31545847 114.99609375 133.8515625 C116.27226563 133.82835937 117.5484375 133.80515625 118.86328125 133.78125 C120.53254625 133.76249421 122.20181755 133.74429381 123.87109375 133.7265625 C124.71285156 133.70980469 125.55460937 133.69304687 126.421875 133.67578125 C127.22753906 133.66933594 128.03320312 133.66289062 128.86328125 133.65625 C129.97872314 133.64053955 129.97872314 133.64053955 131.11669922 133.62451172 C132.99609375 133.8515625 132.99609375 133.8515625 134.99609375 135.8515625 C135.19140625 138.453125 135.19140625 138.453125 135.12109375 141.4765625 C135.10304688 142.47945312 135.085 143.48234375 135.06640625 144.515625 C135.04320312 145.28648437 135.02 146.05734375 134.99609375 146.8515625 C135.64835937 146.80515625 136.300625 146.75875 136.97265625 146.7109375 C142.90598207 146.4659034 146.35471113 146.76272543 150.99609375 150.8515625 C151.77984375 151.5115625 152.56359375 152.1715625 153.37109375 152.8515625 C155.98396965 157.67533338 155.72214486 162.49330528 154.99609375 167.8515625 C152.7614627 172.40063286 150.0274956 175.66065463 145.24609375 177.5390625 C141.81865917 178.01509508 138.45493072 177.90920978 134.99609375 177.8515625 C135.00769531 178.63402344 135.01929688 179.41648437 135.03125 180.22265625 C135.04478516 181.74052734 135.04478516 181.74052734 135.05859375 183.2890625 C135.07019531 184.29839844 135.08179688 185.30773437 135.09375 186.34765625 C134.99609375 188.8515625 134.99609375 188.8515625 133.99609375 189.8515625 C132.15491346 189.94537552 130.31011734 189.96900204 128.46655273 189.96508789 C127.2854039 189.96501236 126.10425507 189.96493683 124.88731384 189.96485901 C123.60192215 189.95969772 122.31653046 189.95453644 120.9921875 189.94921875 C119.02995995 189.94709633 119.02995995 189.94709633 117.02809143 189.94493103 C113.54446516 189.9411066 110.06088036 189.93127696 106.57727051 189.92022705 C103.02482667 189.91001132 99.47237616 189.90543306 95.91992188 189.90039062 C88.94529543 189.88965462 81.97069658 189.8725791 74.99609375 189.8515625 C75.0049762 190.68348618 75.01385864 191.51540985 75.02301025 192.37254333 C75.10342022 200.24281956 75.16419165 208.11295625 75.20334244 215.98355007 C75.22414755 220.02917048 75.25233401 224.07444922 75.29785156 228.11987305 C75.34156433 232.02971276 75.36528397 235.93922547 75.37560272 239.84929085 C75.38294881 241.33513595 75.39729334 242.82096474 75.41901398 244.30666924 C75.56352861 254.60863728 74.81499687 263.15149513 67.74609375 271.1640625 C67.2253125 271.77894531 66.70453125 272.39382813 66.16796875 273.02734375 C58.58201089 279.3990026 51.42425698 279.42441239 41.90769958 279.35276794 C40.47447266 279.35666427 39.0412496 279.36230736 37.60803562 279.36953884 C33.68314014 279.38426393 29.75864706 279.37413002 25.83376467 279.35980213 C21.59581147 279.34867948 17.35791411 279.36063917 13.1199646 279.36964417 C4.82344682 279.38356947 -3.47291864 279.37602586 -11.76942915 279.36096858 C-21.4319207 279.34410025 -31.09437439 279.34731976 -40.7568761 279.35106266 C-57.99704648 279.35693987 -75.2371438 279.34277473 -92.47729492 279.31811523 C-109.20518736 279.29419115 -125.9329822 279.28711261 -142.66088867 279.29760742 C-160.87934568 279.30901691 -179.09775756 279.31094659 -197.31621403 279.29650933 C-199.25884846 279.29498349 -201.20148291 279.29346314 -203.14411736 279.29194832 C-204.09991873 279.2911905 -205.05572011 279.29043269 -206.04048516 279.28965191 C-212.77544117 279.28490962 -219.51037702 279.28676011 -226.24533272 279.29101372 C-234.45239953 279.29594051 -242.65937406 279.2899553 -250.86641974 279.27011942 C-255.05361282 279.26024853 -259.24066541 279.25514013 -263.42786598 279.26301193 C-267.26147945 279.27007156 -271.09480949 279.26325767 -274.92838561 279.2454083 C-276.31452833 279.24136565 -277.70069691 279.24236065 -279.08682997 279.24892717 C-289.72877406 279.29502316 -296.21902604 278.12716998 -304.20703125 270.8203125 C-309.98751851 264.48690907 -311.15108038 257.45644989 -311.16453552 249.15550232 C-311.16962334 248.37580379 -311.17471116 247.59610526 -311.17995316 246.79277951 C-311.19566139 244.17752857 -311.20419847 241.56230524 -311.21264648 238.94702148 C-311.22218637 237.07267584 -311.2320776 235.19833195 -311.24229431 233.32398987 C-311.27366759 227.16523322 -311.29394667 221.00646313 -311.3125 214.84765625 C-311.31579732 213.79912767 -311.31909464 212.75059908 -311.32249188 211.67029691 C-311.35327512 201.77750919 -311.3799769 191.88471839 -311.39691067 181.99189663 C-311.41880701 169.34908909 -311.4607586 156.70670677 -311.53034824 144.06406921 C-311.5776437 135.1687759 -311.60185174 126.27359708 -311.60910755 117.37818199 C-311.61405586 112.06856556 -311.62905875 106.75942852 -311.66885185 101.44994926 C-311.70582884 96.45030315 -311.71409158 91.45140803 -311.70084572 86.45165062 C-311.70089949 84.62275939 -311.71112139 82.79383395 -311.73259735 80.96506882 C-311.84647323 70.7150537 -311.73836338 62.253935 -305.00390625 53.8515625 C-298.46289256 47.62917922 -291.59976213 44.44580496 -282.5390625 44.55859375 C-281.86088974 44.56283859 -281.18271698 44.56708344 -280.48399353 44.57145691 C-278.34437223 44.58808309 -276.20573678 44.62570076 -274.06640625 44.6640625 C-272.60483143 44.67913028 -271.14324167 44.692815 -269.68164062 44.70507812 C-266.12208228 44.73793273 -262.56309069 44.78960009 -259.00390625 44.8515625 C-259.03009033 44.13613281 -259.05627441 43.42070312 -259.08325195 42.68359375 C-259.18791404 39.4064781 -259.25245121 36.12971513 -259.31640625 32.8515625 C-259.35830078 31.72621094 -259.40019531 30.60085938 -259.44335938 29.44140625 C-259.5478427 22.29474677 -258.89061354 17.287631 -254.00390625 11.8515625 C-251.54194639 10.0050926 -249.54593112 9.02272825 -246.62890625 8.1015625 C-243.96182582 6.8315242 -242.81933329 5.73815226 -240.83203125 3.61328125 C-237.24055598 -0.04180963 -233.4484521 -2.85169488 -229.12890625 -5.5859375 C-228.3913208 -6.05475342 -227.65373535 -6.52356934 -226.89379883 -7.0065918 C-167.63290514 -43.87402603 -55.17474759 -46.70779645 0 0 Z " fill="#FCFDFD" transform="translate(483.00390625,228.1484375)"/>
<path d="M0 0 C95.7 0 191.4 0 290 0 C290 45.54 290 91.08 290 138 C194.3 138 98.6 138 0 138 C0 92.46 0 46.92 0 0 Z " fill="#334153" transform="translate(220,321)"/>
<path d="M0 0 C1.05048523 0.00607269 1.05048523 0.00607269 2.12219238 0.01226807 C2.86054321 0.00876343 3.59889404 0.00525879 4.35961914 0.00164795 C6.80661346 -0.00717336 9.25331999 -0.00131891 11.70031738 0.00543213 C13.39660701 0.00408559 15.09289627 0.00214515 16.78918457 -0.00036621 C20.34683908 -0.00331801 23.90439327 0.00098194 27.46203613 0.01031494 C32.02882879 0.02170954 36.59538638 0.01515036 41.16217041 0.00317001 C44.66566752 -0.0040471 48.16910865 -0.00176135 51.67260742 0.0034256 C53.35677111 0.00476251 55.04093984 0.00311293 56.72509766 -0.00153351 C59.07635012 -0.00659634 61.42721861 0.0011078 63.77844238 0.01226807 C64.82892761 0.00619537 64.82892761 0.00619537 65.90063477 0 C70.72178823 0.04252797 70.72178823 0.04252797 72.95031738 2.27105713 C73.20199966 4.08892059 73.20199966 4.08892059 73.20428467 6.3324585 C73.20992432 7.18214706 73.21556396 8.03183563 73.22137451 8.90727234 C73.21732605 9.84136429 73.21327759 10.77545624 73.20910645 11.737854 C73.21261108 12.7200441 73.21611572 13.70223419 73.21972656 14.71418762 C73.22855564 17.97279858 73.22269054 21.23119382 73.21594238 24.48980713 C73.21728869 26.7466028 73.21922894 29.00339819 73.22174072 31.26019287 C73.22469358 35.99479935 73.22038912 40.72933048 73.21105957 45.46392822 C73.19966499 51.54405464 73.20622359 57.62400451 73.2182045 63.70412445 C73.22541871 68.36569559 73.22313718 73.02722462 73.21794891 77.688797 C73.2166112 79.93117799 73.21826435 82.17356275 73.22290802 84.41593933 C73.22796602 87.54548322 73.22027317 90.67473799 73.20910645 93.80426025 C73.21315491 94.7383522 73.21720337 95.67244415 73.22137451 96.63484192 C73.21573486 97.48453049 73.21009521 98.33421906 73.20428467 99.20965576 C73.20353062 99.95002327 73.20277657 100.69039078 73.20199966 101.45319366 C72.95031738 103.27105713 72.95031738 103.27105713 70.95031738 105.27105713 C68.52201677 105.46920897 66.20777719 105.5438898 63.77844238 105.52984619 C62.67091614 105.53510315 62.67091614 105.53510315 61.54101562 105.54046631 C59.0940213 105.54928762 56.64731478 105.54343317 54.20031738 105.53668213 C52.50402775 105.53802867 50.8077385 105.5399691 49.1114502 105.54248047 C45.55379569 105.54543227 41.9962415 105.54113232 38.43859863 105.53179932 C33.87180598 105.52040472 29.30524838 105.52696389 24.73846436 105.53894424 C21.23496724 105.54616135 17.73152612 105.54387561 14.22802734 105.53868866 C12.54386365 105.53735175 10.85969492 105.53900133 9.17553711 105.54364777 C6.82428464 105.5487106 4.47341615 105.54100645 2.12219238 105.52984619 C1.4218689 105.53389465 0.72154541 105.53794312 0 105.54211426 C-4.82115346 105.49958628 -4.82115346 105.49958628 -7.04968262 103.27105713 C-7.3013649 101.45319366 -7.3013649 101.45319366 -7.3036499 99.20965576 C-7.30928955 98.35996719 -7.3149292 97.51027863 -7.32073975 96.63484192 C-7.31669128 95.70074997 -7.31264282 94.76665802 -7.30847168 93.80426025 C-7.31197632 92.82207016 -7.31548096 91.83988007 -7.3190918 90.82792664 C-7.32792087 87.56931568 -7.32205577 84.31092043 -7.31530762 81.05230713 C-7.31665393 78.79551146 -7.31859417 76.53871606 -7.32110596 74.28192139 C-7.32405882 69.5473149 -7.31975435 64.81278378 -7.3104248 60.07818604 C-7.29903023 53.99805961 -7.30558883 47.91810974 -7.31756973 41.83798981 C-7.32478394 37.17641867 -7.32250242 32.51488964 -7.31731415 27.85331726 C-7.31597644 25.61093627 -7.31762959 23.36855151 -7.32227325 21.12617493 C-7.32733126 17.99663103 -7.3196384 14.86737627 -7.30847168 11.737854 C-7.31252014 10.80376205 -7.3165686 9.8696701 -7.32073975 8.90727234 C-7.3151001 8.05758377 -7.30946045 7.2078952 -7.3036499 6.3324585 C-7.30289585 5.59209099 -7.3021418 4.85172348 -7.3013649 4.08892059 C-6.70105147 -0.24705349 -3.66244101 0.03230683 0 0 Z " fill="#324052" transform="translate(332.0496826171875,337.72894287109375)"/>
<path d="M0 0 C1.0668679 0.00842926 1.0668679 0.00842926 2.1552887 0.01702881 C3.27985474 0.01418129 3.27985474 0.01418129 4.42713928 0.01127625 C6.91141636 0.00756394 9.39540273 0.01827811 11.87965393 0.02947998 C13.60075852 0.03067153 15.32186377 0.031125 17.04296875 0.03086853 C20.65190189 0.03243413 24.26073595 0.04073024 27.86964417 0.05413818 C32.50598345 0.07114088 37.14221386 0.07495221 41.77858067 0.074193 C45.33264209 0.07446432 48.8866795 0.07993915 52.44073296 0.08719444 C54.15084082 0.09038635 55.86095141 0.09234973 57.57106209 0.09308815 C59.95595608 0.0952455 62.34073231 0.10397611 64.7256012 0.11468506 C65.4388707 0.11423187 66.1521402 0.11377869 66.88702393 0.11331177 C71.76127257 0.14547362 71.76127257 0.14547362 72.87574768 1.25994873 C72.98178073 4.41534859 73.02252161 7.54898246 73.02101135 10.70501709 C73.02436996 11.69681473 73.02772858 12.68861237 73.03118896 13.71046448 C73.04073054 17.00691969 73.04264367 20.30332429 73.04371643 23.59979248 C73.04692673 25.88043743 73.05029062 28.16108218 73.05380249 30.44172668 C73.05980176 35.2293648 73.06164157 40.01698485 73.06105042 44.80462646 C73.06094873 50.95314936 73.07460353 57.10155692 73.09182262 63.25005245 C73.10291623 67.96222979 73.10497044 72.67437901 73.10444069 77.38656807 C73.1056247 79.65407267 73.11006986 81.92157792 73.11777306 84.18906975 C73.12752003 87.35462502 73.12471594 90.51992688 73.1186676 93.68548584 C73.12428711 94.63049957 73.12990662 95.57551331 73.13569641 96.54916382 C73.13150192 97.4087117 73.12730743 98.26825958 73.12298584 99.15385437 C73.12353061 99.90289504 73.12407537 100.65193571 73.12463665 101.42367458 C72.87574768 103.25994873 72.87574768 103.25994873 70.87574768 105.25994873 C67.80813599 105.52064514 67.80813599 105.52064514 63.8115387 105.53460693 C63.08454773 105.53971786 62.35755676 105.5448288 61.60853577 105.5500946 C59.19882537 105.56402568 56.78939987 105.5630312 54.37965393 105.56072998 C52.70817966 105.56461508 51.03670637 105.56894937 49.36523438 105.57371521 C45.85885928 105.58118505 42.35258485 105.58088072 38.84620667 105.57562256 C34.348936 105.56982789 29.85207717 105.58675494 25.35487461 105.60996723 C21.90194278 105.62468718 18.44911052 105.62557864 14.99615288 105.6224575 C13.33792747 105.62297163 11.67969662 105.62822641 10.02150154 105.63826942 C7.70384465 105.65058274 5.38699481 105.6438735 3.0693512 105.63226318 C1.08984215 105.63320732 1.08984215 105.63320732 -0.92965698 105.63417053 C-4.12425232 105.25994873 -4.12425232 105.25994873 -5.80052567 103.99554062 C-7.42935256 101.85991939 -7.49908467 100.7808642 -7.49847412 98.11625671 C-7.50548843 97.27360764 -7.51250275 96.43095856 -7.51972961 95.56277466 C-7.51208588 94.64162872 -7.50444214 93.72048279 -7.49656677 92.77142334 C-7.50021744 91.79884079 -7.5038681 90.82625824 -7.50762939 89.82420349 C-7.51574787 86.60338991 -7.50211477 83.38307733 -7.48753357 80.16229248 C-7.48701516 77.92934672 -7.48753211 75.69640051 -7.48904419 73.4634552 C-7.48895441 68.78186233 -7.47851247 64.10044147 -7.46043396 59.41888428 C-7.43773359 53.40715542 -7.43720448 47.39567774 -7.44395161 41.38391781 C-7.447287 36.77295179 -7.44066983 32.16204343 -7.43082237 27.55108833 C-7.42696364 25.3338304 -7.42582493 23.11656607 -7.42740822 20.89930534 C-7.42777755 17.80577157 -7.41519616 14.71256447 -7.39891052 11.61907959 C-7.40138794 10.69590942 -7.40386536 9.77273926 -7.40641785 8.82159424 C-7.39933304 7.98176498 -7.39224823 7.14193573 -7.38494873 6.2766571 C-7.38186943 5.17911559 -7.38186943 5.17911559 -7.37872791 4.05940151 C-6.76258162 -0.29750418 -3.66877989 0.02370425 0 0 Z " fill="#354355" transform="translate(239.12425231933594,337.74005126953125)"/>
<path d="M0 0 C0.73835083 -0.0049649 1.47670166 -0.00992981 2.23742676 -0.01504517 C4.68433557 -0.0296728 7.13117962 -0.03646873 9.578125 -0.04199219 C11.27441409 -0.04774185 12.97070315 -0.05349961 14.66699219 -0.05926514 C18.22461246 -0.06977595 21.78221013 -0.07561851 25.33984375 -0.07910156 C29.9066852 -0.08459545 34.47322986 -0.108642 39.03997803 -0.13707352 C42.54346604 -0.15565938 46.04688188 -0.16090326 49.55041504 -0.16243744 C51.23459501 -0.16547221 52.91877347 -0.17352832 54.60290527 -0.18662262 C56.9542531 -0.20360383 59.30486641 -0.2018231 61.65625 -0.1953125 C62.35657349 -0.20452728 63.05689697 -0.21374207 63.77844238 -0.22323608 C65.71582031 -0.20635986 65.71582031 -0.20635986 68.828125 0.16113281 C70.86644767 3.21861681 71.07906346 3.82158627 71.08882141 7.26013184 C71.09590622 8.0929216 71.10299103 8.92571136 71.11029053 9.78373718 C71.10781311 10.69396133 71.10533569 11.60418549 71.1027832 12.54199219 C71.10789413 13.50321487 71.11300507 14.46443756 71.11827087 15.45478821 C71.13219301 18.63821606 71.13120829 21.8214281 71.12890625 25.00488281 C71.13279139 27.21301352 71.13712568 29.42114348 71.14189148 31.62927246 C71.14935908 36.25954612 71.14905823 40.88974354 71.14379883 45.52001953 C71.1379998 51.46219519 71.15494322 57.40405961 71.1781435 63.34618378 C71.19285288 67.90657383 71.19375642 72.46688841 71.19063377 77.02729797 C71.19114827 79.21861895 71.19640997 81.40994401 71.20644569 83.60124207 C71.21874021 86.66112696 71.21206067 89.72039884 71.20043945 92.78027344 C71.20808319 93.69049759 71.21572693 94.60072174 71.22360229 95.53852844 C71.21658798 96.37131821 71.20957367 97.20410797 71.2023468 98.06213379 C71.20251454 98.785532 71.20268229 99.50893021 71.20285511 100.25424957 C70.71177849 102.75318348 69.84164117 103.63898813 67.828125 105.16113281 C64.63352966 105.53535461 64.63352966 105.53535461 60.63452148 105.53344727 C59.9057782 105.53709793 59.17703491 105.5407486 58.4262085 105.54450989 C56.01697501 105.55261725 53.60841365 105.53900558 51.19921875 105.52441406 C49.52677918 105.52389553 47.85433899 105.52441296 46.18190002 105.52592468 C42.67724507 105.52583495 39.17282013 105.51540347 35.66821289 105.49731445 C31.16981335 105.47460966 26.67174946 105.47408624 22.17330837 105.4808321 C18.72041323 105.48416877 15.267595 105.47754801 11.81471443 105.46770287 C10.15567489 105.46384666 8.49662681 105.46270438 6.83758354 105.46428871 C4.52233355 105.4646584 2.20751878 105.45206735 -0.10766602 105.43579102 C-1.42654312 105.43118362 -2.74542023 105.42657623 -4.10426331 105.42182922 C-7.171875 105.16113281 -7.171875 105.16113281 -9.171875 103.16113281 C-9.41797066 101.32206535 -9.41797066 101.32206535 -9.41238403 99.04830933 C-9.41513336 98.18731628 -9.41788269 97.32632324 -9.42071533 96.4392395 C-9.41352478 95.49265472 -9.40633423 94.54606995 -9.39892578 93.57080078 C-9.39936386 92.07806641 -9.39936386 92.07806641 -9.39981079 90.55517578 C-9.3984136 87.25446965 -9.38283404 83.95398718 -9.3671875 80.65332031 C-9.36345876 78.36931481 -9.36061113 76.08530772 -9.35861206 73.80130005 C-9.3509647 67.78098152 -9.33130674 61.76075902 -9.3092041 55.74047852 C-9.2887694 49.60076192 -9.27961543 43.46102984 -9.26953125 37.32128906 C-9.24806189 25.26786138 -9.21391267 13.21450507 -9.171875 1.16113281 C-6.22299795 -0.31330571 -3.23344852 0.00516124 0 0 Z " fill="#354354" transform="translate(427.171875,337.8388671875)"/>
<path d="M0 0 C0.69947754 0.27070313 1.39895508 0.54140625 2.11962891 0.8203125 C13.86657861 5.45520024 23.97203878 10.97203878 33 20 C-43.56 20 -120.12 20 -199 20 C-189.01179272 10.01179272 -177.02604193 4.05644002 -164 -1 C-162.26556641 -1.67675781 -162.26556641 -1.67675781 -160.49609375 -2.3671875 C-112.22439504 -19.73421207 -47.72594761 -18.56321965 0 0 Z " fill="#354254" transform="translate(448,217)"/>
<path d="M0 0 C0.92347827 -0.00623996 1.84695654 -0.01247993 2.798419 -0.01890898 C5.90013164 -0.03489379 9.0010644 -0.0222131 12.1027832 -0.00964355 C14.32346049 -0.01506222 16.54413417 -0.02218344 18.76480103 -0.03088379 C24.8019196 -0.0491503 30.83876536 -0.04203575 36.87588882 -0.02936745 C43.18679808 -0.01925707 49.4976836 -0.02862766 55.80859375 -0.03491211 C67.08705029 -0.04266099 78.36536801 -0.03021186 89.6437968 -0.00987476 C99.87139816 0.0079965 110.09881793 0.00489245 120.32641602 -0.0135498 C132.20128678 -0.03495235 144.07604719 -0.04292585 155.95094395 -0.03110075 C162.2377159 -0.02485697 168.52436274 -0.02405455 174.81112671 -0.0372467 C180.72090514 -0.04878102 186.63033983 -0.04082346 192.54008102 -0.01766968 C194.71212569 -0.01236968 196.88419916 -0.01391829 199.05623245 -0.02272034 C202.01525835 -0.03360824 204.97317425 -0.01999372 207.93212891 0 C208.79710338 -0.00892289 209.66207785 -0.01784577 210.55326366 -0.02703905 C214.18463889 0.02074283 216.37229655 0.15330066 219.53068542 2.03968048 C220.96606445 4.50793457 220.96606445 4.50793457 220.96606445 12.50793457 C143.74606445 12.50793457 66.52606445 12.50793457 -13.03393555 12.50793457 C-13.03393555 4.50793457 -13.03393555 4.50793457 -11.59855652 2.03968048 C-7.77384363 -0.24466812 -4.38062113 -0.04518953 0 0 Z " fill="#324052" transform="translate(261.033935546875,260.4920654296875)"/>
<path d="M0 0 C1.05048523 0.00607269 1.05048523 0.00607269 2.12219238 0.01226807 C2.86054321 0.00876343 3.59889404 0.00525879 4.35961914 0.00164795 C6.80661346 -0.00717336 9.25331999 -0.00131891 11.70031738 0.00543213 C13.39660701 0.00408559 15.09289627 0.00214515 16.78918457 -0.00036621 C20.34683908 -0.00331801 23.90439327 0.00098194 27.46203613 0.01031494 C32.02882879 0.02170954 36.59538638 0.01515036 41.16217041 0.00317001 C44.66566752 -0.0040471 48.16910865 -0.00176135 51.67260742 0.0034256 C53.35677111 0.00476251 55.04093984 0.00311293 56.72509766 -0.00153351 C59.07635012 -0.00659634 61.42721861 0.0011078 63.77844238 0.01226807 C64.82892761 0.00619537 64.82892761 0.00619537 65.90063477 0 C70.72178823 0.04252797 70.72178823 0.04252797 72.95031738 2.27105713 C73.20199966 4.08892059 73.20199966 4.08892059 73.20428467 6.3324585 C73.20992432 7.18214706 73.21556396 8.03183563 73.22137451 8.90727234 C73.21732605 9.84136429 73.21327759 10.77545624 73.20910645 11.737854 C73.21261108 12.7200441 73.21611572 13.70223419 73.21972656 14.71418762 C73.22855564 17.97279858 73.22269054 21.23119382 73.21594238 24.48980713 C73.21728869 26.7466028 73.21922894 29.00339819 73.22174072 31.26019287 C73.22469358 35.99479935 73.22038912 40.72933048 73.21105957 45.46392822 C73.19966499 51.54405464 73.20622359 57.62400451 73.2182045 63.70412445 C73.22541871 68.36569559 73.22313718 73.02722462 73.21794891 77.688797 C73.2166112 79.93117799 73.21826435 82.17356275 73.22290802 84.41593933 C73.22796602 87.54548322 73.22027317 90.67473799 73.20910645 93.80426025 C73.21315491 94.7383522 73.21720337 95.67244415 73.22137451 96.63484192 C73.21573486 97.48453049 73.21009521 98.33421906 73.20428467 99.20965576 C73.20353062 99.95002327 73.20277657 100.69039078 73.20199966 101.45319366 C72.95031738 103.27105713 72.95031738 103.27105713 70.95031738 105.27105713 C68.52201677 105.46920897 66.20777719 105.5438898 63.77844238 105.52984619 C62.67091614 105.53510315 62.67091614 105.53510315 61.54101562 105.54046631 C59.0940213 105.54928762 56.64731478 105.54343317 54.20031738 105.53668213 C52.50402775 105.53802867 50.8077385 105.5399691 49.1114502 105.54248047 C45.55379569 105.54543227 41.9962415 105.54113232 38.43859863 105.53179932 C33.87180598 105.52040472 29.30524838 105.52696389 24.73846436 105.53894424 C21.23496724 105.54616135 17.73152612 105.54387561 14.22802734 105.53868866 C12.54386365 105.53735175 10.85969492 105.53900133 9.17553711 105.54364777 C6.82428464 105.5487106 4.47341615 105.54100645 2.12219238 105.52984619 C1.4218689 105.53389465 0.72154541 105.53794312 0 105.54211426 C-4.82115346 105.49958628 -4.82115346 105.49958628 -7.04968262 103.27105713 C-7.3013649 101.45319366 -7.3013649 101.45319366 -7.3036499 99.20965576 C-7.30928955 98.35996719 -7.3149292 97.51027863 -7.32073975 96.63484192 C-7.31669128 95.70074997 -7.31264282 94.76665802 -7.30847168 93.80426025 C-7.31197632 92.82207016 -7.31548096 91.83988007 -7.3190918 90.82792664 C-7.32792087 87.56931568 -7.32205577 84.31092043 -7.31530762 81.05230713 C-7.31665393 78.79551146 -7.31859417 76.53871606 -7.32110596 74.28192139 C-7.32405882 69.5473149 -7.31975435 64.81278378 -7.3104248 60.07818604 C-7.29903023 53.99805961 -7.30558883 47.91810974 -7.31756973 41.83798981 C-7.32478394 37.17641867 -7.32250242 32.51488964 -7.31731415 27.85331726 C-7.31597644 25.61093627 -7.31762959 23.36855151 -7.32227325 21.12617493 C-7.32733126 17.99663103 -7.3196384 14.86737627 -7.30847168 11.737854 C-7.31252014 10.80376205 -7.3165686 9.8696701 -7.32073975 8.90727234 C-7.3151001 8.05758377 -7.30946045 7.2078952 -7.3036499 6.3324585 C-7.30289585 5.59209099 -7.3021418 4.85172348 -7.3013649 4.08892059 C-6.70105147 -0.24705349 -3.66244101 0.03230683 0 0 Z M0.95031738 8.27105713 C0.95031738 37.64105713 0.95031738 67.01105713 0.95031738 97.27105713 C22.07031738 97.27105713 43.19031738 97.27105713 64.95031738 97.27105713 C64.95031738 67.90105713 64.95031738 38.53105713 64.95031738 8.27105713 C43.83031738 8.27105713 22.71031738 8.27105713 0.95031738 8.27105713 Z " fill="#F2F3F4" transform="translate(332.0496826171875,337.72894287109375)"/>
<path d="M0 0 C1.0668679 0.00842926 1.0668679 0.00842926 2.1552887 0.01702881 C3.27985474 0.01418129 3.27985474 0.01418129 4.42713928 0.01127625 C6.91141636 0.00756394 9.39540273 0.01827811 11.87965393 0.02947998 C13.60075852 0.03067153 15.32186377 0.031125 17.04296875 0.03086853 C20.65190189 0.03243413 24.26073595 0.04073024 27.86964417 0.05413818 C32.50598345 0.07114088 37.14221386 0.07495221 41.77858067 0.074193 C45.33264209 0.07446432 48.8866795 0.07993915 52.44073296 0.08719444 C54.15084082 0.09038635 55.86095141 0.09234973 57.57106209 0.09308815 C59.95595608 0.0952455 62.34073231 0.10397611 64.7256012 0.11468506 C65.4388707 0.11423187 66.1521402 0.11377869 66.88702393 0.11331177 C71.76127257 0.14547362 71.76127257 0.14547362 72.87574768 1.25994873 C72.98178073 4.41534859 73.02252161 7.54898246 73.02101135 10.70501709 C73.02436996 11.69681473 73.02772858 12.68861237 73.03118896 13.71046448 C73.04073054 17.00691969 73.04264367 20.30332429 73.04371643 23.59979248 C73.04692673 25.88043743 73.05029062 28.16108218 73.05380249 30.44172668 C73.05980176 35.2293648 73.06164157 40.01698485 73.06105042 44.80462646 C73.06094873 50.95314936 73.07460353 57.10155692 73.09182262 63.25005245 C73.10291623 67.96222979 73.10497044 72.67437901 73.10444069 77.38656807 C73.1056247 79.65407267 73.11006986 81.92157792 73.11777306 84.18906975 C73.12752003 87.35462502 73.12471594 90.51992688 73.1186676 93.68548584 C73.12428711 94.63049957 73.12990662 95.57551331 73.13569641 96.54916382 C73.13150192 97.4087117 73.12730743 98.26825958 73.12298584 99.15385437 C73.12353061 99.90289504 73.12407537 100.65193571 73.12463665 101.42367458 C72.87574768 103.25994873 72.87574768 103.25994873 70.87574768 105.25994873 C67.80813599 105.52064514 67.80813599 105.52064514 63.8115387 105.53460693 C63.08454773 105.53971786 62.35755676 105.5448288 61.60853577 105.5500946 C59.19882537 105.56402568 56.78939987 105.5630312 54.37965393 105.56072998 C52.70817966 105.56461508 51.03670637 105.56894937 49.36523438 105.57371521 C45.85885928 105.58118505 42.35258485 105.58088072 38.84620667 105.57562256 C34.348936 105.56982789 29.85207717 105.58675494 25.35487461 105.60996723 C21.90194278 105.62468718 18.44911052 105.62557864 14.99615288 105.6224575 C13.33792747 105.62297163 11.67969662 105.62822641 10.02150154 105.63826942 C7.70384465 105.65058274 5.38699481 105.6438735 3.0693512 105.63226318 C1.08984215 105.63320732 1.08984215 105.63320732 -0.92965698 105.63417053 C-4.12425232 105.25994873 -4.12425232 105.25994873 -5.80052567 103.99554062 C-7.42935256 101.85991939 -7.49908467 100.7808642 -7.49847412 98.11625671 C-7.50548843 97.27360764 -7.51250275 96.43095856 -7.51972961 95.56277466 C-7.51208588 94.64162872 -7.50444214 93.72048279 -7.49656677 92.77142334 C-7.50021744 91.79884079 -7.5038681 90.82625824 -7.50762939 89.82420349 C-7.51574787 86.60338991 -7.50211477 83.38307733 -7.48753357 80.16229248 C-7.48701516 77.92934672 -7.48753211 75.69640051 -7.48904419 73.4634552 C-7.48895441 68.78186233 -7.47851247 64.10044147 -7.46043396 59.41888428 C-7.43773359 53.40715542 -7.43720448 47.39567774 -7.44395161 41.38391781 C-7.447287 36.77295179 -7.44066983 32.16204343 -7.43082237 27.55108833 C-7.42696364 25.3338304 -7.42582493 23.11656607 -7.42740822 20.89930534 C-7.42777755 17.80577157 -7.41519616 14.71256447 -7.39891052 11.61907959 C-7.40138794 10.69590942 -7.40386536 9.77273926 -7.40641785 8.82159424 C-7.39933304 7.98176498 -7.39224823 7.14193573 -7.38494873 6.2766571 C-7.38186943 5.17911559 -7.38186943 5.17911559 -7.37872791 4.05940151 C-6.76258162 -0.29750418 -3.66877989 0.02370425 0 0 Z M0.87574768 7.25994873 C0.87574768 36.95994873 0.87574768 66.65994873 0.87574768 97.25994873 C22.32574768 97.25994873 43.77574768 97.25994873 65.87574768 97.25994873 C65.87574768 67.55994873 65.87574768 37.85994873 65.87574768 7.25994873 C44.42574768 7.25994873 22.97574768 7.25994873 0.87574768 7.25994873 Z " fill="#F7F8F8" transform="translate(239.12425231933594,337.74005126953125)"/>
<path d="M0 0 C0.73835083 -0.0049649 1.47670166 -0.00992981 2.23742676 -0.01504517 C4.68433557 -0.0296728 7.13117962 -0.03646873 9.578125 -0.04199219 C11.27441409 -0.04774185 12.97070315 -0.05349961 14.66699219 -0.05926514 C18.22461246 -0.06977595 21.78221013 -0.07561851 25.33984375 -0.07910156 C29.9066852 -0.08459545 34.47322986 -0.108642 39.03997803 -0.13707352 C42.54346604 -0.15565938 46.04688188 -0.16090326 49.55041504 -0.16243744 C51.23459501 -0.16547221 52.91877347 -0.17352832 54.60290527 -0.18662262 C56.9542531 -0.20360383 59.30486641 -0.2018231 61.65625 -0.1953125 C62.35657349 -0.20452728 63.05689697 -0.21374207 63.77844238 -0.22323608 C65.71582031 -0.20635986 65.71582031 -0.20635986 68.828125 0.16113281 C70.86644767 3.21861681 71.07906346 3.82158627 71.08882141 7.26013184 C71.09590622 8.0929216 71.10299103 8.92571136 71.11029053 9.78373718 C71.10781311 10.69396133 71.10533569 11.60418549 71.1027832 12.54199219 C71.10789413 13.50321487 71.11300507 14.46443756 71.11827087 15.45478821 C71.13219301 18.63821606 71.13120829 21.8214281 71.12890625 25.00488281 C71.13279139 27.21301352 71.13712568 29.42114348 71.14189148 31.62927246 C71.14935908 36.25954612 71.14905823 40.88974354 71.14379883 45.52001953 C71.1379998 51.46219519 71.15494322 57.40405961 71.1781435 63.34618378 C71.19285288 67.90657383 71.19375642 72.46688841 71.19063377 77.02729797 C71.19114827 79.21861895 71.19640997 81.40994401 71.20644569 83.60124207 C71.21874021 86.66112696 71.21206067 89.72039884 71.20043945 92.78027344 C71.20808319 93.69049759 71.21572693 94.60072174 71.22360229 95.53852844 C71.21658798 96.37131821 71.20957367 97.20410797 71.2023468 98.06213379 C71.20251454 98.785532 71.20268229 99.50893021 71.20285511 100.25424957 C70.71177849 102.75318348 69.84164117 103.63898813 67.828125 105.16113281 C64.63352966 105.53535461 64.63352966 105.53535461 60.63452148 105.53344727 C59.9057782 105.53709793 59.17703491 105.5407486 58.4262085 105.54450989 C56.01697501 105.55261725 53.60841365 105.53900558 51.19921875 105.52441406 C49.52677918 105.52389553 47.85433899 105.52441296 46.18190002 105.52592468 C42.67724507 105.52583495 39.17282013 105.51540347 35.66821289 105.49731445 C31.16981335 105.47460966 26.67174946 105.47408624 22.17330837 105.4808321 C18.72041323 105.48416877 15.267595 105.47754801 11.81471443 105.46770287 C10.15567489 105.46384666 8.49662681 105.46270438 6.83758354 105.46428871 C4.52233355 105.4646584 2.20751878 105.45206735 -0.10766602 105.43579102 C-1.42654312 105.43118362 -2.74542023 105.42657623 -4.10426331 105.42182922 C-7.171875 105.16113281 -7.171875 105.16113281 -9.171875 103.16113281 C-9.41797066 101.32206535 -9.41797066 101.32206535 -9.41238403 99.04830933 C-9.41513336 98.18731628 -9.41788269 97.32632324 -9.42071533 96.4392395 C-9.41352478 95.49265472 -9.40633423 94.54606995 -9.39892578 93.57080078 C-9.39936386 92.07806641 -9.39936386 92.07806641 -9.39981079 90.55517578 C-9.3984136 87.25446965 -9.38283404 83.95398718 -9.3671875 80.65332031 C-9.36345876 78.36931481 -9.36061113 76.08530772 -9.35861206 73.80130005 C-9.3509647 67.78098152 -9.33130674 61.76075902 -9.3092041 55.74047852 C-9.2887694 49.60076192 -9.27961543 43.46102984 -9.26953125 37.32128906 C-9.24806189 25.26786138 -9.21391267 13.21450507 -9.171875 1.16113281 C-6.22299795 -0.31330571 -3.23344852 0.00516124 0 0 Z M-2.171875 7.16113281 C-2.171875 36.86113281 -2.171875 66.56113281 -2.171875 97.16113281 C19.278125 97.16113281 40.728125 97.16113281 62.828125 97.16113281 C62.828125 67.46113281 62.828125 37.76113281 62.828125 7.16113281 C41.378125 7.16113281 19.928125 7.16113281 -2.171875 7.16113281 Z " fill="#F7F7F8" transform="translate(427.171875,337.8388671875)"/>
<path d="M0 0 C4.55555556 0.55555556 4.55555556 0.55555556 6 2 C6.04063832 3.66617115 6.042721 5.33388095 6 7 C6.99 7.0928125 6.99 7.0928125 8 7.1875 C13.3692935 8.64168366 17.90723537 11.36085306 21 16 C20.625 18.6875 20.625 18.6875 20 21 C18.22265625 21.6796875 18.22265625 21.6796875 16 22 C14.18359375 20.8203125 14.18359375 20.8203125 12.4375 19.125 C10.14563911 16.93012209 9.08817577 16.02939192 6 15 C6 21.6 6 28.2 6 35 C9.465 35.495 9.465 35.495 13 36 C16.76255449 38.0983477 20.00101252 40.11307989 22 44 C22.58314505 49.24830541 21.92629746 52.61055382 19 57 C15.01037338 61.1882444 11.87606208 64.21174777 6 65 C6.04125 65.78375 6.0825 66.5675 6.125 67.375 C6 70 6 70 4 72 C1.375 72.125 1.375 72.125 -1 72 C-1.185625 70.906875 -1.37125 69.81375 -1.5625 68.6875 C-2.62259399 64.73910121 -2.62259399 64.73910121 -6.1875 63.4375 C-6.80238281 63.22738281 -7.41726563 63.01726562 -8.05078125 62.80078125 C-11.62977908 61.33045148 -14.44067978 58.86932239 -17 56 C-18.0625 53.25 -18.0625 53.25 -18 51 C-17.34 50.34 -16.68 49.68 -16 49 C-13.375 49.375 -13.375 49.375 -11 50 C-10.67 50.99 -10.34 51.98 -10 53 C-8.16715557 54.12516085 -8.16715557 54.12516085 -6 55 C-4.66423363 55.66177822 -3.33053229 56.32776042 -2 57 C-1.9789429 54.24452835 -2.00652272 51.50408223 -2.0625 48.75 C-2.05154297 47.97269531 -2.04058594 47.19539063 -2.02929688 46.39453125 C-2.09879483 44.07131399 -2.23887962 42.19972769 -3 40 C-5.19954839 38.07225095 -7.28236384 37.224267 -10 36 C-14.18706626 31.37218992 -15.36583032 28.50414355 -15.27734375 22.37890625 C-14.6623774 17.10405404 -11.81657748 13.51594305 -7.9375 10.0625 C-5 8 -5 8 -2 8 C-2.04125 7.05125 -2.0825 6.1025 -2.125 5.125 C-2 2 -2 2 0 0 Z " fill="#F5F5F6" transform="translate(363,354)"/>
<path d="M0 0 C2.625 0.375 2.625 0.375 5 1 C5 2.98 5 4.96 5 7 C5.86625 7.0825 6.7325 7.165 7.625 7.25 C12.98355381 8.44078973 17.67342586 11.60892214 21 16 C20.75 18.75 20.75 18.75 20 21 C18.21875 21.6796875 18.21875 21.6796875 16 22 C14.21875 20.8203125 14.21875 20.8203125 12.5 19.125 C9.7646168 16.4517846 8.95886019 15.98971505 5 15 C5.33 21.27 5.66 27.54 6 34 C8.97 34.99 11.94 35.98 15 37 C19.57142857 40.14285714 19.57142857 40.14285714 21 43 C21.53749296 47.89911617 21.56674874 51.8447045 19.375 56.3125 C15.10964578 61.13908504 11.7737525 64.51616054 5 65 C5.020625 65.969375 5.04125 66.93875 5.0625 67.9375 C5 71 5 71 4 72 C1.5 72.125 1.5 72.125 -1 72 C-2 71 -2 71 -2.0625 67.9375 C-2.0315625 66.4834375 -2.0315625 66.4834375 -2 65 C-2.969375 64.835 -3.93875 64.67 -4.9375 64.5 C-10.23046852 62.99237167 -14.61563452 59.25923547 -18 55 C-18.25390625 52.23828125 -18.25390625 52.23828125 -18 50 C-15.6875 49.375 -15.6875 49.375 -13 49 C-12.01 49.66 -11.02 50.32 -10 51 C-10 51.66 -10 52.32 -10 53 C-9.34 53 -8.68 53 -8 53 C-8 53.66 -8 54.32 -8 55 C-6.02 55.66 -4.04 56.32 -2 57 C-2 51.39 -2 45.78 -2 40 C-3.98 39.34 -5.96 38.68 -8 38 C-11.86039659 35.4556477 -13.91652603 33.53089116 -15 29 C-15.55041686 23.94463286 -15.62299039 20.20148146 -13.25 15.625 C-12.5075 14.75875 -11.765 13.8925 -11 13 C-10.360625 12.236875 -9.72125 11.47375 -9.0625 10.6875 C-6.69374255 8.74942573 -5.01004814 8.33444979 -2 8 C-2.04125 7.05125 -2.0825 6.1025 -2.125 5.125 C-2 2 -2 2 0 0 Z " fill="#F9F9FA" transform="translate(456,354)"/>
<path d="M0 0 C3.53571429 0.53571429 3.53571429 0.53571429 5 2 C5.04063832 3.66617115 5.042721 5.33388095 5 7 C6.2065625 7.0309375 6.2065625 7.0309375 7.4375 7.0625 C12.49431401 8.39324053 16.4296159 11.18156817 20 15 C20.88671875 17.609375 20.88671875 17.609375 21 20 C20.34 20.66 19.68 21.32 19 22 C14.02446923 21.86179081 11.58093348 19.1138552 8 16 C7.01 15.67 6.02 15.34 5 15 C5 21.6 5 28.2 5 35 C8.465 35.495 8.465 35.495 12 36 C15.60476117 37.76046476 18.6251602 39.74558991 21 43 C21.66805121 48.82158913 20.93860707 52.80846085 18 58 C15.16705745 60.99958623 11.87793905 63.5290576 8 65 C7.01 65 6.02 65 5 65 C5.020625 65.969375 5.04125 66.93875 5.0625 67.9375 C5 71 5 71 4 72 C1.5 72.125 1.5 72.125 -1 72 C-2 71 -2 71 -2.0625 67.9375 C-2.0315625 66.4834375 -2.0315625 66.4834375 -2 65 C-2.59167969 64.82984375 -3.18335938 64.6596875 -3.79296875 64.484375 C-10.03179659 62.57099876 -14.27207965 60.59188053 -18 55 C-18.125 52.3125 -18.125 52.3125 -18 50 C-15.7578125 49.2890625 -15.7578125 49.2890625 -13 49 C-10.8671875 50.3984375 -10.8671875 50.3984375 -8.875 52.375 C-5.85811831 55.3291693 -5.85811831 55.3291693 -2 57 C-2 51.39 -2 45.78 -2 40 C-3.98 39.34 -5.96 38.68 -8 38 C-11.08988935 35.8230325 -12.8942425 34.15863625 -15 31 C-15.66660924 25.19429862 -15.8190629 19.79563789 -13.375 14.4375 C-10.76423374 11.75802937 -8.27455939 9.81145839 -5 8 C-4.01 8 -3.02 8 -2 8 C-2.04125 7.05125 -2.0825 6.1025 -2.125 5.125 C-2 2 -2 2 0 0 Z " fill="#F9FAFA" transform="translate(271,354)"/>
<path d="M0 0 C4.27059561 -0.11765973 8.54076597 -0.18773631 12.8125 -0.25 C14.00810547 -0.28351563 15.20371094 -0.31703125 16.43554688 -0.3515625 C24.134909 -0.43547925 31.18517215 0.10754091 38 4 C41.18632525 7.60798024 41.52937754 9.98493559 41.34375 14.6875 C40.78805505 18.42581149 39.5239919 21.18337136 37 24 C34.72997257 25.66333858 32.56006911 26.76737413 30 28 C29.34 28.33 28.68 28.66 28 29 C23.66396021 29.1393329 19.33919329 29.04254111 15 29 C15.33 33.62 15.66 38.24 16 43 C17.65 43.66 19.3 44.32 21 45 C21 45.99 21 46.98 21 48 C14.07 48 7.14 48 0 48 C0 47.01 0 46.02 0 45 C1.98 44.34 3.96 43.68 6 43 C6 30.46 6 17.92 6 5 C4.02 4.34 2.04 3.68 0 3 C0 2.01 0 1.02 0 0 Z " fill="#F4F5F6" transform="translate(126,128)"/>
<path d="M0 0 C6.93 0 13.86 0 21 0 C21 0.99 21 1.98 21 3 C19.02 3.66 17.04 4.32 15 5 C14.67 10.61 14.34 16.22 14 22 C18.93528476 18.83194455 18.93528476 18.83194455 22.95703125 15.08984375 C23.42947266 14.57486328 23.90191406 14.05988281 24.38867188 13.52929688 C24.85853516 13.00400391 25.32839844 12.47871094 25.8125 11.9375 C26.30169922 11.40833984 26.79089844 10.87917969 27.29492188 10.33398438 C29.4997125 7.90353053 30.95079006 6.14762981 32 3 C31.01 3 30.02 3 29 3 C29 2.01 29 1.02 29 0 C34.94 0 40.88 0 47 0 C47.495 1.485 47.495 1.485 48 3 C46.2675 3.2784375 46.2675 3.2784375 44.5 3.5625 C39.08912944 4.92474382 35.87751143 8.14485883 32 12 C31.2471875 12.73863281 30.494375 13.47726563 29.71875 14.23828125 C27.79634269 16.14376596 25.89116127 18.06357157 24 20 C26.11959605 26.34408331 30.65698836 30.13256317 35.3125 34.75 C36.16779297 35.62527344 37.02308594 36.50054687 37.90429688 37.40234375 C38.73638672 38.23378906 39.56847656 39.06523437 40.42578125 39.921875 C41.18286377 40.68081055 41.93994629 41.43974609 42.7199707 42.22167969 C45.21031305 44.16403472 46.89387498 44.65613083 50 45 C50 45.99 50 46.98 50 48 C38.89556426 49.92192157 38.89556426 49.92192157 34.27197266 46.85302734 C30.87739356 43.79454519 28.04973964 40.26098975 25.27050781 36.64599609 C23.58022939 34.45616959 21.7686881 32.38503716 19.9375 30.3125 C19.43089844 29.71050781 18.92429687 29.10851562 18.40234375 28.48828125 C16.87147083 26.7516918 16.87147083 26.7516918 14 25 C14.33 30.94 14.66 36.88 15 43 C16.98 43.66 18.96 44.32 21 45 C21 45.99 21 46.98 21 48 C14.07 48 7.14 48 0 48 C0 47.01 0 46.02 0 45 C1.65 44.34 3.3 43.68 5 43 C5 30.46 5 17.92 5 5 C2.525 4.01 2.525 4.01 0 3 C0 2.01 0 1.02 0 0 Z " fill="#F4F5F6" transform="translate(488,128)"/>
<path d="M0 0 C4.29 0 8.58 0 13 0 C13 22.77 13 45.54 13 69 C8.71 69 4.42 69 0 69 C0 46.23 0 23.46 0 0 Z " fill="#364355" transform="translate(578,293)"/>
<path d="M0 0 C6.5088304 3.64826163 11.4503906 8.83252584 13.75 16 C14.83175406 24.89302469 13.51565753 32.66872943 8.3125 40.03515625 C3.05903851 45.98318597 -4.45191083 48.95783929 -12.3125 49.5625 C-20.06751904 48.45464014 -26.0840466 45.02647958 -30.99609375 38.94140625 C-35.87279639 31.39087287 -36.22959794 24.84436996 -35.25 16 C-32.72749493 8.06251737 -27.01451079 3.17183315 -20 -0.875 C-12.99700284 -2.97589915 -6.73341886 -3.03362554 0 0 Z M-21.76953125 5.8046875 C-26.72328457 13.37093897 -26.98283338 21.11310505 -26.25 30 C-25.07485889 34.97588322 -23.24993737 39.43827392 -19.625 43.125 C-15.03595979 45.67446678 -11.38495501 45.75691129 -6.25 45 C-2.21945456 43.59807115 -0.89588969 41.65731913 1 38 C4.76263182 29.85791146 5.62562978 18.84517383 2.84375 10.17578125 C0.35709718 5.99150967 -2.85706124 3.15164347 -7.25 1 C-12.70914578 0.18693573 -18.10002838 1.44656327 -21.76953125 5.8046875 Z " fill="#F2F3F4" transform="translate(623.25,128)"/>
<path d="M0 0 C4.81989838 2.84392471 8.6374282 6.02065098 11.0390625 11.203125 C12.70363797 19.63301076 13.79313733 28.07828395 9.3515625 35.765625 C4.2956526 43.02689699 -2.33659056 46.97639408 -11.0703125 48.59375 C-17.75621839 48.96816073 -23.19567075 45.89999323 -28.7109375 42.515625 C-34.12593745 36.95020839 -37.03719143 30.23714133 -37.2734375 22.515625 C-37.16652847 15.24581107 -34.66098664 9.73282987 -29.7734375 4.390625 C-21.05739967 -3.58362237 -10.60252021 -5.31999247 0 0 Z M-21.9609375 4.203125 C-27.93976509 11.95944188 -27.49730274 19.77284879 -26.9609375 29.203125 C-25.87498475 35.35115671 -23.8138448 39.11646622 -18.9609375 43.203125 C-18.6309375 43.533125 -18.3009375 43.863125 -17.9609375 44.203125 C-12.61784822 44.84029067 -8.30106969 44.93410619 -3.5234375 42.328125 C1.90341443 36.68105299 3.28916268 29.68003929 3.4765625 22.078125 C3.24293625 14.90579916 2.35315662 9.93256935 -2.3984375 4.328125 C-5.93418414 1.39604242 -7.73434871 0.33941264 -12.3359375 -0.171875 C-16.71713272 0.28135209 -18.61060473 1.37395511 -21.9609375 4.203125 Z " fill="#F2F3F4" transform="translate(208.9609375,39.796875)"/>
<path d="M0 0 C1.78331731 1.2848479 3.22597955 2.4623692 4.62109375 4.16796875 C5.01418953 7.26359806 5.24448043 9.2113348 4.62109375 12.16796875 C2.55859375 14.73046875 2.55859375 14.73046875 -0.37890625 16.16796875 C-4.19140625 15.91796875 -4.19140625 15.91796875 -7.37890625 15.16796875 C-6.50390625 11.29296875 -6.50390625 11.29296875 -5.37890625 10.16796875 C-4.96188503 7.25219965 -4.96188503 7.25219965 -5.37890625 4.16796875 C-7.64752785 1.44562283 -9.17887868 1.19438749 -12.69140625 0.73046875 C-17.09030998 1.25237258 -20.0018387 2.29369041 -23.37890625 5.16796875 C-28.7663878 12.18308823 -28.99501807 19.6432215 -28.37890625 28.16796875 C-27.15415308 33.4237993 -24.03031201 37.3339927 -20.37890625 41.16796875 C-15.47821662 42.80153196 -10.52152149 42.22326569 -5.37890625 42.16796875 C-5.04890625 38.20796875 -4.71890625 34.24796875 -4.37890625 30.16796875 C-7.34890625 29.67296875 -7.34890625 29.67296875 -10.37890625 29.16796875 C-10.37890625 28.17796875 -10.37890625 27.18796875 -10.37890625 26.16796875 C-4.10890625 26.16796875 2.16109375 26.16796875 8.62109375 26.16796875 C9.11609375 27.65296875 9.11609375 27.65296875 9.62109375 29.16796875 C7.64109375 29.82796875 5.66109375 30.48796875 3.62109375 31.16796875 C3.29109375 35.45796875 2.96109375 39.74796875 2.62109375 44.16796875 C-6.69188494 48.36793953 -15.40629418 49.85886693 -25.23828125 46.21484375 C-30.62294498 43.58146806 -34.80366926 39.60458017 -37.37890625 34.16796875 C-39.57949356 27.39452981 -39.81855139 17.24655788 -36.87890625 10.66796875 C-33.17258344 4.67782027 -27.3969988 -0.26776982 -20.64453125 -2.39453125 C-13.29962174 -3.8128586 -6.59321269 -3.70070648 0 0 Z " fill="#F3F4F5" transform="translate(587.37890625,39.83203125)"/>
<path d="M0 0 C1.51913466 -0.11003792 3.04070964 -0.18649757 4.5625 -0.25 C5.40941406 -0.29640625 6.25632812 -0.3428125 7.12890625 -0.390625 C13.56895294 0.48557183 17.52975833 4.11476686 21.37597656 9.02709961 C21.8500293 9.65753174 22.32408203 10.28796387 22.8125 10.9375 C23.3187793 11.59049072 23.82505859 12.24348145 24.34667969 12.91625977 C25.90891102 14.93589018 27.45454685 16.96751575 29 19 C30.42909905 20.85217852 31.86171657 22.70159053 33.29467773 24.55078125 C35.20495627 27.02731748 37.10112579 29.51470876 39 32 C39 23.09 39 14.18 39 5 C36.525 4.01 36.525 4.01 34 3 C34 2.01 34 1.02 34 0 C39.61 0 45.22 0 51 0 C51 0.99 51 1.98 51 3 C49.02 3.66 47.04 4.32 45 5 C44.67 19.19 44.34 33.38 44 48 C38.69716042 46.93943208 38.3480581 46.8385801 35.3984375 42.8359375 C34.74810547 41.96735107 34.09777344 41.09876465 33.42773438 40.20385742 C32.75033203 39.27033447 32.07292969 38.33681152 31.375 37.375 C30.67439453 36.43180908 29.97378906 35.48861816 29.25195312 34.5168457 C27.15473199 31.68737203 25.07612831 28.84497136 23 26 C21.83693155 24.42244373 20.67295265 22.84555804 19.5078125 21.26953125 C16.98740453 17.85873857 14.49470091 14.43021375 12 11 C12 21.56 12 32.12 12 43 C13.98 43.66 15.96 44.32 18 45 C18 45.99 18 46.98 18 48 C12.39 48 6.78 48 1 48 C1 47.01 1 46.02 1 45 C3.97 44.505 3.97 44.505 7 44 C6.67 31.13 6.34 18.26 6 5 C4.02 4.34 2.04 3.68 0 3 C0 2.01 0 1.02 0 0 Z " fill="#F3F4F5" transform="translate(384,128)"/>
<path d="M0 0 C5.10863896 -0.0246501 10.21724359 -0.04283607 15.32592773 -0.05493164 C17.06519168 -0.05997204 18.80445136 -0.0668043 20.54370117 -0.07543945 C23.03825937 -0.08751792 25.53276173 -0.09323108 28.02734375 -0.09765625 C28.80963852 -0.10281754 29.59193329 -0.10797882 30.39793396 -0.11329651 C32.26567114 -0.11349226 34.13329204 -0.06199694 36 0 C37 1 37 1 37.09765625 3.94140625 C37.08605469 5.13636719 37.07445312 6.33132812 37.0625 7.5625 C37.05347656 8.76003906 37.04445313 9.95757812 37.03515625 11.19140625 C37.02355469 12.11824219 37.01195312 13.04507813 37 14 C35.35 14 33.7 14 32 14 C31.80664062 13.36191406 31.61328125 12.72382812 31.4140625 12.06640625 C31.02347656 10.82697266 31.02347656 10.82697266 30.625 9.5625 C30.36976563 8.73878906 30.11453125 7.91507813 29.8515625 7.06640625 C29.19117773 4.82201984 29.19117773 4.82201984 27 4 C24.9625237 3.77141886 22.91959697 3.58975722 20.875 3.4375 C18.93625 3.293125 16.9975 3.14875 15 3 C15 9.6 15 16.2 15 23 C19.62 23 24.24 23 29 23 C29 23.99 29 24.98 29 26 C24.38 26 19.76 26 15 26 C15 31.94 15 37.88 15 44 C17.413125 44.103125 19.82625 44.20625 22.3125 44.3125 C23.06829346 44.35802002 23.82408691 44.40354004 24.6027832 44.45043945 C26.7257862 44.54189314 26.7257862 44.54189314 30 44 C32.0077047 41.72389757 32.0077047 41.72389757 33 39 C33.391875 38.236875 33.78375 37.47375 34.1875 36.6875 C34.455625 36.130625 34.72375 35.57375 35 35 C36.32 35 37.64 35 39 35 C39.02696365 36.79158489 39.04637917 38.58328473 39.0625 40.375 C39.07410156 41.37273437 39.08570313 42.37046875 39.09765625 43.3984375 C39 46 39 46 38 48 C25.46 48 12.92 48 0 48 C0 47.01 0 46.02 0 45 C1.98 44.34 3.96 43.68 6 43 C6 30.46 6 17.92 6 5 C4.02 4.34 2.04 3.68 0 3 C0 2.01 0 1.02 0 0 Z " fill="#F4F5F6" transform="translate(648,39)"/>
<path d="M0 0 C1.77321855 1.27757192 3.22098738 2.48450752 4.62109375 4.16796875 C5.11813581 8.07329924 5.24932141 10.24978987 2.99609375 13.54296875 C0.14577416 15.49318741 -1.9514461 15.94443874 -5.37890625 16.16796875 C-6.03890625 15.83796875 -6.69890625 15.50796875 -7.37890625 15.16796875 C-6.50390625 11.29296875 -6.50390625 11.29296875 -5.37890625 10.16796875 C-5.33797688 7.83499442 -5.33648902 5.5009165 -5.37890625 3.16796875 C-9.04653233 0.82068806 -12.0958924 0.72489835 -16.37890625 1.16796875 C-22.28850761 4.35006179 -25.23292927 7.8985236 -27.37890625 14.16796875 C-28.2702363 22.16921059 -27.82202035 29.3104293 -23.37890625 36.16796875 C-19.5541209 40.66579088 -19.5541209 40.66579088 -14.171875 42.37109375 C-7.2702893 42.52560322 -7.2702893 42.52560322 -1.37890625 39.16796875 C-0.71890625 38.17796875 -0.05890625 37.18796875 0.62109375 36.16796875 C1.94109375 36.16796875 3.26109375 36.16796875 4.62109375 36.16796875 C4.40664452 39.92083029 3.67395955 41.11384424 0.99609375 43.85546875 C-4.65308874 48.12254721 -11.48184419 49.10218619 -18.37890625 48.16796875 C-25.87573479 45.90915233 -31.07644023 41.72410745 -35.37890625 35.16796875 C-38.77039708 28.28449846 -38.69942869 18.62703523 -36.5390625 11.33203125 C-33.2539565 4.85030694 -28.01649364 0.98676245 -21.62890625 -2.20703125 C-13.98601826 -3.6768174 -6.90505466 -3.87574036 0 0 Z " fill="#F2F3F4" transform="translate(114.37890625,39.83203125)"/>
<path d="M0 0 C5.10863896 -0.0246501 10.21724359 -0.04283607 15.32592773 -0.05493164 C17.06519168 -0.05997204 18.80445136 -0.0668043 20.54370117 -0.07543945 C23.03825937 -0.08751792 25.53276173 -0.09323108 28.02734375 -0.09765625 C28.80963852 -0.10281754 29.59193329 -0.10797882 30.39793396 -0.11329651 C32.26567114 -0.11349226 34.13329204 -0.06199694 36 0 C37 1 37 1 37.09765625 3.94140625 C37.08605469 5.13636719 37.07445312 6.33132812 37.0625 7.5625 C37.05347656 8.76003906 37.04445313 9.95757812 37.03515625 11.19140625 C37.02355469 12.11824219 37.01195312 13.04507813 37 14 C35.35 14 33.7 14 32 14 C31.80664062 13.36191406 31.61328125 12.72382812 31.4140625 12.06640625 C31.02347656 10.82697266 31.02347656 10.82697266 30.625 9.5625 C30.36976563 8.73878906 30.11453125 7.91507813 29.8515625 7.06640625 C29.19117773 4.82201984 29.19117773 4.82201984 27 4 C24.9625237 3.77141886 22.91959697 3.58975722 20.875 3.4375 C18.93625 3.293125 16.9975 3.14875 15 3 C15 9.6 15 16.2 15 23 C19.95 23 24.9 23 30 23 C30 23.99 30 24.98 30 26 C25.05 26 20.1 26 15 26 C15 31.94 15 37.88 15 44 C20.61 44 26.22 44 32 44 C32.99 41.03 33.98 38.06 35 35 C36.32 35 37.64 35 39 35 C39.07972012 39.7034873 38.93491183 43.32544083 38 48 C25.46 48 12.92 48 0 48 C0 47.01 0 46.02 0 45 C1.98 44.34 3.96 43.68 6 43 C6 30.46 6 17.92 6 5 C4.02 4.34 2.04 3.68 0 3 C0 2.01 0 1.02 0 0 Z " fill="#F5F6F7" transform="translate(456,39)"/>
<path d="M0 0 C6.93 0 13.86 0 21 0 C21.33 0.99 21.66 1.98 22 3 C20.02 3.66 18.04 4.32 16 5 C15.97535151 10.39346988 15.95716469 15.78690725 15.94506836 21.18041992 C15.94002769 23.01668875 15.93319523 24.85295354 15.92456055 26.68920898 C15.91248328 29.32276401 15.90676919 31.95626616 15.90234375 34.58984375 C15.89718246 35.41588608 15.89202118 36.24192841 15.88670349 37.09300232 C15.88650795 39.06236368 15.93795848 41.03161614 16 43 C17.87900728 44.87900728 20.85823825 44.30277505 23.375 44.375 C24.53773438 44.42398438 25.70046875 44.47296875 26.8984375 44.5234375 C30.17352009 44.33127559 30.17352009 44.33127559 31.83984375 41.62109375 C32.22269531 40.75613281 32.60554688 39.89117187 33 39 C33.391875 38.236875 33.78375 37.47375 34.1875 36.6875 C34.455625 36.130625 34.72375 35.57375 35 35 C36.32 35 37.64 35 39 35 C39.02708567 36.60407328 39.04643483 38.2082785 39.0625 39.8125 C39.07410156 40.70582031 39.08570313 41.59914062 39.09765625 42.51953125 C39 45 39 45 38 48 C25.46 48 12.92 48 0 48 C0 47.01 0 46.02 0 45 C1.98 44.34 3.96 43.68 6 43 C6 30.46 6 17.92 6 5 C4.02 4.34 2.04 3.68 0 3 C0 2.01 0 1.02 0 0 Z " fill="#F5F6F6" transform="translate(275,39)"/>
<path d="M0 0 C6.93 0 13.86 0 21 0 C21 0.99 21 1.98 21 3 C19.35 3.66 17.7 4.32 16 5 C15.97535151 10.39346988 15.95716469 15.78690725 15.94506836 21.18041992 C15.94002769 23.01668875 15.93319523 24.85295354 15.92456055 26.68920898 C15.91248328 29.32276401 15.90676919 31.95626616 15.90234375 34.58984375 C15.89718246 35.41588608 15.89202118 36.24192841 15.88670349 37.09300232 C15.88650795 39.06236368 15.93795848 41.03161614 16 43 C17.87900728 44.87900728 20.85823825 44.30277505 23.375 44.375 C24.53773438 44.42398438 25.70046875 44.47296875 26.8984375 44.5234375 C30.17352009 44.33127559 30.17352009 44.33127559 31.83984375 41.62109375 C32.22269531 40.75613281 32.60554688 39.89117187 33 39 C33.391875 38.236875 33.78375 37.47375 34.1875 36.6875 C34.455625 36.130625 34.72375 35.57375 35 35 C36.32 35.33 37.64 35.66 39 36 C38.67 39.96 38.34 43.92 38 48 C25.46 48 12.92 48 0 48 C0 47.01 0 46.02 0 45 C1.98 44.34 3.96 43.68 6 43 C6 30.46 6 17.92 6 5 C4.02 4.34 2.04 3.68 0 3 C0 2.01 0 1.02 0 0 Z " fill="#F5F6F7" transform="translate(219,128)"/>
<path d="M0 0 C6.93 0 13.86 0 21 0 C21 0.99 21 1.98 21 3 C19.02 3.66 17.04 4.32 15 5 C14.97535151 10.39346988 14.95716469 15.78690725 14.94506836 21.18041992 C14.94002769 23.01668875 14.93319523 24.85295354 14.92456055 26.68920898 C14.91248328 29.32276401 14.90676919 31.95626616 14.90234375 34.58984375 C14.89718246 35.41588608 14.89202118 36.24192841 14.88670349 37.09300232 C14.88650795 39.06236368 14.93795848 41.03161614 15 43 C16.93341947 44.93341947 20.37479121 44.17449133 22.9375 44.1875 C24.20464844 44.20167969 25.47179687 44.21585938 26.77734375 44.23046875 C30.08943999 44.34713697 30.08943999 44.34713697 32 42 C33.03842565 39.68351201 34.0421975 37.35096976 35 35 C36.32 35.33 37.64 35.66 39 36 C38.85962479 37.81293089 38.71255111 39.6253443 38.5625 41.4375 C38.48128906 42.44683594 38.40007812 43.45617187 38.31640625 44.49609375 C38 47 38 47 37 48 C34.26105915 48.08858646 31.5474673 48.11523479 28.80859375 48.09765625 C27.98875504 48.0962413 27.16891632 48.09482635 26.32423401 48.09336853 C23.69528618 48.08775289 21.06642227 48.07519779 18.4375 48.0625 C16.65950643 48.05748701 14.88151154 48.05292376 13.10351562 48.04882812 C8.73564455 48.03777839 4.36783652 48.02050331 0 48 C0 47.01 0 46.02 0 45 C2.97 44.505 2.97 44.505 6 44 C6 30.8 6 17.6 6 4 C3.03 3.505 3.03 3.505 0 3 C0 2.01 0 1.02 0 0 Z " fill="#F5F5F6" transform="translate(366,39)"/>
<path d="M0 0 C4.29 0 8.58 0 13 0 C13 13.53 13 27.06 13 41 C8.71 41 4.42 41 0 41 C0 27.47 0 13.94 0 0 Z " fill="#364455" transform="translate(598,370)"/>
<path d="M0 0 C4.29 0 8.58 0 13 0 C13 13.53 13 27.06 13 41 C8.71 41 4.42 41 0 41 C0 27.47 0 13.94 0 0 Z " fill="#364455" transform="translate(558,370)"/>
<path d="M0 0 C6.93 0 13.86 0 21 0 C21 0.99 21 1.98 21 3 C19.02 3.66 17.04 4.32 15 5 C15 17.54 15 30.08 15 43 C16.98 43.66 18.96 44.32 21 45 C21 45.99 21 46.98 21 48 C14.07 48 7.14 48 0 48 C0 47.01 0 46.02 0 45 C1.65 44.34 3.3 43.68 5 43 C5 30.46 5 17.92 5 5 C3.02 4.34 1.04 3.68 -1 3 C-0.67 2.01 -0.34 1.02 0 0 Z " fill="#F5F6F7" transform="translate(310,128)"/>
<path d="M0 0 C4.65887563 0.36975203 8.06309672 1.72326463 11.9375 4.3125 C13.78993916 8.01737832 13.3960162 12.26864188 12.9375 16.3125 C11.16303637 19.46710202 9.78200384 20.81987276 6.6875 22.625 C4.18482042 23.25066989 2.31653976 23.38410147 -0.234375 23.35546875 C-1.49765625 23.34128906 -2.7609375 23.32710937 -4.0625 23.3125 C-4.09137512 19.66668313 -4.10925585 16.02089537 -4.125 12.375 C-4.13337891 11.33408203 -4.14175781 10.29316406 -4.15039062 9.22070312 C-4.15522461 7.73666992 -4.15522461 7.73666992 -4.16015625 6.22265625 C-4.16539307 5.30621338 -4.17062988 4.38977051 -4.17602539 3.44555664 C-3.99548852 0.0534047 -3.46175157 0.35323996 0 0 Z " fill="#354355" transform="translate(145.0625,130.6875)"/>
<path d="M0 0 C4.47851553 0.89570311 5.77175056 1.25000973 9 4 C8.72301826 7.97007156 8.23315777 9.72389212 5.625 12.8125 C3 15 3 15 0 16 C0 10.72 0 5.44 0 0 Z " fill="#424F5F" transform="translate(461,396)"/>
<path d="M0 0 C7 2 7 2 9 4 C8.86249511 8.95017589 6.31530307 11.60576115 3 15 C2.01 15 1.02 15 0 15 C0 10.05 0 5.1 0 0 Z " fill="#3D4A5B" transform="translate(276,396)"/>
<path d="M0 0 C6.63679809 2.29271207 6.63679809 2.29271207 8.1875 5.3125 C7.91977536 9.14988656 6.44733681 11.08965352 4 14 C2.68 14.33 1.36 14.66 0 15 C0 10.05 0 5.1 0 0 Z " fill="#344253" transform="translate(369,396)"/>
<path d="M0 0 C0 5.28 0 10.56 0 16 C-5 13 -5 13 -6 12 C-6.40250992 7.8138968 -6.41767351 5.65435516 -4.125 2.0625 C-2 0 -2 0 0 0 Z " fill="#3D4B5B" transform="translate(454,370)"/>
<path d="M0 0 C0 5.28 0 10.56 0 16 C-4 14 -4 14 -6 12 C-6.08203125 9.94140625 -6.08203125 9.94140625 -5.8125 7.5625 C-5.73644531 6.78003906 -5.66039062 5.99757813 -5.58203125 5.19140625 C-4.74552343 2.04187011 -3.41215301 0 0 0 Z " fill="#485565" transform="translate(269,370)"/>
<path d="M0 0 C4.75 0.75 4.75 0.75 7 3 C6.63318342 5.93453261 6.13562754 6.86437246 4 9 C1.375 8.625 1.375 8.625 -1 8 C-1.625 5.6875 -1.625 5.6875 -2 3 C-1.34 2.01 -0.68 1.02 0 0 Z " fill="#465263" transform="translate(407,479)"/>
<path d="M0 0 C4.75 0.75 4.75 0.75 7 3 C6.63318342 5.93453261 6.13562754 6.86437246 4 9 C1.375 8.625 1.375 8.625 -1 8 C-1.625 5.6875 -1.625 5.6875 -2 3 C-1.34 2.01 -0.68 1.02 0 0 Z " fill="#455162" transform="translate(278,479)"/>
<path d="M0 0 C0 5.28 0 10.56 0 16 C-3 15 -3 15 -5 12 C-5.67852257 4.875513 -5.67852257 4.875513 -3.0625 1.5 C-1 0 -1 0 0 0 Z " fill="#364455" transform="translate(361,370)"/>
<path d="M0 0 C4.55555556 0.55555556 4.55555556 0.55555556 6 2 C6.1875 4.4375 6.1875 4.4375 6 7 C5.34 7.66 4.68 8.32 4 9 C-0.55555556 8.44444444 -0.55555556 8.44444444 -2 7 C-2.1875 4.5625 -2.1875 4.5625 -2 2 C-1.34 1.34 -0.68 0.68 0 0 Z " fill="#414E5F" transform="translate(528,479)"/>
<path d="M0 0 C4.55555556 0.55555556 4.55555556 0.55555556 6 2 C6.1875 4.4375 6.1875 4.4375 6 7 C5.34 7.66 4.68 8.32 4 9 C-0.55555556 8.44444444 -0.55555556 8.44444444 -2 7 C-2.1875 4.5625 -2.1875 4.5625 -2 2 C-1.34 1.34 -0.68 0.68 0 0 Z " fill="#414E5F" transform="translate(488,479)"/>
<path d="M0 0 C2.625 0.375 2.625 0.375 5 1 C5.33 2.98 5.66 4.96 6 7 C3 9 3 9 0.9375 8.75 C-1 8 -1 8 -3 6 C-2.63318342 3.06546739 -2.13562754 2.13562754 0 0 Z " fill="#435060" transform="translate(448,479)"/>
<path d="M0 0 C4.55555556 0.55555556 4.55555556 0.55555556 6 2 C6.1875 4.4375 6.1875 4.4375 6 7 C5.34 7.66 4.68 8.32 4 9 C-0.55555556 8.44444444 -0.55555556 8.44444444 -2 7 C-2.1875 4.5625 -2.1875 4.5625 -2 2 C-1.34 1.34 -0.68 0.68 0 0 Z " fill="#414E5E" transform="translate(367,479)"/>
<path d="M0 0 C2.625 0.375 2.625 0.375 5 1 C5.6875 3.3125 5.6875 3.3125 6 6 C4.8125 7.875 4.8125 7.875 3 9 C0.02602384 8.72963853 -0.85446026 8.14553974 -3 6 C-2.63318342 3.06546739 -2.13562754 2.13562754 0 0 Z " fill="#434F60" transform="translate(319,479)"/>
<path d="M0 0 C4.55555556 0.55555556 4.55555556 0.55555556 6 2 C6.1875 4.4375 6.1875 4.4375 6 7 C5.34 7.66 4.68 8.32 4 9 C-0.55555556 8.44444444 -0.55555556 8.44444444 -2 7 C-2.1875 4.5625 -2.1875 4.5625 -2 2 C-1.34 1.34 -0.68 0.68 0 0 Z " fill="#414E5F" transform="translate(238,479)"/>
<path d="M0 0 C4.55555556 0.55555556 4.55555556 0.55555556 6 2 C6.1875 4.4375 6.1875 4.4375 6 7 C5.34 7.66 4.68 8.32 4 9 C-0.55555556 8.44444444 -0.55555556 8.44444444 -2 7 C-2.1875 4.5625 -2.1875 4.5625 -2 2 C-1.34 1.34 -0.68 0.68 0 0 Z " fill="#414E5F" transform="translate(198,479)"/>
<path d="M0 0 C4.55555556 0.55555556 4.55555556 0.55555556 6 2 C6.1875 4.4375 6.1875 4.4375 6 7 C5.34 7.66 4.68 8.32 4 9 C-0.55555556 8.44444444 -0.55555556 8.44444444 -2 7 C-2.1875 4.5625 -2.1875 4.5625 -2 2 C-1.34 1.34 -0.68 0.68 0 0 Z " fill="#3E4B5C" transform="translate(532,386)"/>
<path d="M0 0 C4.55555556 0.55555556 4.55555556 0.55555556 6 2 C6.1875 4.4375 6.1875 4.4375 6 7 C5.34 7.66 4.68 8.32 4 9 C-0.55555556 8.44444444 -0.55555556 8.44444444 -2 7 C-2.1875 4.5625 -2.1875 4.5625 -2 2 C-1.34 1.34 -0.68 0.68 0 0 Z " fill="#3E4B5C" transform="translate(194,386)"/>
<path d="M0 0 C4.55555556 0.55555556 4.55555556 0.55555556 6 2 C6.1875 4.4375 6.1875 4.4375 6 7 C5.34 7.66 4.68 8.32 4 9 C-0.55555556 8.44444444 -0.55555556 8.44444444 -2 7 C-2.1875 4.5625 -2.1875 4.5625 -2 2 C-1.34 1.34 -0.68 0.68 0 0 Z " fill="#3E4B5C" transform="translate(532,333)"/>
<path d="M0 0 C4.55555556 0.55555556 4.55555556 0.55555556 6 2 C6.1875 4.4375 6.1875 4.4375 6 7 C5.34 7.66 4.68 8.32 4 9 C-0.55555556 8.44444444 -0.55555556 8.44444444 -2 7 C-2.1875 4.5625 -2.1875 4.5625 -2 2 C-1.34 1.34 -0.68 0.68 0 0 Z " fill="#3E4B5C" transform="translate(194,333)"/>
<path d="M0 0 C2.5625 0.1875 2.5625 0.1875 4.5625 2.1875 C4.00694444 6.74305556 4.00694444 6.74305556 2.5625 8.1875 C0.125 8.375 0.125 8.375 -2.4375 8.1875 C-3.0975 7.5275 -3.7575 6.8675 -4.4375 6.1875 C-3.71780303 0.28598485 -3.71780303 0.28598485 0 0 Z " fill="#3E4C5C" transform="translate(449.4375,292.8125)"/>
<path d="M0 0 C2.5625 0.1875 2.5625 0.1875 4.5625 2.1875 C4.00694444 6.74305556 4.00694444 6.74305556 2.5625 8.1875 C0.125 8.375 0.125 8.375 -2.4375 8.1875 C-3.0975 7.5275 -3.7575 6.8675 -4.4375 6.1875 C-3.71780303 0.28598485 -3.71780303 0.28598485 0 0 Z " fill="#3F4C5D" transform="translate(320.4375,292.8125)"/>
<path d="M0 0 C2.5625 0.1875 2.5625 0.1875 4.5625 2.1875 C4.00694444 6.74305556 4.00694444 6.74305556 2.5625 8.1875 C0.125 8.375 0.125 8.375 -2.4375 8.1875 C-3.0975 7.5275 -3.7575 6.8675 -4.4375 6.1875 C-3.71780303 0.28598485 -3.71780303 0.28598485 0 0 Z " fill="#3F4C5D" transform="translate(280.4375,292.8125)"/>
<path d="M0 0 C2.5625 0.1875 2.5625 0.1875 4.5625 2.1875 C4.00694444 6.74305556 4.00694444 6.74305556 2.5625 8.1875 C0.125 8.375 0.125 8.375 -2.4375 8.1875 C-3.0975 7.5275 -3.7575 6.8675 -4.4375 6.1875 C-3.71780303 0.28598485 -3.71780303 0.28598485 0 0 Z " fill="#424F5F" transform="translate(588.4375,260.8125)"/>
<path d="M0 0 C1.99954746 -0.04254356 4.00041636 -0.04080783 6 0 C7 1 7 1 7.125 4 C7 7 7 7 6 8 C3.5625 8.1875 3.5625 8.1875 1 8 C0.34 7.34 -0.32 6.68 -1 6 C-0.625 2.875 -0.625 2.875 0 0 Z " fill="#394758" transform="translate(531,439)"/>
<path d="M0 0 C1.4540625 0.0309375 1.4540625 0.0309375 2.9375 0.0625 C3.5625 2.9375 3.5625 2.9375 3.9375 6.0625 C1.9375 8.0625 1.9375 8.0625 -0.625 8.25 C-3.0625 8.0625 -3.0625 8.0625 -4.0625 7.0625 C-4.1875 4.0625 -4.1875 4.0625 -4.0625 1.0625 C-3.0625 0.0625 -3.0625 0.0625 0 0 Z " fill="#394758" transform="translate(196.0625,438.9375)"/>
<path d="M0 0 C3.125 0.375 3.125 0.375 6 1 C6.04254356 2.99954746 6.04080783 5.00041636 6 7 C5 8 5 8 2 8.125 C-1 8 -1 8 -2 7 C-2.1875 4.5625 -2.1875 4.5625 -2 2 C-1.34 1.34 -0.68 0.68 0 0 Z " fill="#394758" transform="translate(528,293)"/>
<path d="M0 0 C3.125 0.375 3.125 0.375 6 1 C6.04254356 2.99954746 6.04080783 5.00041636 6 7 C5 8 5 8 2 8.125 C-1 8 -1 8 -2 7 C-2.1875 4.5625 -2.1875 4.5625 -2 2 C-1.34 1.34 -0.68 0.68 0 0 Z " fill="#394758" transform="translate(238,293)"/>
<path d="M0 0 C1.125 4.75 1.125 4.75 0 7 C-1.99954746 7.04254356 -4.00041636 7.04080783 -6 7 C-7 6 -7 6 -7.0625 2.9375 C-7.041875 1.968125 -7.02125 0.99875 -7 0 C-4.3333581 -1.33332095 -2.83319697 -0.67102033 0 0 Z " fill="#374557" transform="translate(493,294)"/>
<path d="M0 0 C2.5 0.125 2.5 0.125 3.5 1.125 C3.625 4.125 3.625 4.125 3.5 7.125 C2.5 8.125 2.5 8.125 0.0625 8.3125 C-2.5 8.125 -2.5 8.125 -4.5 6.125 C-3.77607362 0.18880368 -3.77607362 0.18880368 0 0 Z " fill="#384557" transform="translate(409.5,292.875)"/>
<path d="M0 0 C4.55555556 0.55555556 4.55555556 0.55555556 6 2 C6.125 4.5 6.125 4.5 6 7 C5 8 5 8 2 8.125 C-1 8 -1 8 -2 7 C-2.1875 4.5625 -2.1875 4.5625 -2 2 C-1.34 1.34 -0.68 0.68 0 0 Z " fill="#374556" transform="translate(367,293)"/>
<path d="M0 0 C1.125 4.75 1.125 4.75 0 7 C-1.99954746 7.04254356 -4.00041636 7.04080783 -6 7 C-7 6 -7 6 -7.0625 2.9375 C-7.041875 1.968125 -7.02125 0.99875 -7 0 C-4.3333581 -1.33332095 -2.83319697 -0.67102033 0 0 Z " fill="#374557" transform="translate(203,294)"/>
</svg>
