<svg xmlns="http://www.w3.org/2000/svg" width="338" height="129" fill="none" viewBox="0 0 338 129">
  <!-- Background -->
  <rect width="338" height="129" fill="#1f2937" rx="8"/>
  
  <!-- Graduation Cap -->
  <g transform="translate(20, 20)">
    <!-- Cap base -->
    <rect x="0" y="40" width="80" height="8" fill="#3b82f6" rx="4"/>
    <!-- Cap top -->
    <path d="M0 40 L40 20 L80 40" fill="#1d4ed8"/>
    <!-- Tassel -->
    <circle cx="40" cy="25" r="3" fill="#fbbf24"/>
    <path d="M40 25 Q40 35 35 45" stroke="#fbbf24" stroke-width="2" fill="none"/>
  </g>
  
  <!-- Plinko Board -->
  <g transform="translate(120, 15)">
    <!-- Board background -->
    <rect x="0" y="0" width="180" height="100" fill="#374151" rx="4"/>
    
    <!-- Pins (simplified) -->
    <circle cx="30" cy="20" r="2" fill="#6b7280"/>
    <circle cx="60" cy="20" r="2" fill="#6b7280"/>
    <circle cx="90" cy="20" r="2" fill="#6b7280"/>
    <circle cx="120" cy="20" r="2" fill="#6b7280"/>
    <circle cx="150" cy="20" r="2" fill="#6b7280"/>
    
    <circle cx="45" cy="40" r="2" fill="#6b7280"/>
    <circle cx="75" cy="40" r="2" fill="#6b7280"/>
    <circle cx="105" cy="40" r="2" fill="#6b7280"/>
    <circle cx="135" cy="40" r="2" fill="#6b7280"/>
    
    <circle cx="60" cy="60" r="2" fill="#6b7280"/>
    <circle cx="90" cy="60" r="2" fill="#6b7280"/>
    <circle cx="120" cy="60" r="2" fill="#6b7280"/>
    
    <circle cx="75" cy="80" r="2" fill="#6b7280"/>
    <circle cx="105" cy="80" r="2" fill="#6b7280"/>
    
    <!-- Bins -->
    <rect x="15" y="85" width="25" height="15" fill="#ef4444" rx="2"/>
    <rect x="45" y="85" width="25" height="15" fill="#f59e0b" rx="2"/>
    <rect x="75" y="85" width="25" height="15" fill="#10b981" rx="2"/>
    <rect x="105" y="85" width="25" height="15" fill="#3b82f6" rx="2"/>
    <rect x="135" y="85" width="25" height="15" fill="#8b5cf6" rx="2"/>
  </g>
  
  <!-- Text -->
  <text x="169" y="115" text-anchor="middle" fill="#ffffff" font-family="Arial, sans-serif" font-size="24" font-weight="bold">
    College Plinko
  </text>
  
  <!-- Ball -->
  <circle cx="280" cy="40" r="8" fill="#fbbf24"/>
  <circle cx="282" cy="38" r="2" fill="#ffffff" opacity="0.8"/>
</svg>