<svg version="1.1" id="Layer_1" xmlns="http://www.w3.org/2000/svg" xmlns:xlink="http://www.w3.org/1999/xlink" x="0px" y="0px"
	 width="100%" viewBox="0 0 240 192" enable-background="new 0 0 240 192" xml:space="preserve">
<path fill="#000000" opacity="1.000000" stroke="none" 
	d="
M115.420555,126.422745 
	C105.935715,126.848328 97.093567,124.003967 87.732986,126.362755 
	C82.773155,127.612602 76.137779,127.211212 71.072021,123.229263 
	C67.867996,120.710724 63.830944,120.200188 58.735020,119.766861 
	C62.341393,114.786911 60.212093,109.489395 61.610592,102.973755 
	C63.356228,107.894302 65.359131,110.418915 70.732323,107.920555 
	C62.864174,107.808640 64.883263,102.797043 64.775986,98.868233 
	C64.725975,97.036888 64.775421,95.202988 64.767838,93.370300 
	C64.730095,84.245499 64.728699,84.245506 56.280476,80.993889 
	C57.484226,76.604996 60.904636,74.985474 64.771957,73.919395 
	C75.649612,70.920845 86.837029,71.485054 97.947968,70.829597 
	C117.226288,69.692307 136.532059,70.227264 155.810989,69.266571 
	C163.252991,68.895737 170.795578,69.588875 178.232132,70.370247 
	C183.981964,70.974396 188.469711,74.985542 193.451843,77.569366 
	C195.509933,78.636726 195.934967,80.762154 193.338684,82.732285 
	C190.927246,84.562149 188.363937,85.768509 185.533798,85.422279 
	C181.384949,84.914749 177.651367,85.446007 174.373413,88.156784 
	C173.768265,87.198280 173.355942,86.545189 172.899567,85.822311 
	C171.329819,87.048454 170.188705,88.372276 170.447693,91.071533 
	C177.844757,93.870682 186.075912,91.126106 194.156464,93.202225 
	C192.204208,97.438156 190.449341,101.306274 189.565491,105.489502 
	C189.236938,107.044510 188.080048,108.176422 186.435562,108.356186 
	C181.004776,108.949875 175.543198,109.293137 170.130188,110.010017 
	C162.762695,110.985741 155.520096,109.240997 148.207840,109.045959 
	C143.226303,108.913078 138.544235,108.405334 133.701691,110.151527 
	C131.724823,110.864388 129.654907,109.090363 127.986717,107.674416 
	C125.691269,105.726044 123.275795,105.746506 120.269806,107.101280 
	C122.018265,109.918053 123.475189,112.599747 123.328400,116.030045 
	C132.263077,116.467163 140.914917,115.891808 149.529831,116.054802 
	C157.692078,116.209229 166.209656,114.561432 174.165298,118.626991 
	C177.054169,120.103287 180.646027,120.066521 184.486420,117.159813 
	C183.521896,121.599991 183.119781,124.958618 178.456604,125.139053 
	C177.057755,125.193176 175.891159,125.826637 174.899643,126.771065 
	C169.617691,131.802155 163.654602,132.131973 156.828720,130.285919 
	C147.512909,127.766449 138.034454,125.817215 128.232376,127.749489 
	C124.050133,128.573929 119.986893,126.981728 115.420555,126.422745 
M126.720978,83.288460 
	C119.535637,83.752625 125.959145,88.899498 123.685089,91.525650 
	C130.562881,92.143379 137.137192,92.104248 143.710815,92.154289 
	C150.407379,92.205254 157.103668,92.423454 163.799240,92.391861 
	C165.616806,92.383293 167.644073,91.829788 167.911240,89.532974 
	C168.151398,87.468292 169.953964,84.989670 166.582001,83.265244 
	C162.406464,88.031288 156.312073,86.774780 151.508194,86.161736 
	C143.447525,85.133118 134.997421,87.432793 126.720978,83.288460 
M129.434708,103.559486 
	C132.067261,103.719765 134.699936,104.017624 137.332321,104.014961 
	C145.796173,104.006401 154.275894,103.565971 162.714935,103.986137 
	C165.626068,104.131081 166.951813,103.140305 167.415878,101.015427 
	C167.987595,98.397667 165.551300,97.238708 163.704391,97.520958 
	C161.221405,97.900414 159.873322,96.150124 158.391739,95.535629 
	C155.241058,96.507095 154.517349,99.427032 152.568436,101.204338 
	C150.063782,96.123604 145.384628,94.046303 139.685089,96.026787 
	C134.436676,97.850517 129.377289,97.286957 123.594582,96.105957 
	C124.800278,98.609695 122.707909,101.002602 124.199303,103.560112 
	C125.729233,103.560112 127.199783,103.560112 129.434708,103.559486 
M73.703552,84.701866 
	C70.778763,87.166306 72.665718,81.322197 70.006073,83.046906 
	C71.436691,93.090988 75.216667,103.067490 74.315857,113.697800 
	C74.111061,116.114578 75.719986,117.684669 78.530190,117.293037 
	C81.646851,116.858704 83.503265,115.538422 82.530418,111.904633 
	C81.575104,113.204941 81.365555,115.344727 79.136185,114.912582 
	C77.040466,114.506355 76.165276,112.896797 75.927834,110.967941 
	C75.746391,109.493958 75.763863,107.989334 75.774635,106.498932 
	C75.820221,100.194687 75.912697,93.890778 75.951973,87.586517 
	C75.964607,85.558350 75.913948,85.558037 73.703552,84.701866 
M103.776237,95.488510 
	C102.072044,101.531937 104.880089,108.237228 101.042480,115.373878 
	C97.688461,108.481377 99.659561,102.039009 97.871635,94.767113 
	C95.080620,102.451218 97.167603,108.821030 97.434158,115.084145 
	C97.529541,117.325432 100.170715,117.015541 101.987518,116.946869 
	C104.076141,116.867905 105.626869,115.963005 105.575165,113.675941 
	C105.437241,107.574768 106.391983,101.394020 103.776237,95.488510 
M94.601273,103.306274 
	C94.920441,100.567917 94.790237,97.921944 93.022278,94.314873 
	C91.277306,101.821022 93.566269,108.559784 90.651772,114.720573 
	C85.634346,108.925751 89.641197,101.553131 86.732819,95.429207 
	C86.187920,101.210648 86.220627,106.960045 86.172699,112.708755 
	C86.151962,115.195648 86.738007,116.963020 89.721748,116.945068 
	C92.653999,116.927414 93.933006,115.470772 94.016861,112.636459 
	C94.100441,109.811195 94.302422,106.989433 94.601273,103.306274 
M171.691772,103.769852 
	C178.871582,105.571472 181.615585,102.813530 180.028534,95.290527 
	C178.124725,95.637787 176.951385,97.562195 174.681671,97.367508 
	C169.891251,96.956589 169.274323,99.412971 171.691772,103.769852 
M97.309822,88.552750 
	C97.869011,91.022003 99.858093,90.814499 101.675285,90.837456 
	C104.671280,90.875328 107.668213,90.866272 110.664543,90.846397 
	C116.063446,90.810600 116.733551,89.788353 114.857582,84.274254 
	C113.815483,86.163925 114.649841,89.687408 111.185921,89.215561 
	C106.485443,88.575272 100.497986,92.259247 97.192345,84.382423 
	C97.192345,86.237625 97.192345,87.045143 97.309822,88.552750 
M92.232391,85.183151 
	C92.120949,86.606812 92.663368,88.576660 90.639114,88.861755 
	C87.056664,89.366302 89.925301,84.581146 87.154282,84.154907 
	C85.873436,88.067123 85.883713,89.642532 87.530525,90.397659 
	C89.228348,91.176193 91.352722,91.425865 92.751083,90.167915 
	C94.510147,88.585503 94.169228,86.085670 93.605644,84.067574 
	C93.230629,82.724716 92.487167,83.631622 92.232391,85.183151 
z"/>
<path fill="#000000" opacity="1.000000" stroke="none" 
	d="
M54.185192,91.075531 
	C54.539772,88.284142 54.198120,85.653763 57.783573,82.745560 
	C57.955883,92.008965 59.771149,100.000999 56.481167,108.072784 
	C54.121403,102.746552 55.301689,96.955231 54.185192,91.075531 
z"/>
</svg>