<svg version="1.1" id="Layer_1" xmlns="http://www.w3.org/2000/svg" xmlns:xlink="http://www.w3.org/1999/xlink" x="0px" y="0px"
	 width="100%" viewBox="0 0 1281 659" enable-background="new 0 0 1281 659" xml:space="preserve">
<path fill="#FFFFFF" opacity="1.000000" stroke="none" 
	d="
M806.000000,660.000000 
	C714.310730,660.000000 622.621399,660.000000 530.466187,659.604614 
	C530.662170,657.415161 531.296936,655.610596 531.990112,653.828674 
	C541.327515,629.826233 550.673889,605.827332 560.016174,581.826782 
	C562.782898,574.718994 565.543945,567.608887 568.443665,560.149780 
	C561.620483,560.149780 555.486389,560.149780 549.070679,560.149780 
	C544.914368,571.376160 540.739990,582.626343 536.584290,593.883484 
	C532.489502,604.975647 528.413635,616.074707 523.942383,628.222412 
	C523.090698,625.105408 522.691345,623.260437 522.085632,621.485962 
	C515.414062,601.941406 508.743713,582.396179 501.933441,562.899902 
	C501.522064,561.722168 499.954865,560.165405 498.879730,560.128845 
	C491.654266,559.882935 484.416443,560.000854 476.894867,560.000854 
	C477.182861,561.053528 477.252777,561.522156 477.434570,561.942444 
	C482.961517,574.720703 488.817535,587.367798 493.957092,600.299683 
	C500.750366,617.392639 507.109924,634.662598 513.362854,651.962341 
	C514.800476,655.939819 516.394226,658.630798 521.080994,658.115967 
	C521.315552,658.090210 521.690430,659.342712 522.000000,660.000000 
	C424.310699,660.000000 326.621368,660.000000 228.600647,659.615845 
	C247.544205,657.544373 261.162506,642.311035 261.806091,625.424072 
	C262.611511,604.291321 262.001038,583.104553 261.981598,561.941101 
	C261.981049,561.335693 261.751862,560.730591 261.663025,560.291931 
	C255.286209,560.291931 249.194809,560.291931 242.623291,560.291931 
	C243.447830,566.279785 244.766983,571.903503 244.893478,577.553894 
	C245.214188,591.877808 245.122833,606.215332 244.947418,620.544250 
	C244.861526,627.560303 242.252792,633.941772 237.410629,638.924377 
	C231.527206,644.978333 221.059464,646.667053 213.662811,642.783936 
	C206.033859,638.778748 202.127563,631.936462 202.053635,623.358154 
	C201.884171,603.695984 202.004868,584.031311 201.989853,564.367676 
	C201.988770,562.943115 201.843002,561.518616 201.776596,560.313477 
	C194.237686,560.313477 187.149139,560.313477 180.462219,560.313477 
	C180.985260,570.278870 181.638474,579.940918 181.965210,589.613953 
	C182.434708,603.514160 181.804199,617.513245 183.257736,631.299927 
	C184.545807,643.517273 193.179840,654.716003 206.561401,658.074890 
	C207.164032,658.226135 207.525955,659.336426 208.000000,660.000000 
	C139.076538,660.000000 70.153084,660.000000 1.000000,660.000000 
	C1.000000,599.310852 1.000000,538.621460 1.341341,477.544312 
	C7.880252,482.411530 15.131068,484.658203 23.089983,486.223053 
	C39.569714,489.463257 57.707703,483.084167 61.758179,462.844147 
	C63.624802,453.516754 59.662514,441.119263 51.802101,436.024048 
	C43.307255,430.517548 34.579681,425.371399 26.009726,419.978943 
	C21.872900,417.375946 19.635736,412.037109 21.176525,407.719391 
	C22.833435,403.076294 26.668634,401.404053 31.441545,400.941681 
	C40.385235,400.075317 47.703281,404.331787 55.756359,408.378296 
	C57.136787,403.097626 58.441624,398.106140 59.751965,393.093567 
	C50.390327,387.235138 40.360256,385.709778 29.735495,385.914398 
	C18.047770,386.139435 7.203138,393.401276 3.272671,406.264984 
	C-0.472277,418.521545 4.781683,431.258453 14.593400,437.186066 
	C22.155539,441.754639 29.757586,446.266693 37.178474,451.057037 
	C45.607986,456.498413 44.948814,465.607513 36.128769,470.454285 
	C30.798615,473.383331 25.567953,472.077057 20.711632,470.043335 
	C14.578147,467.474792 8.845080,463.950073 2.708421,460.716187 
	C2.499363,462.444794 2.278163,464.513245 1.992145,466.572693 
	C1.693981,468.719635 1.333330,470.857941 0.999998,473.000000 
	C1.000000,315.727112 1.000000,158.454254 1.000000,1.000000 
	C218.355927,1.000000 435.711884,1.000000 653.532227,1.377473 
	C649.131104,11.546893 644.403992,21.412422 639.273926,31.063723 
	C638.338318,32.823814 635.843262,34.682816 633.925476,34.848873 
	C615.611694,36.434593 597.209106,37.141140 578.950500,39.167839 
	C564.897217,40.727753 551.013977,43.819790 537.000000,46.240051 
	C537.000000,49.225128 537.000000,51.043514 537.000000,52.861900 
	C537.000000,95.693596 537.231140,138.527374 536.845886,181.355606 
	C536.742798,192.812805 539.753479,203.134918 544.626038,213.066147 
	C554.202698,232.585297 568.204407,248.694870 584.941589,262.305267 
	C603.039124,277.021851 623.150513,288.610748 644.498108,297.975067 
	C649.284119,300.074493 653.709412,304.007172 659.874390,300.715118 
	C672.038269,294.219727 684.676147,288.597992 696.733887,281.921356 
	C711.133484,273.947968 724.124146,263.973663 736.074402,252.557114 
	C747.518677,241.623962 757.355286,229.461136 764.600220,215.497787 
	C768.383911,208.205521 771.871582,200.081696 772.656250,192.056091 
	C774.168701,176.586075 773.877380,160.920166 773.955261,145.333588 
	C774.107666,114.835526 774.000000,84.336143 774.000000,53.837311 
	C774.000000,51.686108 774.000000,49.534901 774.000000,47.424221 
	C752.484863,40.319431 730.311218,38.485710 708.276001,36.128841 
	C698.104736,35.040939 687.787476,35.246262 677.532898,35.050690 
	C674.265015,34.988361 672.370056,33.950184 670.882385,30.793858 
	C666.150818,20.754555 660.993042,10.916089 656.000000,1.000012 
	C864.578308,1.000000 1073.156616,1.000000 1282.000000,1.000000 
	C1282.000000,132.022522 1282.000000,263.045227 1281.597412,394.375366 
	C1281.075317,392.237549 1280.955933,389.792297 1280.829590,387.204163 
	C1274.533081,387.204163 1268.444580,387.204163 1262.776367,387.204163 
	C1263.334473,408.430420 1263.887817,429.474640 1264.434204,450.251160 
	C1255.438477,439.430817 1246.838013,429.057709 1238.205444,418.711487 
	C1231.406128,410.562469 1224.656006,402.369354 1217.696655,394.358612 
	C1215.342896,391.649384 1212.775391,388.224518 1209.660767,387.300537 
	C1205.548462,386.080688 1200.801514,387.000488 1196.079834,387.000488 
	C1196.748047,392.806702 1197.873413,398.241943 1197.914795,403.685425 
	C1198.107300,429.011841 1198.000000,454.340515 1198.000000,479.668396 
	C1198.000000,481.416718 1198.000000,483.165039 1198.000000,484.661285 
	C1204.783447,484.661285 1210.867798,484.661285 1216.500000,484.661285 
	C1216.500000,464.368408 1216.500000,444.415649 1216.500000,424.064270 
	C1218.125488,426.387573 1219.389526,428.598541 1221.033203,430.477722 
	C1231.081909,441.966888 1241.240845,453.359711 1251.310669,464.830597 
	C1255.084595,469.129669 1258.687988,473.578125 1262.423950,477.911102 
	C1266.253418,482.352661 1270.179565,486.573578 1277.012695,485.052216 
	C1278.600342,484.698761 1280.333740,485.000000 1282.000000,485.000000 
	C1282.000000,543.293274 1282.000000,601.586609 1282.000000,660.000000 
	C1130.644043,660.000000 979.288086,660.000000 827.570435,659.641479 
	C828.084900,658.863464 828.923462,658.318604 829.842834,658.043213 
	C847.139893,652.861694 852.016724,635.952515 847.880981,621.260925 
	C845.181824,611.672241 837.183838,606.629395 829.018738,601.957642 
	C823.165833,598.608887 817.432678,595.023315 811.844238,591.249939 
	C808.416321,588.935364 806.774780,585.209839 808.367859,581.331604 
	C809.921509,577.549622 812.715149,574.439575 817.361572,573.990784 
	C824.914490,573.261108 831.930054,574.912903 838.340942,578.895325 
	C841.285339,580.724304 843.678955,582.922119 844.161804,576.900330 
	C844.446655,573.348877 846.020203,569.900635 847.044373,566.299805 
	C837.723206,560.379578 827.742676,558.344727 817.106140,559.003296 
	C795.440308,560.344727 787.145325,576.540771 790.505737,594.837952 
	C792.081482,603.417725 798.863525,608.578796 806.017761,613.042969 
	C813.385559,617.640503 820.851440,622.169312 827.716553,627.453125 
	C832.395386,631.054199 831.231140,638.472168 826.382690,641.941895 
	C818.981812,647.238464 811.563416,644.973816 804.457581,641.671326 
	C799.494690,639.364868 795.001343,636.048096 790.451965,633.276184 
	C789.954285,635.642822 789.458069,637.854004 789.027222,640.077820 
	C787.377197,648.595032 789.961670,653.060364 798.188110,655.991150 
	C799.994141,656.634583 801.830688,657.225037 803.559204,658.039551 
	C804.476929,658.472046 805.192932,659.332642 806.000000,660.000000 
M591.960876,433.594055 
	C586.461914,418.095032 580.963013,402.595978 575.537781,387.304810 
	C567.588501,387.304810 559.861450,387.304810 551.541321,387.304810 
	C552.355835,389.224548 552.897888,390.704254 553.594299,392.107391 
	C556.311890,397.583038 559.590698,402.841370 561.735352,408.529358 
	C569.697876,429.647217 577.077454,450.986389 585.172485,472.051636 
	C587.285400,477.549927 587.301636,485.593994 596.374512,485.748566 
	C597.187927,485.762451 598.123962,485.680267 598.791138,486.037994 
	C603.723694,488.682739 604.680603,485.057617 606.011475,481.684296 
	C611.354248,468.143250 616.772705,454.632080 622.456360,440.374420 
	C627.165588,452.831818 632.010559,464.357910 635.808167,476.219330 
	C637.811401,482.476105 641.063110,485.726257 647.467041,486.003357 
	C648.124573,486.031799 648.891296,485.905457 649.417786,486.195312 
	C652.201538,487.727997 653.001282,486.861725 654.155457,483.873688 
	C662.405701,462.513916 671.053955,441.308258 679.482422,420.016663 
	C683.771179,409.182526 687.866821,398.271851 692.201904,387.000031 
	C686.606323,387.000031 681.433411,386.710541 676.324951,387.157257 
	C674.539978,387.313385 671.948975,388.921417 671.363098,390.481262 
	C665.003418,407.414154 658.976624,424.471924 652.842590,441.489716 
	C651.128052,446.246582 649.359375,450.983978 647.503540,456.034973 
	C646.977417,453.531067 646.748047,451.425018 646.089600,449.462952 
	C639.366028,429.427216 632.611694,409.401337 625.692261,389.432892 
	C625.316528,388.348389 623.420898,387.154083 622.192017,387.108521 
	C615.882935,386.874634 609.560547,387.000183 602.730896,387.000183 
	C606.435974,397.143585 609.992249,406.879517 613.460693,416.375092 
	C608.340149,429.720154 603.199219,443.118225 598.685852,454.880829 
	C596.784912,449.024292 594.411926,441.713562 591.960876,433.594055 
M367.000000,603.498230 
	C367.000000,609.324158 367.000000,615.150024 367.000000,621.698792 
	C360.345856,613.889404 354.437592,607.019104 348.599396,600.089783 
	C338.186432,587.730591 327.846741,575.309387 317.381042,562.995178 
	C316.295135,561.717468 314.630432,560.275574 313.122314,560.138123 
	C308.869202,559.750305 304.557770,560.002502 299.910400,560.002502 
	C304.132019,592.777649 300.812836,625.258484 302.287903,657.806152 
	C308.509857,657.806152 314.595154,657.806152 319.999298,657.806152 
	C319.999298,637.217163 319.999298,616.829956 319.999298,597.667542 
	C322.517456,600.706299 325.639038,604.639648 328.934631,608.421326 
	C342.931152,624.482056 356.960846,640.514099 371.060120,656.484497 
	C371.804657,657.327820 373.280762,657.876648 374.446350,657.932190 
	C378.232483,658.112610 382.032562,657.999695 385.181274,657.999695 
	C385.181274,625.085510 385.181274,592.618530 385.181274,560.267639 
	C377.932983,560.267639 371.502075,560.267639 366.047821,560.267639 
	C366.369019,574.513916 366.684509,588.506531 367.000000,603.498230 
M435.010376,388.354736 
	C435.673584,392.848206 436.872375,397.337189 436.910065,401.835907 
	C437.104065,424.989471 437.000000,448.145538 437.000000,471.300751 
	C437.000000,475.751343 437.000000,480.201904 437.000000,484.626221 
	C444.604797,484.626221 451.771667,484.626221 457.989441,484.626221 
	C457.989441,470.861511 457.989441,457.474518 457.989441,444.361603 
	C472.133972,444.361603 486.537323,444.361603 501.323730,444.361603 
	C501.323730,458.127289 501.323730,471.532379 501.323730,484.673859 
	C508.789612,484.673859 515.858826,484.673859 522.417114,484.673859 
	C521.931335,477.544159 521.111084,470.712280 521.064026,463.875061 
	C520.898926,439.888062 521.000000,415.899261 521.000000,391.911133 
	C521.000000,390.322662 521.000000,388.734222 521.000000,387.270752 
	C513.268860,387.270752 506.179382,387.270752 500.007568,387.270752 
	C500.007568,400.953552 500.007568,414.359741 500.007568,427.713104 
	C486.017059,427.713104 471.615997,427.713104 456.825684,427.713104 
	C456.825684,414.024963 456.825684,400.619507 456.825684,387.441864 
	C449.322388,387.441864 442.215698,387.441864 435.010376,388.354736 
M155.333374,481.970490 
	C164.827759,477.169739 171.432251,469.727966 176.045792,460.183960 
	C180.443878,451.085663 181.143585,441.547729 181.067734,431.672699 
	C180.899170,409.728577 168.242355,389.680206 144.896530,386.662689 
	C126.501747,384.285126 109.036301,390.681488 98.892822,405.510498 
	C89.031570,419.926941 87.445091,435.691986 91.001183,452.349304 
	C97.644432,483.467438 130.429367,494.755371 155.333374,481.970490 
M742.882324,658.000000 
	C749.899536,658.000000 756.916687,658.000000 764.870117,658.000000 
	C754.371887,644.553101 744.634033,632.080200 734.778198,619.456055 
	C747.786865,611.876770 753.304016,600.726196 751.954346,586.254028 
	C751.253662,578.741211 748.277100,572.459229 741.749695,567.890259 
	C735.449341,563.480225 728.857605,560.817688 721.078918,560.929504 
	C709.755188,561.092407 698.427307,560.971313 687.659851,560.971313 
	C688.089294,567.728577 688.886841,574.890869 688.937317,582.058350 
	C689.103699,605.704224 689.000000,629.351929 689.000000,652.998962 
	C689.000000,654.595764 689.000000,656.192627 689.000000,657.777100 
	C696.682434,657.777100 703.788269,657.777100 710.253357,657.777100 
	C709.691223,646.480713 709.138550,635.374084 708.599365,624.540039 
	C713.934937,622.837769 716.618408,624.962769 719.012756,628.570312 
	C725.250549,637.968445 731.682129,647.240417 738.206970,656.441772 
	C738.872681,657.380493 740.693298,657.500244 742.882324,658.000000 
M1094.000000,446.500000 
	C1094.000000,459.260406 1094.000000,472.020813 1094.000000,484.738495 
	C1101.325806,484.738495 1108.082031,484.738495 1114.499756,484.738495 
	C1114.499756,473.344299 1114.499756,462.213776 1114.499756,451.260986 
	C1118.718994,449.998260 1120.825928,452.090302 1122.978882,455.322357 
	C1129.152344,464.589905 1135.714600,473.598907 1142.156006,482.686951 
	C1142.757812,483.536163 1143.572144,484.874054 1144.310303,484.889130 
	C1152.170410,485.049835 1160.035034,484.988922 1169.110718,484.988922 
	C1158.562256,471.441040 1148.839478,458.953644 1139.762817,447.296112 
	C1143.752930,443.111786 1148.135620,439.574066 1151.186401,435.123413 
	C1161.392212,420.234497 1158.031006,401.536987 1143.088013,392.947388 
	C1137.890625,389.959778 1131.271606,388.598755 1125.187256,388.186676 
	C1114.221191,387.444000 1103.168701,387.976746 1093.071533,387.976746 
	C1093.376465,406.871429 1093.688232,426.185699 1094.000000,446.500000 
M221.022858,471.250122 
	C225.144531,477.005768 230.038193,481.524200 236.936615,484.148163 
	C246.506927,487.788300 256.188904,487.742493 265.804169,485.826019 
	C273.804504,484.231506 281.136993,480.272736 286.436035,473.913910 
	C293.301086,465.675934 295.873260,455.681671 295.975800,445.079865 
	C296.083771,433.918030 296.000000,422.754303 296.000000,411.591400 
	C296.000000,403.487183 296.000000,395.382965 296.000000,387.226074 
	C289.064087,387.226074 282.637817,387.226074 275.956757,387.226074 
	C276.657654,393.103790 277.793213,398.722961 277.908020,404.362915 
	C278.189453,418.185883 278.154877,432.021210 277.905457,445.845367 
	C277.830841,449.981964 277.115051,454.256775 275.837799,458.190613 
	C273.206268,466.295410 261.144897,473.660889 253.835236,471.934387 
	C241.448502,469.008698 234.989731,461.151794 234.997269,448.073761 
	C235.008026,429.413391 235.000000,410.753021 235.000000,392.092651 
	C235.000000,390.486389 235.000000,388.880096 235.000000,387.215637 
	C227.388535,387.215637 220.290085,387.215637 213.664688,387.215637 
	C214.115982,397.061462 214.747681,406.700623 214.949142,416.348785 
	C215.171707,427.007233 215.031555,437.673981 214.989578,448.336914 
	C214.958298,456.278900 216.940598,463.653931 221.022858,471.250122 
M775.950989,470.020569 
	C764.029663,470.020569 752.108276,470.020569 740.297729,470.020569 
	C740.297729,460.662903 740.297729,451.926086 740.297729,442.999969 
	C748.237122,442.999969 755.883179,443.107727 763.521179,442.907501 
	C765.020081,442.868225 767.459473,441.953125 767.800415,440.902069 
	C769.223389,436.514404 770.011414,431.920776 771.161499,426.830872 
	C760.545898,426.830872 750.316284,426.830872 740.341797,426.830872 
	C740.341797,418.573090 740.341797,410.833252 740.341797,402.716370 
	C752.087891,402.716370 763.494385,402.716370 774.659790,402.716370 
	C774.659790,397.243683 774.659790,392.169006 774.659790,387.292664 
	C755.587219,387.292664 736.855835,387.292664 718.253540,387.292664 
	C721.344604,403.636749 719.692505,419.880676 719.944336,436.040619 
	C720.197571,452.289856 720.000000,468.546112 720.000000,484.999908 
	C737.054749,484.999908 753.524719,484.969574 769.994324,485.031494 
	C772.563782,485.041168 773.789795,484.433533 774.127197,481.501465 
	C774.562317,477.720062 775.865356,474.038513 775.950989,470.020569 
M1004.000000,430.500000 
	C1004.000000,448.589569 1004.000000,466.679138 1004.000000,484.881500 
	C1021.841858,484.881500 1039.127441,484.881500 1056.562256,484.881500 
	C1057.744995,480.053986 1058.917480,475.268921 1060.227661,469.921265 
	C1047.976929,469.921265 1036.084717,469.921265 1024.291870,469.921265 
	C1024.291870,460.675140 1024.291870,451.938629 1024.291870,442.993622 
	C1033.208618,442.993622 1041.835571,442.993622 1050.628418,442.993622 
	C1051.846802,437.657867 1053.023438,432.504456 1054.330566,426.780396 
	C1043.643555,426.780396 1033.898804,426.780396 1024.311157,426.780396 
	C1024.311157,418.636047 1024.311157,410.897980 1024.311157,402.777008 
	C1035.692383,402.777008 1046.766113,402.777008 1057.689697,402.777008 
	C1057.689697,397.307251 1057.689697,392.235809 1057.689697,387.275818 
	C1038.958374,387.275818 1020.538452,387.275818 1002.771484,387.275818 
	C1003.186157,401.527283 1003.593079,415.513641 1004.000000,430.500000 
M600.731873,657.942322 
	C613.053894,657.961548 625.376099,658.031799 637.697754,657.974365 
	C642.477051,657.952087 648.198181,659.160706 651.727478,656.969482 
	C654.426880,655.293457 654.356445,649.152893 655.511108,644.996216 
	C655.664368,644.444458 655.776489,643.881226 656.006226,642.904053 
	C643.527405,642.904053 631.434021,642.904053 619.218628,642.904053 
	C619.218628,633.820984 619.218628,625.087952 619.218628,615.999939 
	C627.218750,615.999939 635.008911,616.114014 642.789795,615.895874 
	C644.207458,615.856201 646.461975,614.749084 646.828979,613.638611 
	C648.233093,609.389709 649.024719,604.938354 650.174683,600.006592 
	C639.679932,600.006592 629.474976,600.006592 619.252625,600.006592 
	C619.252625,591.752258 619.252625,584.018433 619.252625,575.898071 
	C630.902893,575.898071 642.306519,575.898071 653.754456,575.898071 
	C653.754456,570.435059 653.754456,565.365662 653.754456,560.228271 
	C635.108704,560.228271 616.709290,560.228271 599.366211,560.228271 
	C599.597290,592.720642 599.826721,624.986267 600.731873,657.942322 
M828.382874,443.034332 
	C832.401428,445.393005 836.647278,447.439941 840.393616,450.171844 
	C849.696167,456.955414 849.817261,465.091949 840.866516,470.485107 
	C836.137451,473.334595 830.680176,472.480103 825.840393,470.285370 
	C819.512390,467.415802 813.434021,463.995941 806.932495,460.650330 
	C806.643494,464.958649 806.179382,469.779724 806.082947,474.608154 
	C806.054382,476.037811 806.628113,478.152679 807.661255,478.827118 
	C819.005615,486.233002 831.455872,488.959320 844.719971,485.924164 
	C866.036255,481.046509 871.189819,455.962921 861.780762,442.170959 
	C856.777161,434.836700 849.236816,431.239075 842.023804,426.931183 
	C836.914185,423.879547 831.896667,420.534973 827.365295,416.698395 
	C823.820190,413.696747 824.241882,408.958435 827.144226,405.318268 
	C831.766785,399.520508 837.960266,400.004974 843.921082,401.569244 
	C849.356689,402.995697 854.483765,405.597656 860.219116,407.868500 
	C861.469116,402.993256 862.717651,398.123779 863.974182,393.222992 
	C854.710510,387.457306 844.896240,385.729065 834.404175,385.928833 
	C810.232300,386.389038 801.047119,410.225616 810.044312,428.112579 
	C813.752319,435.484344 821.121033,438.774231 828.382874,443.034332 
M1085.964111,589.381836 
	C1084.753296,591.359436 1083.542603,593.337097 1082.092285,595.706055 
	C1076.135376,584.324280 1070.600586,573.657898 1064.940308,563.058533 
	C1064.293335,561.847046 1062.973389,560.173462 1061.914917,560.135742 
	C1054.683228,559.878113 1047.437988,560.000793 1039.416260,560.000793 
	C1040.645508,562.064758 1041.389648,563.435181 1042.246826,564.730835 
	C1044.817871,568.616760 1047.767944,572.292969 1049.967285,576.375671 
	C1056.370361,588.261353 1062.597412,600.246582 1068.615356,612.331299 
	C1069.985840,615.083313 1070.830078,618.381287 1070.895020,621.449585 
	C1071.151123,633.535400 1071.000000,645.629822 1071.000000,657.762817 
	C1078.253540,657.762817 1084.997314,657.762817 1092.242432,657.762817 
	C1091.806030,653.941406 1091.111694,650.416992 1091.055420,646.882507 
	C1090.896851,636.897949 1090.983643,626.909119 1091.020264,616.922180 
	C1091.024902,615.638489 1090.929688,614.146606 1091.512573,613.104553 
	C1098.485962,600.637451 1105.633667,588.267883 1112.613403,575.804321 
	C1115.395264,570.836731 1117.875488,565.700134 1120.824097,560.000427 
	C1114.281494,560.000427 1108.796509,559.881653 1103.324585,560.097595 
	C1102.187256,560.142456 1100.618896,561.165344 1100.063354,562.182312 
	C1095.281494,570.934021 1090.686646,579.787781 1085.964111,589.381836 
M375.000000,442.500000 
	C375.000000,429.411224 375.000000,416.322449 375.000000,402.850586 
	C385.618011,402.850586 395.689545,402.850586 405.730530,402.850586 
	C405.730530,397.385651 405.730530,392.316010 405.730530,387.246948 
	C378.405792,387.246948 351.351288,387.246948 324.246185,387.246948 
	C324.246185,392.566620 324.246185,397.635864 324.246185,403.090271 
	C334.556671,403.090271 344.627960,403.090271 355.062347,403.090271 
	C355.062347,430.534821 355.062347,457.591064 355.062347,484.791382 
	C362.180695,484.791382 368.923553,484.791382 375.000000,484.791382 
	C375.000000,470.882904 375.000000,457.191467 375.000000,442.500000 
M921.000000,406.651672 
	C921.000000,432.707520 921.000000,458.763367 921.000000,484.760803 
	C928.708313,484.760803 935.806152,484.760803 942.682129,484.760803 
	C939.252625,457.510590 941.915710,430.388794 940.825378,402.935608 
	C951.532410,402.935608 961.600586,402.935608 971.778259,402.935608 
	C971.778259,397.480438 971.778259,392.413513 971.778259,387.362701 
	C944.723938,387.362701 917.892944,387.362701 891.360046,387.362701 
	C891.360046,392.803467 891.360046,397.878571 891.360046,403.000092 
	C900.372253,403.000092 909.024658,403.026184 917.676697,402.980133 
	C919.623901,402.969757 921.488464,402.808197 921.000000,406.651672 
M965.000000,609.500000 
	C965.000000,625.586243 965.000000,641.672424 965.000000,657.743652 
	C972.296936,657.743652 979.044556,657.743652 985.500000,657.743652 
	C985.500000,630.369995 985.500000,603.252197 985.500000,575.742676 
	C995.728943,575.742676 1005.800964,575.742676 1015.676392,575.742676 
	C1015.676392,570.276550 1015.676392,565.205505 1015.676392,560.300964 
	C988.630005,560.300964 961.908081,560.300964 935.300476,560.300964 
	C935.300476,565.675903 935.300476,570.745728 935.300476,576.198669 
	C945.334656,576.198669 955.072876,576.198669 965.000000,576.198669 
	C965.000000,587.226013 965.000000,597.863037 965.000000,609.500000 
M427.000000,603.500000 
	C427.000000,621.582947 427.000000,639.665955 427.000000,657.754456 
	C434.290710,657.754456 441.041351,657.754456 447.188416,657.754456 
	C447.188416,625.066711 447.188416,592.614258 447.188416,560.287842 
	C439.288788,560.287842 432.203552,560.287842 425.704712,560.287842 
	C426.142212,574.545654 426.571106,588.522827 427.000000,603.500000 
M904.000000,622.500000 
	C904.000000,601.762695 904.000000,581.025391 904.000000,560.202637 
	C896.407532,560.202637 889.317810,560.202637 882.327698,560.202637 
	C885.967773,592.824036 882.796326,625.416077 884.311096,657.713623 
	C891.747131,657.713623 898.816956,657.713623 904.901001,657.713623 
	C904.596130,646.135437 904.298035,634.817749 904.000000,622.500000 
z"/>
<path fill="#000000" opacity="1.000000" stroke="none" 
	d="
M655.666626,1.000012 
	C660.993042,10.916089 666.150818,20.754555 670.882385,30.793858 
	C672.370056,33.950184 674.265015,34.988361 677.532898,35.050690 
	C687.787476,35.246262 698.104736,35.040939 708.276001,36.128841 
	C730.311218,38.485710 752.484863,40.319431 774.000000,47.424221 
	C774.000000,49.534901 774.000000,51.686108 774.000000,53.837311 
	C774.000000,84.336143 774.107666,114.835526 773.955261,145.333588 
	C773.877380,160.920166 774.168701,176.586075 772.656250,192.056091 
	C771.871582,200.081696 768.383911,208.205521 764.600220,215.497787 
	C757.355286,229.461136 747.518677,241.623962 736.074402,252.557114 
	C724.124146,263.973663 711.133484,273.947968 696.733887,281.921356 
	C684.676147,288.597992 672.038269,294.219727 659.874390,300.715118 
	C653.709412,304.007172 649.284119,300.074493 644.498108,297.975067 
	C623.150513,288.610748 603.039124,277.021851 584.941589,262.305267 
	C568.204407,248.694870 554.202698,232.585297 544.626038,213.066147 
	C539.753479,203.134918 536.742798,192.812805 536.845886,181.355606 
	C537.231140,138.527374 537.000000,95.693596 537.000000,52.861900 
	C537.000000,51.043514 537.000000,49.225128 537.000000,46.240051 
	C551.013977,43.819790 564.897217,40.727753 578.950500,39.167839 
	C597.209106,37.141140 615.611694,36.434593 633.925476,34.848873 
	C635.843262,34.682816 638.338318,32.823814 639.273926,31.063723 
	C644.403992,21.412422 649.131104,11.546893 653.998291,1.377473 
	C654.444458,1.000000 654.888916,1.000000 655.666626,1.000012 
M675.000000,190.500000 
	C675.000000,166.017365 675.227966,141.531189 674.847839,117.054459 
	C674.746338,110.517738 676.198730,105.204727 680.792053,100.720253 
	C682.835022,98.725716 682.502319,96.961708 681.243958,94.486153 
	C672.574097,77.430344 664.128601,60.260490 655.270081,42.441704 
	C645.743408,61.039883 636.447266,79.187935 626.876831,97.871552 
	C634.992188,103.654877 635.171753,112.201157 635.122986,121.350761 
	C634.862183,170.314606 635.032715,219.280640 634.932007,268.245667 
	C634.924683,271.795685 635.701782,273.860779 639.333191,275.194885 
	C643.686707,276.794312 647.629517,279.481415 651.914001,281.314484 
	C653.579651,282.027100 655.972046,282.371002 657.551636,281.717773 
	C663.454895,279.276611 669.158630,276.352936 675.000000,273.580444 
	C675.000000,246.117020 675.000000,218.808517 675.000000,190.500000 
M756.000000,89.500000 
	C756.000000,80.188614 756.000000,70.877228 756.000000,60.200024 
	C731.511047,57.436184 707.078308,54.678696 681.403076,51.780975 
	C686.694275,62.365910 691.120728,71.220886 695.837097,80.655853 
	C698.338806,77.762451 700.512634,75.248215 702.769958,72.637512 
	C709.741272,81.548431 716.264404,90.180397 723.115662,98.543510 
	C727.913391,104.399887 730.321655,110.429260 730.213684,118.413757 
	C729.724976,154.544098 730.000000,190.684784 730.000000,226.821732 
	C730.000000,228.398911 730.000000,229.976089 730.000000,232.711761 
	C734.276184,227.227386 738.057861,222.852112 741.312012,218.114502 
	C751.053467,203.932159 756.895325,188.832062 756.250488,170.924850 
	C755.286255,144.148270 756.000000,117.311287 756.000000,89.500000 
M555.000000,168.499847 
	C555.241760,175.754211 554.350769,183.283188 556.025330,190.190216 
	C557.919373,198.002991 561.510742,205.598801 565.488098,212.655396 
	C569.201477,219.243698 574.388306,225.001556 578.926636,231.124939 
	C579.284424,230.888489 579.642212,230.652023 580.000000,230.415558 
	C580.000000,228.773941 580.000000,227.132339 580.000000,225.490723 
	C580.000000,187.860550 579.951843,150.230179 580.106934,112.600655 
	C580.117432,110.058380 581.133057,107.157242 582.591431,105.054214 
	C586.465942,99.467033 590.842957,94.228661 595.012451,88.845581 
	C599.234985,83.393944 603.448242,77.935143 607.902283,72.173317 
	C610.288269,75.336533 612.090637,77.725945 614.141724,80.445076 
	C618.986816,71.212685 623.630066,62.364788 628.675171,52.751301 
	C603.294006,53.990517 579.030334,56.052502 555.000000,61.205006 
	C555.000000,96.923271 555.000000,132.211609 555.000000,168.499847 
M708.736877,251.823166 
	C709.157898,249.979462 709.943115,248.136398 709.946411,246.291977 
	C710.016968,206.651337 709.853821,167.009583 710.116516,127.370552 
	C710.172729,118.886810 710.004333,110.981445 702.461426,105.618385 
	C701.577576,106.617958 700.188904,107.760353 699.357422,109.220116 
	C697.739807,112.060226 695.201172,115.071327 695.184448,118.023689 
	C694.921631,164.491837 694.997131,210.961914 695.016113,257.431549 
	C695.016602,258.618622 695.256104,259.805664 695.420837,261.332947 
	C699.981934,258.100128 704.047607,255.218506 708.736877,251.823166 
M615.000000,202.500000 
	C615.000000,175.700012 614.678162,148.893646 615.207336,122.104118 
	C615.355042,114.626297 611.771362,109.995682 607.666870,105.213844 
	C606.784607,106.318016 605.797607,107.227074 605.212341,108.346237 
	C603.393005,111.825264 600.252991,115.372086 600.224304,118.913628 
	C599.878052,161.690903 599.994934,204.471985 600.024719,247.252060 
	C600.025574,248.513870 599.930237,250.363724 600.664551,250.940811 
	C605.155823,254.470444 609.873962,257.711456 615.000000,261.396210 
	C615.000000,241.451813 615.000000,222.475906 615.000000,202.500000 
z"/>
<path fill="#000000" opacity="1.000000" stroke="none" 
	d="
M1282.000000,484.531342 
	C1280.333740,485.000000 1278.600342,484.698761 1277.012695,485.052216 
	C1270.179565,486.573578 1266.253418,482.352661 1262.423950,477.911102 
	C1258.687988,473.578125 1255.084595,469.129669 1251.310669,464.830597 
	C1241.240845,453.359711 1231.081909,441.966888 1221.033203,430.477722 
	C1219.389526,428.598541 1218.125488,426.387573 1216.500000,424.064270 
	C1216.500000,444.415649 1216.500000,464.368408 1216.500000,484.661285 
	C1210.867798,484.661285 1204.783447,484.661285 1198.000000,484.661285 
	C1198.000000,483.165039 1198.000000,481.416718 1198.000000,479.668396 
	C1198.000000,454.340515 1198.107300,429.011841 1197.914795,403.685425 
	C1197.873413,398.241943 1196.748047,392.806702 1196.079834,387.000488 
	C1200.801514,387.000488 1205.548462,386.080688 1209.660767,387.300537 
	C1212.775391,388.224518 1215.342896,391.649384 1217.696655,394.358612 
	C1224.656006,402.369354 1231.406128,410.562469 1238.205444,418.711487 
	C1246.838013,429.057709 1255.438477,439.430817 1264.434204,450.251160 
	C1263.887817,429.474640 1263.334473,408.430420 1262.776367,387.204163 
	C1268.444580,387.204163 1274.533081,387.204163 1280.829590,387.204163 
	C1280.955933,389.792297 1281.075317,392.237549 1281.597412,394.841400 
	C1282.000000,405.020905 1282.000000,415.041779 1281.591187,425.698608 
	C1281.122681,436.251282 1281.044067,446.168060 1281.046021,456.084869 
	C1281.046143,456.723328 1281.667603,457.361664 1282.000000,458.000000 
	C1282.000000,466.687561 1282.000000,475.375122 1282.000000,484.531342 
z"/>
<path fill="#000000" opacity="1.000000" stroke="none" 
	d="
M208.468399,660.000000 
	C207.525955,659.336426 207.164032,658.226135 206.561401,658.074890 
	C193.179840,654.716003 184.545807,643.517273 183.257736,631.299927 
	C181.804199,617.513245 182.434708,603.514160 181.965210,589.613953 
	C181.638474,579.940918 180.985260,570.278870 180.462219,560.313477 
	C187.149139,560.313477 194.237686,560.313477 201.776596,560.313477 
	C201.843002,561.518616 201.988770,562.943115 201.989853,564.367676 
	C202.004868,584.031311 201.884171,603.695984 202.053635,623.358154 
	C202.127563,631.936462 206.033859,638.778748 213.662811,642.783936 
	C221.059464,646.667053 231.527206,644.978333 237.410629,638.924377 
	C242.252792,633.941772 244.861526,627.560303 244.947418,620.544250 
	C245.122833,606.215332 245.214188,591.877808 244.893478,577.553894 
	C244.766983,571.903503 243.447830,566.279785 242.623291,560.291931 
	C249.194809,560.291931 255.286209,560.291931 261.663025,560.291931 
	C261.751862,560.730591 261.981049,561.335693 261.981598,561.941101 
	C262.001038,583.104553 262.611511,604.291321 261.806091,625.424072 
	C261.162506,642.311035 247.544205,657.544373 228.134613,659.615845 
	C221.645599,660.000000 215.291214,660.000000 208.468399,660.000000 
z"/>
<path fill="#000000" opacity="1.000000" stroke="none" 
	d="
M522.444153,660.000000 
	C521.690430,659.342712 521.315552,658.090210 521.080994,658.115967 
	C516.394226,658.630798 514.800476,655.939819 513.362854,651.962341 
	C507.109924,634.662598 500.750366,617.392639 493.957092,600.299683 
	C488.817535,587.367798 482.961517,574.720703 477.434570,561.942444 
	C477.252777,561.522156 477.182861,561.053528 476.894867,560.000854 
	C484.416443,560.000854 491.654266,559.882935 498.879730,560.128845 
	C499.954865,560.165405 501.522064,561.722168 501.933441,562.899902 
	C508.743713,582.396179 515.414062,601.941406 522.085632,621.485962 
	C522.691345,623.260437 523.090698,625.105408 523.942383,628.222412 
	C528.413635,616.074707 532.489502,604.975647 536.584290,593.883484 
	C540.739990,582.626343 544.914368,571.376160 549.070679,560.149780 
	C555.486389,560.149780 561.620483,560.149780 568.443665,560.149780 
	C565.543945,567.608887 562.782898,574.718994 560.016174,581.826782 
	C550.673889,605.827332 541.327515,629.826233 531.990112,653.828674 
	C531.296936,655.610596 530.662170,657.415161 530.000122,659.604614 
	C527.629456,660.000000 525.258850,660.000000 522.444153,660.000000 
z"/>
<path fill="#000000" opacity="1.000000" stroke="none" 
	d="
M0.999998,473.399994 
	C1.333330,470.857941 1.693981,468.719635 1.992145,466.572693 
	C2.278163,464.513245 2.499363,462.444794 2.708421,460.716187 
	C8.845080,463.950073 14.578147,467.474792 20.711632,470.043335 
	C25.567953,472.077057 30.798615,473.383331 36.128769,470.454285 
	C44.948814,465.607513 45.607986,456.498413 37.178474,451.057037 
	C29.757586,446.266693 22.155539,441.754639 14.593400,437.186066 
	C4.781683,431.258453 -0.472277,418.521545 3.272671,406.264984 
	C7.203138,393.401276 18.047770,386.139435 29.735495,385.914398 
	C40.360256,385.709778 50.390327,387.235138 59.751965,393.093567 
	C58.441624,398.106140 57.136787,403.097626 55.756359,408.378296 
	C47.703281,404.331787 40.385235,400.075317 31.441545,400.941681 
	C26.668634,401.404053 22.833435,403.076294 21.176525,407.719391 
	C19.635736,412.037109 21.872900,417.375946 26.009726,419.978943 
	C34.579681,425.371399 43.307255,430.517548 51.802101,436.024048 
	C59.662514,441.119263 63.624802,453.516754 61.758179,462.844147 
	C57.707703,483.084167 39.569714,489.463257 23.089983,486.223053 
	C15.131068,484.658203 7.880252,482.411530 1.341341,477.078308 
	C1.000000,475.933319 1.000000,474.866669 0.999998,473.399994 
z"/>
<path fill="#000000" opacity="1.000000" stroke="none" 
	d="
M806.468506,660.000000 
	C805.192932,659.332642 804.476929,658.472046 803.559204,658.039551 
	C801.830688,657.225037 799.994141,656.634583 798.188110,655.991150 
	C789.961670,653.060364 787.377197,648.595032 789.027222,640.077820 
	C789.458069,637.854004 789.954285,635.642822 790.451965,633.276184 
	C795.001343,636.048096 799.494690,639.364868 804.457581,641.671326 
	C811.563416,644.973816 818.981812,647.238464 826.382690,641.941895 
	C831.231140,638.472168 832.395386,631.054199 827.716553,627.453125 
	C820.851440,622.169312 813.385559,617.640503 806.017761,613.042969 
	C798.863525,608.578796 792.081482,603.417725 790.505737,594.837952 
	C787.145325,576.540771 795.440308,560.344727 817.106140,559.003296 
	C827.742676,558.344727 837.723206,560.379578 847.044373,566.299805 
	C846.020203,569.900635 844.446655,573.348877 844.161804,576.900330 
	C843.678955,582.922119 841.285339,580.724304 838.340942,578.895325 
	C831.930054,574.912903 824.914490,573.261108 817.361572,573.990784 
	C812.715149,574.439575 809.921509,577.549622 808.367859,581.331604 
	C806.774780,585.209839 808.416321,588.935364 811.844238,591.249939 
	C817.432678,595.023315 823.165833,598.608887 829.018738,601.957642 
	C837.183838,606.629395 845.181824,611.672241 847.880981,621.260925 
	C852.016724,635.952515 847.139893,652.861694 829.842834,658.043213 
	C828.923462,658.318604 828.084900,658.863464 827.104370,659.641479 
	C820.312378,660.000000 813.624695,660.000000 806.468506,660.000000 
z"/>
<path fill="#FFFFFF" opacity="1.000000" stroke="none" 
	d="
M1282.000000,457.531372 
	C1281.667603,457.361664 1281.046143,456.723328 1281.046021,456.084869 
	C1281.044067,446.168060 1281.122681,436.251282 1281.591187,426.167236 
	C1282.000000,436.354218 1282.000000,446.708466 1282.000000,457.531372 
z"/>
<path fill="#000000" opacity="1.000000" stroke="none" 
	d="
M591.999878,433.998444 
	C594.411926,441.713562 596.784912,449.024292 598.685852,454.880829 
	C603.199219,443.118225 608.340149,429.720154 613.460693,416.375092 
	C609.992249,406.879517 606.435974,397.143585 602.730896,387.000183 
	C609.560547,387.000183 615.882935,386.874634 622.192017,387.108521 
	C623.420898,387.154083 625.316528,388.348389 625.692261,389.432892 
	C632.611694,409.401337 639.366028,429.427216 646.089600,449.462952 
	C646.748047,451.425018 646.977417,453.531067 647.503540,456.034973 
	C649.359375,450.983978 651.128052,446.246582 652.842590,441.489716 
	C658.976624,424.471924 665.003418,407.414154 671.363098,390.481262 
	C671.948975,388.921417 674.539978,387.313385 676.324951,387.157257 
	C681.433411,386.710541 686.606323,387.000031 692.201904,387.000031 
	C687.866821,398.271851 683.771179,409.182526 679.482422,420.016663 
	C671.053955,441.308258 662.405701,462.513916 654.155457,483.873688 
	C653.001282,486.861725 652.201538,487.727997 649.417786,486.195312 
	C648.891296,485.905457 648.124573,486.031799 647.467041,486.003357 
	C641.063110,485.726257 637.811401,482.476105 635.808167,476.219330 
	C632.010559,464.357910 627.165588,452.831818 622.456360,440.374420 
	C616.772705,454.632080 611.354248,468.143250 606.011475,481.684296 
	C604.680603,485.057617 603.723694,488.682739 598.791138,486.037994 
	C598.123962,485.680267 597.187927,485.762451 596.374512,485.748566 
	C587.301636,485.593994 587.285400,477.549927 585.172485,472.051636 
	C577.077454,450.986389 569.697876,429.647217 561.735352,408.529358 
	C559.590698,402.841370 556.311890,397.583038 553.594299,392.107391 
	C552.897888,390.704254 552.355835,389.224548 551.541321,387.304810 
	C559.861450,387.304810 567.588501,387.304810 575.537781,387.304810 
	C580.963013,402.595978 586.461914,418.095032 591.999878,433.998444 
z"/>
<path fill="#000000" opacity="1.000000" stroke="none" 
	d="
M367.000000,602.998657 
	C366.684509,588.506531 366.369019,574.513916 366.047821,560.267639 
	C371.502075,560.267639 377.932983,560.267639 385.181274,560.267639 
	C385.181274,592.618530 385.181274,625.085510 385.181274,657.999695 
	C382.032562,657.999695 378.232483,658.112610 374.446350,657.932190 
	C373.280762,657.876648 371.804657,657.327820 371.060120,656.484497 
	C356.960846,640.514099 342.931152,624.482056 328.934631,608.421326 
	C325.639038,604.639648 322.517456,600.706299 319.999298,597.667542 
	C319.999298,616.829956 319.999298,637.217163 319.999298,657.806152 
	C314.595154,657.806152 308.509857,657.806152 302.287903,657.806152 
	C300.812836,625.258484 304.132019,592.777649 299.910400,560.002502 
	C304.557770,560.002502 308.869202,559.750305 313.122314,560.138123 
	C314.630432,560.275574 316.295135,561.717468 317.381042,562.995178 
	C327.846741,575.309387 338.186432,587.730591 348.599396,600.089783 
	C354.437592,607.019104 360.345856,613.889404 367.000000,621.698792 
	C367.000000,615.150024 367.000000,609.324158 367.000000,602.998657 
z"/>
<path fill="#000000" opacity="1.000000" stroke="none" 
	d="
M435.059692,387.898315 
	C442.215698,387.441864 449.322388,387.441864 456.825684,387.441864 
	C456.825684,400.619507 456.825684,414.024963 456.825684,427.713104 
	C471.615997,427.713104 486.017059,427.713104 500.007568,427.713104 
	C500.007568,414.359741 500.007568,400.953552 500.007568,387.270752 
	C506.179382,387.270752 513.268860,387.270752 521.000000,387.270752 
	C521.000000,388.734222 521.000000,390.322662 521.000000,391.911133 
	C521.000000,415.899261 520.898926,439.888062 521.064026,463.875061 
	C521.111084,470.712280 521.931335,477.544159 522.417114,484.673859 
	C515.858826,484.673859 508.789612,484.673859 501.323730,484.673859 
	C501.323730,471.532379 501.323730,458.127289 501.323730,444.361603 
	C486.537323,444.361603 472.133972,444.361603 457.989441,444.361603 
	C457.989441,457.474518 457.989441,470.861511 457.989441,484.626221 
	C451.771667,484.626221 444.604797,484.626221 437.000000,484.626221 
	C437.000000,480.201904 437.000000,475.751343 437.000000,471.300751 
	C437.000000,448.145538 437.104065,424.989471 436.910065,401.835907 
	C436.872375,397.337189 435.673584,392.848206 435.059692,387.898315 
z"/>
<path fill="#000000" opacity="1.000000" stroke="none" 
	d="
M154.946716,482.006348 
	C130.429367,494.755371 97.644432,483.467438 91.001183,452.349304 
	C87.445091,435.691986 89.031570,419.926941 98.892822,405.510498 
	C109.036301,390.681488 126.501747,384.285126 144.896530,386.662689 
	C168.242355,389.680206 180.899170,409.728577 181.067734,431.672699 
	C181.143585,441.547729 180.443878,451.085663 176.045792,460.183960 
	C171.432251,469.727966 164.827759,477.169739 154.946716,482.006348 
M122.407074,405.960571 
	C121.621071,406.495483 120.619339,406.869659 120.082436,407.590210 
	C114.705070,414.807037 111.461647,422.559570 110.717636,431.887604 
	C109.846466,442.809906 111.312935,453.060852 117.495201,461.688049 
	C129.170593,477.980835 147.504333,473.964874 155.069901,458.447113 
	C162.593277,443.015869 162.560196,427.479156 153.967636,412.508179 
	C147.546326,401.320282 134.610703,396.632782 122.407074,405.960571 
z"/>
<path fill="#000000" opacity="1.000000" stroke="none" 
	d="
M742.430176,658.000000 
	C740.693298,657.500244 738.872681,657.380493 738.206970,656.441772 
	C731.682129,647.240417 725.250549,637.968445 719.012756,628.570312 
	C716.618408,624.962769 713.934937,622.837769 708.599365,624.540039 
	C709.138550,635.374084 709.691223,646.480713 710.253357,657.777100 
	C703.788269,657.777100 696.682434,657.777100 689.000000,657.777100 
	C689.000000,656.192627 689.000000,654.595764 689.000000,652.998962 
	C689.000000,629.351929 689.103699,605.704224 688.937317,582.058350 
	C688.886841,574.890869 688.089294,567.728577 687.659851,560.971313 
	C698.427307,560.971313 709.755188,561.092407 721.078918,560.929504 
	C728.857605,560.817688 735.449341,563.480225 741.749695,567.890259 
	C748.277100,572.459229 751.253662,578.741211 751.954346,586.254028 
	C753.304016,600.726196 747.786865,611.876770 734.778198,619.456055 
	C744.634033,632.080200 754.371887,644.553101 764.870117,658.000000 
	C756.916687,658.000000 749.899536,658.000000 742.430176,658.000000 
M728.042786,580.567200 
	C723.041321,574.287598 716.216248,574.730408 709.230164,575.170288 
	C709.230164,586.555115 709.230164,597.624084 709.230164,608.701599 
	C717.539062,610.078552 724.459717,608.126038 728.946350,600.936951 
	C733.019165,594.411011 733.533813,587.614258 728.042786,580.567200 
z"/>
<path fill="#000000" opacity="1.000000" stroke="none" 
	d="
M1094.000000,446.000000 
	C1093.688232,426.185699 1093.376465,406.871429 1093.071533,387.976746 
	C1103.168701,387.976746 1114.221191,387.444000 1125.187256,388.186676 
	C1131.271606,388.598755 1137.890625,389.959778 1143.088013,392.947388 
	C1158.031006,401.536987 1161.392212,420.234497 1151.186401,435.123413 
	C1148.135620,439.574066 1143.752930,443.111786 1139.762817,447.296112 
	C1148.839478,458.953644 1158.562256,471.441040 1169.110718,484.988922 
	C1160.035034,484.988922 1152.170410,485.049835 1144.310303,484.889130 
	C1143.572144,484.874054 1142.757812,483.536163 1142.156006,482.686951 
	C1135.714600,473.598907 1129.152344,464.589905 1122.978882,455.322357 
	C1120.825928,452.090302 1118.718994,449.998260 1114.499756,451.260986 
	C1114.499756,462.213776 1114.499756,473.344299 1114.499756,484.738495 
	C1108.082031,484.738495 1101.325806,484.738495 1094.000000,484.738495 
	C1094.000000,472.020813 1094.000000,459.260406 1094.000000,446.000000 
M1119.320801,436.000000 
	C1129.465454,435.889038 1137.432129,426.326996 1135.877808,415.141968 
	C1134.726929,406.860291 1126.855591,399.738373 1114.251709,402.572784 
	C1114.251709,413.636749 1114.251709,424.691956 1114.251709,436.000000 
	C1115.795654,436.000000 1117.099243,436.000000 1119.320801,436.000000 
z"/>
<path fill="#000000" opacity="1.000000" stroke="none" 
	d="
M220.988373,470.872437 
	C216.940598,463.653931 214.958298,456.278900 214.989578,448.336914 
	C215.031555,437.673981 215.171707,427.007233 214.949142,416.348785 
	C214.747681,406.700623 214.115982,397.061462 213.664688,387.215637 
	C220.290085,387.215637 227.388535,387.215637 235.000000,387.215637 
	C235.000000,388.880096 235.000000,390.486389 235.000000,392.092651 
	C235.000000,410.753021 235.008026,429.413391 234.997269,448.073761 
	C234.989731,461.151794 241.448502,469.008698 253.835236,471.934387 
	C261.144897,473.660889 273.206268,466.295410 275.837799,458.190613 
	C277.115051,454.256775 277.830841,449.981964 277.905457,445.845367 
	C278.154877,432.021210 278.189453,418.185883 277.908020,404.362915 
	C277.793213,398.722961 276.657654,393.103790 275.956757,387.226074 
	C282.637817,387.226074 289.064087,387.226074 296.000000,387.226074 
	C296.000000,395.382965 296.000000,403.487183 296.000000,411.591400 
	C296.000000,422.754303 296.083771,433.918030 295.975800,445.079865 
	C295.873260,455.681671 293.301086,465.675934 286.436035,473.913910 
	C281.136993,480.272736 273.804504,484.231506 265.804169,485.826019 
	C256.188904,487.742493 246.506927,487.788300 236.936615,484.148163 
	C230.038193,481.524200 225.144531,477.005768 220.988373,470.872437 
z"/>
<path fill="#000000" opacity="1.000000" stroke="none" 
	d="
M776.372803,470.167297 
	C775.865356,474.038513 774.562317,477.720062 774.127197,481.501465 
	C773.789795,484.433533 772.563782,485.041168 769.994324,485.031494 
	C753.524719,484.969574 737.054749,484.999908 720.000000,484.999908 
	C720.000000,468.546112 720.197571,452.289856 719.944336,436.040619 
	C719.692505,419.880676 721.344604,403.636749 718.253540,387.292664 
	C736.855835,387.292664 755.587219,387.292664 774.659790,387.292664 
	C774.659790,392.169006 774.659790,397.243683 774.659790,402.716370 
	C763.494385,402.716370 752.087891,402.716370 740.341797,402.716370 
	C740.341797,410.833252 740.341797,418.573090 740.341797,426.830872 
	C750.316284,426.830872 760.545898,426.830872 771.161499,426.830872 
	C770.011414,431.920776 769.223389,436.514404 767.800415,440.902069 
	C767.459473,441.953125 765.020081,442.868225 763.521179,442.907501 
	C755.883179,443.107727 748.237122,442.999969 740.297729,442.999969 
	C740.297729,451.926086 740.297729,460.662903 740.297729,470.020569 
	C752.108276,470.020569 764.029663,470.020569 776.372803,470.167297 
z"/>
<path fill="#000000" opacity="1.000000" stroke="none" 
	d="
M1004.000000,430.000000 
	C1003.593079,415.513641 1003.186157,401.527283 1002.771484,387.275818 
	C1020.538452,387.275818 1038.958374,387.275818 1057.689697,387.275818 
	C1057.689697,392.235809 1057.689697,397.307251 1057.689697,402.777008 
	C1046.766113,402.777008 1035.692383,402.777008 1024.311157,402.777008 
	C1024.311157,410.897980 1024.311157,418.636047 1024.311157,426.780396 
	C1033.898804,426.780396 1043.643555,426.780396 1054.330566,426.780396 
	C1053.023438,432.504456 1051.846802,437.657867 1050.628418,442.993622 
	C1041.835571,442.993622 1033.208618,442.993622 1024.291870,442.993622 
	C1024.291870,451.938629 1024.291870,460.675140 1024.291870,469.921265 
	C1036.084717,469.921265 1047.976929,469.921265 1060.227661,469.921265 
	C1058.917480,475.268921 1057.744995,480.053986 1056.562256,484.881500 
	C1039.127441,484.881500 1021.841858,484.881500 1004.000000,484.881500 
	C1004.000000,466.679138 1004.000000,448.589569 1004.000000,430.000000 
z"/>
<path fill="#000000" opacity="1.000000" stroke="none" 
	d="
M600.394043,657.597046 
	C599.826721,624.986267 599.597290,592.720642 599.366211,560.228271 
	C616.709290,560.228271 635.108704,560.228271 653.754456,560.228271 
	C653.754456,565.365662 653.754456,570.435059 653.754456,575.898071 
	C642.306519,575.898071 630.902893,575.898071 619.252625,575.898071 
	C619.252625,584.018433 619.252625,591.752258 619.252625,600.006592 
	C629.474976,600.006592 639.679932,600.006592 650.174683,600.006592 
	C649.024719,604.938354 648.233093,609.389709 646.828979,613.638611 
	C646.461975,614.749084 644.207458,615.856201 642.789795,615.895874 
	C635.008911,616.114014 627.218750,615.999939 619.218628,615.999939 
	C619.218628,625.087952 619.218628,633.820984 619.218628,642.904053 
	C631.434021,642.904053 643.527405,642.904053 656.006226,642.904053 
	C655.776489,643.881226 655.664368,644.444458 655.511108,644.996216 
	C654.356445,649.152893 654.426880,655.293457 651.727478,656.969482 
	C648.198181,659.160706 642.477051,657.952087 637.697754,657.974365 
	C625.376099,658.031799 613.053894,657.961548 600.394043,657.597046 
z"/>
<path fill="#000000" opacity="1.000000" stroke="none" 
	d="
M828.005493,443.000519 
	C821.121033,438.774231 813.752319,435.484344 810.044312,428.112579 
	C801.047119,410.225616 810.232300,386.389038 834.404175,385.928833 
	C844.896240,385.729065 854.710510,387.457306 863.974182,393.222992 
	C862.717651,398.123779 861.469116,402.993256 860.219116,407.868500 
	C854.483765,405.597656 849.356689,402.995697 843.921082,401.569244 
	C837.960266,400.004974 831.766785,399.520508 827.144226,405.318268 
	C824.241882,408.958435 823.820190,413.696747 827.365295,416.698395 
	C831.896667,420.534973 836.914185,423.879547 842.023804,426.931183 
	C849.236816,431.239075 856.777161,434.836700 861.780762,442.170959 
	C871.189819,455.962921 866.036255,481.046509 844.719971,485.924164 
	C831.455872,488.959320 819.005615,486.233002 807.661255,478.827118 
	C806.628113,478.152679 806.054382,476.037811 806.082947,474.608154 
	C806.179382,469.779724 806.643494,464.958649 806.932495,460.650330 
	C813.434021,463.995941 819.512390,467.415802 825.840393,470.285370 
	C830.680176,472.480103 836.137451,473.334595 840.866516,470.485107 
	C849.817261,465.091949 849.696167,456.955414 840.393616,450.171844 
	C836.647278,447.439941 832.401428,445.393005 828.005493,443.000519 
z"/>
<path fill="#000000" opacity="1.000000" stroke="none" 
	d="
M1086.000000,588.996460 
	C1090.686646,579.787781 1095.281494,570.934021 1100.063354,562.182312 
	C1100.618896,561.165344 1102.187256,560.142456 1103.324585,560.097595 
	C1108.796509,559.881653 1114.281494,560.000427 1120.824097,560.000427 
	C1117.875488,565.700134 1115.395264,570.836731 1112.613403,575.804321 
	C1105.633667,588.267883 1098.485962,600.637451 1091.512573,613.104553 
	C1090.929688,614.146606 1091.024902,615.638489 1091.020264,616.922180 
	C1090.983643,626.909119 1090.896851,636.897949 1091.055420,646.882507 
	C1091.111694,650.416992 1091.806030,653.941406 1092.242432,657.762817 
	C1084.997314,657.762817 1078.253540,657.762817 1071.000000,657.762817 
	C1071.000000,645.629822 1071.151123,633.535400 1070.895020,621.449585 
	C1070.830078,618.381287 1069.985840,615.083313 1068.615356,612.331299 
	C1062.597412,600.246582 1056.370361,588.261353 1049.967285,576.375671 
	C1047.767944,572.292969 1044.817871,568.616760 1042.246826,564.730835 
	C1041.389648,563.435181 1040.645508,562.064758 1039.416260,560.000793 
	C1047.437988,560.000793 1054.683228,559.878113 1061.914917,560.135742 
	C1062.973389,560.173462 1064.293335,561.847046 1064.940308,563.058533 
	C1070.600586,573.657898 1076.135376,584.324280 1082.092285,595.706055 
	C1083.542603,593.337097 1084.753296,591.359436 1086.000000,588.996460 
z"/>
<path fill="#000000" opacity="1.000000" stroke="none" 
	d="
M375.000000,443.000000 
	C375.000000,457.191467 375.000000,470.882904 375.000000,484.791382 
	C368.923553,484.791382 362.180695,484.791382 355.062347,484.791382 
	C355.062347,457.591064 355.062347,430.534821 355.062347,403.090271 
	C344.627960,403.090271 334.556671,403.090271 324.246185,403.090271 
	C324.246185,397.635864 324.246185,392.566620 324.246185,387.246948 
	C351.351288,387.246948 378.405792,387.246948 405.730530,387.246948 
	C405.730530,392.316010 405.730530,397.385651 405.730530,402.850586 
	C395.689545,402.850586 385.618011,402.850586 375.000000,402.850586 
	C375.000000,416.322449 375.000000,429.411224 375.000000,443.000000 
z"/>
<path fill="#000000" opacity="1.000000" stroke="none" 
	d="
M920.999878,406.166138 
	C921.488464,402.808197 919.623901,402.969757 917.676697,402.980133 
	C909.024658,403.026184 900.372253,403.000092 891.360046,403.000092 
	C891.360046,397.878571 891.360046,392.803467 891.360046,387.362701 
	C917.892944,387.362701 944.723938,387.362701 971.778259,387.362701 
	C971.778259,392.413513 971.778259,397.480438 971.778259,402.935608 
	C961.600586,402.935608 951.532410,402.935608 940.825378,402.935608 
	C941.915710,430.388794 939.252625,457.510590 942.682129,484.760803 
	C935.806152,484.760803 928.708313,484.760803 921.000000,484.760803 
	C921.000000,458.763367 921.000000,432.707520 920.999878,406.166138 
z"/>
<path fill="#000000" opacity="1.000000" stroke="none" 
	d="
M965.000000,609.000000 
	C965.000000,597.863037 965.000000,587.226013 965.000000,576.198669 
	C955.072876,576.198669 945.334656,576.198669 935.300476,576.198669 
	C935.300476,570.745728 935.300476,565.675903 935.300476,560.300964 
	C961.908081,560.300964 988.630005,560.300964 1015.676392,560.300964 
	C1015.676392,565.205505 1015.676392,570.276550 1015.676392,575.742676 
	C1005.800964,575.742676 995.728943,575.742676 985.500000,575.742676 
	C985.500000,603.252197 985.500000,630.369995 985.500000,657.743652 
	C979.044556,657.743652 972.296936,657.743652 965.000000,657.743652 
	C965.000000,641.672424 965.000000,625.586243 965.000000,609.000000 
z"/>
<path fill="#000000" opacity="1.000000" stroke="none" 
	d="
M427.000000,603.000000 
	C426.571106,588.522827 426.142212,574.545654 425.704712,560.287842 
	C432.203552,560.287842 439.288788,560.287842 447.188416,560.287842 
	C447.188416,592.614258 447.188416,625.066711 447.188416,657.754456 
	C441.041351,657.754456 434.290710,657.754456 427.000000,657.754456 
	C427.000000,639.665955 427.000000,621.582947 427.000000,603.000000 
z"/>
<path fill="#000000" opacity="1.000000" stroke="none" 
	d="
M904.000000,623.000000 
	C904.298035,634.817749 904.596130,646.135437 904.901001,657.713623 
	C898.816956,657.713623 891.747131,657.713623 884.311096,657.713623 
	C882.796326,625.416077 885.967773,592.824036 882.327698,560.202637 
	C889.317810,560.202637 896.407532,560.202637 904.000000,560.202637 
	C904.000000,581.025391 904.000000,601.762695 904.000000,623.000000 
z"/>
<path fill="#FFFFFF" opacity="1.000000" stroke="none" 
	d="
M675.000000,191.000000 
	C675.000000,218.808517 675.000000,246.117020 675.000000,273.580444 
	C669.158630,276.352936 663.454895,279.276611 657.551636,281.717773 
	C655.972046,282.371002 653.579651,282.027100 651.914001,281.314484 
	C647.629517,279.481415 643.686707,276.794312 639.333191,275.194885 
	C635.701782,273.860779 634.924683,271.795685 634.932007,268.245667 
	C635.032715,219.280640 634.862183,170.314606 635.122986,121.350761 
	C635.171753,112.201157 634.992188,103.654877 626.876831,97.871552 
	C636.447266,79.187935 645.743408,61.039883 655.270081,42.441704 
	C664.128601,60.260490 672.574097,77.430344 681.243958,94.486153 
	C682.502319,96.961708 682.835022,98.725716 680.792053,100.720253 
	C676.198730,105.204727 674.746338,110.517738 674.847839,117.054459 
	C675.227966,141.531189 675.000000,166.017365 675.000000,191.000000 
z"/>
<path fill="#FFFFFF" opacity="1.000000" stroke="none" 
	d="
M756.000000,90.000000 
	C756.000000,117.311287 755.286255,144.148270 756.250488,170.924850 
	C756.895325,188.832062 751.053467,203.932159 741.312012,218.114502 
	C738.057861,222.852112 734.276184,227.227386 730.000000,232.711761 
	C730.000000,229.976089 730.000000,228.398911 730.000000,226.821732 
	C730.000000,190.684784 729.724976,154.544098 730.213684,118.413757 
	C730.321655,110.429260 727.913391,104.399887 723.115662,98.543510 
	C716.264404,90.180397 709.741272,81.548431 702.769958,72.637512 
	C700.512634,75.248215 698.338806,77.762451 695.837097,80.655853 
	C691.120728,71.220886 686.694275,62.365910 681.403076,51.780975 
	C707.078308,54.678696 731.511047,57.436184 756.000000,60.200024 
	C756.000000,70.877228 756.000000,80.188614 756.000000,90.000000 
z"/>
<path fill="#FFFFFF" opacity="1.000000" stroke="none" 
	d="
M555.000000,167.999893 
	C555.000000,132.211609 555.000000,96.923271 555.000000,61.205006 
	C579.030334,56.052502 603.294006,53.990517 628.675171,52.751301 
	C623.630066,62.364788 618.986816,71.212685 614.141724,80.445076 
	C612.090637,77.725945 610.288269,75.336533 607.902283,72.173317 
	C603.448242,77.935143 599.234985,83.393944 595.012451,88.845581 
	C590.842957,94.228661 586.465942,99.467033 582.591431,105.054214 
	C581.133057,107.157242 580.117432,110.058380 580.106934,112.600655 
	C579.951843,150.230179 580.000000,187.860550 580.000000,225.490723 
	C580.000000,227.132339 580.000000,228.773941 580.000000,230.415558 
	C579.642212,230.652023 579.284424,230.888489 578.926636,231.124939 
	C574.388306,225.001556 569.201477,219.243698 565.488098,212.655396 
	C561.510742,205.598801 557.919373,198.002991 556.025330,190.190216 
	C554.350769,183.283188 555.241760,175.754211 555.000000,167.999893 
z"/>
<path fill="#FFFFFF" opacity="1.000000" stroke="none" 
	d="
M708.425049,252.080017 
	C704.047607,255.218506 699.981934,258.100128 695.420837,261.332947 
	C695.256104,259.805664 695.016602,258.618622 695.016113,257.431549 
	C694.997131,210.961914 694.921631,164.491837 695.184448,118.023689 
	C695.201172,115.071327 697.739807,112.060226 699.357422,109.220116 
	C700.188904,107.760353 701.577576,106.617958 702.461426,105.618385 
	C710.004333,110.981445 710.172729,118.886810 710.116516,127.370552 
	C709.853821,167.009583 710.016968,206.651337 709.946411,246.291977 
	C709.943115,248.136398 709.157898,249.979462 708.425049,252.080017 
z"/>
<path fill="#FFFFFF" opacity="1.000000" stroke="none" 
	d="
M615.000000,203.000000 
	C615.000000,222.475906 615.000000,241.451813 615.000000,261.396210 
	C609.873962,257.711456 605.155823,254.470444 600.664551,250.940811 
	C599.930237,250.363724 600.025574,248.513870 600.024719,247.252060 
	C599.994934,204.471985 599.878052,161.690903 600.224304,118.913628 
	C600.252991,115.372086 603.393005,111.825264 605.212341,108.346237 
	C605.797607,107.227074 606.784607,106.318016 607.666870,105.213844 
	C611.771362,109.995682 615.355042,114.626297 615.207336,122.104118 
	C614.678162,148.893646 615.000000,175.700012 615.000000,203.000000 
z"/>
<path fill="#FFFFFF" opacity="1.000000" stroke="none" 
	d="
M122.703903,405.725830 
	C134.610703,396.632782 147.546326,401.320282 153.967636,412.508179 
	C162.560196,427.479156 162.593277,443.015869 155.069901,458.447113 
	C147.504333,473.964874 129.170593,477.980835 117.495201,461.688049 
	C111.312935,453.060852 109.846466,442.809906 110.717636,431.887604 
	C111.461647,422.559570 114.705070,414.807037 120.082436,407.590210 
	C120.619339,406.869659 121.621071,406.495483 122.703903,405.725830 
z"/>
<path fill="#FFFFFF" opacity="1.000000" stroke="none" 
	d="
M728.328064,580.821655 
	C733.533813,587.614258 733.019165,594.411011 728.946350,600.936951 
	C724.459717,608.126038 717.539062,610.078552 709.230164,608.701599 
	C709.230164,597.624084 709.230164,586.555115 709.230164,575.170288 
	C716.216248,574.730408 723.041321,574.287598 728.328064,580.821655 
z"/>
<path fill="#FFFFFF" opacity="1.000000" stroke="none" 
	d="
M1118.861816,436.000000 
	C1117.099243,436.000000 1115.795654,436.000000 1114.251709,436.000000 
	C1114.251709,424.691956 1114.251709,413.636749 1114.251709,402.572784 
	C1126.855591,399.738373 1134.726929,406.860291 1135.877808,415.141968 
	C1137.432129,426.326996 1129.465454,435.889038 1118.861816,436.000000 
z"/>
</svg>