<svg version="1.1" id="Layer_1" xmlns="http://www.w3.org/2000/svg" xmlns:xlink="http://www.w3.org/1999/xlink" x="0px" y="0px"
	 width="100%" viewBox="0 0 1246 1025" enable-background="new 0 0 1246 1025" xml:space="preserve">
<path fill="#000000" opacity="1.000000" stroke="none" 
	d="
M1.000000,688.000000 
	C1.000000,459.117645 1.000000,230.235260 1.000000,1.000000 
	C46.025219,1.000000 91.051361,1.000000 136.538849,1.468657 
	C137.000320,91.596848 137.035965,181.256454 136.900177,270.915771 
	C136.893066,275.617096 137.982422,277.122559 142.904953,277.108643 
	C202.233429,276.940582 261.562683,276.947601 320.891235,277.100555 
	C325.563446,277.112579 327.149628,276.076324 327.113159,271.118958 
	C326.887726,240.456207 327.096558,209.790344 326.896881,179.127243 
	C326.866608,174.475082 327.880676,172.875351 332.860870,172.888748 
	C395.355804,173.056931 457.851501,173.053802 520.346436,172.890289 
	C525.107422,172.877823 526.088257,174.395615 526.086243,178.834030 
	C525.987610,394.318085 525.985168,609.802185 526.099182,825.286194 
	C526.101624,829.935730 524.774353,831.126343 520.225830,831.099182 
	C488.729279,830.911316 457.230530,831.094910 425.734070,830.897034 
	C421.112823,830.867981 419.890839,832.180115 419.902283,836.757141 
	C420.050232,895.919067 420.050171,955.081604 419.902130,1014.243530 
	C419.890656,1018.820251 421.114655,1020.102478 425.732513,1020.098145 
	C555.222839,1019.975952 684.713318,1019.978271 814.203674,1020.091309 
	C818.708801,1020.095215 820.117615,1018.998291 820.104919,1014.307373 
	C819.945129,955.145508 819.954773,895.982910 820.090698,836.820923 
	C820.101013,832.355591 819.066040,830.857544 814.329590,830.889893 
	C783.000061,831.104004 751.667542,830.895569 720.338013,831.109070 
	C715.442322,831.142395 713.870728,830.109863 713.874329,824.849976 
	C714.021362,609.532593 714.010803,394.215149 713.922424,178.897751 
	C713.920654,174.578354 714.707336,172.869720 719.589844,172.883377 
	C782.251404,173.058578 844.913757,173.047989 907.575439,172.897049 
	C912.098145,172.886154 913.117493,174.261322 913.093140,178.563522 
	C912.918945,209.393585 913.108154,240.225861 912.888672,271.055359 
	C912.853943,275.934967 914.295532,277.116119 919.045044,277.103394 
	C978.206909,276.945190 1037.369263,277.000702 1096.531616,276.998871 
	C1102.992554,276.998657 1102.998901,276.991699 1102.999023,270.480103 
	C1103.000488,180.653397 1103.000000,90.826698 1103.000000,1.000000 
	C1150.992432,1.000000 1198.984741,1.000000 1246.982910,1.000000 
	C1246.988525,342.604889 1246.988525,684.209778 1246.988525,1025.907349 
	C831.666687,1025.907349 416.333344,1025.907349 1.000000,1025.907349 
	C1.000000,942.562805 1.000000,859.242615 1.468144,775.435181 
	C56.764843,774.965088 111.593445,774.958557 166.421844,775.057068 
	C169.796127,775.063110 171.086655,774.189941 171.068649,770.590332 
	C170.938644,744.593079 170.921967,718.594299 171.082031,692.597351 
	C171.106232,688.669434 169.659744,687.796814 166.105881,687.934509 
	C159.975189,688.171997 153.828659,688.000305 147.151840,688.000305 
	C147.752380,685.887695 148.047653,684.276245 148.657547,682.794312 
	C153.519165,670.980896 158.314377,659.136108 163.490219,647.460693 
	C164.201019,645.857422 166.859268,644.225708 168.675827,644.155457 
	C177.495285,643.814148 186.335144,644.000122 195.167786,644.000061 
	C229.498428,643.999878 263.829071,644.012146 298.159698,643.977295 
	C300.934784,643.974426 303.362762,643.969421 304.632294,647.222168 
	C307.102905,653.552307 309.876984,659.763672 312.493073,666.037659 
	C315.400879,673.011292 318.272614,679.999878 321.581146,688.000122 
	C314.462769,688.000122 308.358887,688.234009 302.283508,687.918762 
	C298.157196,687.704651 296.879211,689.003845 296.909729,693.209656 
	C297.092316,718.372986 297.084381,743.538940 296.915375,768.702515 
	C296.887939,772.786499 297.963837,774.098755 302.191498,774.088074 
	C355.353668,773.953613 408.516357,773.959595 461.678589,774.080017 
	C465.729034,774.089172 467.121674,773.092041 467.090271,768.829590 
	C466.902649,743.332947 466.917694,717.833740 467.079407,692.336792 
	C467.104980,688.304443 466.132080,686.815918 461.841339,686.904846 
	C449.014526,687.170776 436.177216,687.093811 423.348053,686.891785 
	C421.563995,686.863708 418.786652,685.836609 418.184875,684.499695 
	C410.285736,666.950867 402.671997,649.273254 395.033020,631.607788 
	C384.959198,608.311646 374.978729,584.974915 364.859558,561.698547 
	C356.391022,542.218933 347.730927,522.822693 339.247559,503.349579 
	C330.899963,484.188202 322.662506,464.978821 314.387970,445.785675 
	C310.935883,437.778412 307.512939,429.758636 303.757477,420.999908 
	C309.970123,420.999908 315.292786,420.695496 320.562622,421.092255 
	C325.108063,421.434509 326.127075,419.754639 326.094604,415.441742 
	C325.902588,389.945190 325.871674,364.445221 326.112366,338.949524 
	C326.158386,334.071228 324.710052,332.886627 319.957794,332.899597 
	C261.629456,333.058929 203.300552,333.003296 144.971786,333.003296 
	C143.188171,333.003296 141.404572,333.003296 140.000610,333.003296 
	C140.000610,337.275269 140.000626,340.902008 140.000626,344.528778 
	C140.000626,368.026947 140.135818,391.526489 139.889328,415.022095 
	C139.838562,419.861145 141.198822,421.430969 146.018906,421.096436 
	C151.874359,420.690125 157.779510,421.000000 164.003098,421.000000 
	C163.723770,422.647125 163.739227,423.328400 163.492630,423.895691 
	C158.797653,434.697449 154.040955,445.472412 149.359177,456.279846 
	C141.181992,475.156097 133.077408,494.063843 124.886284,512.934021 
	C115.503975,534.548340 106.042320,556.128174 96.648979,577.737732 
	C88.381912,596.756287 80.170982,615.799255 71.917641,634.823853 
	C64.852219,651.110107 57.689087,667.354492 50.740906,683.690491 
	C49.266190,687.157837 47.155575,688.143860 43.493107,688.087952 
	C29.331598,687.871460 15.164817,688.000000 1.000000,688.000000 
M777.019104,420.192474 
	C778.407654,421.127655 779.767883,422.818054 781.189453,422.871246 
	C788.511719,423.145325 795.861206,423.247040 803.178040,422.908356 
	C807.667480,422.700562 809.158875,423.935181 809.112183,428.671112 
	C808.870911,453.166016 809.000000,477.664551 809.000000,502.161835 
	C809.000000,561.821899 808.957886,621.481995 809.086243,681.141785 
	C809.095703,685.540161 808.199646,687.381531 803.364319,687.110474 
	C795.888672,686.691406 788.367310,687.158936 780.875061,686.931702 
	C777.297852,686.823120 775.896179,687.717834 775.919373,691.618042 
	C776.076050,717.947510 776.062927,744.278687 775.929810,770.608398 
	C775.911499,774.239807 777.235046,775.115784 780.597290,775.060913 
	C790.926758,774.892578 801.260681,775.000000 811.592896,775.000000 
	C850.255249,775.000061 888.917603,774.994690 927.579956,775.010620 
	C930.465820,775.011841 933.107849,775.502258 933.079346,770.931702 
	C932.912903,744.269043 932.959167,717.604675 933.049438,690.941284 
	C933.059998,687.838013 931.927185,686.901306 928.951294,686.953918 
	C920.954651,687.095459 912.939392,686.709900 904.960144,687.107788 
	C900.071655,687.351562 898.882690,685.729919 898.895874,680.966980 
	C899.056274,623.140564 899.000000,565.313477 899.000000,507.486572 
	C899.000000,506.060883 899.000000,504.635193 899.000000,503.209503 
	C899.246033,503.146790 899.492004,503.084076 899.738037,503.021393 
	C935.995728,577.651245 972.253418,652.281067 1009.158630,728.243713 
	C1045.918945,652.565186 1082.032227,578.218811 1118.145386,503.872345 
	C1118.997192,563.873535 1118.978149,623.528748 1119.049194,683.183960 
	C1119.053101,686.419434 1117.660645,687.083374 1114.827393,687.040100 
	C1106.996826,686.920593 1099.155884,687.199097 1091.333618,686.918091 
	C1087.283813,686.772705 1085.875488,687.879883 1085.906616,692.158447 
	C1086.094482,717.987549 1086.077271,743.819214 1085.919434,769.648682 
	C1085.895020,773.657593 1086.832031,775.104248 1091.137329,775.091614 
	C1140.131470,774.947205 1189.126343,774.968384 1238.120605,775.065369 
	C1241.677612,775.072449 1243.104980,774.301514 1243.081543,770.390808 
	C1242.923828,744.061340 1242.937744,717.730164 1243.069946,691.400452 
	C1243.088135,687.779236 1241.784546,686.849121 1238.409302,686.940063 
	C1231.082031,687.137451 1223.745850,687.003357 1216.413330,686.999146 
	C1210.006226,686.995422 1210.000854,686.992004 1210.000732,680.426086 
	C1209.999512,602.101440 1210.000000,523.776855 1210.000122,445.452209 
	C1210.000122,439.286224 1210.126343,433.116669 1209.949829,426.955750 
	C1209.861328,423.861603 1211.042114,422.898834 1214.034668,422.952789 
	C1222.031250,423.096954 1230.039429,422.795746 1238.027954,423.085815 
	C1242.038086,423.231445 1243.102783,421.886353 1243.079590,417.980316 
	C1242.925781,391.984100 1242.921631,365.986053 1243.083252,339.989960 
	C1243.107788,336.031769 1241.944458,334.908295 1238.002197,334.919617 
	C1193.507446,335.047455 1149.012207,335.033630 1104.517334,334.939453 
	C1101.245483,334.932526 1099.350098,335.890442 1097.963013,338.933838 
	C1092.794189,350.274567 1087.451660,361.537384 1082.075073,372.781921 
	C1069.957397,398.124176 1057.810425,423.452423 1045.618896,448.759186 
	C1035.806274,469.127960 1025.886841,489.445221 1016.069031,509.811401 
	C1013.589050,514.955811 1011.315796,520.199829 1008.697815,525.946350 
	C1007.889282,524.606140 1007.500610,524.068665 1007.219116,523.479919 
	C996.256287,500.547333 985.321228,477.601532 974.343811,454.675934 
	C962.717468,430.395142 951.079224,406.119995 939.393555,381.867706 
	C932.606445,367.781799 925.479553,353.852753 919.030273,339.615417 
	C917.317627,335.834717 915.408447,334.924744 911.642212,334.934235 
	C868.647278,335.042877 825.651978,335.000153 782.656738,335.014862 
	C780.895142,335.015472 779.133545,335.184570 777.004456,335.294067 
	C777.004456,363.636536 777.004456,391.443115 777.019104,420.192474 
z"/>
<path fill="#500000" opacity="1.000000" stroke="none" 
	d="
M1102.531372,1.000000 
	C1103.000000,90.826698 1103.000488,180.653397 1102.999023,270.480103 
	C1102.998901,276.991699 1102.992554,276.998657 1096.531616,276.998871 
	C1037.369263,277.000702 978.206909,276.945190 919.045044,277.103394 
	C914.295532,277.116119 912.853943,275.934967 912.888672,271.055359 
	C913.108154,240.225861 912.918945,209.393585 913.093140,178.563522 
	C913.117493,174.261322 912.098145,172.886154 907.575439,172.897049 
	C844.913757,173.047989 782.251404,173.058578 719.589844,172.883377 
	C714.707336,172.869720 713.920654,174.578354 713.922424,178.897751 
	C714.010803,394.215149 714.021362,609.532593 713.874329,824.849976 
	C713.870728,830.109863 715.442322,831.142395 720.338013,831.109070 
	C751.667542,830.895569 783.000061,831.104004 814.329590,830.889893 
	C819.066040,830.857544 820.101013,832.355591 820.090698,836.820923 
	C819.954773,895.982910 819.945129,955.145508 820.104919,1014.307373 
	C820.117615,1018.998291 818.708801,1020.095215 814.203674,1020.091309 
	C684.713318,1019.978271 555.222839,1019.975952 425.732513,1020.098145 
	C421.114655,1020.102478 419.890656,1018.820251 419.902130,1014.243530 
	C420.050171,955.081604 420.050232,895.919067 419.902283,836.757141 
	C419.890839,832.180115 421.112823,830.867981 425.734070,830.897034 
	C457.230530,831.094910 488.729279,830.911316 520.225830,831.099182 
	C524.774353,831.126343 526.101624,829.935730 526.099182,825.286194 
	C525.985168,609.802185 525.987610,394.318085 526.086243,178.834030 
	C526.088257,174.395615 525.107422,172.877823 520.346436,172.890289 
	C457.851501,173.053802 395.355804,173.056931 332.860870,172.888748 
	C327.880676,172.875351 326.866608,174.475082 326.896881,179.127243 
	C327.096558,209.790344 326.887726,240.456207 327.113159,271.118958 
	C327.149628,276.076324 325.563446,277.112579 320.891235,277.100555 
	C261.562683,276.947601 202.233429,276.940582 142.904953,277.108643 
	C137.982422,277.122559 136.893066,275.617096 136.900177,270.915771 
	C137.035965,181.256454 137.000320,91.596848 137.000107,1.468657 
	C458.687592,1.000000 780.375183,1.000000 1102.531372,1.000000 
M716.499939,80.124634 
	C806.819763,80.124634 897.139709,80.150703 987.459290,80.005569 
	C990.329529,80.000961 993.692200,78.898621 995.985352,77.184425 
	C1010.921753,66.018822 1025.629150,54.546684 1040.398804,43.158527 
	C1041.469360,42.333103 1042.440186,41.378143 1043.672974,40.293636 
	C754.161682,40.293636 465.192749,40.293636 178.770142,40.293636 
	C189.196793,51.453770 200.738525,63.678169 212.104004,76.064285 
	C214.906418,79.118370 217.880325,80.224358 222.072617,80.221451 
	C386.548340,80.107521 551.024109,80.124634 716.499939,80.124634 
M646.709778,105.794052 
	C643.227051,102.087929 639.744324,98.381798 635.306152,93.658920 
	C635.306152,367.456635 635.306152,639.456421 635.306152,912.170593 
	C636.827820,910.738953 637.894348,909.775085 638.917419,908.767029 
	C649.601501,898.239807 660.185242,887.608032 671.020203,877.238770 
	C673.888306,874.493896 675.073792,871.778931 675.068420,867.752686 
	C674.946655,776.587036 674.974854,685.421204 674.974854,594.255371 
	C674.974854,442.423492 674.963074,290.591614 675.046509,138.759781 
	C675.048523,135.169067 674.177734,132.597610 671.500916,130.077728 
	C663.251587,122.311943 655.286682,114.243896 646.709778,105.794052 
M1033.805176,211.685562 
	C1043.923828,221.417923 1054.042358,231.150284 1064.658936,241.361572 
	C1064.658936,180.839096 1064.658936,121.237259 1064.658936,64.336296 
	C1053.266479,74.923897 1040.532104,86.580597 1028.082275,98.533531 
	C1026.344360,100.202042 1025.162964,103.320709 1025.145752,105.778076 
	C1024.945068,134.408127 1025.330566,163.045639 1024.821533,191.668045 
	C1024.673950,199.972183 1026.150391,206.547699 1033.805176,211.685562 
M749.257019,952.236938 
	C759.595276,961.926697 769.933472,971.616455 780.765503,981.769043 
	C780.765503,944.129150 780.765503,907.489075 780.765503,870.796570 
	C780.307068,870.875061 780.111389,870.847595 780.030212,870.931213 
	C772.149719,879.056213 764.253113,887.165771 756.414429,895.330933 
	C751.237122,900.723877 744.216248,905.404968 741.562256,911.860657 
	C738.979980,918.141907 741.410339,926.325378 740.721497,933.586548 
	C739.978760,941.415344 741.992554,947.489197 749.257019,952.236938 
z"/>
<path fill="#500000" opacity="1.000000" stroke="none" 
	d="
M1.000000,688.468628 
	C15.164817,688.000000 29.331598,687.871460 43.493107,688.087952 
	C47.155575,688.143860 49.266190,687.157837 50.740906,683.690491 
	C57.689087,667.354492 64.852219,651.110107 71.917641,634.823853 
	C80.170982,615.799255 88.381912,596.756287 96.648979,577.737732 
	C106.042320,556.128174 115.503975,534.548340 124.886284,512.934021 
	C133.077408,494.063843 141.181992,475.156097 149.359177,456.279846 
	C154.040955,445.472412 158.797653,434.697449 163.492630,423.895691 
	C163.739227,423.328400 163.723770,422.647125 164.003098,421.000000 
	C157.779510,421.000000 151.874359,420.690125 146.018906,421.096436 
	C141.198822,421.430969 139.838562,419.861145 139.889328,415.022095 
	C140.135818,391.526489 140.000626,368.026947 140.000626,344.528778 
	C140.000626,340.902008 140.000610,337.275269 140.000610,333.003296 
	C141.404572,333.003296 143.188171,333.003296 144.971786,333.003296 
	C203.300552,333.003296 261.629456,333.058929 319.957794,332.899597 
	C324.710052,332.886627 326.158386,334.071228 326.112366,338.949524 
	C325.871674,364.445221 325.902588,389.945190 326.094604,415.441742 
	C326.127075,419.754639 325.108063,421.434509 320.562622,421.092255 
	C315.292786,420.695496 309.970123,420.999908 303.757477,420.999908 
	C307.512939,429.758636 310.935883,437.778412 314.387970,445.785675 
	C322.662506,464.978821 330.899963,484.188202 339.247559,503.349579 
	C347.730927,522.822693 356.391022,542.218933 364.859558,561.698547 
	C374.978729,584.974915 384.959198,608.311646 395.033020,631.607788 
	C402.671997,649.273254 410.285736,666.950867 418.184875,684.499695 
	C418.786652,685.836609 421.563995,686.863708 423.348053,686.891785 
	C436.177216,687.093811 449.014526,687.170776 461.841339,686.904846 
	C466.132080,686.815918 467.104980,688.304443 467.079407,692.336792 
	C466.917694,717.833740 466.902649,743.332947 467.090271,768.829590 
	C467.121674,773.092041 465.729034,774.089172 461.678589,774.080017 
	C408.516357,773.959595 355.353668,773.953613 302.191498,774.088074 
	C297.963837,774.098755 296.887939,772.786499 296.915375,768.702515 
	C297.084381,743.538940 297.092316,718.372986 296.909729,693.209656 
	C296.879211,689.003845 298.157196,687.704651 302.283508,687.918762 
	C308.358887,688.234009 314.462769,688.000122 321.581146,688.000122 
	C318.272614,679.999878 315.400879,673.011292 312.493073,666.037659 
	C309.876984,659.763672 307.102905,653.552307 304.632294,647.222168 
	C303.362762,643.969421 300.934784,643.974426 298.159698,643.977295 
	C263.829071,644.012146 229.498428,643.999878 195.167786,644.000061 
	C186.335144,644.000122 177.495285,643.814148 168.675827,644.155457 
	C166.859268,644.225708 164.201019,645.857422 163.490219,647.460693 
	C158.314377,659.136108 153.519165,670.980896 148.657547,682.794312 
	C148.047653,684.276245 147.752380,685.887695 147.151840,688.000305 
	C153.828659,688.000305 159.975189,688.171997 166.105881,687.934509 
	C169.659744,687.796814 171.106232,688.669434 171.082031,692.597351 
	C170.921967,718.594299 170.938644,744.593079 171.068649,770.590332 
	C171.086655,774.189941 169.796127,775.063110 166.421844,775.057068 
	C111.593445,774.958557 56.764843,774.965088 1.468144,774.973938 
	C1.000000,746.312439 1.000000,717.624878 1.000000,688.468628 
M245.814941,510.759796 
	C242.087479,502.379211 238.360016,493.998596 234.056000,484.321686 
	C223.179413,509.090149 212.826889,532.665161 202.317673,556.597046 
	C223.654068,556.597046 244.404953,556.597046 265.832764,556.597046 
	C259.043304,541.175903 252.511826,526.340698 245.814941,510.759796 
z"/>
<path fill="#500000" opacity="1.000000" stroke="none" 
	d="
M777.011780,419.721069 
	C777.004456,391.443115 777.004456,363.636536 777.004456,335.294067 
	C779.133545,335.184570 780.895142,335.015472 782.656738,335.014862 
	C825.651978,335.000153 868.647278,335.042877 911.642212,334.934235 
	C915.408447,334.924744 917.317627,335.834717 919.030273,339.615417 
	C925.479553,353.852753 932.606445,367.781799 939.393555,381.867706 
	C951.079224,406.119995 962.717468,430.395142 974.343811,454.675934 
	C985.321228,477.601532 996.256287,500.547333 1007.219116,523.479919 
	C1007.500610,524.068665 1007.889282,524.606140 1008.697815,525.946350 
	C1011.315796,520.199829 1013.589050,514.955811 1016.069031,509.811401 
	C1025.886841,489.445221 1035.806274,469.127960 1045.618896,448.759186 
	C1057.810425,423.452423 1069.957397,398.124176 1082.075073,372.781921 
	C1087.451660,361.537384 1092.794189,350.274567 1097.963013,338.933838 
	C1099.350098,335.890442 1101.245483,334.932526 1104.517334,334.939453 
	C1149.012207,335.033630 1193.507446,335.047455 1238.002197,334.919617 
	C1241.944458,334.908295 1243.107788,336.031769 1243.083252,339.989960 
	C1242.921631,365.986053 1242.925781,391.984100 1243.079590,417.980316 
	C1243.102783,421.886353 1242.038086,423.231445 1238.027954,423.085815 
	C1230.039429,422.795746 1222.031250,423.096954 1214.034668,422.952789 
	C1211.042114,422.898834 1209.861328,423.861603 1209.949829,426.955750 
	C1210.126343,433.116669 1210.000122,439.286224 1210.000122,445.452209 
	C1210.000000,523.776855 1209.999512,602.101440 1210.000732,680.426086 
	C1210.000854,686.992004 1210.006226,686.995422 1216.413330,686.999146 
	C1223.745850,687.003357 1231.082031,687.137451 1238.409302,686.940063 
	C1241.784546,686.849121 1243.088135,687.779236 1243.069946,691.400452 
	C1242.937744,717.730164 1242.923828,744.061340 1243.081543,770.390808 
	C1243.104980,774.301514 1241.677612,775.072449 1238.120605,775.065369 
	C1189.126343,774.968384 1140.131470,774.947205 1091.137329,775.091614 
	C1086.832031,775.104248 1085.895020,773.657593 1085.919434,769.648682 
	C1086.077271,743.819214 1086.094482,717.987549 1085.906616,692.158447 
	C1085.875488,687.879883 1087.283813,686.772705 1091.333618,686.918091 
	C1099.155884,687.199097 1106.996826,686.920593 1114.827393,687.040100 
	C1117.660645,687.083374 1119.053101,686.419434 1119.049194,683.183960 
	C1118.978149,623.528748 1118.997192,563.873535 1118.145386,503.872345 
	C1082.032227,578.218811 1045.918945,652.565186 1009.158630,728.243713 
	C972.253418,652.281067 935.995728,577.651245 899.738037,503.021393 
	C899.492004,503.084076 899.246033,503.146790 899.000000,503.209503 
	C899.000000,504.635193 899.000000,506.060883 899.000000,507.486572 
	C899.000000,565.313477 899.056274,623.140564 898.895874,680.966980 
	C898.882690,685.729919 900.071655,687.351562 904.960144,687.107788 
	C912.939392,686.709900 920.954651,687.095459 928.951294,686.953918 
	C931.927185,686.901306 933.059998,687.838013 933.049438,690.941284 
	C932.959167,717.604675 932.912903,744.269043 933.079346,770.931702 
	C933.107849,775.502258 930.465820,775.011841 927.579956,775.010620 
	C888.917603,774.994690 850.255249,775.000061 811.592896,775.000000 
	C801.260681,775.000000 790.926758,774.892578 780.597290,775.060913 
	C777.235046,775.115784 775.911499,774.239807 775.929810,770.608398 
	C776.062927,744.278687 776.076050,717.947510 775.919373,691.618042 
	C775.896179,687.717834 777.297852,686.823120 780.875061,686.931702 
	C788.367310,687.158936 795.888672,686.691406 803.364319,687.110474 
	C808.199646,687.381531 809.095703,685.540161 809.086243,681.141785 
	C808.957886,621.481995 809.000000,561.821899 809.000000,502.161835 
	C809.000000,477.664551 808.870911,453.166016 809.112183,428.671112 
	C809.158875,423.935181 807.667480,422.700562 803.178040,422.908356 
	C795.861206,423.247040 788.511719,423.145325 781.189453,422.871246 
	C779.767883,422.818054 778.407654,421.127655 777.011780,419.721069 
z"/>
<path fill="#FFFFFF" opacity="1.000000" stroke="none" 
	d="
M715.999878,80.124634 
	C551.024109,80.124634 386.548340,80.107521 222.072617,80.221451 
	C217.880325,80.224358 214.906418,79.118370 212.104004,76.064285 
	C200.738525,63.678169 189.196793,51.453770 178.770142,40.293636 
	C465.192749,40.293636 754.161682,40.293636 1043.672974,40.293636 
	C1042.440186,41.378143 1041.469360,42.333103 1040.398804,43.158527 
	C1025.629150,54.546684 1010.921753,66.018822 995.985352,77.184425 
	C993.692200,78.898621 990.329529,80.000961 987.459290,80.005569 
	C897.139709,80.150703 806.819763,80.124634 715.999878,80.124634 
z"/>
<path fill="#FEFEFE" opacity="1.000000" stroke="none" 
	d="
M646.960571,106.043671 
	C655.286682,114.243896 663.251587,122.311943 671.500916,130.077728 
	C674.177734,132.597610 675.048523,135.169067 675.046509,138.759781 
	C674.963074,290.591614 674.974854,442.423492 674.974854,594.255371 
	C674.974854,685.421204 674.946655,776.587036 675.068420,867.752686 
	C675.073792,871.778931 673.888306,874.493896 671.020203,877.238770 
	C660.185242,887.608032 649.601501,898.239807 638.917419,908.767029 
	C637.894348,909.775085 636.827820,910.738953 635.306152,912.170593 
	C635.306152,639.456421 635.306152,367.456635 635.306152,93.658920 
	C639.744324,98.381798 643.227051,102.087929 646.960571,106.043671 
z"/>
<path fill="#FEFDFD" opacity="1.000000" stroke="none" 
	d="
M1033.550171,211.441254 
	C1026.150391,206.547699 1024.673950,199.972183 1024.821533,191.668045 
	C1025.330566,163.045639 1024.945068,134.408127 1025.145752,105.778076 
	C1025.162964,103.320709 1026.344360,100.202042 1028.082275,98.533531 
	C1040.532104,86.580597 1053.266479,74.923897 1064.658936,64.336296 
	C1064.658936,121.237259 1064.658936,180.839096 1064.658936,241.361572 
	C1054.042358,231.150284 1043.923828,221.417923 1033.550171,211.441254 
z"/>
<path fill="#FEFEFE" opacity="1.000000" stroke="none" 
	d="
M748.988159,952.003052 
	C741.992554,947.489197 739.978760,941.415344 740.721497,933.586548 
	C741.410339,926.325378 738.979980,918.141907 741.562256,911.860657 
	C744.216248,905.404968 751.237122,900.723877 756.414429,895.330933 
	C764.253113,887.165771 772.149719,879.056213 780.030212,870.931213 
	C780.111389,870.847595 780.307068,870.875061 780.765503,870.796570 
	C780.765503,907.489075 780.765503,944.129150 780.765503,981.769043 
	C769.933472,971.616455 759.595276,961.926697 748.988159,952.003052 
z"/>
<path fill="#000000" opacity="1.000000" stroke="none" 
	d="
M245.897644,511.132629 
	C252.511826,526.340698 259.043304,541.175903 265.832764,556.597046 
	C244.404953,556.597046 223.654068,556.597046 202.317673,556.597046 
	C212.826889,532.665161 223.179413,509.090149 234.056000,484.321686 
	C238.360016,493.998596 242.087479,502.379211 245.897644,511.132629 
z"/>
</svg>