<svg version="1.1" id="Layer_1" xmlns="http://www.w3.org/2000/svg" xmlns:xlink="http://www.w3.org/1999/xlink" x="0px" y="0px"
	 width="100%" viewBox="0 0 250 293" enable-background="new 0 0 250 293" xml:space="preserve">
<path fill="#010101" opacity="1.000000" stroke="none" 
	d="
M1.000000,79.000000 
	C1.000000,52.666668 1.000000,26.833340 1.000000,1.000007 
	C84.333321,1.000005 167.666641,1.000005 250.999969,1.000002 
	C250.999969,98.666649 250.999969,196.333298 250.999985,293.999939 
	C167.666702,293.999969 84.333405,293.999969 1.000052,294.000000 
	C1.000000,222.500000 1.000000,151.000000 1.000000,79.000000 
M184.251526,90.356689 
	C184.874817,90.678406 185.498093,91.000130 187.017868,91.530548 
	C205.601562,91.530548 224.185242,91.530548 242.991180,91.530548 
	C242.991180,64.624382 242.998520,38.328278 242.947220,12.032288 
	C242.945999,11.400068 242.290268,10.769126 241.028580,9.940377 
	C163.835342,9.940377 86.642097,9.940377 9.262924,9.940377 
	C9.262924,37.011868 9.262924,63.460526 9.150606,90.708298 
	C10.528734,91.024971 11.905873,91.612167 13.285141,91.617210 
	C30.394058,91.679779 47.503300,91.665871 64.612404,91.637894 
	C65.698868,91.636116 66.784874,91.355377 68.238914,91.153297 
	C68.238914,83.975418 68.238914,77.062859 68.238914,70.000595 
	C76.432449,70.000595 84.214806,70.000595 92.024010,70.937500 
	C92.024010,79.840286 92.024010,88.743065 92.024010,98.095085 
	C76.081619,98.095085 60.871288,98.095085 45.722580,98.095085 
	C45.722580,112.702240 45.722580,126.840210 45.371109,141.593552 
	C45.913002,142.074387 46.451809,142.970657 46.997246,142.974716 
	C58.022575,143.056595 69.048668,143.036041 80.534058,143.036041 
	C80.534058,138.848373 80.534058,135.127747 80.534058,131.035461 
	C84.605125,131.035461 88.214462,131.035461 91.931190,131.962784 
	C91.931190,159.661987 91.931190,187.361206 91.931190,215.408600 
	C83.733971,215.408600 76.139938,215.408600 68.199883,215.408600 
	C68.199883,238.152527 68.199883,260.546234 68.006485,283.723724 
	C69.513123,284.246368 71.018692,285.221802 72.526566,285.225372 
	C108.475349,285.310699 144.424393,285.294739 180.373383,285.279358 
	C181.660553,285.278809 182.947662,285.096802 184.213257,285.001007 
	C184.213257,261.675385 184.213257,238.642746 184.213257,215.200806 
	C176.417938,215.200806 168.992630,215.200806 161.426712,215.200806 
	C161.426712,186.937958 161.426712,159.089355 161.426712,131.068222 
	C165.392044,131.068222 169.041077,131.068222 172.770630,131.968521 
	C173.155518,135.550888 173.540405,139.133270 174.830963,143.009857 
	C185.550507,143.009857 196.270065,143.009857 206.864105,143.009857 
	C206.864105,127.993614 206.864105,113.475731 206.535126,98.157455 
	C191.454147,98.020996 176.373169,97.884537 161.254471,96.843987 
	C161.254471,87.939308 161.254471,79.034637 161.254471,69.937531 
	C169.422729,69.937531 176.906036,69.937531 184.444107,70.881279 
	C184.487198,77.186256 184.530273,83.491234 184.251526,90.356689 
M195.048019,290.422943 
	C197.939758,292.829834 201.456696,293.299652 203.646896,290.435669 
	C204.906021,288.789215 204.762878,284.993683 203.688416,283.013367 
	C202.957642,281.666504 198.990433,280.709991 197.404617,281.486542 
	C194.411102,282.952423 192.384033,285.875427 195.048019,290.422943 
z"/>
<path fill="#C4C3C3" opacity="1.000000" stroke="none" 
	d="
M172.690109,131.068222 
	C169.041077,131.068222 165.392044,131.068222 161.426712,131.068222 
	C161.426712,159.089355 161.426712,186.937958 161.426712,215.200806 
	C168.992630,215.200806 176.417938,215.200806 184.213257,215.200806 
	C184.213257,238.642746 184.213257,261.675385 184.213257,285.001007 
	C182.947662,285.096802 181.660553,285.278809 180.373383,285.279358 
	C144.424393,285.294739 108.475349,285.310699 72.526566,285.225372 
	C71.018692,285.221802 69.513123,284.246368 68.427628,283.326111 
	C70.223923,281.950195 71.599068,280.971863 73.267899,279.987610 
	C73.756927,279.968933 73.952271,279.956177 74.607010,279.942871 
	C109.628006,279.942352 144.189590,279.942352 178.918823,279.942352 
	C178.918823,260.397614 178.924896,241.584930 178.891022,222.772324 
	C178.889954,222.176086 178.477814,221.580612 177.779648,220.860580 
	C170.116623,220.700272 162.931290,220.664154 155.614410,220.203644 
	C155.482864,190.366821 155.482864,160.954391 155.482864,131.281586 
	C151.480637,131.281586 147.918701,131.281586 143.979630,131.281586 
	C143.979630,165.032333 143.979630,198.590149 143.898575,232.459991 
	C142.561752,234.453308 141.306000,236.134613 139.722504,237.873352 
	C138.952271,237.920486 138.509766,237.910187 138.042862,237.438080 
	C138.018478,199.978165 138.018478,162.980042 138.018478,125.889313 
	C151.806122,125.889313 164.929733,125.889313 178.087875,126.179901 
	C178.069855,126.658356 178.017334,126.846237 177.663620,127.169594 
	C175.805008,128.559464 174.247559,129.813843 172.690109,131.068222 
z"/>
<path fill="#FEFEFE" opacity="1.000000" stroke="none" 
	d="
M9.262924,89.909180 
	C9.262924,63.460526 9.262924,37.011868 9.262924,9.940377 
	C86.642097,9.940377 163.835342,9.940377 241.327423,10.316476 
	C240.057968,12.442534 238.489700,14.192493 236.465393,15.968355 
	C164.511551,15.996898 93.013741,15.997834 21.515932,16.011814 
	C19.690437,16.012171 17.864973,16.155767 15.768845,16.509209 
	C15.422497,38.388084 15.343204,59.990307 15.295757,81.592598 
	C15.294765,82.044495 15.661949,82.497185 15.892834,83.248016 
	C15.911803,83.943626 15.895315,84.340721 15.618877,84.947174 
	C13.326926,86.740746 11.294925,88.324959 9.262924,89.909180 
z"/>
<path fill="#FFFFFF" opacity="1.000000" stroke="none" 
	d="
M45.722580,140.978180 
	C45.722580,126.840210 45.722580,112.702240 45.722580,98.095085 
	C60.871288,98.095085 76.081619,98.095085 92.024010,98.095085 
	C92.024010,88.743065 92.024010,79.840286 92.315369,70.329262 
	C93.867043,68.614120 95.127357,67.507225 96.973343,65.885956 
	C96.973343,75.634125 96.907356,84.284805 97.031708,92.932747 
	C97.055229,94.567986 97.835136,96.192337 98.715553,97.828285 
	C108.370651,97.756531 117.576225,97.678200 127.254799,97.699646 
	C136.752991,97.807999 145.778168,97.816566 155.259644,97.916756 
	C157.574677,97.921608 159.433441,97.834839 161.292191,97.748077 
	C176.373169,97.884537 191.454147,98.020996 206.359421,98.545364 
	C204.693451,100.295059 203.203186,101.656837 201.275146,103.040329 
	C150.955078,103.091965 101.072800,103.121902 50.860306,103.393723 
	C50.391487,113.600792 50.150753,123.566177 50.168903,133.531082 
	C50.175373,137.082352 49.181633,139.672440 45.722580,140.978180 
z"/>
<path fill="#FFFFFF" opacity="1.000000" stroke="none" 
	d="
M72.974213,279.993561 
	C71.599068,280.971863 70.223923,281.950195 68.524330,282.934204 
	C68.199883,260.546234 68.199883,238.152527 68.199883,215.408600 
	C76.139938,215.408600 83.733971,215.408600 91.931190,215.408600 
	C91.931190,187.361206 91.931190,159.661987 92.323425,131.469238 
	C96.503036,130.313416 97.021156,132.332962 97.008995,135.565857 
	C96.908066,162.395966 96.954811,189.226608 96.939415,216.057098 
	C96.938774,217.178543 96.765404,218.299911 96.628250,219.955444 
	C94.241127,219.955444 92.119026,219.884674 90.003136,219.969284 
	C84.563957,220.186798 79.127533,220.473206 73.450333,221.092392 
	C73.131844,240.966324 73.053032,260.479950 72.974213,279.993561 
z"/>
<path fill="#CCCCCC" opacity="1.000000" stroke="none" 
	d="
M236.921417,15.942452 
	C238.489700,14.192493 240.057968,12.442534 241.783020,10.415081 
	C242.290268,10.769126 242.945999,11.400068 242.947220,12.032288 
	C242.998520,38.328278 242.991180,64.624382 242.991180,91.530548 
	C224.185242,91.530548 205.601562,91.530548 186.561157,91.179848 
	C186.009445,90.509598 185.970749,90.183365 186.097595,89.546753 
	C187.192795,87.803276 188.178741,86.363510 189.382263,84.976990 
	C189.599854,85.030235 190.045029,85.080399 190.168884,85.106041 
	C190.292740,85.131683 190.542618,85.083740 191.030823,85.187729 
	C206.612930,85.291710 221.706802,85.291710 237.074219,85.291710 
	C237.074219,62.114517 237.074219,39.377476 237.053772,16.462048 
	C237.033325,16.283667 236.921417,15.942452 236.921417,15.942452 
z"/>
<path fill="#C5BDBC" opacity="1.000000" stroke="none" 
	d="
M73.690002,220.732086 
	C79.127533,220.473206 84.563957,220.186798 90.003136,219.969284 
	C92.119026,219.884674 94.241127,219.955444 96.628250,219.955444 
	C96.765404,218.299911 96.938774,217.178543 96.939415,216.057098 
	C96.954811,189.226608 96.908066,162.395966 97.008995,135.565857 
	C97.021156,132.332962 96.503036,130.313416 92.269730,131.005585 
	C88.214462,131.035461 84.605125,131.035461 80.534058,131.035461 
	C80.534058,135.127747 80.534058,138.848373 80.534058,143.036041 
	C69.048668,143.036041 58.022575,143.056595 46.997246,142.974716 
	C46.451809,142.970657 45.913002,142.074387 45.546844,141.285858 
	C49.181633,139.672440 50.175373,137.082352 50.168903,133.531082 
	C50.150753,123.566177 50.391487,113.600792 50.818981,103.850708 
	C51.296257,115.039345 51.484653,126.012863 52.160736,137.080536 
	C59.880089,137.174667 67.111763,137.174667 74.735260,137.174667 
	C74.735260,133.129196 74.735260,129.715347 74.735260,125.910774 
	C88.363304,125.910774 101.586250,125.910774 114.877495,126.380676 
	C114.965195,162.553116 114.995918,198.255661 114.958115,233.958145 
	C114.956757,235.241760 114.279663,236.524673 113.941940,237.351990 
	C113.966377,200.841812 113.966377,164.787552 113.966377,128.564072 
	C109.460854,129.186783 109.977547,132.273865 109.976906,135.031418 
	C109.969826,165.480194 109.990105,195.928986 109.929756,226.377640 
	C109.926025,228.259628 109.307938,230.140381 108.981049,231.551727 
	C108.986412,197.846024 108.986412,164.610306 108.986412,131.361038 
	C105.006401,131.361038 101.613068,131.361038 97.801308,131.361038 
	C97.801308,161.246414 97.801308,190.809479 97.801308,221.063675 
	C89.609406,221.063675 81.836418,221.063675 73.970650,220.980133 
	C73.877861,220.896591 73.690002,220.732071 73.690002,220.732086 
z"/>
<path fill="#BAB9B9" opacity="1.000000" stroke="none" 
	d="
M98.266029,97.821716 
	C97.835136,96.192337 97.055229,94.567986 97.031708,92.932747 
	C96.907356,84.284805 96.973343,75.634125 96.973343,65.885956 
	C95.127357,67.507225 93.867043,68.614120 92.301941,69.860809 
	C84.214806,70.000595 76.432449,70.000595 68.238914,70.000595 
	C68.238914,77.062859 68.238914,83.975418 68.238914,91.153297 
	C66.784874,91.355377 65.698868,91.636116 64.612404,91.637894 
	C47.503300,91.665871 30.394058,91.679779 13.285141,91.617210 
	C11.905873,91.612167 10.528734,91.024971 9.206764,90.308739 
	C11.294925,88.324959 13.326926,86.740746 15.803797,85.030922 
	C16.248665,84.905312 16.635593,85.018806 17.124636,85.115173 
	C32.332897,85.211548 47.052116,85.211548 62.362316,85.211548 
	C62.362316,77.905212 62.362316,71.039650 62.362316,64.192093 
	C74.561386,64.192093 86.164925,64.192093 97.823471,64.645676 
	C98.020103,75.731117 98.161728,86.362984 98.280907,97.200974 
	C98.258469,97.407097 98.266029,97.821716 98.266029,97.821716 
z"/>
<path fill="#A8A7A7" opacity="1.000000" stroke="none" 
	d="
M190.045029,85.080399 
	C190.045029,85.080399 189.599854,85.030235 189.373840,84.515228 
	C189.147812,78.187775 189.147812,72.375336 189.147812,65.615753 
	C186.989273,67.576195 185.689316,68.756866 184.389343,69.937531 
	C176.906036,69.937531 169.422729,69.937531 161.254471,69.937531 
	C161.254471,79.034637 161.254471,87.939308 161.273331,97.296036 
	C159.433441,97.834839 157.574677,97.921608 155.391754,97.475082 
	C155.067596,86.022545 155.067596,75.103302 155.067596,63.995789 
	C167.193634,63.995789 178.486710,63.995789 189.865082,64.458817 
	C189.981918,71.641357 190.013474,78.360878 190.045029,85.080399 
z"/>
<path fill="#C7C7C7" opacity="1.000000" stroke="none" 
	d="
M201.712921,103.018623 
	C203.203186,101.656837 204.693451,100.295059 206.523911,98.945564 
	C206.864105,113.475731 206.864105,127.993614 206.864105,143.009857 
	C196.270065,143.009857 185.550507,143.009857 174.375946,142.526581 
	C175.316513,140.292740 176.712097,138.542175 178.323334,136.882019 
	C178.539001,136.972443 178.989929,137.093536 178.989929,137.093536 
	C178.989929,137.093536 179.449463,137.011017 179.953812,137.104889 
	C187.543198,137.198761 194.628235,137.198761 201.726471,137.198761 
	C201.726471,125.583092 201.726471,114.614120 201.725464,103.488464 
	C201.724442,103.331787 201.712921,103.018623 201.712921,103.018623 
z"/>
<path fill="#FFFFFF" opacity="1.000000" stroke="none" 
	d="
M195.006073,290.006897 
	C192.384033,285.875427 194.411102,282.952423 197.404617,281.486542 
	C198.990433,280.709991 202.957642,281.666504 203.688416,283.013367 
	C204.762878,284.993683 204.906021,288.789215 203.646896,290.435669 
	C201.456696,293.299652 197.939758,292.829834 195.006073,290.006897 
z"/>
<path fill="#FEFEFE" opacity="1.000000" stroke="none" 
	d="
M184.416718,70.409409 
	C185.689316,68.756866 186.989273,67.576195 189.147812,65.615753 
	C189.147812,72.375336 189.147812,78.187775 189.156250,84.461983 
	C188.178741,86.363510 187.192795,87.803276 185.857651,89.579437 
	C185.216614,89.720932 184.904922,89.681061 184.573349,89.796211 
	C184.530273,83.491234 184.487198,77.186256 184.416718,70.409409 
z"/>
<path fill="#FEFEFE" opacity="1.000000" stroke="none" 
	d="
M178.107697,136.791626 
	C176.712097,138.542175 175.316513,140.292740 173.923111,142.379471 
	C173.540405,139.133270 173.155518,135.550888 172.730377,131.518372 
	C174.247559,129.813843 175.805008,128.559464 177.756531,127.607559 
	C178.136322,130.870560 178.122009,133.831100 178.107697,136.791626 
z"/>
<path fill="#A8A7A7" opacity="1.000000" stroke="none" 
	d="
M184.412445,90.076447 
	C184.904922,89.681061 185.216614,89.720932 185.748398,89.883141 
	C185.970749,90.183365 186.009445,90.509598 186.112915,91.075500 
	C185.498093,91.000130 184.874817,90.678406 184.412445,90.076447 
z"/>
<path fill="#010101" opacity="1.000000" stroke="none" 
	d="
M178.053360,125.889313 
	C164.929733,125.889313 151.806122,125.889313 138.018478,125.889313 
	C138.018478,162.980042 138.018478,199.978165 137.786331,237.659119 
	C134.074600,241.579575 130.595001,244.817200 126.930702,248.022964 
	C126.745987,247.991119 126.372055,247.982101 126.288849,247.522064 
	C126.188072,205.352356 126.175575,163.642700 126.137070,121.933052 
	C126.135246,119.955673 125.902649,117.978508 126.052269,115.647781 
	C128.290817,115.106796 130.253845,114.765404 132.218521,114.755638 
	C151.200821,114.661240 170.183380,114.622589 189.113617,114.934830 
	C185.392014,118.830879 181.722687,122.360100 178.053360,125.889313 
z"/>
<path fill="#050404" opacity="1.000000" stroke="none" 
	d="
M178.257324,220.984772 
	C178.477814,221.580612 178.889954,222.176086 178.891022,222.772324 
	C178.924896,241.584930 178.918823,260.397614 178.918823,279.942352 
	C144.189590,279.942352 109.628006,279.942352 74.557854,279.718781 
	C74.049294,279.495209 74.140259,279.045441 74.433899,278.898254 
	C80.444420,272.943695 86.161293,267.136353 91.952522,261.683990 
	C92.074753,263.013184 92.122627,263.987457 92.093124,265.401550 
	C93.592567,266.291229 95.167702,267.125610 96.746475,267.132568 
	C116.875595,267.220978 137.005234,267.195862 157.134735,267.178864 
	C158.414291,267.177765 159.693695,267.005341 161.364548,266.884277 
	C161.364548,256.666443 161.364548,246.718689 161.664124,236.588776 
	C167.394913,231.266006 172.826126,226.125381 178.257324,220.984772 
z"/>
<path fill="#010000" opacity="1.000000" stroke="none" 
	d="
M143.979630,232.147964 
	C143.979630,198.590149 143.979630,165.032333 143.979630,131.281586 
	C147.918701,131.281586 151.480637,131.281586 155.482864,131.281586 
	C155.482864,160.954391 155.482864,190.366821 155.296234,220.430511 
	C151.700150,224.720291 148.290695,228.358810 144.660965,232.064728 
	C144.440704,232.132141 143.979630,232.147964 143.979630,232.147964 
z"/>
<path fill="#E60803" opacity="1.000000" stroke="none" 
	d="
M144.881226,231.997345 
	C148.290695,228.358810 151.700150,224.720291 155.427765,220.854904 
	C162.931290,220.664154 170.116623,220.700272 177.779648,220.860580 
	C172.826126,226.125381 167.394913,231.266006 161.567474,236.090973 
	C161.399277,233.205994 160.636383,231.794708 157.643372,232.025299 
	C153.727341,232.326965 149.783981,232.273819 145.598785,232.307220 
	C145.190552,232.159882 145.035889,232.078613 144.881226,231.997345 
z"/>
<path fill="#DA0702" opacity="1.000000" stroke="none" 
	d="
M127.115417,248.054810 
	C130.595001,244.817200 134.074600,241.579575 137.810715,238.120911 
	C138.509766,237.910187 138.952271,237.920486 140.178192,237.957397 
	C145.595184,237.986374 150.228760,237.988724 154.924591,238.139496 
	C154.986832,238.287933 155.077042,238.595520 154.783234,238.792496 
	C148.558533,246.661087 141.588531,252.034698 131.066254,249.693527 
	C130.117462,249.482422 129.057816,249.736450 128.128967,249.483383 
	C127.693687,249.364777 127.447372,248.552643 127.115417,248.054810 
z"/>
<path fill="#B60904" opacity="1.000000" stroke="none" 
	d="
M178.087875,126.179901 
	C181.722687,122.360100 185.392014,118.830879 189.281525,114.750374 
	C189.995895,114.130577 190.490112,114.062065 190.950500,114.451828 
	C192.216751,122.621582 189.753769,128.677414 183.185776,133.102173 
	C181.725372,134.086029 180.683853,135.691666 179.449463,137.011017 
	C179.449463,137.011017 178.989929,137.093536 178.989929,137.093536 
	C178.989929,137.093536 178.539001,136.972443 178.323349,136.882034 
	C178.122009,133.831100 178.136322,130.870560 178.057709,127.472076 
	C178.017334,126.846237 178.069855,126.658356 178.087875,126.179901 
z"/>
<path fill="#FEFEFE" opacity="1.000000" stroke="none" 
	d="
M154.862335,237.991089 
	C150.228760,237.988724 145.595184,237.986374 140.505920,237.899963 
	C141.306000,236.134613 142.561752,234.453308 143.898575,232.459991 
	C143.979630,232.147964 144.440704,232.132141 144.660980,232.064743 
	C145.035889,232.078613 145.190552,232.159882 145.951233,232.539490 
	C150.498444,232.837845 154.439636,232.837845 159.566223,232.837845 
	C157.259842,235.364563 156.061096,236.677826 154.862335,237.991089 
z"/>
<path fill="#C5BDBC" opacity="1.000000" stroke="none" 
	d="
M74.140259,279.045441 
	C74.140259,279.045441 74.049294,279.495209 74.098450,279.719299 
	C73.952271,279.956177 73.756927,279.968933 73.267899,279.987610 
	C73.053032,260.479950 73.131844,240.966324 73.450333,221.092377 
	C73.690002,220.732071 73.877861,220.896591 73.919868,221.442078 
	C74.021339,241.006866 74.080803,260.026154 74.140259,279.045441 
z"/>
<path fill="#E90802" opacity="1.000000" stroke="none" 
	d="
M16.635593,85.018806 
	C16.635593,85.018806 16.248665,84.905312 16.063745,84.821564 
	C15.895315,84.340721 15.911803,83.943626 15.989882,82.795647 
	C16.047478,60.107361 16.043486,38.169960 16.039494,16.232561 
	C17.864973,16.155767 19.690437,16.012171 21.515932,16.011814 
	C93.013741,15.997834 164.511551,15.996898 236.465393,15.968355 
	C236.921417,15.942452 237.033325,16.283667 236.745300,16.639694 
	C228.830841,24.317228 221.204437,31.638731 213.485291,38.949081 
	C213.392548,38.937927 213.205750,38.936451 212.724213,38.937908 
	C183.791016,38.946232 155.339340,38.953102 126.686996,38.962360 
	C126.486328,38.964752 126.084229,38.971100 125.610367,38.961132 
	C96.294266,38.951164 67.452026,38.951164 38.138805,38.951164 
	C38.138805,45.639164 37.945480,51.755184 38.210049,57.851334 
	C38.373306,61.613190 37.322147,64.367683 34.528557,67.007103 
	C28.380171,72.816185 22.578671,78.992416 16.635593,85.018806 
z"/>
<path fill="#BAB9B9" opacity="1.000000" stroke="none" 
	d="
M15.768845,16.509209 
	C16.043486,38.169960 16.047478,60.107361 15.954422,82.497131 
	C15.661949,82.497185 15.294765,82.044495 15.295757,81.592598 
	C15.343204,59.990307 15.422497,38.388084 15.768845,16.509209 
z"/>
<path fill="#010101" opacity="1.000000" stroke="none" 
	d="
M126.887657,38.959969 
	C155.339340,38.953102 183.791016,38.946232 212.625397,39.275627 
	C205.265350,47.739853 197.522583,55.867825 189.779800,63.995789 
	C178.486710,63.995789 167.193634,63.995789 155.067596,63.995789 
	C155.067596,75.103302 155.067596,86.022545 154.935486,97.383469 
	C145.778168,97.816566 136.752991,97.807999 127.339813,97.443451 
	C126.881683,96.737457 126.811554,96.387421 126.811607,95.570435 
	C126.836044,77.075356 126.790291,59.047222 126.815697,40.680817 
	C126.887123,39.881687 126.887390,39.420826 126.887657,38.959969 
z"/>
<path fill="#E60B05" opacity="1.000000" stroke="none" 
	d="
M190.984314,113.993546 
	C190.490112,114.062065 189.995895,114.130577 189.333786,114.383545 
	C170.183380,114.622589 151.200821,114.661240 132.218521,114.755638 
	C130.253845,114.765404 128.290817,115.106796 125.895470,115.654144 
	C125.463921,116.013985 125.150055,116.029022 124.961891,115.614510 
	C122.969185,115.041618 121.164978,114.750366 119.360046,114.745834 
	C104.537933,114.708633 89.715698,114.724724 74.893494,114.724670 
	C71.108810,114.724655 67.324120,114.724678 62.289505,114.724678 
	C66.582779,125.688271 58.174198,129.992218 52.578144,135.804749 
	C52.236221,136.159897 51.972935,136.590759 51.673050,136.986389 
	C51.484653,126.012863 51.296257,115.039345 51.149185,103.608826 
	C101.072800,103.121902 150.955078,103.091965 201.275146,103.040329 
	C201.712921,103.018623 201.724442,103.331787 201.455582,103.693756 
	C197.785919,107.368332 194.385117,110.680939 190.984314,113.993546 
z"/>
<path fill="#DA0A04" opacity="1.000000" stroke="none" 
	d="
M126.741417,96.037392 
	C126.811554,96.387421 126.881683,96.737457 126.866806,97.343674 
	C117.576225,97.678200 108.370651,97.756531 98.715553,97.828285 
	C98.266029,97.821716 98.258469,97.407097 98.728973,97.196854 
	C103.326515,96.985878 107.458008,97.105728 111.579460,96.953651 
	C116.637825,96.766991 121.687813,96.353065 126.741417,96.037392 
z"/>
<path fill="#010000" opacity="1.000000" stroke="none" 
	d="
M213.578003,38.960236 
	C221.204437,31.638731 228.830841,24.317228 236.765747,16.818077 
	C237.074219,39.377476 237.074219,62.114517 237.074219,85.291710 
	C221.706802,85.291710 206.612930,85.291710 191.227600,84.884796 
	C197.651581,78.072334 204.428345,71.728844 211.029739,65.207855 
	C212.319427,63.933884 213.672729,61.993435 213.722702,60.322289 
	C213.935394,53.209408 213.669312,46.082207 213.578003,38.960236 
z"/>
<path fill="#DA0A04" opacity="1.000000" stroke="none" 
	d="
M213.485275,38.949081 
	C213.669312,46.082207 213.935394,53.209408 213.722702,60.322289 
	C213.672729,61.993435 212.319427,63.933884 211.029739,65.207855 
	C204.428345,71.728844 197.651581,78.072334 190.739380,84.780807 
	C190.542618,85.083740 190.292740,85.131683 190.168884,85.106041 
	C190.013474,78.360878 189.981918,71.641357 189.865082,64.458817 
	C197.522583,55.867825 205.265350,47.739853 213.106934,39.274170 
	C213.205750,38.936451 213.392548,38.937927 213.485275,38.949081 
z"/>
<path fill="#E90802" opacity="1.000000" stroke="none" 
	d="
M74.433899,278.898254 
	C74.080803,260.026154 74.021339,241.006866 74.012657,221.525635 
	C81.836418,221.063675 89.609406,221.063675 97.801308,221.063675 
	C97.801308,190.809479 97.801308,161.246414 97.801308,131.361038 
	C101.613068,131.361038 105.006401,131.361038 108.986412,131.361038 
	C108.986412,164.610306 108.986412,197.846024 108.992386,231.549072 
	C108.998360,232.016403 109.016891,232.023087 108.548767,232.057327 
	C102.830360,232.091568 97.580086,232.091568 92.180634,232.091568 
	C92.180634,241.848801 92.180634,250.940536 92.119736,260.359894 
	C91.998619,260.901337 91.938400,261.115173 91.878174,261.329041 
	C86.161293,267.136353 80.444420,272.943695 74.433899,278.898254 
z"/>
<path fill="#E70802" opacity="1.000000" stroke="none" 
	d="
M125.150055,116.029022 
	C125.150055,116.029022 125.463921,116.013985 125.620720,116.007614 
	C125.902649,117.978508 126.135246,119.955673 126.137070,121.933052 
	C126.175575,163.642700 126.188072,205.352356 126.026001,247.905853 
	C122.273994,248.949753 118.675354,249.513092 115.136002,249.257034 
	C110.802246,248.943497 107.670807,250.287781 104.908409,253.639862 
	C102.693115,256.328064 99.834663,258.486267 97.142784,260.432404 
	C97.023949,252.740387 97.023949,245.495636 97.023949,237.807907 
	C103.016953,237.807907 108.467224,237.807907 113.917496,237.807907 
	C114.279663,236.524673 114.956757,235.241760 114.958115,233.958145 
	C114.995918,198.255661 114.965195,162.553116 115.055260,126.094482 
	C118.493172,122.235268 121.821617,119.132149 125.150055,116.029022 
z"/>
<path fill="#040404" opacity="1.000000" stroke="none" 
	d="
M124.961899,115.614517 
	C121.821617,119.132149 118.493172,122.235268 114.986961,125.624580 
	C101.586250,125.910774 88.363304,125.910774 74.735260,125.910774 
	C74.735260,129.715347 74.735260,133.129196 74.735260,137.174667 
	C67.111763,137.174667 59.880089,137.174667 52.160736,137.080536 
	C51.972935,136.590759 52.236221,136.159897 52.578144,135.804749 
	C58.174198,129.992218 66.582779,125.688271 62.289505,114.724678 
	C67.324120,114.724678 71.108810,114.724655 74.893494,114.724670 
	C89.715698,114.724724 104.537933,114.708633 119.360046,114.745834 
	C121.164978,114.750366 122.969185,115.041618 124.961899,115.614517 
z"/>
<path fill="#FEFEFE" opacity="1.000000" stroke="none" 
	d="
M113.941940,237.351990 
	C108.467224,237.807907 103.016953,237.807907 97.023949,237.807907 
	C97.023949,245.495636 97.023949,252.740387 97.139252,260.691437 
	C97.274689,261.568878 97.294830,261.740021 96.995850,261.998505 
	C95.174660,263.044464 93.672585,264.003082 92.170502,264.961700 
	C92.122627,263.987457 92.074753,263.013184 91.952530,261.683990 
	C91.938400,261.115173 91.998619,260.901337 92.362350,260.023621 
	C92.665871,250.788696 92.665871,242.217712 92.665871,233.084290 
	C95.540077,233.084290 97.502983,233.208267 99.444275,233.056259 
	C102.642502,232.805801 105.826752,232.376831 109.016891,232.023087 
	C109.016891,232.023087 108.998360,232.016403 108.987022,232.019058 
	C109.307938,230.140381 109.926025,228.259628 109.929756,226.377640 
	C109.990105,195.928986 109.969826,165.480194 109.976906,135.031418 
	C109.977547,132.273865 109.460854,129.186783 113.966377,128.564072 
	C113.966377,164.787552 113.966377,200.841812 113.941940,237.351990 
z"/>
<path fill="#010000" opacity="1.000000" stroke="none" 
	d="
M17.124634,85.115173 
	C22.578671,78.992416 28.380171,72.816185 34.528557,67.007103 
	C37.322147,64.367683 38.373306,61.613190 38.210049,57.851334 
	C37.945480,51.755184 38.138805,45.639164 38.138805,38.951164 
	C67.452026,38.951164 96.294266,38.951164 125.550171,39.253979 
	C125.599960,40.019249 125.236084,40.481705 124.566284,41.072792 
	C115.429733,48.864975 106.599098,56.528534 97.768471,64.192093 
	C86.164925,64.192093 74.561386,64.192093 62.362316,64.192093 
	C62.362316,71.039650 62.362316,77.905212 62.362316,85.211548 
	C47.052116,85.211548 32.332897,85.211548 17.124634,85.115173 
z"/>
<path fill="#E80802" opacity="1.000000" stroke="none" 
	d="
M97.823471,64.645668 
	C106.599098,56.528534 115.429733,48.864975 124.878479,41.094177 
	C125.912567,40.997650 126.328552,41.008369 126.744537,41.019089 
	C126.790291,59.047222 126.836044,77.075356 126.811607,95.570435 
	C121.687813,96.353065 116.637825,96.766991 111.579460,96.953651 
	C107.458008,97.105728 103.326515,96.985878 98.751411,96.990730 
	C98.161728,86.362984 98.020103,75.731117 97.823471,64.645668 
z"/>
<path fill="#020101" opacity="1.000000" stroke="none" 
	d="
M190.950500,114.451820 
	C194.385117,110.680939 197.785919,107.368332 201.456604,103.850433 
	C201.726471,114.614120 201.726471,125.583092 201.726471,137.198761 
	C194.628235,137.198761 187.543198,137.198761 179.953812,137.104889 
	C180.683853,135.691666 181.725372,134.086029 183.185776,133.102173 
	C189.753769,128.677414 192.216751,122.621582 190.950500,114.451820 
z"/>
<path fill="#120707" opacity="1.000000" stroke="none" 
	d="
M97.314972,261.911194 
	C97.294830,261.740021 97.274689,261.568878 97.258087,261.138702 
	C99.834663,258.486267 102.693115,256.328064 104.908409,253.639862 
	C107.670807,250.287781 110.802246,248.943497 115.136002,249.257034 
	C118.675354,249.513092 122.273994,248.949753 126.109200,248.365906 
	C126.372055,247.982101 126.745987,247.991119 126.930710,248.022980 
	C127.447372,248.552643 127.693687,249.364777 128.128967,249.483383 
	C129.057816,249.736450 130.117462,249.482422 131.066254,249.693527 
	C141.588531,252.034698 148.558533,246.661087 154.900116,239.284332 
	C155.310837,246.805984 155.310837,254.032791 155.310837,261.589355 
	C152.258331,261.589355 149.952805,261.577087 147.647446,261.591339 
	C130.869934,261.694977 114.092461,261.803925 97.314972,261.911194 
z"/>
<path fill="#C4C3C3" opacity="1.000000" stroke="none" 
	d="
M96.995850,261.998535 
	C114.092461,261.803925 130.869934,261.694977 147.647446,261.591339 
	C149.952805,261.577087 152.258331,261.589355 155.310837,261.589355 
	C155.310837,254.032791 155.310837,246.805984 155.193939,239.087357 
	C155.077042,238.595520 154.986832,238.287933 154.924591,238.139511 
	C156.061096,236.677826 157.259842,235.364563 159.566223,232.837845 
	C154.439636,232.837845 150.498444,232.837845 146.204803,232.605591 
	C149.783981,232.273819 153.727341,232.326965 157.643372,232.025299 
	C160.636383,231.794708 161.399277,233.205994 161.267883,236.273132 
	C161.364548,246.718689 161.364548,256.666443 161.364548,266.884277 
	C159.693695,267.005341 158.414291,267.177765 157.134735,267.178864 
	C137.005234,267.195862 116.875595,267.220978 96.746475,267.132568 
	C95.167702,267.125610 93.592567,266.291229 92.093124,265.401550 
	C93.672585,264.003082 95.174660,263.044464 96.995850,261.998535 
z"/>
<path fill="#DA0A04" opacity="1.000000" stroke="none" 
	d="
M126.815697,40.680817 
	C126.328552,41.008369 125.912567,40.997650 125.184395,40.965546 
	C125.236084,40.481705 125.599960,40.019249 126.024033,39.263947 
	C126.084229,38.971100 126.486328,38.964752 126.686996,38.962360 
	C126.887390,39.420826 126.887123,39.881687 126.815697,40.680817 
z"/>
<path fill="#D9CFCF" opacity="1.000000" stroke="none" 
	d="
M108.548767,232.057327 
	C105.826752,232.376831 102.642502,232.805801 99.444275,233.056259 
	C97.502983,233.208267 95.540077,233.084290 92.665871,233.084290 
	C92.665871,242.217712 92.665871,250.788696 92.423248,259.695984 
	C92.180634,250.940536 92.180634,241.848801 92.180634,232.091568 
	C97.580086,232.091568 102.830360,232.091568 108.548767,232.057327 
z"/>
</svg>