<svg version="1.1" id="Layer_1" xmlns="http://www.w3.org/2000/svg" xmlns:xlink="http://www.w3.org/1999/xlink" x="0px" y="0px"
	 width="100%" viewBox="0 0 1200 1200" enable-background="new 0 0 1200 1200" xml:space="preserve">
<path fill="#000000" opacity="1.000000" stroke="none" 
	d="
M1.000000,444.000000 
	C1.000000,296.000000 1.000000,148.500000 1.000000,1.000000 
	C401.000000,1.000000 801.000000,1.000000 1201.000000,1.000000 
	C1201.000000,401.000000 1201.000000,801.000000 1201.000000,1201.000000 
	C801.000000,1201.000000 401.000000,1201.000000 1.000000,1201.000000 
	C1.000000,948.833313 1.000000,696.666687 1.000000,444.000000 
M608.006714,17.581745 
	C602.876038,13.200647 597.745361,8.819551 592.551025,4.384101 
	C528.136353,76.497490 446.751801,121.288460 349.727661,137.106583 
	C252.800613,152.908875 160.788498,138.524460 73.899284,89.921722 
	C73.224915,95.930206 72.585449,101.615532 71.948914,107.301186 
	C69.968414,124.991280 67.787949,142.662033 66.074211,160.377945 
	C64.754128,174.024506 63.827450,187.717239 63.077301,201.408691 
	C62.188484,217.631073 61.127121,233.873672 61.114048,250.108292 
	C61.085243,285.886353 61.526493,321.667084 62.074844,357.442139 
	C62.275223,370.514832 63.136093,383.587311 64.030106,396.636993 
	C65.169777,413.272430 66.449585,429.903625 68.034073,446.501801 
	C69.818634,465.195709 71.635895,483.900879 74.127800,502.508911 
	C76.659721,521.415771 79.638206,540.283569 83.139954,559.034302 
	C87.034264,579.886963 90.985588,600.782410 96.271729,621.309143 
	C103.989838,651.279358 111.821960,681.305054 121.636139,710.627441 
	C131.928329,741.377991 143.751358,771.697510 156.527054,801.510376 
	C167.160797,826.324890 179.115158,850.712585 192.370346,874.226196 
	C206.098526,898.578735 221.327209,922.188843 237.335602,945.121277 
	C251.262344,965.071655 266.638916,984.094543 282.420166,1002.637695 
	C294.071655,1016.328430 307.092773,1028.912720 320.078583,1041.391724 
	C332.685394,1053.506470 345.732483,1065.206299 359.111542,1076.463989 
	C379.165527,1093.338257 400.530304,1108.444214 422.698944,1122.482788 
	C448.803650,1139.013916 476.092499,1153.213257 504.139526,1166.067505 
	C531.471436,1178.593994 559.739136,1188.613770 588.375854,1197.631104 
	C591.035034,1198.468628 594.380066,1198.823364 596.947021,1197.988647 
	C616.499390,1191.631226 636.160767,1185.507324 655.357239,1178.181519 
	C682.327148,1167.889160 708.493225,1155.634155 733.440979,1141.083740 
	C752.452148,1129.995728 771.193726,1118.369507 789.460144,1106.096924 
	C822.418640,1083.953369 852.499207,1058.277222 879.945129,1029.552124 
	C886.588928,1022.598755 893.505981,1015.879150 899.780273,1008.605896 
	C911.928284,994.523926 924.479187,980.690002 935.459656,965.723694 
	C951.635010,943.676941 967.526306,921.306458 981.779724,897.998352 
	C995.247070,875.975647 1006.775696,852.733643 1018.520935,829.703491 
	C1026.241455,814.565247 1033.586182,799.145264 1039.757935,783.328064 
	C1049.619629,758.054688 1058.908447,732.525452 1067.418457,706.767212 
	C1074.693604,684.746704 1081.201050,662.419250 1086.833374,639.923401 
	C1093.223145,614.402588 1098.453735,588.583435 1103.808960,562.815186 
	C1106.620605,549.286621 1108.870483,535.626953 1110.919067,521.958313 
	C1112.947266,508.425293 1114.471069,494.814575 1116.093018,481.223297 
	C1118.123779,464.206696 1120.224609,447.194641 1121.925171,430.143677 
	C1123.237061,416.989136 1124.200684,403.789764 1124.916870,390.588501 
	C1125.823853,373.870605 1126.629639,357.135956 1126.919312,340.398834 
	C1127.259399,320.739716 1127.121338,301.069153 1126.957764,281.405487 
	C1126.840332,267.296570 1126.527832,253.183395 1125.967529,239.085434 
	C1125.132812,218.080032 1124.081543,197.082184 1122.961182,176.089706 
	C1122.485474,167.176971 1121.732666,158.273300 1120.870972,149.388275 
	C1119.694580,137.258835 1118.378296,125.141235 1116.958496,113.037750 
	C1116.065674,105.428513 1114.873169,97.854446 1113.746582,89.771530 
	C1093.046387,101.743141 1072.241699,111.660995 1050.390381,119.302132 
	C1025.613525,127.966301 1000.373901,134.845078 974.267151,138.007980 
	C958.069092,139.970413 941.832581,142.187836 925.557251,142.800034 
	C903.191040,143.641327 880.743225,143.603195 858.514709,140.005600 
	C843.242493,137.533859 827.710938,136.006790 812.799744,132.121399 
	C791.973877,126.694839 771.450317,119.946892 751.104736,112.879593 
	C726.229675,104.238884 702.944153,92.051544 681.082092,77.446884 
	C665.896362,67.302223 651.117615,56.454868 636.867188,45.035191 
	C626.689209,36.878963 617.689880,27.251995 608.006714,17.581745 
z"/>
<path fill="#412784" opacity="1.000000" stroke="none" 
	d="
M608.085693,17.931524 
	C617.689880,27.251995 626.689209,36.878963 636.867188,45.035191 
	C651.117615,56.454868 665.896362,67.302223 681.082092,77.446884 
	C702.944153,92.051544 726.229675,104.238884 751.104736,112.879593 
	C771.450317,119.946892 791.973877,126.694839 812.799744,132.121399 
	C827.710938,136.006790 843.242493,137.533859 858.514709,140.005600 
	C880.743225,143.603195 903.191040,143.641327 925.557251,142.800034 
	C941.832581,142.187836 958.069092,139.970413 974.267151,138.007980 
	C1000.373901,134.845078 1025.613525,127.966301 1050.390381,119.302132 
	C1072.241699,111.660995 1093.046387,101.743141 1113.746582,89.771530 
	C1114.873169,97.854446 1116.065674,105.428513 1116.958496,113.037750 
	C1118.378296,125.141235 1119.694580,137.258835 1120.870972,149.388275 
	C1121.732666,158.273300 1122.485474,167.176971 1122.961182,176.089706 
	C1124.081543,197.082184 1125.132812,218.080032 1125.967529,239.085434 
	C1126.527832,253.183395 1126.840332,267.296570 1126.957764,281.405487 
	C1127.121338,301.069153 1127.259399,320.739716 1126.919312,340.398834 
	C1126.629639,357.135956 1125.823853,373.870605 1124.916870,390.588501 
	C1124.200684,403.789764 1123.237061,416.989136 1121.925171,430.143677 
	C1120.224609,447.194641 1118.123779,464.206696 1116.093018,481.223297 
	C1114.471069,494.814575 1112.947266,508.425293 1110.919067,521.958313 
	C1108.870483,535.626953 1106.620605,549.286621 1103.808960,562.815186 
	C1098.453735,588.583435 1093.223145,614.402588 1086.833374,639.923401 
	C1081.201050,662.419250 1074.693604,684.746704 1067.418457,706.767212 
	C1058.908447,732.525452 1049.619629,758.054688 1039.757935,783.328064 
	C1033.586182,799.145264 1026.241455,814.565247 1018.520935,829.703491 
	C1006.775696,852.733643 995.247070,875.975647 981.779724,897.998352 
	C967.526306,921.306458 951.635010,943.676941 935.459656,965.723694 
	C924.479187,980.690002 911.928284,994.523926 899.780273,1008.605896 
	C893.505981,1015.879150 886.588928,1022.598755 879.945129,1029.552124 
	C852.499207,1058.277222 822.418640,1083.953369 789.460144,1106.096924 
	C771.193726,1118.369507 752.452148,1129.995728 733.440979,1141.083740 
	C708.493225,1155.634155 682.327148,1167.889160 655.357239,1178.181519 
	C636.160767,1185.507324 616.499390,1191.631226 596.947021,1197.988647 
	C594.380066,1198.823364 591.035034,1198.468628 588.375854,1197.631104 
	C559.739136,1188.613770 531.471436,1178.593994 504.139526,1166.067505 
	C476.092499,1153.213257 448.803650,1139.013916 422.698944,1122.482788 
	C400.530304,1108.444214 379.165527,1093.338257 359.111542,1076.463989 
	C345.732483,1065.206299 332.685394,1053.506470 320.078583,1041.391724 
	C307.092773,1028.912720 294.071655,1016.328430 282.420166,1002.637695 
	C266.638916,984.094543 251.262344,965.071655 237.335602,945.121277 
	C221.327209,922.188843 206.098526,898.578735 192.370346,874.226196 
	C179.115158,850.712585 167.160797,826.324890 156.527054,801.510376 
	C143.751358,771.697510 131.928329,741.377991 121.636139,710.627441 
	C111.821960,681.305054 103.989838,651.279358 96.271729,621.309143 
	C90.985588,600.782410 87.034264,579.886963 83.139954,559.034302 
	C79.638206,540.283569 76.659721,521.415771 74.127800,502.508911 
	C71.635895,483.900879 69.818634,465.195709 68.034073,446.501801 
	C66.449585,429.903625 65.169777,413.272430 64.030106,396.636993 
	C63.136093,383.587311 62.275223,370.514832 62.074844,357.442139 
	C61.526493,321.667084 61.085243,285.886353 61.114048,250.108292 
	C61.127121,233.873672 62.188484,217.631073 63.077301,201.408691 
	C63.827450,187.717239 64.754128,174.024506 66.074211,160.377945 
	C67.787949,142.662033 69.968414,124.991280 71.948914,107.301186 
	C72.585449,101.615532 73.224915,95.930206 73.899284,89.921722 
	C160.788498,138.524460 252.800613,152.908875 349.727661,137.106583 
	C446.751801,121.288460 528.136353,76.497490 592.551025,4.384101 
	C597.745361,8.819551 602.876038,13.200647 608.085693,17.931524 
M585.607910,79.111031 
	C444.480133,194.741089 286.755585,217.482025 114.899078,163.787323 
	C114.675285,165.912857 114.281929,168.703873 114.102272,171.508591 
	C112.941490,189.630280 111.694237,207.747787 110.722160,225.879913 
	C107.425270,287.376862 108.682243,348.832092 113.312218,410.205444 
	C117.097359,460.379852 123.611519,510.226349 133.049118,559.674255 
	C145.613327,625.503906 163.232529,689.880249 188.022141,752.220703 
	C218.035538,827.697815 256.688721,898.204346 308.335724,961.206482 
	C383.538208,1052.942993 477.221710,1117.773193 590.244263,1154.301514 
	C592.432495,1155.008667 595.274475,1155.206299 597.373352,1154.440674 
	C616.105225,1147.607056 635.071228,1141.270874 653.346558,1133.353027 
	C765.770020,1084.645386 853.535767,1006.791626 920.892456,905.214111 
	C970.219299,830.826782 1005.079895,749.800842 1029.960571,664.325195 
	C1047.389038,604.451172 1059.273438,543.433167 1067.227051,481.602875 
	C1072.779053,438.442413 1076.235474,395.124207 1077.952393,351.660858 
	C1079.960327,300.828705 1079.105103,250.025223 1075.873901,199.262253 
	C1075.103027,187.151123 1074.045288,175.058273 1073.171021,163.629410 
	C896.540344,219.648300 736.459717,191.785812 593.210327,72.528160 
	C591.166992,74.303474 588.660095,76.481621 585.607910,79.111031 
z"/>
<path fill="#FEFEFE" opacity="1.000000" stroke="none" 
	d="
M585.880554,78.885391 
	C588.660095,76.481621 591.166992,74.303474 593.210327,72.528160 
	C736.459717,191.785812 896.540344,219.648300 1073.171021,163.629410 
	C1074.045288,175.058273 1075.103027,187.151123 1075.873901,199.262253 
	C1079.105103,250.025223 1079.960327,300.828705 1077.952393,351.660858 
	C1076.235474,395.124207 1072.779053,438.442413 1067.227051,481.602875 
	C1059.273438,543.433167 1047.389038,604.451172 1029.960571,664.325195 
	C1005.079895,749.800842 970.219299,830.826782 920.892456,905.214111 
	C853.535767,1006.791626 765.770020,1084.645386 653.346558,1133.353027 
	C635.071228,1141.270874 616.105225,1147.607056 597.373352,1154.440674 
	C595.274475,1155.206299 592.432495,1155.008667 590.244263,1154.301514 
	C477.221710,1117.773193 383.538208,1052.942993 308.335724,961.206482 
	C256.688721,898.204346 218.035538,827.697815 188.022141,752.220703 
	C163.232529,689.880249 145.613327,625.503906 133.049118,559.674255 
	C123.611519,510.226349 117.097359,460.379852 113.312218,410.205444 
	C108.682243,348.832092 107.425270,287.376862 110.722160,225.879913 
	C111.694237,207.747787 112.941490,189.630280 114.102272,171.508591 
	C114.281929,168.703873 114.675285,165.912857 114.899078,163.787323 
	C286.755585,217.482025 444.480133,194.741089 585.880554,78.885391 
M848.515137,227.974228 
	C754.141357,216.677567 669.178955,182.281998 594.446106,124.220238 
	C460.724609,223.900314 312.819092,252.567322 151.434052,216.091629 
	C151.297516,216.555893 151.138840,216.868805 151.120544,217.189728 
	C147.455322,281.511566 148.301910,345.795654 153.290222,410.007904 
	C156.967987,457.350128 163.089600,504.392120 171.981705,551.061035 
	C183.775436,612.958679 200.097931,673.574280 223.071030,732.311707 
	C253.420273,809.908569 293.196716,882.021729 347.576416,945.587708 
	C413.545471,1022.700928 494.103729,1078.591919 590.098938,1111.919556 
	C592.255737,1112.668335 595.085815,1112.872559 597.198059,1112.150024 
	C646.947937,1095.133423 693.336853,1071.484375 736.243164,1041.073364 
	C808.850891,989.610596 865.410583,923.712708 909.893188,847.110901 
	C960.784424,759.473083 992.982300,664.911865 1013.040466,565.938721 
	C1024.134521,511.196869 1031.340942,455.933075 1035.299927,400.219543 
	C1038.562744,354.301514 1039.729492,308.343903 1038.658081,262.332245 
	C1038.298584,246.892578 1037.466309,231.463928 1036.824829,215.394760 
	C974.739014,231.026016 912.437805,235.145035 848.515137,227.974228 
z"/>
<path fill="#412784" opacity="1.000000" stroke="none" 
	d="
M848.966003,228.009583 
	C912.437805,235.145035 974.739014,231.026016 1036.824829,215.394760 
	C1037.466309,231.463928 1038.298584,246.892578 1038.658081,262.332245 
	C1039.729492,308.343903 1038.562744,354.301514 1035.299927,400.219543 
	C1031.340942,455.933075 1024.134521,511.196869 1013.040466,565.938721 
	C992.982300,664.911865 960.784424,759.473083 909.893188,847.110901 
	C865.410583,923.712708 808.850891,989.610596 736.243164,1041.073364 
	C693.336853,1071.484375 646.947937,1095.133423 597.198059,1112.150024 
	C595.085815,1112.872559 592.255737,1112.668335 590.098938,1111.919556 
	C494.103729,1078.591919 413.545471,1022.700928 347.576416,945.587708 
	C293.196716,882.021729 253.420273,809.908569 223.071030,732.311707 
	C200.097931,673.574280 183.775436,612.958679 171.981705,551.061035 
	C163.089600,504.392120 156.967987,457.350128 153.290222,410.007904 
	C148.301910,345.795654 147.455322,281.511566 151.120544,217.189728 
	C151.138840,216.868805 151.297516,216.555893 151.434052,216.091629 
	C312.819092,252.567322 460.724609,223.900314 594.446106,124.220238 
	C669.178955,182.281998 754.141357,216.677567 848.966003,228.009583 
M396.500000,380.962982 
	C447.565887,380.962982 498.631744,380.962982 550.184448,380.962982 
	C550.184448,471.344604 550.184448,560.901489 550.184448,650.523499 
	C578.942749,650.523499 607.209167,650.523499 636.073486,650.523499 
	C636.073486,560.591370 636.073486,470.893158 636.073486,381.335968 
	C713.559021,381.335968 790.445251,381.335968 867.889038,381.335968 
	C867.889038,403.930725 867.889038,426.157898 867.889038,448.466370 
	C893.863953,448.466370 919.278625,448.466370 944.775940,448.466370 
	C944.775940,396.286194 944.775940,344.400208 944.775940,292.432556 
	C710.029114,292.432556 475.627533,292.432556 241.086121,292.432556 
	C241.086121,344.587738 241.086121,396.465790 241.086121,448.479309 
	C266.859283,448.479309 292.273865,448.479309 318.170624,448.479309 
	C318.170624,425.956207 318.170624,403.707092 318.170624,380.962982 
	C344.267059,380.962982 369.883514,380.962982 396.500000,380.962982 
M535.500061,664.180969 
	C505.432922,664.180969 475.365784,664.180969 445.356750,664.180969 
	C445.356750,631.473511 445.356750,599.557373 445.356750,567.106628 
	C475.701050,567.106628 505.758423,567.106628 535.900391,567.106628 
	C535.900391,536.980286 535.900391,507.391449 535.900391,477.552246 
	C534.534973,477.436920 533.411316,477.259491 532.287659,477.259094 
	C491.295776,477.244781 450.303680,477.202728 409.312500,477.371490 
	C407.162201,477.380341 404.530914,478.701141 402.949493,480.252869 
	C388.915283,494.023468 374.989105,507.907684 361.264069,521.985535 
	C359.546204,523.747498 358.324280,526.826233 358.316345,529.299500 
	C358.149414,581.455261 358.143829,633.611938 358.326965,685.767578 
	C358.336121,688.372559 359.686035,691.606018 361.510864,693.471741 
	C376.773529,709.075867 392.366913,724.356140 407.670319,739.921143 
	C410.482758,742.781738 413.283600,743.840515 417.259521,743.836731 
	C526.071228,743.732605 634.882996,743.753479 743.694763,743.753479 
	C745.823608,743.753479 747.952454,743.753479 750.247803,743.753479 
	C750.247803,773.790222 750.247803,803.326599 750.247803,833.279541 
	C715.773926,833.279541 681.675110,833.279541 647.394531,833.279541 
	C647.394531,859.736877 647.394531,885.774902 647.394531,911.876892 
	C648.372925,911.960938 649.025269,912.065918 649.677551,912.066040 
	C692.169128,912.075500 734.660828,912.114685 777.151855,911.956787 
	C779.130981,911.949463 781.532349,910.609802 783.012634,909.153931 
	C796.911621,895.483643 810.727661,881.726013 824.345703,867.776855 
	C826.083496,865.996826 827.461304,862.978455 827.470093,860.528198 
	C827.649292,810.538757 827.649780,760.548340 827.469238,710.558899 
	C827.460388,708.108154 826.060608,705.100281 824.322266,703.308777 
	C812.719727,691.351196 800.755188,679.745178 789.135254,667.804138 
	C786.435852,665.030029 783.703064,664.109497 779.951843,664.113586 
	C698.801331,664.202209 617.650696,664.180969 535.500061,664.180969 
M566.500000,1018.996948 
	C601.239319,1018.996948 635.978699,1018.996948 670.644104,1018.996948 
	C670.644104,999.247131 670.644104,980.304016 670.644104,960.810425 
	C659.006287,960.810425 647.603699,960.810425 635.642822,960.810425 
	C635.642822,892.201965 635.642822,824.144531 635.642822,756.065186 
	C606.809204,756.065186 578.550598,756.065186 549.735291,756.065186 
	C549.735291,824.396179 549.735291,892.449280 549.735291,961.047974 
	C537.785217,961.047974 526.384399,961.047974 515.168579,961.047974 
	C515.168579,980.658875 515.168579,999.718384 515.168579,1018.996948 
	C532.199219,1018.996948 548.849609,1018.996948 566.500000,1018.996948 
M781.751770,477.044098 
	C737.665100,477.044098 693.578491,477.044098 649.329834,477.044098 
	C649.329834,507.268646 649.329834,536.829102 649.329834,567.015076 
	C682.449585,567.015076 715.309204,567.015076 748.620300,567.015076 
	C748.620300,579.059998 748.620300,590.483337 748.620300,601.911987 
	C776.147095,601.911987 803.211304,601.911987 830.153748,601.911987 
	C830.402832,601.276428 830.623596,600.975647 830.624084,600.674438 
	C830.664185,576.354065 830.738403,552.033447 830.599670,527.713989 
	C830.590088,526.026062 829.320862,524.028625 828.069275,522.717529 
	C821.513916,515.850586 814.807678,509.126282 808.092224,502.414093 
	C799.622803,493.948761 791.093689,485.543091 781.751770,477.044098 
M365.307434,868.170410 
	C379.090637,881.953491 392.797852,895.814453 406.751862,909.422241 
	C408.523193,911.149597 411.582306,912.425964 414.051788,912.437744 
	C453.035095,912.623718 492.019531,912.568298 531.003723,912.568237 
	C532.584839,912.568237 534.165955,912.568298 535.585693,912.568298 
	C535.585693,885.397095 535.585693,859.012390 535.585693,832.044678 
	C505.661438,832.044678 476.123779,832.044678 446.083557,832.044678 
	C446.083557,819.558228 446.083557,807.651184 446.083557,795.743774 
	C416.709290,795.743774 387.851166,795.743774 358.631348,795.743774 
	C358.631348,797.972412 358.631348,799.785706 358.631348,801.598999 
	C358.631348,818.592102 358.900543,835.591675 358.491516,852.574951 
	C358.339630,858.881775 359.544922,863.944702 365.307434,868.170410 
z"/>
<path fill="#FEFEFF" opacity="1.000000" stroke="none" 
	d="
M396.000000,380.962982 
	C369.883514,380.962982 344.267059,380.962982 318.170624,380.962982 
	C318.170624,403.707092 318.170624,425.956207 318.170624,448.479309 
	C292.273865,448.479309 266.859283,448.479309 241.086121,448.479309 
	C241.086121,396.465790 241.086121,344.587738 241.086121,292.432556 
	C475.627533,292.432556 710.029114,292.432556 944.775940,292.432556 
	C944.775940,344.400208 944.775940,396.286194 944.775940,448.466370 
	C919.278625,448.466370 893.863953,448.466370 867.889038,448.466370 
	C867.889038,426.157898 867.889038,403.930725 867.889038,381.335968 
	C790.445251,381.335968 713.559021,381.335968 636.073486,381.335968 
	C636.073486,470.893158 636.073486,560.591370 636.073486,650.523499 
	C607.209167,650.523499 578.942749,650.523499 550.184448,650.523499 
	C550.184448,560.901489 550.184448,471.344604 550.184448,380.962982 
	C498.631744,380.962982 447.565887,380.962982 396.000000,380.962982 
z"/>
<path fill="#FEFEFE" opacity="1.000000" stroke="none" 
	d="
M536.000122,664.180969 
	C617.650696,664.180969 698.801331,664.202209 779.951843,664.113586 
	C783.703064,664.109497 786.435852,665.030029 789.135254,667.804138 
	C800.755188,679.745178 812.719727,691.351196 824.322266,703.308777 
	C826.060608,705.100281 827.460388,708.108154 827.469238,710.558899 
	C827.649780,760.548340 827.649292,810.538757 827.470093,860.528198 
	C827.461304,862.978455 826.083496,865.996826 824.345703,867.776855 
	C810.727661,881.726013 796.911621,895.483643 783.012634,909.153931 
	C781.532349,910.609802 779.130981,911.949463 777.151855,911.956787 
	C734.660828,912.114685 692.169128,912.075500 649.677551,912.066040 
	C649.025269,912.065918 648.372925,911.960938 647.394531,911.876892 
	C647.394531,885.774902 647.394531,859.736877 647.394531,833.279541 
	C681.675110,833.279541 715.773926,833.279541 750.247803,833.279541 
	C750.247803,803.326599 750.247803,773.790222 750.247803,743.753479 
	C747.952454,743.753479 745.823608,743.753479 743.694763,743.753479 
	C634.882996,743.753479 526.071228,743.732605 417.259521,743.836731 
	C413.283600,743.840515 410.482758,742.781738 407.670319,739.921143 
	C392.366913,724.356140 376.773529,709.075867 361.510864,693.471741 
	C359.686035,691.606018 358.336121,688.372559 358.326965,685.767578 
	C358.143829,633.611938 358.149414,581.455261 358.316345,529.299500 
	C358.324280,526.826233 359.546204,523.747498 361.264069,521.985535 
	C374.989105,507.907684 388.915283,494.023468 402.949493,480.252869 
	C404.530914,478.701141 407.162201,477.380341 409.312500,477.371490 
	C450.303680,477.202728 491.295776,477.244781 532.287659,477.259094 
	C533.411316,477.259491 534.534973,477.436920 535.900391,477.552246 
	C535.900391,507.391449 535.900391,536.980286 535.900391,567.106628 
	C505.758423,567.106628 475.701050,567.106628 445.356750,567.106628 
	C445.356750,599.557373 445.356750,631.473511 445.356750,664.180969 
	C475.365784,664.180969 505.432922,664.180969 536.000122,664.180969 
z"/>
<path fill="#FFFEFF" opacity="1.000000" stroke="none" 
	d="
M566.000000,1018.996948 
	C548.849609,1018.996948 532.199219,1018.996948 515.168579,1018.996948 
	C515.168579,999.718384 515.168579,980.658875 515.168579,961.047974 
	C526.384399,961.047974 537.785217,961.047974 549.735291,961.047974 
	C549.735291,892.449280 549.735291,824.396179 549.735291,756.065186 
	C578.550598,756.065186 606.809204,756.065186 635.642822,756.065186 
	C635.642822,824.144531 635.642822,892.201965 635.642822,960.810425 
	C647.603699,960.810425 659.006287,960.810425 670.644104,960.810425 
	C670.644104,980.304016 670.644104,999.247131 670.644104,1018.996948 
	C635.978699,1018.996948 601.239319,1018.996948 566.000000,1018.996948 
z"/>
<path fill="#FEFEFE" opacity="1.000000" stroke="none" 
	d="
M782.171021,477.077881 
	C791.093689,485.543091 799.622803,493.948761 808.092224,502.414093 
	C814.807678,509.126282 821.513916,515.850586 828.069275,522.717529 
	C829.320862,524.028625 830.590088,526.026062 830.599670,527.713989 
	C830.738403,552.033447 830.664185,576.354065 830.624084,600.674438 
	C830.623596,600.975647 830.402832,601.276428 830.153748,601.911987 
	C803.211304,601.911987 776.147095,601.911987 748.620300,601.911987 
	C748.620300,590.483337 748.620300,579.059998 748.620300,567.015076 
	C715.309204,567.015076 682.449585,567.015076 649.329834,567.015076 
	C649.329834,536.829102 649.329834,507.268646 649.329834,477.044098 
	C693.578491,477.044098 737.665100,477.044098 782.171021,477.077881 
z"/>
<path fill="#FDFDFE" opacity="1.000000" stroke="none" 
	d="
M365.055267,867.916992 
	C359.544922,863.944702 358.339630,858.881775 358.491516,852.574951 
	C358.900543,835.591675 358.631348,818.592102 358.631348,801.598999 
	C358.631348,799.785706 358.631348,797.972412 358.631348,795.743774 
	C387.851166,795.743774 416.709290,795.743774 446.083557,795.743774 
	C446.083557,807.651184 446.083557,819.558228 446.083557,832.044678 
	C476.123779,832.044678 505.661438,832.044678 535.585693,832.044678 
	C535.585693,859.012390 535.585693,885.397095 535.585693,912.568298 
	C534.165955,912.568298 532.584839,912.568237 531.003723,912.568237 
	C492.019531,912.568298 453.035095,912.623718 414.051788,912.437744 
	C411.582306,912.425964 408.523193,911.149597 406.751862,909.422241 
	C392.797852,895.814453 379.090637,881.953491 365.055267,867.916992 
z"/>
</svg>