<?xml version="1.0" encoding="UTF-8"?>
<svg version="1.1" xmlns="http://www.w3.org/2000/svg" width="225" height="225">
<path d="M0 0 C74.25 0 148.5 0 225 0 C225 74.25 225 148.5 225 225 C150.75 225 76.5 225 0 225 C0 150.75 0 76.5 0 0 Z " fill="#FCFDFC" transform="translate(0,0)"/>
<path d="M0 0 C0.49886719 0.67160156 0.99773438 1.34320313 1.51171875 2.03515625 C4.68204626 5.81267364 8.20035652 9.08758697 11.8125 12.4375 C12.94147705 13.49203369 12.94147705 13.49203369 14.09326172 14.56787109 C16.39282794 16.7148091 18.69635763 18.85743751 21 21 C22.30900116 22.22222006 23.61761836 23.44485152 24.92578125 24.66796875 C27.38357039 26.96553025 29.84318919 29.26110029 32.3046875 31.5546875 C34.83344007 33.91117805 37.35921311 36.27080426 39.8828125 38.6328125 C40.52412109 39.23246826 41.16542969 39.83212402 41.82617188 40.44995117 C43.09690983 41.63892972 44.36646507 42.82917373 45.63476562 44.02075195 C48.45234026 46.660174 51.28284618 49.2684572 54.2109375 51.78515625 C60.89745034 57.58431685 67.40590362 64.05364235 68.203125 73.375 C68.22632812 74.674375 68.22632812 74.674375 68.25 76 C68.27578125 76.86625 68.3015625 77.7325 68.328125 78.625 C67.94072585 81.42903194 67.17141522 82.26286782 65 84 C65.63979849 86.03241727 65.63979849 86.03241727 67 88 C69.55519921 88.81171228 69.55519921 88.81171228 72 89 C71.505 90.98 71.505 90.98 71 93 C69.515 92.505 69.515 92.505 68 92 C65.83284443 92.87483915 65.83284443 92.87483915 64 94 C63.7525 93.4121875 63.505 92.824375 63.25 92.21875 C61.81620023 89.6737554 60.26360594 88.33085775 58 86.5 C54.21489933 83.43852152 54.21489933 83.43852152 52.94140625 80.83984375 C52.63074219 80.23269531 52.32007813 79.62554687 52 79 C46.65795936 77.36468144 43.15759696 78.43657846 38.14453125 80.28125 C35.26027333 81.24792296 33.00357246 81.50059541 30 81 C29.01 79.68 28.02 78.36 27 77 C32.94 76.01 32.94 76.01 39 75 C38.04738281 75.13019531 37.09476563 75.26039063 36.11328125 75.39453125 C25.76712329 76.53228963 25.76712329 76.53228963 21.9375 73.875 C21.298125 72.92625 20.65875 71.9775 20 71 C18.35 69.35 16.7 67.7 15 66 C27.375 65.505 27.375 65.505 40 65 C37.81761719 63.70964844 35.63523437 62.41929688 33.38671875 61.08984375 C31.23501445 59.81594218 29.08367752 58.54142235 26.93237305 57.2668457 C25.45586647 56.39250331 23.97898868 55.51878746 22.50170898 54.64575195 C-1.59880286 40.40119714 -1.59880286 40.40119714 -4 38 C-3.4 31.4 -3.4 31.4 -1 29 C-0.04154175 30.04643677 -0.04154175 30.04643677 0.9362793 31.11401367 C4.55186005 34.72136046 8.76498691 37.38365803 13.01953125 40.17578125 C13.87810226 40.74580368 14.73667328 41.31582611 15.6212616 41.90312195 C18.34809289 43.7117252 21.08017873 45.51220414 23.8125 47.3125 C25.66897322 48.54178413 27.52509695 49.77159622 29.38085938 51.00195312 C33.91654447 54.00742664 38.45656386 57.00625855 43 60 C43 59.34 43 58.68 43 58 C42.34644531 57.79246094 41.69289062 57.58492187 41.01953125 57.37109375 C36.8285438 55.46807099 33.37164281 52.79982047 29.6875 50.0625 C23.64617851 45.63133223 17.56700423 41.2807015 11.375 37.0625 C10.06871161 36.16579972 8.76270815 35.26868418 7.45703125 34.37109375 C5.39879433 32.95636954 3.33488875 31.55311355 1.26171875 30.16015625 C-3.70205014 26.69521633 -3.70205014 26.69521633 -5.125 23.375 C-4.98689385 20.75098316 -4.39223226 19.21119241 -3 17 C1.08327438 18.72404918 4.29409533 21.52965951 7.6875 24.3125 C13.35054332 28.90239029 19.07452824 33.39750353 24.875 37.8125 C25.94935303 38.63041016 25.94935303 38.63041016 27.04541016 39.46484375 C28.41249563 40.50534239 29.7796782 41.54571348 31.14697266 42.5859375 C34.7860997 45.36298939 38.39659651 48.17682063 42 51 C38.86466472 47.79226799 35.67859943 44.81487072 32.1875 42 C31.23230469 41.2265625 30.27710938 40.453125 29.29296875 39.65625 C28.77009277 39.23472656 28.2472168 38.81320313 27.70849609 38.37890625 C24.46525901 35.76132937 21.23391327 33.12907996 18 30.5 C16.63154972 29.38797247 15.26306066 28.27599265 13.89453125 27.1640625 C13.23662598 26.62942383 12.5787207 26.09478516 11.90087891 25.54394531 C10.68745681 24.55837103 9.47363066 23.57329386 8.25927734 22.58886719 C6.73413325 21.35241272 5.21075571 20.11378014 3.6875 18.875 C2.84574219 18.19179687 2.00398437 17.50859375 1.13671875 16.8046875 C-2.55006297 13.69080605 -2.55006297 13.69080605 -4 12 C-3.76096832 7.69742971 -1.74989549 3.88020305 0 0 Z " fill="#077B33" transform="translate(5,63)"/>
<path d="M0 0 C0.66 0 1.32 0 2 0 C3.33209492 1.7878116 4.65866237 3.57988799 5.96484375 5.38671875 C8.45916007 8.58959326 11.16708628 11.53591384 13.9375 14.5 C14.4634375 15.06307861 14.989375 15.62615723 15.53125 16.20629883 C16.55865423 17.3059224 17.58615733 18.40545359 18.61376953 19.50488281 C23.57336753 24.8540512 28.25436873 30.46343019 33 36 C33.33 28.74 33.66 21.48 34 14 C31.69 14 29.38 14 27 14 C27.99 11.36 28.98 8.72 30 6 C34.95 6 39.9 6 45 6 C45.04898438 8.46855469 45.09796875 10.93710938 45.1484375 13.48046875 C45.20249886 15.88002408 45.25978602 18.27948231 45.31738281 20.67895508 C45.35558696 22.34229248 45.39045463 24.00571008 45.421875 25.66918945 C45.46771234 28.0649068 45.52567467 30.46007609 45.5859375 32.85546875 C45.59748871 33.5952446 45.60903992 34.33502045 45.62094116 35.09721375 C45.76177376 40.06115231 46.26214869 43.98409248 49.5625 47.8125 C53.2387248 49.60348131 57.02288061 50.01943026 61 49 C64.27615358 46.35896256 65.82917536 44.86044768 66.65942383 40.6784668 C66.67513428 39.44781494 66.69084473 38.21716309 66.70703125 36.94921875 C66.72971321 35.96100883 66.72971321 35.96100883 66.75285339 34.95283508 C66.79558566 32.864038 66.80455265 30.7766898 66.8125 28.6875 C66.83565614 27.26493583 66.86102383 25.84240583 66.88867188 24.41992188 C66.95137616 20.94664196 66.98382784 17.47384387 67 14 C65.35 14 63.7 14 62 14 C62.99 11.36 63.98 8.72 65 6 C71.27 6 77.54 6 84 6 C83.01 8.64 82.02 11.28 81 14 C79.68 14 78.36 14 77 14 C77.02618408 14.92748047 77.05236816 15.85496094 77.0793457 16.81054688 C77.16507016 20.28466615 77.22748759 23.75764586 77.2746582 27.23242188 C77.29965007 28.72999923 77.33365627 30.22745651 77.37719727 31.72460938 C77.83133702 47.75307142 77.83133702 47.75307142 72 54 C67.14737651 58.98377548 61.7980819 59.72921788 55.125 60.375 C50.0262329 60.27343093 45.56797569 58.09677573 41 56 C41 57.65 41 59.3 41 61 C40.49984375 60.33742187 39.9996875 59.67484375 39.484375 58.9921875 C36.28684693 55.14107664 32.79716078 51.65238107 29.25 48.125 C28.57195313 47.44308594 27.89390625 46.76117188 27.1953125 46.05859375 C23.19647214 42.06735575 19.09861188 38.25639047 14.80175781 34.58740234 C12.95483284 32.96020638 11.2227419 31.25744014 9.5 29.5 C5.85099458 25.78357646 1.9577764 22.38209983 -2 19 C-1.25 14.25 -1.25 14.25 1 12 C1.39002197 12.46148437 1.78004395 12.92296875 2.18188477 13.3984375 C7.16954905 19.20769229 12.49860883 24.61487734 17.9375 30 C18.81212891 30.87011719 19.68675781 31.74023438 20.58789062 32.63671875 C22.72297449 34.76013549 24.86037205 36.88116378 27 39 C22.3139357 32.17649578 16.72169284 26.51798838 10.8125 20.75 C9.02509035 18.99708646 7.23984306 17.2419646 5.45703125 15.484375 C4.67303955 14.71834961 3.88904785 13.95232422 3.08129883 13.16308594 C-0.59969554 9.33744253 -0.59969554 9.33744253 -2 7 C-1.1875 3.25 -1.1875 3.25 0 0 Z " fill="#057A32" transform="translate(31,65)"/>
<path d="M0 0 C4.92473565 0.04665923 7.46636991 0.68466102 11.1328125 4 C12.55411649 5.49098865 13.94342097 7.0130726 15.30078125 8.5625 C15.99880859 9.30628906 16.69683594 10.05007812 17.41601562 10.81640625 C21.30571964 14.99302587 25.03966338 19.3100882 28.7565918 23.640625 C30.91102259 26.03166958 33.21246642 28.28668517 35.48828125 30.5625 C35.81828125 23.3025 36.14828125 16.0425 36.48828125 8.5625 C34.50828125 8.5625 32.52828125 8.5625 30.48828125 8.5625 C31.47828125 5.9225 32.46828125 3.2825 33.48828125 0.5625 C39.75828125 0.5625 46.02828125 0.5625 52.48828125 0.5625 C51.82828125 2.8725 51.16828125 5.1825 50.48828125 7.5625 C48.83828125 7.8925 47.18828125 8.2225 45.48828125 8.5625 C45.48828125 23.4125 45.48828125 38.2625 45.48828125 53.5625 C39.48828125 53.5625 39.48828125 53.5625 37.54125977 52.3125 C36.71259399 51.44625 36.71259399 51.44625 35.8671875 50.5625 C35.24529541 49.92642822 34.62340332 49.29035645 33.98266602 48.63500977 C33.34514404 47.95108154 32.70762207 47.26715332 32.05078125 46.5625 C31.05292603 45.52790649 31.05292603 45.52790649 30.03491211 44.47241211 C25.70736493 39.95742841 21.56488594 35.3046728 17.48828125 30.5625 C14.84828125 27.9225 12.20828125 25.2825 9.48828125 22.5625 C9.15828125 30.1525 8.82828125 37.7425 8.48828125 45.5625 C10.13828125 45.5625 11.78828125 45.5625 13.48828125 45.5625 C11.61328125 52.4375 11.61328125 52.4375 10.48828125 53.5625 C9.14560712 53.64881874 7.79853803 53.66956473 6.453125 53.66015625 C5.64423828 53.65693359 4.83535156 53.65371094 4.00195312 53.65039062 C3.15181641 53.64201172 2.30167969 53.63363281 1.42578125 53.625 C0.57177734 53.62048828 -0.28222656 53.61597656 -1.16210938 53.61132812 C-3.27867538 53.59950373 -5.3952056 53.58156769 -7.51171875 53.5625 C-6.98903409 50.79973823 -6.40302288 48.2364124 -5.51171875 45.5625 C-4.19171875 45.5625 -2.87171875 45.5625 -1.51171875 45.5625 C-1.51171875 33.3525 -1.51171875 21.1425 -1.51171875 8.5625 C-3.82171875 8.5625 -6.13171875 8.5625 -8.51171875 8.5625 C-6.27792898 0.37193749 -6.27792898 0.37193749 0 0 Z " fill="#037931" transform="translate(123.51171875,70.4375)"/>
<path d="M0 0 C1.6874269 0.00015917 3.37485866 0.00585622 5.06225586 0.01586914 C6.39189613 0.01799156 6.39189613 0.01799156 7.74839783 0.02015686 C10.59133215 0.02577324 13.43418892 0.03832848 16.27709961 0.05102539 C18.19962452 0.05603828 20.12215065 0.06060155 22.04467773 0.06469727 C26.7680151 0.07574798 31.49129419 0.09302356 36.21459961 0.11352539 C35.73803548 1.90588606 35.25826463 3.69739436 34.77709961 5.48852539 C34.51026367 6.48625977 34.24342773 7.48399414 33.96850586 8.51196289 C33.21459961 11.11352539 33.21459961 11.11352539 32.21459961 13.11352539 C30.56459961 13.11352539 28.91459961 13.11352539 27.21459961 13.11352539 C27.21459961 11.46352539 27.21459961 9.81352539 27.21459961 8.11352539 C24.24459961 8.11352539 21.27459961 8.11352539 18.21459961 8.11352539 C18.21459961 20.32352539 18.21459961 32.53352539 18.21459961 45.11352539 C20.19459961 45.11352539 22.17459961 45.11352539 24.21459961 45.11352539 C23.22459961 47.75352539 22.23459961 50.39352539 21.21459961 53.11352539 C14.61459961 53.11352539 8.01459961 53.11352539 1.21459961 53.11352539 C2.21459961 47.11352539 2.21459961 47.11352539 3.21459961 45.11352539 C4.86459961 45.11352539 6.51459961 45.11352539 8.21459961 45.11352539 C8.21459961 32.90352539 8.21459961 20.69352539 8.21459961 8.11352539 C5.57459961 8.11352539 2.93459961 8.11352539 0.21459961 8.11352539 C-0.44540039 9.76352539 -1.10540039 11.41352539 -1.78540039 13.11352539 C-4.09540039 13.11352539 -6.40540039 13.11352539 -8.78540039 13.11352539 C-8.14320538 11.13317518 -7.49654395 9.15427283 -6.84790039 7.17602539 C-6.48825195 6.07387695 -6.12860352 4.97172852 -5.75805664 3.83618164 C-4.43511604 0.13301057 -4.43511604 0.13301057 0 0 Z " fill="#01782E" transform="translate(182.785400390625,70.886474609375)"/>
<path d="M0 0 C4.95 0 9.9 0 15 0 C15.33 1.65 15.66 3.3 16 5 C15.34 5 14.68 5 14 5 C13.67 5.66 13.34 6.32 13 7 C12.34 6.67 11.68 6.34 11 6 C11 7.32 11 8.64 11 10 C8.24921116 10.91692961 6.64051087 11.10886083 3.8125 11.0625 C1.9253125 11.0315625 1.9253125 11.0315625 0 11 C0 7.37 0 3.74 0 0 Z " fill="#A7CBB1" transform="translate(139,138)"/>
<path d="M0 0 C1.010625 0.763125 2.02125 1.52625 3.0625 2.3125 C17.25928903 12.94137895 31.57146735 23.4339263 46.59375 32.87890625 C47.0578125 33.24886719 47.521875 33.61882812 48 34 C48 34.66 48 35.32 48 36 C42.94542555 34.33142672 38.87446101 31.38659384 34.5234375 28.40625 C33.7163736 27.85892212 32.90930969 27.31159424 32.07778931 26.74768066 C29.50714635 25.00288828 26.94102532 23.25157447 24.375 21.5 C22.64092244 20.32117692 20.90655057 19.14278665 19.171875 17.96484375 C15.3557599 15.37263309 11.54251802 12.77625736 7.73178101 10.17614746 C6.16030164 9.10886964 4.58059541 8.05373028 3 7 C2.87625 8.134375 2.7525 9.26875 2.625 10.4375 C2.41875 11.613125 2.2125 12.78875 2 14 C1.01 14.495 1.01 14.495 0 15 C0 10.05 0 5.1 0 0 Z " fill="#E4EEE7" transform="translate(0,87)"/>
<path d="M0 0 C4.75411219 2.4490881 8.72692981 5.77459583 12 10 C12.4375 12.9375 12.4375 12.9375 12 15 C12.99 15.33 13.98 15.66 15 16 C14.34 17.32 13.68 18.64 13 20 C12.34 20 11.68 20 11 20 C10.67 19.34 10.34 18.68 10 18 C7.88153715 17.31270746 7.88153715 17.31270746 5.4375 16.875 C4.61121094 16.70742187 3.78492187 16.53984375 2.93359375 16.3671875 C2.29550781 16.24601562 1.65742187 16.12484375 1 16 C1.020625 14.845 1.04125 13.69 1.0625 12.5 C1.07007769 8.25649453 0.59974765 4.19823356 0 0 Z " fill="#18813D" transform="translate(73,129)"/>
<path d="M0 0 C4.46512706 0.87092201 7.07322457 3.40743649 10.375 6.375 C15.1101142 10.53388665 19.89436111 14.57550346 24.875 18.4375 C32.68410032 24.50165641 40.34317591 30.74526967 48 37 C47.505 37.99 47.505 37.99 47 39 C46.1028125 38.27296875 45.205625 37.5459375 44.28125 36.796875 C36.87139843 30.81778745 29.37624922 24.9898216 21.73168945 19.31396484 C16.74284761 15.59558106 11.91089892 11.73407475 7.13671875 7.7421875 C4.91658577 5.8751405 4.91658577 5.8751405 2 4 C1.34 5.32 0.68 6.64 0 8 C0 5.36 0 2.72 0 0 Z " fill="#E5EEE8" transform="translate(0,76)"/>
<path d="M0 0 C8.27027027 -0.48648649 8.27027027 -0.48648649 11.4375 1.625 C13.21707818 4.32995883 14.15033127 6.88454799 15 10 C15.66 10 16.32 10 17 10 C17.33 9.34 17.66 8.68 18 8 C18 8.99 18 9.98 18 11 C14 11 14 11 12.25 9.5 C11.8375 9.005 11.425 8.51 11 8 C10.01 9.485 10.01 9.485 9 11 C5.96133201 11.41137202 3.07840297 11.13193156 0 11 C0 7.37 0 3.74 0 0 Z " fill="#95BF9D" transform="translate(174,152)"/>
<path d="M0 0 C2.83203125 0.03255208 5.6640625 0.06510417 8.49609375 0.09765625 C8.49609375 3.72765625 8.49609375 7.35765625 8.49609375 11.09765625 C7.17609375 11.09765625 5.85609375 11.09765625 4.49609375 11.09765625 C4.49609375 10.43765625 4.49609375 9.77765625 4.49609375 9.09765625 C3.50609375 9.75765625 2.51609375 10.41765625 1.49609375 11.09765625 C-1.69140625 10.72265625 -1.69140625 10.72265625 -4.50390625 10.09765625 C-4.17390625 9.43765625 -3.84390625 8.77765625 -3.50390625 8.09765625 C-1.85390625 8.42765625 -0.20390625 8.75765625 1.49609375 9.09765625 C1.49609375 8.10765625 1.49609375 7.11765625 1.49609375 6.09765625 C-0.15390625 5.76765625 -1.80390625 5.43765625 -3.50390625 5.09765625 C-3.50390625 0.13665781 -3.50390625 0.13665781 0 0 Z " fill="#87B792" transform="translate(161.50390625,137.90234375)"/>
<path d="M0 0 C1.33078101 6.41194487 1.33078101 6.41194487 -0.125 9 C-2 10 -2 10 -4.5625 9.8125 C-7 9 -7 9 -9 7 C-9.3633156 4.16613833 -9.3568671 2.59477849 -7.875 0.125 C-5.07848948 -1.55290631 -3.06309468 -0.74875648 0 0 Z " fill="#9CC3A3" transform="translate(94,153)"/>
<path d="M0 0 C5.56818182 0.56818182 5.56818182 0.56818182 7 2 C7.1875 5.4375 7.1875 5.4375 7 9 C5 11 5 11 2.5 11.25 C0 11 0 11 -2 9 C-2.25 5.5 -2.25 5.5 -2 2 C-1.34 1.34 -0.68 0.68 0 0 Z " fill="#9AC4A3" transform="translate(122,152)"/>
<path d="M0 0 C4.90936865 4.1193553 9.54703934 8.39203628 14.0625 12.9375 C14.64837891 13.51951172 15.23425781 14.10152344 15.83789062 14.70117188 C19.7688051 18.64081202 23.4226609 22.73659587 27 27 C26.67 27.66 26.34 28.32 26 29 C22.28765288 25.36170236 18.58518588 21.71374077 14.89160156 18.05639648 C13.63321627 16.81311571 12.37215409 15.57253838 11.10839844 14.3347168 C9.2943527 12.55698045 7.49009542 10.76980517 5.6875 8.98046875 C5.11878174 8.42723434 4.55006348 7.87399994 3.96411133 7.30400085 C2.58462855 5.92511857 1.28448836 4.46778022 0 3 C0 2.01 0 1.02 0 0 Z " fill="#DBE8DF" transform="translate(32,76)"/>
<path d="M0 0 C5.33333333 4 10.66666667 8 16 12 C15.67 12.99 15.34 13.98 15 15 C14.30132812 14.50628906 13.60265625 14.01257813 12.8828125 13.50390625 C11.97273437 12.86324219 11.06265625 12.22257812 10.125 11.5625 C9.22007813 10.92441406 8.31515625 10.28632812 7.3828125 9.62890625 C5.12261419 8.00481862 5.12261419 8.00481862 3 7 C2.87625 8.134375 2.7525 9.26875 2.625 10.4375 C2.41875 11.613125 2.2125 12.78875 2 14 C1.01 14.495 1.01 14.495 0 15 C0 10.05 0 5.1 0 0 Z " fill="#EBF2ED" transform="translate(0,87)"/>
<path d="M0 0 C0.66 0 1.32 0 2 0 C2 1.32 2 2.64 2 4 C3.65 4 5.3 4 7 4 C7 2.68 7 1.36 7 0 C7.66 0 8.32 0 9 0 C9 3.63 9 7.26 9 11 C8.34 11 7.68 11 7 11 C7 9.35 7 7.7 7 6 C5.35 6 3.7 6 2 6 C2 7.65 2 9.3 2 11 C1.34 11 0.68 11 0 11 C0 7.37 0 3.74 0 0 Z " fill="#5F9F71" transform="translate(149,152)"/>
<path d="M0 0 C1.98 0 3.96 0 6 0 C6.33 1.65 6.66 3.3 7 5 C6.34 5 5.68 5 5 5 C4.67 5.66 4.34 6.32 4 7 C3.34 6.67 2.68 6.34 2 6 C2 7.32 2 8.64 2 10 C1.34 10 0.68 10 0 10 C0 6.7 0 3.4 0 0 Z " fill="#20803A" transform="translate(148,138)"/>
<path d="M0 0 C0 0.99 0 1.98 0 3 C-1.65 3 -3.3 3 -5 3 C-5.33 3.66 -5.66 4.32 -6 5 C-7.32 4.34 -8.64 3.68 -10 3 C-9.625 1.0625 -9.625 1.0625 -9 -1 C-5.79937313 -2.60031344 -3.27728194 -1.03173691 0 0 Z " fill="#D7E7DA" transform="translate(163,144)"/>
<path d="M0 0 C0.66 0 1.32 0 2 0 C2.53229326 1.26607607 3.05044544 2.53810412 3.5625 3.8125 C3.85253906 4.52019531 4.14257812 5.22789062 4.44140625 5.95703125 C5 8 5 8 4 11 C3.67 10.34 3.34 9.68 3 9 C0.47266765 8.34444881 0.47266765 8.34444881 -2 8 C-1.125 2.25 -1.125 2.25 0 0 Z " fill="#579C67" transform="translate(194,152)"/>
<path d="M0 0 C2.97 0 5.94 0 9 0 C9 0.66 9 1.32 9 2 C8.01 2 7.02 2 6 2 C6 4.97 6 7.94 6 11 C5.34 11 4.68 11 4 11 C4 8.03 4 5.06 4 2 C2.68 2 1.36 2 0 2 C0 1.34 0 0.68 0 0 Z " fill="#69A272" transform="translate(139,152)"/>
<path d="M0 0 C1.9375 0.75 1.9375 0.75 4 2 C5.05905757 5.12068964 5.34849172 8.35819291 5.6875 11.625 C5.79449219 12.58664063 5.90148437 13.54828125 6.01171875 14.5390625 C6 17 6 17 4 19 C3.87882812 18.13117188 3.75765625 17.26234375 3.6328125 16.3671875 C3.46523437 15.21476563 3.29765625 14.06234375 3.125 12.875 C2.96257812 11.73804688 2.80015625 10.60109375 2.6328125 9.4296875 C2.02568583 6.13921085 1.13654367 3.14220897 0 0 Z " fill="#B3CFBB" transform="translate(69,125)"/>
<path d="M0 0 C0.33 1.32 0.66 2.64 1 4 C3.86724686 3.42655063 4.8614515 3.1385485 7 1 C6.79375 1.7425 6.5875 2.485 6.375 3.25 C5.95591249 6.32330841 6.38050989 7.42786866 8 10 C6.02 8.68 4.04 7.36 2 6 C2 7.32 2 8.64 2 10 C1.34 10 0.68 10 0 10 C0 6.7 0 3.4 0 0 Z " fill="#348B4E" transform="translate(131,153)"/>
<path d="M0 0 C2.64 0 5.28 0 8 0 C8 0.66 8 1.32 8 2 C7.01 2 6.02 2 5 2 C5 4.97 5 7.94 5 11 C4.34 11 3.68 11 3 11 C3 8.03 3 5.06 3 2 C2.01 2 1.02 2 0 2 C0 1.34 0 0.68 0 0 Z " fill="#629F75" transform="translate(164,152)"/>
<path d="M0 0 C0.66 0 1.32 0 2 0 C2 3.63 2 7.26 2 11 C1.34 11 0.68 11 0 11 C-3.22265625 5.7265625 -3.22265625 5.7265625 -4 4 C-3.67 3.34 -3.34 2.68 -3 2 C-2.01 3.485 -2.01 3.485 -1 5 C-0.67 3.35 -0.34 1.7 0 0 Z " fill="#4E955F" transform="translate(116,152)"/>
<path d="M0 0 C1.43655854 -0.08131463 2.8744483 -0.13933559 4.3125 -0.1875 C5.51326172 -0.23970703 5.51326172 -0.23970703 6.73828125 -0.29296875 C9.47851584 0.06198392 10.29171079 0.89366282 12 3 C8.99011728 3.58052245 6.07110598 4.05989746 3 4 C0.9375 2.0625 0.9375 2.0625 0 0 Z " fill="#047424" transform="translate(27,135)"/>
<path d="M0 0 C3.57294032 1.32002058 6.63953492 2.89521388 9.8125 5 C10.60269531 5.515625 11.39289062 6.03125 12.20703125 6.5625 C12.79871094 7.036875 13.39039063 7.51125 14 8 C14 8.66 14 9.32 14 10 C10.42705968 8.67997942 7.36046508 7.10478612 4.1875 5 C3.39730469 4.484375 2.60710938 3.96875 1.79296875 3.4375 C1.20128906 2.963125 0.60960937 2.48875 0 2 C0 1.34 0 0.68 0 0 Z " fill="#DCE8E0" transform="translate(34,113)"/>
<path d="M0 0 C1.67542976 0.28604898 3.34385343 0.61781233 5 1 C4.67 2.32 4.34 3.64 4 5 C2.68 5 1.36 5 0 5 C-0.5625 3.0625 -0.5625 3.0625 -1 1 C-0.67 0.67 -0.34 0.34 0 0 Z " fill="#A9C8B2" transform="translate(215,84)"/>
<path d="M0 0 C2.31 0.33 4.62 0.66 7 1 C6.34 2.32 5.68 3.64 5 5 C3.68 5 2.36 5 1 5 C0.67 3.35 0.34 1.7 0 0 Z " fill="#AAC9B2" transform="translate(131,152)"/>
<path d="M0 0 C1.12894876 0.93274109 2.25300876 1.87140122 3.375 2.8125 C4.00148438 3.33457031 4.62796875 3.85664062 5.2734375 4.39453125 C7 6 7 6 9 9 C6 9 6 9 4.39453125 7.79296875 C3.87246094 7.26316406 3.35039063 6.73335938 2.8125 6.1875 C2.01779297 5.40439453 2.01779297 5.40439453 1.20703125 4.60546875 C0 3 0 3 0 0 Z " fill="#E7EFE9" transform="translate(32,76)"/>
<path d="M0 0 C0.99 0 1.98 0 3 0 C2.67 3.63 2.34 7.26 2 11 C1.34 11 0.68 11 0 11 C0 7.37 0 3.74 0 0 Z " fill="#72A976" transform="translate(109,152)"/>
<path d="M0 0 C2.475 0.495 2.475 0.495 5 1 C4.67 1.99 4.34 2.98 4 4 C2.68 4 1.36 4 0 4 C0 2.68 0 1.36 0 0 Z " fill="#D4E3D9" transform="translate(149,139)"/>
<path d="M0 0 C0.99 0 1.98 0 3 0 C2.25 5.75 2.25 5.75 0 8 C0 5.36 0 2.72 0 0 Z " fill="#EFF5F1" transform="translate(0,76)"/>
</svg>
