<svg version="1.1" id="Layer_1" xmlns="http://www.w3.org/2000/svg" xmlns:xlink="http://www.w3.org/1999/xlink" x="0px" y="0px"
	 width="100%" viewBox="0 0 200 200" enable-background="new 0 0 200 200" xml:space="preserve">
<path fill="#000000" opacity="1.000000" stroke="none" 
	d="
M111.000000,201.000000 
	C74.022827,201.000000 37.545647,201.000000 1.034236,201.000000 
	C1.034236,134.397858 1.034236,67.795700 1.034236,1.096767 
	C67.560341,1.096767 134.120865,1.096767 200.840698,1.096767 
	C200.840698,67.666367 200.840698,134.333145 200.840698,201.000000 
	C171.129318,201.000000 141.314651,201.000000 111.000000,201.000000 
M97.500000,194.999146 
	C114.620384,194.683990 131.847397,195.450760 148.833847,193.776657 
	C169.530548,191.736908 182.782684,179.041214 190.207047,159.811203 
	C193.941177,150.139313 192.977005,140.176468 192.904449,130.276245 
	C192.862579,124.561462 193.502319,119.365913 198.296906,115.026527 
	C192.577805,109.611938 192.759079,102.785751 192.988373,95.931908 
	C193.066345,93.601181 192.968872,91.265152 193.005524,88.932396 
	C193.394287,64.193016 175.285202,42.343307 150.706406,38.088459 
	C147.226120,37.485977 146.061096,36.143311 145.913452,32.635448 
	C145.546417,23.914732 146.656204,15.548292 151.045959,7.504128 
	C137.323227,7.504128 124.337906,7.504128 110.227196,7.504128 
	C115.707718,15.601929 114.989258,23.928911 115.072906,32.197289 
	C115.110283,35.892212 113.972000,37.124889 110.230904,37.067532 
	C97.733879,36.875912 85.232018,36.986561 72.732079,37.013168 
	C70.990723,37.016872 69.249741,37.198513 66.040070,37.381512 
	C74.737373,45.540344 74.142731,55.071861 74.024994,64.541695 
	C73.906898,74.040222 73.893021,83.542915 74.031532,93.040886 
	C74.148956,101.092705 74.659882,109.174088 66.945175,114.548683 
	C73.165001,120.221825 76.036850,128.078674 72.687347,134.723526 
	C65.418335,129.390961 62.122532,122.023346 62.059948,113.341805 
	C61.890549,89.843033 61.898373,66.341621 62.042755,42.842518 
	C62.115475,31.006718 60.116238,18.857288 67.351143,7.407258 
	C53.416252,7.407258 40.431820,7.407258 28.533722,7.407258 
	C29.377403,15.302041 30.674179,22.860842 30.888769,30.450239 
	C31.270174,43.939449 30.801607,57.451199 31.079294,70.945480 
	C31.214411,77.511551 29.516367,82.945107 24.210569,86.929077 
	C30.994896,96.368301 30.832411,96.371353 31.068634,108.950882 
	C31.176880,114.715172 31.359823,120.639336 32.729836,126.189629 
	C37.631596,146.047989 50.189404,158.704697 69.970329,164.238815 
	C71.503387,164.667709 73.805511,166.570282 73.761467,167.711136 
	C73.520973,173.940033 73.036697,180.219147 71.839783,186.324860 
	C71.289452,189.132248 68.922325,191.583496 66.904778,194.999115 
	C77.282791,194.999115 86.891396,194.999115 97.500000,194.999146 
z"/>
<path fill="#1A4279" opacity="1.000000" stroke="none" 
	d="
M97.000000,194.999130 
	C86.891396,194.999115 77.282791,194.999115 66.904778,194.999115 
	C68.922325,191.583496 71.289452,189.132248 71.839783,186.324860 
	C73.036697,180.219147 73.520973,173.940033 73.761467,167.711136 
	C73.805511,166.570282 71.503387,164.667709 69.970329,164.238815 
	C50.189404,158.704697 37.631596,146.047989 32.729836,126.189629 
	C31.359823,120.639336 31.176880,114.715172 31.068634,108.950882 
	C30.832411,96.371353 30.994896,96.368301 24.210569,86.929077 
	C29.516367,82.945107 31.214411,77.511551 31.079294,70.945480 
	C30.801607,57.451199 31.270174,43.939449 30.888769,30.450239 
	C30.674179,22.860842 29.377403,15.302041 28.533722,7.407258 
	C40.431820,7.407258 53.416252,7.407258 67.351143,7.407258 
	C60.116238,18.857288 62.115475,31.006718 62.042755,42.842518 
	C61.898373,66.341621 61.890549,89.843033 62.059948,113.341805 
	C62.122532,122.023346 65.418335,129.390961 72.687347,134.723526 
	C76.036850,128.078674 73.165001,120.221825 66.945175,114.548683 
	C74.659882,109.174088 74.148956,101.092705 74.031532,93.040886 
	C73.893021,83.542915 73.906898,74.040222 74.024994,64.541695 
	C74.142731,55.071861 74.737373,45.540344 66.040070,37.381512 
	C69.249741,37.198513 70.990723,37.016872 72.732079,37.013168 
	C85.232018,36.986561 97.733879,36.875912 110.230904,37.067532 
	C113.972000,37.124889 115.110283,35.892212 115.072906,32.197289 
	C114.989258,23.928911 115.707718,15.601929 110.227196,7.504128 
	C124.337906,7.504128 137.323227,7.504128 151.045959,7.504128 
	C146.656204,15.548292 145.546417,23.914732 145.913452,32.635448 
	C146.061096,36.143311 147.226120,37.485977 150.706406,38.088459 
	C175.285202,42.343307 193.394287,64.193016 193.005524,88.932396 
	C192.968872,91.265152 193.066345,93.601181 192.988373,95.931908 
	C192.759079,102.785751 192.577805,109.611938 198.296906,115.026527 
	C193.502319,119.365913 192.862579,124.561462 192.904449,130.276245 
	C192.977005,140.176468 193.941177,150.139313 190.207047,159.811203 
	C182.782684,179.041214 169.530548,191.736908 148.833847,193.776657 
	C131.847397,195.450760 114.620384,194.683990 97.000000,194.999130 
M145.064835,125.392548 
	C140.304367,143.998764 129.694153,157.276108 110.862343,163.187668 
	C109.042755,163.758865 107.465218,165.101089 105.775322,166.085388 
	C106.001160,166.635757 106.226997,167.186142 106.452835,167.736511 
	C108.213974,167.823746 109.974884,167.980637 111.736290,167.986343 
	C120.056000,168.013275 128.389847,167.689667 136.692612,168.065887 
	C152.174789,168.767410 164.375610,156.581985 164.071213,140.856262 
	C163.749252,124.222908 164.115005,107.577057 163.909622,90.940002 
	C163.863647,87.217224 163.280457,83.273567 161.913788,79.842163 
	C159.107071,72.795158 154.454987,67.311440 146.000076,65.286766 
	C146.000076,67.810524 146.000107,69.791283 146.000061,71.772049 
	C145.999680,87.413261 146.026047,103.054581 145.964966,118.695557 
	C145.957367,120.645271 145.486588,122.593178 145.064835,125.392548 
M114.995903,74.541855 
	C114.994667,72.712761 114.874657,70.874290 115.018036,69.056602 
	C115.279877,65.737198 114.632034,63.862701 110.525047,63.873306 
	C106.493767,63.883713 105.932785,65.613228 105.951393,69.002464 
	C106.059982,88.789261 105.995308,108.576973 106.023026,128.364319 
	C106.024979,129.755661 106.299446,131.146606 106.482620,132.871262 
	C112.212280,128.154404 114.970650,122.737984 114.985138,116.436188 
	C115.016487,102.801247 114.995499,89.166183 114.995903,74.541855 
z"/>
<path fill="#000000" opacity="1.000000" stroke="none" 
	d="
M145.147629,124.967239 
	C145.486588,122.593178 145.957367,120.645271 145.964966,118.695557 
	C146.026047,103.054581 145.999680,87.413261 146.000061,71.772049 
	C146.000107,69.791283 146.000076,67.810524 146.000076,65.286766 
	C154.454987,67.311440 159.107071,72.795158 161.913788,79.842163 
	C163.280457,83.273567 163.863647,87.217224 163.909622,90.940002 
	C164.115005,107.577057 163.749252,124.222908 164.071213,140.856262 
	C164.375610,156.581985 152.174789,168.767410 136.692612,168.065887 
	C128.389847,167.689667 120.056000,168.013275 111.736290,167.986343 
	C109.974884,167.980637 108.213974,167.823746 106.452835,167.736511 
	C106.226997,167.186142 106.001160,166.635757 105.775322,166.085388 
	C107.465218,165.101089 109.042755,163.758865 110.862343,163.187668 
	C129.694153,157.276108 140.304367,143.998764 145.147629,124.967239 
z"/>
<path fill="#000000" opacity="1.000000" stroke="none" 
	d="
M114.995911,75.036514 
	C114.995499,89.166183 115.016487,102.801247 114.985138,116.436188 
	C114.970650,122.737984 112.212280,128.154404 106.482620,132.871262 
	C106.299446,131.146606 106.024979,129.755661 106.023026,128.364319 
	C105.995308,108.576973 106.059982,88.789261 105.951393,69.002464 
	C105.932785,65.613228 106.493767,63.883713 110.525047,63.873306 
	C114.632034,63.862701 115.279877,65.737198 115.018036,69.056602 
	C114.874657,70.874290 114.994667,72.712761 114.995911,75.036514 
z"/>
</svg>