<svg version="1.1" id="Layer_1" xmlns="http://www.w3.org/2000/svg" xmlns:xlink="http://www.w3.org/1999/xlink" x="0px" y="0px"
	 width="100%" viewBox="0 0 800 544" enable-background="new 0 0 800 544" xml:space="preserve">
<path fill="#000000" opacity="1.000000" stroke="none" 
	d="
M395.000000,545.000000 
	C371.645782,545.000000 348.291534,545.000000 324.308289,544.629944 
	C324.014404,543.905334 324.292267,543.332703 324.692871,543.227478 
	C346.073425,537.610962 357.895477,518.933777 357.978790,498.983551 
	C358.071350,476.825714 357.999969,454.667175 357.999939,432.508942 
	C357.999939,430.760559 357.999939,429.012177 357.999939,427.321045 
	C348.269653,427.321045 339.349518,427.321045 330.000031,427.321045 
	C330.000031,429.428589 330.000031,431.229797 330.000031,433.031036 
	C329.999847,455.022675 330.219879,477.017456 329.902283,499.004517 
	C329.753784,509.283447 324.794556,517.364380 315.752594,520.566223 
	C306.840332,523.722107 296.737579,522.647278 290.909760,514.013977 
	C287.696838,509.254425 285.431763,502.914032 285.259796,497.210297 
	C284.612396,475.738007 285.000000,454.234497 284.999969,432.742676 
	C284.999969,430.971497 284.999969,429.200317 284.999969,427.415100 
	C275.314941,427.415100 266.276398,427.415100 257.000000,427.415100 
	C257.000000,450.310791 256.952972,472.792328 257.044342,495.273346 
	C257.060364,499.209991 257.370300,503.193542 258.035400,507.071228 
	C261.194855,525.492249 271.795227,537.476135 289.626984,543.115173 
	C290.223724,543.303833 290.548462,544.352295 291.000000,545.000000 
	C260.645782,545.000000 230.291550,545.000000 199.314484,544.623901 
	C199.519852,543.830383 200.309647,543.293213 201.182007,543.013367 
	C217.808395,537.679993 230.449768,527.861938 237.328094,511.354797 
	C241.833359,500.542725 243.581512,489.519745 242.100906,477.760498 
	C239.637741,458.197449 230.703644,443.009521 213.439468,433.216278 
	C201.858078,426.646606 189.244431,425.049286 176.036942,425.918335 
	C156.995926,427.171234 141.681824,434.804260 130.725525,450.637207 
	C122.800247,462.089996 120.720703,474.891724 120.869827,488.612976 
	C121.143105,513.758728 137.385880,536.048523 162.128983,543.068909 
	C162.875229,543.280640 163.381714,544.337280 164.000000,545.000000 
	C144.312439,545.000000 124.624878,545.000000 104.331299,544.547058 
	C103.816086,543.103271 103.985901,542.112427 103.986267,541.121582 
	C103.999954,504.311859 104.001114,467.502106 103.982872,430.692383 
	C103.982323,429.583771 103.756477,428.475250 103.642616,427.430359 
	C94.280144,427.430359 85.242531,427.430359 75.768623,427.430359 
	C75.768623,443.442780 75.768623,459.028473 75.768623,474.571350 
	C60.281197,474.571350 45.248436,474.571350 30.000000,474.571350 
	C30.000000,466.321747 30.000000,458.499664 30.000000,450.677582 
	C30.000000,442.912689 30.000000,435.147797 30.000000,427.000000 
	C19.884422,427.000000 10.442211,427.000000 1.000000,427.000000 
	C1.000000,410.645782 1.000000,394.291534 1.377895,377.411804 
	C2.019681,377.075226 2.454939,377.216370 2.522987,377.460022 
	C6.915455,393.187775 17.743006,397.806519 30.635155,398.835571 
	C46.072834,400.067841 59.416397,387.384125 59.900501,370.997162 
	C60.327789,356.533478 59.983788,342.046722 59.938820,327.570282 
	C59.936447,326.806213 59.546791,326.043335 59.375393,325.418335 
	C55.869148,325.418335 52.637512,325.418335 48.999043,325.418335 
	C48.999043,340.783905 49.045082,355.735291 48.982765,370.686249 
	C48.941593,380.564087 41.782372,388.345306 32.323875,388.989136 
	C22.503674,389.657532 13.911018,383.455200 13.178589,373.631470 
	C12.156582,359.923767 12.327674,346.126770 12.007433,332.367493 
	C11.954572,330.096313 11.999992,327.822784 11.999992,325.000000 
	C7.888445,325.000000 4.444222,325.000000 1.000000,325.000000 
	C1.000000,217.000000 1.000000,109.000000 1.000000,1.000000 
	C267.666656,1.000000 534.333313,1.000000 801.000000,1.000000 
	C801.000000,180.833328 801.002441,360.666656 800.958679,540.500000 
	C800.958313,542.000061 800.333374,543.500000 799.362671,544.547058 
	C798.816467,542.936096 798.986877,541.778137 798.987305,540.620117 
	C799.001343,504.124939 799.002747,467.629730 798.982910,431.134552 
	C798.982239,429.864471 798.745361,428.594543 798.614136,427.279724 
	C790.357605,427.279724 782.437195,427.279724 774.459595,427.279724 
	C774.459595,451.150360 774.459595,474.742035 774.459595,498.904694 
	C767.119019,489.719879 760.030212,480.931763 753.030823,472.073029 
	C742.540344,458.795959 732.177551,445.417267 721.591675,432.217133 
	C719.911987,430.122559 717.483948,427.518494 715.166199,427.259613 
	C708.973938,426.567902 702.653442,427.024109 696.000000,427.024109 
	C696.000000,466.783417 696.000000,505.891724 696.000000,545.000000 
	C676.645752,545.000000 657.291565,545.000000 637.314453,544.623901 
	C637.519958,543.830322 638.311890,543.304932 639.182190,543.012085 
	C650.106506,539.336243 659.751648,533.919067 667.162231,524.680786 
	C677.186584,512.184265 680.785828,498.076233 680.083862,482.286285 
	C679.070068,459.481659 669.181763,442.470886 648.746521,431.964600 
	C637.665161,426.267426 625.798035,425.233521 613.487610,425.897888 
	C599.059631,426.676544 586.358276,431.618500 576.179871,441.534668 
	C560.526489,456.784790 555.512756,476.115784 559.321289,497.142365 
	C563.556946,520.526855 577.263977,536.381653 600.616089,543.117859 
	C601.208984,543.288940 601.544495,544.352600 602.000000,545.000000 
	C575.645752,545.000000 549.291565,545.000000 522.331299,544.547058 
	C521.816895,542.105103 521.986877,540.116089 521.988159,538.127014 
	C522.005615,510.327637 522.000000,482.528290 522.000000,454.728912 
	C522.000000,452.960144 522.000000,451.191406 522.000000,448.807861 
	C533.343506,448.807861 544.054016,448.807861 554.679871,448.807861 
	C554.679871,441.263153 554.679871,434.346649 554.679871,427.377808 
	C523.346008,427.377808 492.333771,427.377808 461.289978,427.377808 
	C461.289978,434.674469 461.289978,441.589539 461.289978,449.124084 
	C472.275085,449.124084 482.981232,449.124084 494.000000,449.124084 
	C494.000000,465.539001 494.000000,481.331940 494.000000,497.124908 
	C494.000000,513.083252 494.000000,529.041626 494.000000,545.000000 
	C471.645782,545.000000 449.291534,545.000000 426.296326,544.639282 
	C426.474152,543.826233 427.253235,543.271179 428.117737,542.937195 
	C439.648987,538.482178 447.541626,530.899414 451.241638,518.665222 
	C456.504639,501.262909 450.606232,482.642059 431.408539,476.634216 
	C423.145935,474.048492 415.009186,470.926086 407.084381,467.436371 
	C400.198761,464.404175 398.630157,457.395447 403.808441,452.076691 
	C406.051727,449.772583 410.080078,448.662292 413.472809,448.133057 
	C420.863892,446.980072 427.182159,450.590057 433.533905,453.772308 
	C439.282013,456.652191 442.721985,455.431000 445.678162,449.705170 
	C446.960724,447.220886 447.817841,444.426361 449.495178,442.257721 
	C452.020416,438.992798 451.129272,437.036377 448.065094,434.987701 
	C436.719666,427.402344 424.265808,425.598724 410.769592,425.759308 
	C392.921356,425.971619 373.569153,441.113770 374.741150,462.791809 
	C375.442261,475.759674 382.116302,487.539673 395.477386,492.005707 
	C403.214661,494.591980 411.019897,497.018799 418.609406,499.990265 
	C425.266937,502.596924 427.075256,506.418915 426.001434,513.434814 
	C425.178589,518.810730 421.227325,522.866882 415.052399,522.795471 
	C409.779846,522.734375 404.379059,521.510132 399.309204,519.923889 
	C394.995880,518.574402 391.110565,515.896423 386.967255,513.952515 
	C383.226349,512.197388 380.255859,513.610352 378.096375,516.780884 
	C375.978394,519.890442 374.303162,523.316223 372.047974,526.313049 
	C370.334991,528.589294 369.944855,530.486023 372.522614,531.945862 
	C378.740845,535.467224 385.105835,538.728455 391.360107,542.187805 
	C392.686188,542.921265 393.792450,544.052185 395.000000,545.000000 
M437.172577,214.959076 
	C432.904999,214.959076 428.637421,214.959076 424.439697,214.959076 
	C424.439697,232.727158 424.439697,249.762604 424.439697,266.648254 
	C457.129425,266.648254 489.378357,266.648254 521.731201,266.648254 
	C521.731201,249.376740 521.731201,232.458176 521.731201,214.905136 
	C516.429443,214.905136 511.376892,214.905136 506.281067,214.905136 
	C506.281067,191.350220 506.281067,168.432495 506.281067,144.880386 
	C511.596039,144.880386 516.647278,144.880386 521.704956,144.880386 
	C521.704956,126.990685 521.704956,109.738762 521.704956,91.857666 
	C496.709412,91.857666 472.001068,91.857666 447.305237,91.857666 
	C447.305237,79.636368 447.305237,68.049240 447.305237,55.831444 
	C452.310059,55.831444 457.028992,55.831444 461.680725,55.831444 
	C461.680725,38.274689 461.680725,21.355873 461.680725,4.409828 
	C429.325470,4.409828 397.291229,4.409828 365.326538,4.409828 
	C365.326538,21.741138 365.326538,38.660686 365.326538,56.211388 
	C370.358856,56.211388 375.075195,56.211388 379.658203,56.211388 
	C379.658203,68.437607 379.658203,80.024910 379.658203,91.563477 
	C362.276245,91.563477 345.239777,91.563477 328.353088,91.563477 
	C328.353088,79.535942 328.353088,67.947670 328.353088,55.911308 
	C332.958954,55.911308 337.224915,55.911308 341.632294,55.911308 
	C341.632294,38.415012 341.632294,21.378302 341.632294,4.281522 
	C309.347717,4.281522 277.431641,4.281522 245.375015,4.281522 
	C245.375015,21.601994 245.375015,38.638626 245.375015,56.131203 
	C250.670395,56.131203 255.602600,56.131203 261.000000,56.131203 
	C261.000000,58.533783 261.000000,60.496326 261.000000,62.458870 
	C261.000031,90.119446 260.972412,117.780113 261.062592,145.440399 
	C261.068573,147.277588 261.374390,149.761444 262.552185,150.841385 
	C269.842468,157.525909 277.471161,163.839355 284.886780,170.389999 
	C288.899445,173.934616 293.246033,175.507599 298.757263,175.123718 
	C305.995209,174.619583 313.294769,175.000000 320.588989,175.000000 
	C320.588989,188.675873 320.588989,201.714249 320.588989,215.203766 
	C315.253479,215.203766 310.324646,215.203766 305.425476,215.203766 
	C305.425476,232.703140 305.425476,249.739883 305.425476,266.660706 
	C337.768646,266.660706 369.685211,266.660706 401.567322,266.660706 
	C401.567322,249.281036 401.567322,232.244492 401.567322,214.761932 
	C396.870514,214.761932 392.604828,214.761932 388.262604,214.761932 
	C388.262604,211.717316 388.262604,209.126862 388.262604,206.352112 
	C405.236938,206.352112 421.947815,206.352112 439.347565,206.352112 
	C438.885742,209.457703 438.487762,212.133804 437.172577,214.959076 
M667.849304,380.524017 
	C672.751648,385.287689 677.254089,390.579956 682.664368,394.672028 
	C688.527649,399.106720 695.928101,397.975952 702.867249,398.010345 
	C711.250732,398.051880 718.360901,394.921326 724.274109,389.174835 
	C732.803894,380.885559 735.433105,370.524902 735.087463,358.876038 
	C734.690369,345.488098 726.462463,331.691040 715.466492,327.256683 
	C699.861694,320.963684 682.242798,323.623840 672.852966,334.853516 
	C661.497681,348.433807 661.144714,363.899780 667.849304,380.524017 
M129.018723,392.498016 
	C131.710205,396.764069 135.100784,399.376007 140.540207,397.430481 
	C140.540207,373.323639 140.540207,349.317078 140.540207,325.434204 
	C137.503174,325.434204 134.943146,325.434204 131.697144,325.434204 
	C131.697144,343.274689 131.697144,360.692505 131.697144,379.290222 
	C118.393631,361.809448 105.895012,345.449371 93.480125,329.026001 
	C90.612213,325.232086 87.125847,324.017212 82.400375,325.592255 
	C82.400375,349.558136 82.400375,373.569611 82.400375,397.625671 
	C85.374100,397.625671 87.941811,397.625671 91.168945,397.625671 
	C91.168945,379.790070 91.168945,362.313904 91.168945,344.837769 
	C94.627548,347.647430 96.998711,350.762543 99.378242,353.871246 
	C109.096680,366.567688 118.817688,379.262177 129.018723,392.498016 
M380.474854,376.050293 
	C378.098419,372.793762 375.722015,369.537231 373.179871,366.053650 
	C374.221008,365.565796 374.780884,365.256195 375.373322,365.032867 
	C385.073242,361.376282 389.707397,353.813721 388.990509,342.789642 
	C388.431885,334.199921 383.044128,327.600098 373.234344,326.227875 
	C363.154175,324.817780 352.842438,325.063141 342.468445,324.576385 
	C342.468445,349.664734 342.468445,373.678223 342.468445,397.556366 
	C345.843475,397.556366 348.743378,397.556366 352.217957,397.556366 
	C352.217957,387.543152 352.217957,377.963287 352.217957,368.481567 
	C360.347046,367.439392 362.081635,367.787903 364.522827,371.176880 
	C369.343414,377.869171 374.142334,384.578552 378.847412,391.352234 
	C383.639771,398.251556 386.459259,399.335236 395.755951,397.119751 
	C390.703766,390.170837 385.790039,383.412445 380.474854,376.050293 
M297.500092,398.000000 
	C305.242584,398.000000 312.985046,398.000000 320.554138,398.000000 
	C320.554138,394.483856 320.554138,391.918793 320.554138,388.770874 
	C309.213928,388.770874 298.306519,388.770874 287.387756,388.770874 
	C287.387756,380.599365 287.387756,373.033661 287.387756,364.888306 
	C296.676636,364.888306 305.590668,364.888306 314.675507,364.888306 
	C314.675507,362.057129 314.675507,359.821655 314.675507,356.819824 
	C305.341553,356.819824 296.304901,356.819824 287.448395,356.819824 
	C287.448395,348.806915 287.448395,341.572083 287.448395,333.767395 
	C298.800659,333.767395 309.713867,333.767395 320.611389,333.767395 
	C320.611389,330.596436 320.611389,328.030243 320.611389,325.358643 
	C305.659851,325.358643 291.096436,325.358643 276.327698,325.358643 
	C276.327698,349.612946 276.327698,373.507751 276.327698,398.000000 
	C283.261932,398.000000 289.881073,398.000000 297.500092,398.000000 
M246.148239,362.722809 
	C251.205826,350.429932 256.263428,338.137024 261.384399,325.690033 
	C251.061172,323.870056 250.199982,324.365295 246.880630,333.061096 
	C245.644928,336.298309 244.251572,339.474945 242.967148,342.694000 
	C237.819397,355.595490 232.686172,368.502808 227.407974,381.758606 
	C226.752335,380.929504 226.344864,380.599487 226.176620,380.174713 
	C219.373322,362.998810 212.678131,345.778809 205.668015,328.687988 
	C204.996826,327.051666 202.529190,325.661774 200.627808,325.147736 
	C198.375793,324.538910 195.833267,325.004669 192.920197,325.004669 
	C193.711807,327.328491 194.157288,328.901917 194.773590,330.405304 
	C203.474747,351.630859 212.248550,372.826935 220.848602,394.093292 
	C221.808212,396.466217 222.485153,398.300110 225.519363,398.030853 
	C228.510483,397.765442 231.633179,398.844025 233.248672,394.633514 
	C237.267075,384.160156 241.722687,373.854584 246.148239,362.722809 
M406.482880,387.059784 
	C407.229889,388.672241 407.559692,390.782227 408.792145,391.815765 
	C416.332825,398.139313 425.393951,398.709320 434.660919,397.956329 
	C443.154388,397.266266 451.839417,388.709381 452.958649,380.141876 
	C454.417419,368.975189 450.316772,361.684387 440.580597,358.006622 
	C435.180847,355.966858 429.798889,353.877655 424.438538,351.736572 
	C420.119873,350.011536 418.513184,346.624359 419.041534,342.170929 
	C419.549774,337.886932 422.352539,335.584900 426.158081,334.065002 
	C432.662811,331.467102 438.324524,334.023773 443.442566,337.387604 
	C447.210419,339.864014 448.772064,338.520813 450.293793,335.328430 
	C450.850525,334.160431 451.368164,332.973755 451.862213,331.886810 
	C445.389740,325.781738 437.771820,323.703064 429.350067,324.010254 
	C419.391724,324.373474 410.292511,331.594818 409.125092,340.511688 
	C407.679688,351.552277 411.353027,359.505280 423.359131,363.191284 
	C426.985199,364.304535 430.528748,365.685455 434.115753,366.927368 
	C440.284302,369.063110 443.697540,373.536255 442.934448,378.507690 
	C442.012939,384.510620 436.711151,388.681335 430.435303,389.077881 
	C424.778473,389.435242 419.964264,387.784210 415.703003,384.328156 
	C411.719818,381.097626 408.905090,381.913086 406.482880,387.059784 
M775.529724,358.000000 
	C772.122131,358.000000 768.714539,358.000000 765.432556,358.000000 
	C765.432556,349.501068 765.432556,341.936798 765.432556,333.804779 
	C776.763000,333.804779 787.670227,333.804779 798.636719,333.804779 
	C798.636719,330.647675 798.636719,328.079895 798.636719,325.325470 
	C783.716919,325.325470 769.159058,325.325470 754.451294,325.325470 
	C754.451294,349.659515 754.451294,373.665619 754.451294,397.574005 
	C758.142090,397.574005 761.375610,397.574005 765.188965,397.574005 
	C765.188965,387.255615 765.188965,377.351715 765.188965,366.884125 
	C775.011414,366.884125 784.251831,366.884125 793.678467,366.884125 
	C793.678467,363.727692 793.678467,361.161346 793.678467,358.000000 
	C787.757568,358.000000 782.139587,358.000000 775.529724,358.000000 
M602.267639,369.438660 
	C611.113342,354.888550 619.959045,340.338470 629.157715,325.207764 
	C627.115906,325.094055 626.274780,325.142578 625.472961,324.987457 
	C619.160828,323.766296 615.655396,326.624237 612.786133,332.196686 
	C608.149414,341.201843 602.645203,349.760406 597.181946,359.061676 
	C591.509583,349.512634 586.039062,340.521820 580.793030,331.401886 
	C576.700745,324.287750 575.460693,323.671417 566.114197,325.738525 
	C566.286499,326.498535 566.273743,327.370544 566.658264,327.999847 
	C573.106506,338.553833 579.441406,349.182831 586.152893,359.568085 
	C590.120422,365.707489 592.844910,371.859650 592.116150,379.468781 
	C591.539001,385.494965 592.000000,391.620575 592.000000,397.578430 
	C595.799622,397.578430 598.700623,397.578430 602.082642,397.578430 
	C602.082642,388.199097 602.082642,379.235565 602.267639,369.438660 
M532.261780,397.978394 
	C535.860352,398.005127 534.962097,395.271881 534.968018,393.321533 
	C535.021484,375.676208 534.999817,358.030701 535.000000,340.385223 
	C535.000061,338.445618 535.000000,336.506042 535.000000,333.987701 
	C542.901550,333.987701 550.139343,333.987701 557.551392,333.987701 
	C557.551392,330.712585 557.551392,328.035767 557.551392,325.387878 
	C538.549316,325.387878 519.995667,325.387878 501.360199,325.387878 
	C501.360199,328.347931 501.360199,330.914978 501.360199,334.061554 
	C508.938416,334.061554 516.176331,334.061554 524.143738,334.061554 
	C524.143738,355.650970 524.143738,376.664246 524.143738,397.995087 
	C527.038757,397.995087 529.188965,397.995087 532.261780,397.978394 
M484.000000,366.500000 
	C484.000000,352.768433 484.000000,339.036865 484.000000,325.428345 
	C479.851501,325.428345 476.618866,325.428345 473.368286,325.428345 
	C473.368286,349.738098 473.368286,373.618164 473.368286,397.661987 
	C476.972412,397.661987 480.202545,397.661987 484.000000,397.661987 
	C484.000000,387.390167 484.000000,377.445068 484.000000,366.500000 
M176.999146,393.297821 
	C176.999146,370.711578 176.999146,348.125366 176.999146,325.318665 
	C173.068832,325.318665 169.837982,325.318665 166.444275,325.318665 
	C166.444275,349.645020 166.444275,373.650818 166.444275,397.995087 
	C169.035477,397.995087 171.196640,397.864502 173.335495,398.027161 
	C176.203827,398.245270 177.313919,396.992859 176.999146,393.297821 
z"/>
<path fill="#C8102E" opacity="1.000000" stroke="none" 
	d="
M696.468628,545.000000 
	C696.000000,505.891724 696.000000,466.783417 696.000000,427.024109 
	C702.653442,427.024109 708.973938,426.567902 715.166199,427.259613 
	C717.483948,427.518494 719.911987,430.122559 721.591675,432.217133 
	C732.177551,445.417267 742.540344,458.795959 753.030823,472.073029 
	C760.030212,480.931763 767.119019,489.719879 774.459595,498.904694 
	C774.459595,474.742035 774.459595,451.150360 774.459595,427.279724 
	C782.437195,427.279724 790.357605,427.279724 798.614136,427.279724 
	C798.745361,428.594543 798.982239,429.864471 798.982910,431.134552 
	C799.002747,467.629730 799.001343,504.124939 798.987305,540.620117 
	C798.986877,541.778137 798.816467,542.936096 798.862671,544.547058 
	C792.645569,545.000000 786.291199,545.000000 779.687988,544.680908 
	C774.658752,538.780212 769.721558,533.324280 765.128723,527.592285 
	C753.722595,513.357300 742.486877,498.985748 731.152466,484.693024 
	C728.143677,480.898895 725.025330,477.191589 721.838196,473.299042 
	C721.364502,474.068970 721.073730,474.321045 721.073303,474.573578 
	C721.034546,498.049042 721.018005,521.524536 721.000000,545.000000 
	C712.979065,545.000000 704.958191,545.000000 696.468628,545.000000 
z"/>
<path fill="#C8102E" opacity="1.000000" stroke="none" 
	d="
M602.468628,545.000000 
	C601.544495,544.352600 601.208984,543.288940 600.616089,543.117859 
	C577.263977,536.381653 563.556946,520.526855 559.321289,497.142365 
	C555.512756,476.115784 560.526489,456.784790 576.179871,441.534668 
	C586.358276,431.618500 599.059631,426.676544 613.487610,425.897888 
	C625.798035,425.233521 637.665161,426.267426 648.746521,431.964600 
	C669.181763,442.470886 679.070068,459.481659 680.083862,482.286285 
	C680.785828,498.076233 677.186584,512.184265 667.162231,524.680786 
	C659.751648,533.919067 650.106506,539.336243 639.182190,543.012085 
	C638.311890,543.304932 637.519958,543.830322 636.845825,544.623901 
	C625.645752,545.000000 614.291565,545.000000 602.468628,545.000000 
M599.583069,516.053467 
	C602.047241,517.366699 604.409119,518.942810 606.992981,519.948486 
	C619.300171,524.738586 637.521240,522.179871 645.303955,509.325317 
	C653.473389,495.832245 653.428406,481.984344 648.250244,467.344360 
	C641.109131,447.154633 612.488342,443.409973 598.199158,456.335358 
	C591.809082,462.115540 588.974365,469.517426 587.774658,478.033630 
	C585.745728,492.435608 588.201233,505.176605 599.583069,516.053467 
z"/>
<path fill="#C8102E" opacity="1.000000" stroke="none" 
	d="
M164.468658,545.000000 
	C163.381714,544.337280 162.875229,543.280640 162.128983,543.068909 
	C137.385880,536.048523 121.143105,513.758728 120.869827,488.612976 
	C120.720703,474.891724 122.800247,462.089996 130.725525,450.637207 
	C141.681824,434.804260 156.995926,427.171234 176.036942,425.918335 
	C189.244431,425.049286 201.858078,426.646606 213.439468,433.216278 
	C230.703644,443.009521 239.637741,458.197449 242.100906,477.760498 
	C243.581512,489.519745 241.833359,500.542725 237.328094,511.354797 
	C230.449768,527.861938 217.808395,537.679993 201.182007,543.013367 
	C200.309647,543.293213 199.519852,543.830383 198.845825,544.623901 
	C187.645767,545.000000 176.291550,545.000000 164.468658,545.000000 
M195.517731,451.876190 
	C183.010208,445.350372 162.932159,449.423126 155.491150,461.908936 
	C148.420013,473.774017 147.587921,486.345123 151.050583,499.386719 
	C153.872147,510.013672 160.423187,517.900696 171.008942,520.714844 
	C182.680908,523.817749 194.310364,523.096741 203.662262,513.805725 
	C213.140152,504.389557 215.109253,492.330414 213.787048,479.939514 
	C212.531769,468.175629 208.140564,457.554657 195.517731,451.876190 
z"/>
<path fill="#C8102E" opacity="1.000000" stroke="none" 
	d="
M1.000000,427.468658 
	C10.442211,427.000000 19.884422,427.000000 30.000000,427.000000 
	C30.000000,435.147797 30.000000,442.912689 30.000000,450.677582 
	C30.000000,458.499664 30.000000,466.321747 30.000000,474.571350 
	C45.248436,474.571350 60.281197,474.571350 75.768623,474.571350 
	C75.768623,459.028473 75.768623,443.442780 75.768623,427.430359 
	C85.242531,427.430359 94.280144,427.430359 103.642616,427.430359 
	C103.756477,428.475250 103.982323,429.583771 103.982872,430.692383 
	C104.001114,467.502106 103.999954,504.311859 103.986267,541.121582 
	C103.985901,542.112427 103.816086,543.103271 103.862640,544.547058 
	C94.979103,545.000000 85.958214,545.000000 76.606018,544.547058 
	C76.274712,527.872742 76.274712,511.651367 76.274712,495.377563 
	C60.343842,495.377563 45.332214,495.377563 30.000000,495.377563 
	C30.000000,512.168945 30.000000,528.584473 30.000000,545.000000 
	C20.362190,545.000000 10.724379,545.000000 1.000000,545.000000 
	C1.000000,505.979156 1.000000,466.958221 1.000000,427.468658 
z"/>
<path fill="#C8102E" opacity="1.000000" stroke="none" 
	d="
M291.468658,545.000000 
	C290.548462,544.352295 290.223724,543.303833 289.626984,543.115173 
	C271.795227,537.476135 261.194855,525.492249 258.035400,507.071228 
	C257.370300,503.193542 257.060364,499.209991 257.044342,495.273346 
	C256.952972,472.792328 257.000000,450.310791 257.000000,427.415100 
	C266.276398,427.415100 275.314941,427.415100 284.999969,427.415100 
	C284.999969,429.200317 284.999969,430.971497 284.999969,432.742676 
	C285.000000,454.234497 284.612396,475.738007 285.259796,497.210297 
	C285.431763,502.914032 287.696838,509.254425 290.909760,514.013977 
	C296.737579,522.647278 306.840332,523.722107 315.752594,520.566223 
	C324.794556,517.364380 329.753784,509.283447 329.902283,499.004517 
	C330.219879,477.017456 329.999847,455.022675 330.000031,433.031036 
	C330.000031,431.229797 330.000031,429.428589 330.000031,427.321045 
	C339.349518,427.321045 348.269653,427.321045 357.999939,427.321045 
	C357.999939,429.012177 357.999939,430.760559 357.999939,432.508942 
	C357.999969,454.667175 358.071350,476.825714 357.978790,498.983551 
	C357.895477,518.933777 346.073425,537.610962 324.692871,543.227478 
	C324.292267,543.332703 324.014404,543.905334 323.839630,544.629944 
	C313.312439,545.000000 302.624878,545.000000 291.468658,545.000000 
z"/>
<path fill="#C8102E" opacity="1.000000" stroke="none" 
	d="
M395.468658,545.000000 
	C393.792450,544.052185 392.686188,542.921265 391.360107,542.187805 
	C385.105835,538.728455 378.740845,535.467224 372.522614,531.945862 
	C369.944855,530.486023 370.334991,528.589294 372.047974,526.313049 
	C374.303162,523.316223 375.978394,519.890442 378.096375,516.780884 
	C380.255859,513.610352 383.226349,512.197388 386.967255,513.952515 
	C391.110565,515.896423 394.995880,518.574402 399.309204,519.923889 
	C404.379059,521.510132 409.779846,522.734375 415.052399,522.795471 
	C421.227325,522.866882 425.178589,518.810730 426.001434,513.434814 
	C427.075256,506.418915 425.266937,502.596924 418.609406,499.990265 
	C411.019897,497.018799 403.214661,494.591980 395.477386,492.005707 
	C382.116302,487.539673 375.442261,475.759674 374.741150,462.791809 
	C373.569153,441.113770 392.921356,425.971619 410.769592,425.759308 
	C424.265808,425.598724 436.719666,427.402344 448.065094,434.987701 
	C451.129272,437.036377 452.020416,438.992798 449.495178,442.257721 
	C447.817841,444.426361 446.960724,447.220886 445.678162,449.705170 
	C442.721985,455.431000 439.282013,456.652191 433.533905,453.772308 
	C427.182159,450.590057 420.863892,446.980072 413.472809,448.133057 
	C410.080078,448.662292 406.051727,449.772583 403.808441,452.076691 
	C398.630157,457.395447 400.198761,464.404175 407.084381,467.436371 
	C415.009186,470.926086 423.145935,474.048492 431.408539,476.634216 
	C450.606232,482.642059 456.504639,501.262909 451.241638,518.665222 
	C447.541626,530.899414 439.648987,538.482178 428.117737,542.937195 
	C427.253235,543.271179 426.474152,543.826233 425.827667,544.639282 
	C415.979095,545.000000 405.958221,545.000000 395.468658,545.000000 
z"/>
<path fill="#C8102E" opacity="1.000000" stroke="none" 
	d="
M494.468658,545.000000 
	C494.000000,529.041626 494.000000,513.083252 494.000000,497.124908 
	C494.000000,481.331940 494.000000,465.539001 494.000000,449.124084 
	C482.981232,449.124084 472.275085,449.124084 461.289978,449.124084 
	C461.289978,441.589539 461.289978,434.674469 461.289978,427.377808 
	C492.333771,427.377808 523.346008,427.377808 554.679871,427.377808 
	C554.679871,434.346649 554.679871,441.263153 554.679871,448.807861 
	C544.054016,448.807861 533.343506,448.807861 522.000000,448.807861 
	C522.000000,451.191406 522.000000,452.960144 522.000000,454.728912 
	C522.000000,482.528290 522.005615,510.327637 521.988159,538.127014 
	C521.986877,540.116089 521.816895,542.105103 521.862671,544.547058 
	C512.979126,545.000000 503.958221,545.000000 494.468658,545.000000 
z"/>
<path fill="#000000" opacity="1.000000" stroke="none" 
	d="
M30.468658,545.000000 
	C30.000000,528.584473 30.000000,512.168945 30.000000,495.377563 
	C45.332214,495.377563 60.343842,495.377563 76.274712,495.377563 
	C76.274712,511.651367 76.274712,527.872742 76.137360,544.547058 
	C60.979103,545.000000 45.958210,545.000000 30.468658,545.000000 
z"/>
<path fill="#000000" opacity="1.000000" stroke="none" 
	d="
M721.468628,545.000000 
	C721.018005,521.524536 721.034546,498.049042 721.073303,474.573578 
	C721.073730,474.321045 721.364502,474.068970 721.838196,473.299042 
	C725.025330,477.191589 728.143677,480.898895 731.152466,484.693024 
	C742.486877,498.985748 753.722595,513.357300 765.128723,527.592285 
	C769.721558,533.324280 774.658752,538.780212 779.219604,544.680908 
	C759.979126,545.000000 740.958191,545.000000 721.468628,545.000000 
z"/>
<path fill="#54585A" opacity="1.000000" stroke="none" 
	d="
M1.000000,325.468658 
	C4.444222,325.000000 7.888445,325.000000 11.999992,325.000000 
	C11.999992,327.822784 11.954572,330.096313 12.007433,332.367493 
	C12.327674,346.126770 12.156582,359.923767 13.178589,373.631470 
	C13.911018,383.455200 22.503674,389.657532 32.323875,388.989136 
	C41.782372,388.345306 48.941593,380.564087 48.982765,370.686249 
	C49.045082,355.735291 48.999043,340.783905 48.999043,325.418335 
	C52.637512,325.418335 55.869148,325.418335 59.375393,325.418335 
	C59.546791,326.043335 59.936447,326.806213 59.938820,327.570282 
	C59.983788,342.046722 60.327789,356.533478 59.900501,370.997162 
	C59.416397,387.384125 46.072834,400.067841 30.635155,398.835571 
	C17.743006,397.806519 6.915455,393.187775 2.522987,377.460022 
	C2.454939,377.216370 2.019681,377.075226 1.377895,376.943115 
	C1.000000,359.979095 1.000000,342.958221 1.000000,325.468658 
z"/>
<path fill="#C8102E" opacity="1.000000" stroke="none" 
	d="
M437.631195,214.884491 
	C438.487762,212.133804 438.885742,209.457703 439.347565,206.352112 
	C421.947815,206.352112 405.236938,206.352112 388.262604,206.352112 
	C388.262604,209.126862 388.262604,211.717316 388.262604,214.761932 
	C392.604828,214.761932 396.870514,214.761932 401.567322,214.761932 
	C401.567322,232.244492 401.567322,249.281036 401.567322,266.660706 
	C369.685211,266.660706 337.768646,266.660706 305.425476,266.660706 
	C305.425476,249.739883 305.425476,232.703140 305.425476,215.203766 
	C310.324646,215.203766 315.253479,215.203766 320.588989,215.203766 
	C320.588989,201.714249 320.588989,188.675873 320.588989,175.000000 
	C313.294769,175.000000 305.995209,174.619583 298.757263,175.123718 
	C293.246033,175.507599 288.899445,173.934616 284.886780,170.389999 
	C277.471161,163.839355 269.842468,157.525909 262.552185,150.841385 
	C261.374390,149.761444 261.068573,147.277588 261.062592,145.440399 
	C260.972412,117.780113 261.000031,90.119446 261.000000,62.458870 
	C261.000000,60.496326 261.000000,58.533783 261.000000,56.131203 
	C255.602600,56.131203 250.670395,56.131203 245.375015,56.131203 
	C245.375015,38.638626 245.375015,21.601994 245.375015,4.281522 
	C277.431641,4.281522 309.347717,4.281522 341.632294,4.281522 
	C341.632294,21.378302 341.632294,38.415012 341.632294,55.911308 
	C337.224915,55.911308 332.958954,55.911308 328.353088,55.911308 
	C328.353088,67.947670 328.353088,79.535942 328.353088,91.563477 
	C345.239777,91.563477 362.276245,91.563477 379.658203,91.563477 
	C379.658203,80.024910 379.658203,68.437607 379.658203,56.211388 
	C375.075195,56.211388 370.358856,56.211388 365.326538,56.211388 
	C365.326538,38.660686 365.326538,21.741138 365.326538,4.409828 
	C397.291229,4.409828 429.325470,4.409828 461.680725,4.409828 
	C461.680725,21.355873 461.680725,38.274689 461.680725,55.831444 
	C457.028992,55.831444 452.310059,55.831444 447.305237,55.831444 
	C447.305237,68.049240 447.305237,79.636368 447.305237,91.857666 
	C472.001068,91.857666 496.709412,91.857666 521.704956,91.857666 
	C521.704956,109.738762 521.704956,126.990685 521.704956,144.880386 
	C516.647278,144.880386 511.596039,144.880386 506.281067,144.880386 
	C506.281067,168.432495 506.281067,191.350220 506.281067,214.905136 
	C511.376892,214.905136 516.429443,214.905136 521.731201,214.905136 
	C521.731201,232.458176 521.731201,249.376740 521.731201,266.648254 
	C489.378357,266.648254 457.129425,266.648254 424.439697,266.648254 
	C424.439697,249.762604 424.439697,232.727158 424.439697,214.959076 
	C428.637421,214.959076 432.904999,214.959076 437.631195,214.884491 
M439.166992,64.503181 
	C439.166992,59.220512 439.166992,53.937847 439.166992,48.110847 
	C444.623047,48.110847 449.529480,48.110847 454.490356,48.110847 
	C454.490356,35.671852 454.490356,23.794464 454.490356,11.758089 
	C427.215515,11.758089 400.284302,11.758089 373.303345,11.758089 
	C373.303345,24.262234 373.303345,36.498478 373.303345,49.145828 
	C378.162689,49.145828 382.728180,49.145828 387.322937,49.145828 
	C387.322937,66.197693 387.322937,82.833809 387.322937,99.734558 
	C364.914185,99.734558 342.674347,99.734558 320.252808,99.734558 
	C320.252808,82.825539 320.252808,66.096497 320.252808,48.989033 
	C324.940338,48.989033 329.382782,48.989033 334.150452,48.989033 
	C334.150452,36.391663 334.150452,24.173885 334.150452,11.854818 
	C306.907959,11.854818 280.023926,11.854818 253.268219,11.854818 
	C253.268219,24.440994 253.268219,36.660561 253.268219,49.270081 
	C258.463928,49.270081 263.224487,49.270081 268.166107,49.270081 
	C268.166107,50.663063 268.166077,51.652794 268.166077,52.642529 
	C268.166229,82.139725 268.183350,111.636948 268.141693,141.134094 
	C268.137268,144.262466 268.733398,146.428360 271.674774,148.595703 
	C278.041016,153.286606 283.953674,158.655441 289.649170,164.163391 
	C291.903534,166.343521 294.000854,167.244507 297.002136,167.210999 
	C307.298859,167.096069 317.597687,167.166885 327.690430,167.166885 
	C328.044037,167.869781 328.319305,168.162186 328.320465,168.455688 
	C328.388092,185.616470 328.490509,202.777893 328.337585,219.936966 
	C328.328400,220.966888 326.336060,222.743546 325.140594,222.858093 
	C321.231903,223.232605 317.264862,222.998596 313.300812,222.998596 
	C313.300812,235.269760 313.300812,246.998856 313.300812,258.747772 
	C340.523987,258.747772 367.445435,258.747772 394.417908,258.747772 
	C394.417908,246.461502 394.417908,234.431549 394.417908,221.945297 
	C389.422974,221.945297 384.839539,221.945297 380.268280,221.945297 
	C380.268280,214.058533 380.268280,206.638153 380.268280,199.133850 
	C402.262177,199.133850 423.986664,199.133850 445.731598,199.133850 
	C445.731598,207.180222 445.731598,214.923538 445.731598,223.131454 
	C441.069397,223.131454 436.658356,223.131454 432.332336,223.131454 
	C432.332336,235.334091 432.332336,247.063934 432.332336,258.637573 
	C459.727844,258.637573 486.789551,258.637573 513.782837,258.637573 
	C513.782837,246.662384 513.782837,235.051010 513.782837,222.868042 
	C508.533325,222.868042 503.479797,222.868042 498.399750,222.868042 
	C498.399750,194.030396 498.399750,165.767975 498.399750,136.937286 
	C503.668030,136.937286 508.724670,136.937286 513.652466,136.937286 
	C513.652466,124.301712 513.652466,112.238045 513.652466,99.789200 
	C488.717896,99.789200 464.129059,99.789200 439.665619,99.789200 
	C439.428772,99.099190 439.235931,98.798302 439.234985,98.496826 
	C439.201263,87.498650 439.185333,76.500427 439.166992,64.503181 
z"/>
<path fill="#54585A" opacity="1.000000" stroke="none" 
	d="
M667.637939,380.208069 
	C661.144714,363.899780 661.497681,348.433807 672.852966,334.853516 
	C682.242798,323.623840 699.861694,320.963684 715.466492,327.256683 
	C726.462463,331.691040 734.690369,345.488098 735.087463,358.876038 
	C735.433105,370.524902 732.803894,380.885559 724.274109,389.174835 
	C718.360901,394.921326 711.250732,398.051880 702.867249,398.010345 
	C695.928101,397.975952 688.527649,399.106720 682.664368,394.672028 
	C677.254089,390.579956 672.751648,385.287689 667.637939,380.208069 
M723.998352,365.182678 
	C723.998108,362.687469 724.241516,360.163940 723.954956,357.702026 
	C722.780762,347.614899 718.966248,339.076630 708.655273,335.413635 
	C700.223694,332.418335 688.694885,332.797943 681.615112,340.899292 
	C674.133240,349.460876 672.682983,359.569489 675.739807,369.998779 
	C677.193665,374.958893 679.916687,380.518097 683.807495,383.619568 
	C698.296204,395.168945 720.958496,388.511780 723.998352,365.182678 
z"/>
<path fill="#54585A" opacity="1.000000" stroke="none" 
	d="
M128.778229,392.227722 
	C118.817688,379.262177 109.096680,366.567688 99.378242,353.871246 
	C96.998711,350.762543 94.627548,347.647430 91.168945,344.837769 
	C91.168945,362.313904 91.168945,379.790070 91.168945,397.625671 
	C87.941811,397.625671 85.374100,397.625671 82.400375,397.625671 
	C82.400375,373.569611 82.400375,349.558136 82.400375,325.592255 
	C87.125847,324.017212 90.612213,325.232086 93.480125,329.026001 
	C105.895012,345.449371 118.393631,361.809448 131.697144,379.290222 
	C131.697144,360.692505 131.697144,343.274689 131.697144,325.434204 
	C134.943146,325.434204 137.503174,325.434204 140.540207,325.434204 
	C140.540207,349.317078 140.540207,373.323639 140.540207,397.430481 
	C135.100784,399.376007 131.710205,396.764069 128.778229,392.227722 
z"/>
<path fill="#54585A" opacity="1.000000" stroke="none" 
	d="
M380.675598,376.352173 
	C385.790039,383.412445 390.703766,390.170837 395.755951,397.119751 
	C386.459259,399.335236 383.639771,398.251556 378.847412,391.352234 
	C374.142334,384.578552 369.343414,377.869171 364.522827,371.176880 
	C362.081635,367.787903 360.347046,367.439392 352.217957,368.481567 
	C352.217957,377.963287 352.217957,387.543152 352.217957,397.556366 
	C348.743378,397.556366 345.843475,397.556366 342.468445,397.556366 
	C342.468445,373.678223 342.468445,349.664734 342.468445,324.576385 
	C352.842438,325.063141 363.154175,324.817780 373.234344,326.227875 
	C383.044128,327.600098 388.431885,334.199921 388.990509,342.789642 
	C389.707397,353.813721 385.073242,361.376282 375.373322,365.032867 
	C374.780884,365.256195 374.221008,365.565796 373.179871,366.053650 
	C375.722015,369.537231 378.098419,372.793762 380.675598,376.352173 
M352.000122,354.344788 
	C352.092712,356.102875 352.185333,357.860962 352.341492,360.824951 
	C358.782562,359.820557 364.642822,359.243286 370.331818,357.926270 
	C376.182281,356.571899 377.889160,351.398529 378.843567,346.327637 
	C379.574310,342.444733 375.772308,336.297241 371.670197,335.510101 
	C365.347778,334.296906 358.818329,334.162689 352.000000,333.536133 
	C352.000000,341.101349 352.000000,347.241669 352.000122,354.344788 
z"/>
<path fill="#54585A" opacity="1.000000" stroke="none" 
	d="
M297.000122,398.000000 
	C289.881073,398.000000 283.261932,398.000000 276.327698,398.000000 
	C276.327698,373.507751 276.327698,349.612946 276.327698,325.358643 
	C291.096436,325.358643 305.659851,325.358643 320.611389,325.358643 
	C320.611389,328.030243 320.611389,330.596436 320.611389,333.767395 
	C309.713867,333.767395 298.800659,333.767395 287.448395,333.767395 
	C287.448395,341.572083 287.448395,348.806915 287.448395,356.819824 
	C296.304901,356.819824 305.341553,356.819824 314.675507,356.819824 
	C314.675507,359.821655 314.675507,362.057129 314.675507,364.888306 
	C305.590668,364.888306 296.676636,364.888306 287.387756,364.888306 
	C287.387756,373.033661 287.387756,380.599365 287.387756,388.770874 
	C298.306519,388.770874 309.213928,388.770874 320.554138,388.770874 
	C320.554138,391.918793 320.554138,394.483856 320.554138,398.000000 
	C312.985046,398.000000 305.242584,398.000000 297.000122,398.000000 
z"/>
<path fill="#54585A" opacity="1.000000" stroke="none" 
	d="
M246.075500,363.102234 
	C241.722687,373.854584 237.267075,384.160156 233.248672,394.633514 
	C231.633179,398.844025 228.510483,397.765442 225.519363,398.030853 
	C222.485153,398.300110 221.808212,396.466217 220.848602,394.093292 
	C212.248550,372.826935 203.474747,351.630859 194.773590,330.405304 
	C194.157288,328.901917 193.711807,327.328491 192.920197,325.004669 
	C195.833267,325.004669 198.375793,324.538910 200.627808,325.147736 
	C202.529190,325.661774 204.996826,327.051666 205.668015,328.687988 
	C212.678131,345.778809 219.373322,362.998810 226.176620,380.174713 
	C226.344864,380.599487 226.752335,380.929504 227.407974,381.758606 
	C232.686172,368.502808 237.819397,355.595490 242.967148,342.694000 
	C244.251572,339.474945 245.644928,336.298309 246.880630,333.061096 
	C250.199982,324.365295 251.061172,323.870056 261.384399,325.690033 
	C256.263428,338.137024 251.205826,350.429932 246.075500,363.102234 
z"/>
<path fill="#54585A" opacity="1.000000" stroke="none" 
	d="
M406.677490,386.746887 
	C408.905090,381.913086 411.719818,381.097626 415.703003,384.328156 
	C419.964264,387.784210 424.778473,389.435242 430.435303,389.077881 
	C436.711151,388.681335 442.012939,384.510620 442.934448,378.507690 
	C443.697540,373.536255 440.284302,369.063110 434.115753,366.927368 
	C430.528748,365.685455 426.985199,364.304535 423.359131,363.191284 
	C411.353027,359.505280 407.679688,351.552277 409.125092,340.511688 
	C410.292511,331.594818 419.391724,324.373474 429.350067,324.010254 
	C437.771820,323.703064 445.389740,325.781738 451.862213,331.886810 
	C451.368164,332.973755 450.850525,334.160431 450.293793,335.328430 
	C448.772064,338.520813 447.210419,339.864014 443.442566,337.387604 
	C438.324524,334.023773 432.662811,331.467102 426.158081,334.065002 
	C422.352539,335.584900 419.549774,337.886932 419.041534,342.170929 
	C418.513184,346.624359 420.119873,350.011536 424.438538,351.736572 
	C429.798889,353.877655 435.180847,355.966858 440.580597,358.006622 
	C450.316772,361.684387 454.417419,368.975189 452.958649,380.141876 
	C451.839417,388.709381 443.154388,397.266266 434.660919,397.956329 
	C425.393951,398.709320 416.332825,398.139313 408.792145,391.815765 
	C407.559692,390.782227 407.229889,388.672241 406.677490,386.746887 
z"/>
<path fill="#54585A" opacity="1.000000" stroke="none" 
	d="
M776.025635,358.000000 
	C782.139587,358.000000 787.757568,358.000000 793.678467,358.000000 
	C793.678467,361.161346 793.678467,363.727692 793.678467,366.884125 
	C784.251831,366.884125 775.011414,366.884125 765.188965,366.884125 
	C765.188965,377.351715 765.188965,387.255615 765.188965,397.574005 
	C761.375610,397.574005 758.142090,397.574005 754.451294,397.574005 
	C754.451294,373.665619 754.451294,349.659515 754.451294,325.325470 
	C769.159058,325.325470 783.716919,325.325470 798.636719,325.325470 
	C798.636719,328.079895 798.636719,330.647675 798.636719,333.804779 
	C787.670227,333.804779 776.763000,333.804779 765.432556,333.804779 
	C765.432556,341.936798 765.432556,349.501068 765.432556,358.000000 
	C768.714539,358.000000 772.122131,358.000000 776.025635,358.000000 
z"/>
<path fill="#54585A" opacity="1.000000" stroke="none" 
	d="
M602.175171,369.855347 
	C602.082642,379.235565 602.082642,388.199097 602.082642,397.578430 
	C598.700623,397.578430 595.799622,397.578430 592.000000,397.578430 
	C592.000000,391.620575 591.539001,385.494965 592.116150,379.468781 
	C592.844910,371.859650 590.120422,365.707489 586.152893,359.568085 
	C579.441406,349.182831 573.106506,338.553833 566.658264,327.999847 
	C566.273743,327.370544 566.286499,326.498535 566.114197,325.738525 
	C575.460693,323.671417 576.700745,324.287750 580.793030,331.401886 
	C586.039062,340.521820 591.509583,349.512634 597.181946,359.061676 
	C602.645203,349.760406 608.149414,341.201843 612.786133,332.196686 
	C615.655396,326.624237 619.160828,323.766296 625.472961,324.987457 
	C626.274780,325.142578 627.115906,325.094055 629.157715,325.207764 
	C619.959045,340.338470 611.113342,354.888550 602.175171,369.855347 
z"/>
<path fill="#54585A" opacity="1.000000" stroke="none" 
	d="
M531.800476,397.986755 
	C529.188965,397.995087 527.038757,397.995087 524.143738,397.995087 
	C524.143738,376.664246 524.143738,355.650970 524.143738,334.061554 
	C516.176331,334.061554 508.938416,334.061554 501.360199,334.061554 
	C501.360199,330.914978 501.360199,328.347931 501.360199,325.387878 
	C519.995667,325.387878 538.549316,325.387878 557.551392,325.387878 
	C557.551392,328.035767 557.551392,330.712585 557.551392,333.987701 
	C550.139343,333.987701 542.901550,333.987701 535.000000,333.987701 
	C535.000000,336.506042 535.000061,338.445618 535.000000,340.385223 
	C534.999817,358.030701 535.021484,375.676208 534.968018,393.321533 
	C534.962097,395.271881 535.860352,398.005127 531.800476,397.986755 
z"/>
<path fill="#54585A" opacity="1.000000" stroke="none" 
	d="
M484.000000,367.000000 
	C484.000000,377.445068 484.000000,387.390167 484.000000,397.661987 
	C480.202545,397.661987 476.972412,397.661987 473.368286,397.661987 
	C473.368286,373.618164 473.368286,349.738098 473.368286,325.428345 
	C476.618866,325.428345 479.851501,325.428345 484.000000,325.428345 
	C484.000000,339.036865 484.000000,352.768433 484.000000,367.000000 
z"/>
<path fill="#54585A" opacity="1.000000" stroke="none" 
	d="
M176.997437,393.770569 
	C177.313919,396.992859 176.203827,398.245270 173.335495,398.027161 
	C171.196640,397.864502 169.035477,397.995087 166.444275,397.995087 
	C166.444275,373.650818 166.444275,349.645020 166.444275,325.318665 
	C169.837982,325.318665 173.068832,325.318665 176.999146,325.318665 
	C176.999146,348.125366 176.999146,370.711578 176.997437,393.770569 
z"/>
<path fill="#000000" opacity="1.000000" stroke="none" 
	d="
M599.316284,515.806152 
	C588.201233,505.176605 585.745728,492.435608 587.774658,478.033630 
	C588.974365,469.517426 591.809082,462.115540 598.199158,456.335358 
	C612.488342,443.409973 641.109131,447.154633 648.250244,467.344360 
	C653.428406,481.984344 653.473389,495.832245 645.303955,509.325317 
	C637.521240,522.179871 619.300171,524.738586 606.992981,519.948486 
	C604.409119,518.942810 602.047241,517.366699 599.316284,515.806152 
z"/>
<path fill="#000000" opacity="1.000000" stroke="none" 
	d="
M195.891510,451.972626 
	C208.140564,457.554657 212.531769,468.175629 213.787048,479.939514 
	C215.109253,492.330414 213.140152,504.389557 203.662262,513.805725 
	C194.310364,523.096741 182.680908,523.817749 171.008942,520.714844 
	C160.423187,517.900696 153.872147,510.013672 151.050583,499.386719 
	C147.587921,486.345123 148.420013,473.774017 155.491150,461.908936 
	C162.932159,449.423126 183.010208,445.350372 195.891510,451.972626 
z"/>
<path fill="#FFFFFF" opacity="1.000000" stroke="none" 
	d="
M439.166992,65.002693 
	C439.185333,76.500427 439.201263,87.498650 439.234985,98.496826 
	C439.235931,98.798302 439.428772,99.099190 439.665619,99.789200 
	C464.129059,99.789200 488.717896,99.789200 513.652466,99.789200 
	C513.652466,112.238045 513.652466,124.301712 513.652466,136.937286 
	C508.724670,136.937286 503.668030,136.937286 498.399750,136.937286 
	C498.399750,165.767975 498.399750,194.030396 498.399750,222.868042 
	C503.479797,222.868042 508.533325,222.868042 513.782837,222.868042 
	C513.782837,235.051010 513.782837,246.662384 513.782837,258.637573 
	C486.789551,258.637573 459.727844,258.637573 432.332336,258.637573 
	C432.332336,247.063934 432.332336,235.334091 432.332336,223.131454 
	C436.658356,223.131454 441.069397,223.131454 445.731598,223.131454 
	C445.731598,214.923538 445.731598,207.180222 445.731598,199.133850 
	C423.986664,199.133850 402.262177,199.133850 380.268280,199.133850 
	C380.268280,206.638153 380.268280,214.058533 380.268280,221.945297 
	C384.839539,221.945297 389.422974,221.945297 394.417908,221.945297 
	C394.417908,234.431549 394.417908,246.461502 394.417908,258.747772 
	C367.445435,258.747772 340.523987,258.747772 313.300812,258.747772 
	C313.300812,246.998856 313.300812,235.269760 313.300812,222.998596 
	C317.264862,222.998596 321.231903,223.232605 325.140594,222.858093 
	C326.336060,222.743546 328.328400,220.966888 328.337585,219.936966 
	C328.490509,202.777893 328.388092,185.616470 328.320465,168.455688 
	C328.319305,168.162186 328.044037,167.869781 327.690430,167.166885 
	C317.597687,167.166885 307.298859,167.096069 297.002136,167.210999 
	C294.000854,167.244507 291.903534,166.343521 289.649170,164.163391 
	C283.953674,158.655441 278.041016,153.286606 271.674774,148.595703 
	C268.733398,146.428360 268.137268,144.262466 268.141693,141.134094 
	C268.183350,111.636948 268.166229,82.139725 268.166077,52.642529 
	C268.166077,51.652794 268.166107,50.663063 268.166107,49.270081 
	C263.224487,49.270081 258.463928,49.270081 253.268219,49.270081 
	C253.268219,36.660561 253.268219,24.440994 253.268219,11.854818 
	C280.023926,11.854818 306.907959,11.854818 334.150452,11.854818 
	C334.150452,24.173885 334.150452,36.391663 334.150452,48.989033 
	C329.382782,48.989033 324.940338,48.989033 320.252808,48.989033 
	C320.252808,66.096497 320.252808,82.825539 320.252808,99.734558 
	C342.674347,99.734558 364.914185,99.734558 387.322937,99.734558 
	C387.322937,82.833809 387.322937,66.197693 387.322937,49.145828 
	C382.728180,49.145828 378.162689,49.145828 373.303345,49.145828 
	C373.303345,36.498478 373.303345,24.262234 373.303345,11.758089 
	C400.284302,11.758089 427.215515,11.758089 454.490356,11.758089 
	C454.490356,23.794464 454.490356,35.671852 454.490356,48.110847 
	C449.529480,48.110847 444.623047,48.110847 439.166992,48.110847 
	C439.166992,53.937847 439.166992,59.220512 439.166992,65.002693 
M320.747437,107.012070 
	C320.168610,107.623283 319.097198,108.226006 319.086487,108.847023 
	C318.966919,115.786224 319.011017,122.728256 319.011017,130.086060 
	C324.617188,130.086060 329.710022,130.086060 334.495209,130.086060 
	C334.867493,130.640701 335.030640,130.770264 335.030853,130.900085 
	C335.082520,162.728928 335.109070,194.557831 335.186371,226.386597 
	C335.193481,229.312515 333.705444,230.087311 331.104279,230.024399 
	C327.165344,229.929092 323.222382,229.999496 319.297791,229.999496 
	C319.297791,237.649841 319.297791,244.722046 319.297791,251.896744 
	C342.179565,251.896744 364.762878,251.896744 387.462524,251.896744 
	C387.462524,244.245438 387.462524,236.868530 387.462524,228.931549 
	C382.540466,228.931549 377.978973,228.931549 373.506409,228.931549 
	C373.506409,216.281601 373.506409,204.202499 373.506409,192.142883 
	C400.265137,192.142883 426.682739,192.142883 453.100647,192.142883 
	C453.100647,204.863861 453.100647,217.270615 453.100647,230.069031 
	C448.267365,230.069031 443.826172,230.069031 439.225159,230.069031 
	C439.225159,237.549622 439.225159,244.628860 439.225159,251.901657 
	C461.837097,251.901657 484.223541,251.901657 506.763855,251.901657 
	C506.763855,244.558136 506.763855,237.480759 506.763855,229.902069 
	C501.647888,229.902069 496.748627,229.902069 491.859497,229.902069 
	C491.859497,196.341919 491.859497,163.286026 491.859497,129.899139 
	C497.003967,129.899139 501.787048,129.899139 506.749634,129.899139 
	C506.749634,122.168861 506.749634,114.773178 506.749634,107.281914 
	C484.103577,107.281914 461.708740,107.281914 439.313293,107.281914 
	C439.313293,114.965546 439.313293,122.363182 439.313293,130.055389 
	C444.076233,130.055389 448.532318,130.055389 453.244720,130.055389 
	C453.244720,142.447815 453.244720,154.537598 453.244720,166.598450 
	C426.445465,166.598450 399.905426,166.598450 373.443176,166.598450 
	C373.443176,154.262848 373.443176,142.330780 373.443176,129.838150 
	C378.096039,129.838150 382.482208,129.838150 386.780762,129.838150 
	C386.780762,121.992027 386.780762,114.713531 386.780762,107.001663 
	C364.946075,107.001663 343.327606,107.001663 320.747437,107.012070 
M297.500366,18.507326 
	C284.762543,18.507326 272.024750,18.507326 259.000854,18.507326 
	C259.000854,25.531601 259.111115,31.844889 258.955017,38.151585 
	C258.875275,41.372787 260.405853,42.133610 263.240051,42.034023 
	C267.162506,41.896206 271.093445,41.999420 275.166931,41.999420 
	C275.166931,44.531387 275.166931,46.359539 275.166931,48.187691 
	C275.166962,78.175011 275.144714,108.162392 275.219543,138.149521 
	C275.224274,140.045364 275.348114,142.595337 276.505676,143.719269 
	C281.226501,148.302933 286.304718,152.531021 291.396790,156.712875 
	C293.120789,158.128723 295.244751,159.933136 297.237427,159.998856 
	C307.345032,160.332275 317.469513,160.152420 327.712982,160.152420 
	C327.712982,152.181198 327.712982,144.635437 327.712982,136.672943 
	C322.834839,136.672943 318.236267,136.672943 313.552551,136.672943 
	C313.552551,104.898659 313.552551,73.546463 313.552551,41.804047 
	C318.200409,41.804047 322.463623,41.804047 326.783844,41.804047 
	C326.783844,33.848637 326.783844,26.288130 326.783844,18.507267 
	C317.148315,18.507267 307.824371,18.507267 297.500366,18.507326 
M394.507294,72.499680 
	C394.507050,92.315201 394.407379,112.131638 394.589661,131.945480 
	C394.626556,135.956573 393.306671,137.355499 389.416840,137.048615 
	C386.349823,136.806641 383.248444,136.999985 380.322021,136.999985 
	C380.322021,145.117920 380.322021,152.533646 380.322021,160.166687 
	C389.120392,160.166687 397.603333,159.989563 406.073517,160.241287 
	C410.316376,160.367386 413.570343,159.559326 416.572083,156.132812 
	C419.913635,152.318344 423.940948,148.999588 428.065308,146.010910 
	C431.074066,143.830643 432.268463,141.545792 432.249878,137.800659 
	C432.100891,107.828339 432.166626,77.854950 432.166626,47.881886 
	C432.166626,46.091614 432.166656,44.301346 432.166656,41.997704 
	C436.551819,41.997704 440.516876,42.195671 444.440887,41.881393 
	C445.675781,41.782486 447.783325,40.349373 447.819824,39.458469 
	C448.102600,32.551987 447.975830,25.628731 447.975830,18.716682 
	C425.018494,18.716682 402.749756,18.716682 380.249634,18.716682 
	C380.249634,26.492157 380.249634,34.057922 380.249634,42.109711 
	C385.044556,42.109711 389.607697,42.109711 394.507202,42.109711 
	C394.507202,52.228188 394.507202,61.863926 394.507294,72.499680 
M430.414642,153.957260 
	C428.622070,155.449112 426.829468,156.940948 425.036896,158.432800 
	C425.190796,158.784363 425.344696,159.135925 425.498596,159.487488 
	C432.261536,159.487488 439.024475,159.487488 445.709351,159.487488 
	C445.709351,153.291779 445.709351,147.260666 445.709351,140.147141 
	C440.326111,145.001053 435.630188,149.235245 430.414642,153.957260 
z"/>
<path fill="#000000" opacity="1.000000" stroke="none" 
	d="
M723.995361,365.634613 
	C720.958496,388.511780 698.296204,395.168945 683.807495,383.619568 
	C679.916687,380.518097 677.193665,374.958893 675.739807,369.998779 
	C672.682983,359.569489 674.133240,349.460876 681.615112,340.899292 
	C688.694885,332.797943 700.223694,332.418335 708.655273,335.413635 
	C718.966248,339.076630 722.780762,347.614899 723.954956,357.702026 
	C724.241516,360.163940 723.998108,362.687469 723.995361,365.634613 
z"/>
<path fill="#000000" opacity="1.000000" stroke="none" 
	d="
M352.000061,353.863403 
	C352.000000,347.241669 352.000000,341.101349 352.000000,333.536133 
	C358.818329,334.162689 365.347778,334.296906 371.670197,335.510101 
	C375.772308,336.297241 379.574310,342.444733 378.843567,346.327637 
	C377.889160,351.398529 376.182281,356.571899 370.331818,357.926270 
	C364.642822,359.243286 358.782562,359.820557 352.341492,360.824951 
	C352.185333,357.860962 352.092712,356.102875 352.000061,353.863403 
z"/>
<path fill="#C8102E" opacity="1.000000" stroke="none" 
	d="
M321.228271,107.006866 
	C343.327606,107.001663 364.946075,107.001663 386.780762,107.001663 
	C386.780762,114.713531 386.780762,121.992027 386.780762,129.838150 
	C382.482208,129.838150 378.096039,129.838150 373.443176,129.838150 
	C373.443176,142.330780 373.443176,154.262848 373.443176,166.598450 
	C399.905426,166.598450 426.445465,166.598450 453.244720,166.598450 
	C453.244720,154.537598 453.244720,142.447815 453.244720,130.055389 
	C448.532318,130.055389 444.076233,130.055389 439.313293,130.055389 
	C439.313293,122.363182 439.313293,114.965546 439.313293,107.281914 
	C461.708740,107.281914 484.103577,107.281914 506.749634,107.281914 
	C506.749634,114.773178 506.749634,122.168861 506.749634,129.899139 
	C501.787048,129.899139 497.003967,129.899139 491.859497,129.899139 
	C491.859497,163.286026 491.859497,196.341919 491.859497,229.902069 
	C496.748627,229.902069 501.647888,229.902069 506.763855,229.902069 
	C506.763855,237.480759 506.763855,244.558136 506.763855,251.901657 
	C484.223541,251.901657 461.837097,251.901657 439.225159,251.901657 
	C439.225159,244.628860 439.225159,237.549622 439.225159,230.069031 
	C443.826172,230.069031 448.267365,230.069031 453.100647,230.069031 
	C453.100647,217.270615 453.100647,204.863861 453.100647,192.142883 
	C426.682739,192.142883 400.265137,192.142883 373.506409,192.142883 
	C373.506409,204.202499 373.506409,216.281601 373.506409,228.931549 
	C377.978973,228.931549 382.540466,228.931549 387.462524,228.931549 
	C387.462524,236.868530 387.462524,244.245438 387.462524,251.896744 
	C364.762878,251.896744 342.179565,251.896744 319.297791,251.896744 
	C319.297791,244.722046 319.297791,237.649841 319.297791,229.999496 
	C323.222382,229.999496 327.165344,229.929092 331.104279,230.024399 
	C333.705444,230.087311 335.193481,229.312515 335.186371,226.386597 
	C335.109070,194.557831 335.082520,162.728928 335.030853,130.900085 
	C335.030640,130.770264 334.867493,130.640701 334.495209,130.086060 
	C329.710022,130.086060 324.617188,130.086060 319.011017,130.086060 
	C319.011017,122.728256 318.966919,115.786224 319.086487,108.847023 
	C319.097198,108.226006 320.168610,107.623283 321.228271,107.006866 
z"/>
<path fill="#C8102E" opacity="1.000000" stroke="none" 
	d="
M298.000366,18.507298 
	C307.824371,18.507267 317.148315,18.507267 326.783844,18.507267 
	C326.783844,26.288130 326.783844,33.848637 326.783844,41.804047 
	C322.463623,41.804047 318.200409,41.804047 313.552551,41.804047 
	C313.552551,73.546463 313.552551,104.898659 313.552551,136.672943 
	C318.236267,136.672943 322.834839,136.672943 327.712982,136.672943 
	C327.712982,144.635437 327.712982,152.181198 327.712982,160.152420 
	C317.469513,160.152420 307.345032,160.332275 297.237427,159.998856 
	C295.244751,159.933136 293.120789,158.128723 291.396790,156.712875 
	C286.304718,152.531021 281.226501,148.302933 276.505676,143.719269 
	C275.348114,142.595337 275.224274,140.045364 275.219543,138.149521 
	C275.144714,108.162392 275.166962,78.175011 275.166931,48.187691 
	C275.166931,46.359539 275.166931,44.531387 275.166931,41.999420 
	C271.093445,41.999420 267.162506,41.896206 263.240051,42.034023 
	C260.405853,42.133610 258.875275,41.372787 258.955017,38.151585 
	C259.111115,31.844889 259.000854,25.531601 259.000854,18.507326 
	C272.024750,18.507326 284.762543,18.507326 298.000366,18.507298 
z"/>
<path fill="#C8102E" opacity="1.000000" stroke="none" 
	d="
M394.507263,71.999672 
	C394.507202,61.863926 394.507202,52.228188 394.507202,42.109711 
	C389.607697,42.109711 385.044556,42.109711 380.249634,42.109711 
	C380.249634,34.057922 380.249634,26.492157 380.249634,18.716682 
	C402.749756,18.716682 425.018494,18.716682 447.975830,18.716682 
	C447.975830,25.628731 448.102600,32.551987 447.819824,39.458469 
	C447.783325,40.349373 445.675781,41.782486 444.440887,41.881393 
	C440.516876,42.195671 436.551819,41.997704 432.166656,41.997704 
	C432.166656,44.301346 432.166626,46.091614 432.166626,47.881886 
	C432.166626,77.854950 432.100891,107.828339 432.249878,137.800659 
	C432.268463,141.545792 431.074066,143.830643 428.065308,146.010910 
	C423.940948,148.999588 419.913635,152.318344 416.572083,156.132812 
	C413.570343,159.559326 410.316376,160.367386 406.073517,160.241287 
	C397.603333,159.989563 389.120392,160.166687 380.322021,160.166687 
	C380.322021,152.533646 380.322021,145.117920 380.322021,136.999985 
	C383.248444,136.999985 386.349823,136.806641 389.416840,137.048615 
	C393.306671,137.355499 394.626556,135.956573 394.589661,131.945480 
	C394.407379,112.131638 394.507050,92.315201 394.507263,71.999672 
z"/>
<path fill="#C8112F" opacity="1.000000" stroke="none" 
	d="
M430.674438,153.713348 
	C435.630188,149.235245 440.326111,145.001053 445.709351,140.147141 
	C445.709351,147.260666 445.709351,153.291779 445.709351,159.487488 
	C439.024475,159.487488 432.261536,159.487488 425.498596,159.487488 
	C425.344696,159.135925 425.190796,158.784363 425.036896,158.432800 
	C426.829468,156.940948 428.622070,155.449112 430.674438,153.713348 
z"/>
</svg>