<svg version="1.1" id="Layer_1" xmlns="http://www.w3.org/2000/svg" xmlns:xlink="http://www.w3.org/1999/xlink" x="0px" y="0px"
	 width="100%" viewBox="0 0 225 225" enable-background="new 0 0 225 225" xml:space="preserve">
<path fill="#FEFEFE" opacity="1.000000" stroke="none" 
	d="
M226.000000,61.000000 
	C226.000000,116.333336 226.000000,171.166672 226.000000,226.000000 
	C151.000000,226.000000 76.000000,226.000000 1.000000,226.000000 
	C1.000000,151.000000 1.000000,76.000000 1.000000,1.000000 
	C76.000000,1.000000 151.000000,1.000000 226.000000,1.000000 
	C226.000000,20.833334 226.000000,40.666668 226.000000,61.000000 
M212.343002,76.138000 
	C200.676117,46.535107 180.007751,25.843235 150.335373,14.498470 
	C138.751175,10.069428 126.824120,7.621939 113.992584,8.588871 
	C104.675011,9.291005 95.225967,8.963145 86.161926,11.383272 
	C33.596546,25.418383 0.409212,76.890800 9.112846,130.552200 
	C21.129772,204.641373 104.849342,242.858307 168.925186,203.470947 
	C210.199249,178.099823 230.520584,126.539253 212.343002,76.138000 
z"/>
<path fill="#154A37" opacity="1.000000" stroke="none" 
	d="
M212.526245,76.484848 
	C230.520584,126.539253 210.199249,178.099823 168.925186,203.470947 
	C104.849342,242.858307 21.129772,204.641373 9.112846,130.552200 
	C0.409212,76.890800 33.596546,25.418383 86.161926,11.383272 
	C95.225967,8.963145 104.675011,9.291005 113.992584,8.588871 
	C126.824120,7.621939 138.751175,10.069428 150.335373,14.498470 
	C180.007751,25.843235 200.676117,46.535107 212.526245,76.484848 
M198.641785,168.104309 
	C214.430313,142.586121 218.651520,115.304123 210.874557,86.296417 
	C194.815216,26.395824 125.947594,-4.929232 70.248032,22.022158 
	C35.273243,38.945438 9.395413,78.426361 13.828239,122.655289 
	C16.572811,150.039490 28.599022,172.776794 48.916100,190.369125 
	C64.036499,203.461700 82.252426,211.878494 102.787949,213.594574 
	C109.850037,214.184723 117.057121,215.496948 123.979324,214.663467 
	C132.086929,213.687256 140.152161,211.280807 147.890823,208.525803 
	C169.096283,200.976547 185.890884,187.593781 198.641785,168.104309 
z"/>
<path fill="#F4F1EE" opacity="1.000000" stroke="none" 
	d="
M198.427246,168.397614 
	C185.890884,187.593781 169.096283,200.976547 147.890823,208.525803 
	C140.152161,211.280807 132.086929,213.687256 123.979324,214.663467 
	C117.057121,215.496948 109.850037,214.184723 102.787949,213.594574 
	C82.252426,211.878494 64.036499,203.461700 48.916100,190.369125 
	C28.599022,172.776794 16.572811,150.039490 13.828239,122.655289 
	C9.395413,78.426361 35.273243,38.945438 70.248032,22.022158 
	C125.947594,-4.929232 194.815216,26.395824 210.874557,86.296417 
	C218.651520,115.304123 214.430313,142.586121 198.427246,168.397614 
M29.455883,162.961914 
	C52.366238,198.824539 84.981674,215.068100 127.302643,210.068420 
	C171.039719,204.901459 206.244995,168.690979 210.912384,124.777557 
	C216.597275,71.290688 180.652328,27.010916 133.133942,17.938541 
	C125.677147,16.514866 117.780869,17.569080 110.143578,16.869038 
	C101.157600,16.045370 92.547081,17.687212 84.202957,20.384562 
	C24.500443,39.684181 -1.425209,106.618866 29.455883,162.961914 
z"/>
<path fill="#F47A2B" opacity="1.000000" stroke="none" 
	d="
M29.264633,162.646225 
	C-1.425209,106.618866 24.500443,39.684181 84.202957,20.384562 
	C92.547081,17.687212 101.157600,16.045370 110.143578,16.869038 
	C117.780869,17.569080 125.677147,16.514866 133.133942,17.938541 
	C180.652328,27.010916 216.597275,71.290688 210.912384,124.777557 
	C206.244995,168.690979 171.039719,204.901459 127.302643,210.068420 
	C84.981674,215.068100 52.366238,198.824539 29.264633,162.646225 
M131.487518,79.554161 
	C131.487518,79.554161 131.585907,79.702400 131.469742,80.213921 
	C131.693024,80.467735 131.916306,80.721542 132.424240,81.750595 
	C132.495987,92.387993 132.656845,103.025726 132.617935,113.662720 
	C132.563828,128.452576 132.360001,143.241882 131.678528,158.362350 
	C131.472397,158.944092 131.266266,159.525818 130.627548,160.651794 
	C129.879211,161.346054 129.130890,162.040298 128.382553,162.734558 
	C129.367203,163.140381 130.345062,163.879700 131.337555,163.899872 
	C140.147446,164.078934 148.959824,164.154999 157.771774,164.200668 
	C159.672226,164.210526 161.650742,164.272507 163.462448,163.804214 
	C174.152863,161.040970 180.315964,153.858536 183.112900,143.401642 
	C187.050827,128.678955 187.078156,113.780159 184.516373,98.931786 
	C182.783646,88.888763 178.614929,78.783798 167.767624,76.898384 
	C155.500076,74.766106 142.700912,75.415695 130.134933,75.457687 
	C126.687096,75.469215 128.438217,77.550552 130.349792,79.171379 
	C130.681458,79.263557 131.013123,79.355743 131.487518,79.554161 
M165.476532,68.524178 
	C165.476532,68.524178 165.578079,68.640465 165.500320,69.231422 
	C165.825653,69.417694 166.150970,69.603966 167.261490,70.058769 
	C167.851791,69.874489 168.970016,69.585022 168.957245,69.520905 
	C167.951065,64.471153 166.911896,59.425091 165.657898,54.433338 
	C165.562302,54.052818 163.898087,54.066349 162.359375,53.332798 
	C161.711212,53.222507 161.063095,53.016098 160.414871,53.015736 
	C129.532822,52.998589 98.650742,52.989098 67.768745,53.035000 
	C66.527206,53.036846 65.286469,53.582291 63.256931,53.977688 
	C62.668499,54.186390 61.644657,54.282318 61.557011,54.620724 
	C60.259945,59.628750 59.087086,64.668945 57.884808,69.701515 
	C58.244751,69.922768 58.604694,70.144012 58.964638,70.365257 
	C60.663506,69.314552 62.362373,68.263847 64.481117,67.652130 
	C65.332909,67.402214 66.184708,67.152298 67.947067,66.675705 
	C80.287300,66.741844 92.627533,66.807991 104.978851,67.830330 
	C104.985397,100.962685 104.977295,134.095062 105.036240,167.227325 
	C105.039635,169.137878 105.588493,171.047455 105.949097,173.672928 
	C104.505966,175.297913 103.062843,176.922882 101.338760,178.864227 
	C109.640144,178.864227 117.679306,178.864227 125.718475,178.864227 
	C120.931297,176.357330 121.221306,172.144928 121.244148,168.015793 
	C121.275490,162.350433 121.240540,156.684738 121.253914,151.019226 
	C121.319221,123.363007 121.391151,95.706795 121.989113,67.919098 
	C122.346771,67.532623 122.704430,67.146149 123.985954,66.644638 
	C136.658890,66.733833 149.331833,66.823021 162.157532,67.250069 
	C162.438278,67.170471 162.719040,67.090866 163.465530,66.997818 
	C163.792740,67.056000 164.043121,67.226814 164.322510,68.100006 
	C164.670074,68.205742 165.017639,68.311470 165.476532,68.524178 
M136.320267,199.577301 
	C136.482452,199.867035 136.664230,200.147644 136.803818,200.447891 
	C138.171875,203.390305 140.538910,204.436523 143.287247,202.893066 
	C144.776169,202.056870 145.629196,200.088364 146.769073,198.630615 
	C144.724762,197.759354 142.679977,196.889221 140.637268,196.014267 
	C140.503510,195.956970 140.385529,195.862869 139.886169,195.556137 
	C141.352448,194.759506 142.625824,194.067673 144.153259,193.237808 
	C139.361862,191.589249 137.440994,192.786911 135.222565,198.020676 
	C133.838776,197.267166 132.495346,195.998199 131.061325,195.885834 
	C129.108856,195.732864 126.908524,196.107361 125.177475,196.977692 
	C124.415222,197.360931 124.097786,199.623947 124.376442,200.852509 
	C124.809319,202.760895 125.924179,204.514603 126.885063,206.631561 
	C130.744919,206.527481 134.157715,205.816956 134.186752,200.537918 
	C134.189651,200.009750 135.374146,199.488098 136.320267,199.577301 
M65.285004,78.979385 
	C66.196037,78.303459 67.107071,77.627533 68.018105,76.951607 
	C64.054558,75.753654 60.467411,75.753380 56.880264,75.753708 
	C48.538708,75.754448 48.005886,76.281944 47.997833,84.894608 
	C47.982731,101.048660 48.020206,117.202797 47.979385,133.356766 
	C47.964252,139.345337 47.645805,145.336609 47.774139,151.320038 
	C47.814472,153.200394 48.281071,155.730270 49.540981,156.818314 
	C57.406811,163.611130 65.936432,168.168564 77.120522,165.941681 
	C84.295036,164.513168 91.774261,164.614990 99.116890,164.030807 
	C99.364990,163.593002 99.613083,163.155197 99.861176,162.717392 
	C93.055206,159.355774 95.073357,153.501602 95.045212,148.357315 
	C94.935883,128.373489 94.980354,108.388695 95.016846,88.404350 
	C95.024704,84.102043 93.653748,79.268753 99.382668,77.256836 
	C98.752373,76.440559 98.568031,75.985390 98.372643,75.980598 
	C94.061951,75.874863 89.732643,76.033836 85.443779,75.686600 
	C81.923546,75.401596 79.673950,76.382072 78.380775,80.595390 
	C78.255066,81.238419 78.020142,81.881332 78.019478,82.524490 
	C77.998512,102.915283 77.987427,123.306122 78.034508,143.696823 
	C78.037010,144.778503 78.560318,145.858963 78.892868,147.656708 
	C75.432343,153.987823 69.384323,154.792191 64.957909,148.500519 
	C64.938576,125.523048 64.919243,102.545578 65.285004,78.979385 
M97.535919,30.277306 
	C102.604431,31.786860 105.845695,30.717539 105.915741,26.988436 
	C105.955223,24.886734 104.807587,21.799028 103.213570,20.905146 
	C101.662643,20.035429 98.304054,20.693064 96.728973,21.935177 
	C93.926132,24.145498 94.796135,27.192396 97.535919,30.277306 
M147.014984,192.449890 
	C148.456177,194.890076 149.897385,197.330261 152.147690,201.140411 
	C154.519882,198.060989 157.063263,196.089844 157.499588,193.729248 
	C157.794693,192.132629 155.215332,188.523743 153.758621,188.433014 
	C151.599289,188.298523 149.295471,190.484238 147.014984,192.449890 
M200.617371,103.078766 
	C206.773041,102.119522 207.913849,99.557678 205.095337,92.703270 
	C201.902512,93.249779 198.670929,93.802925 193.745758,94.645958 
	C196.121277,97.915886 197.974457,100.466812 200.617371,103.078766 
M21.229403,115.710907 
	C21.890879,115.733032 22.649960,115.978134 23.196938,115.738693 
	C25.561609,114.703598 28.386951,113.998451 29.990242,112.221733 
	C30.927994,111.182556 30.516037,107.019096 29.601372,106.581604 
	C27.122490,105.395935 24.057360,105.386887 21.205879,105.095535 
	C20.874615,105.061691 20.041721,106.259529 20.136389,106.752998 
	C20.234129,107.262482 21.143658,107.894768 21.762337,107.974518 
	C23.764231,108.232544 25.795654,108.261475 27.815701,108.378670 
	C27.874178,109.007355 27.932653,109.636032 27.991131,110.264709 
	C25.436956,110.773056 22.882782,111.281403 19.721273,111.910622 
	C19.934456,112.939751 20.205952,114.250381 21.229403,115.710907 
M48.683998,55.878044 
	C47.549576,54.388741 45.713413,51.475880 45.391388,51.634621 
	C42.737812,52.942684 40.365219,54.820751 37.574471,56.757107 
	C41.065609,59.577103 43.726948,61.726822 47.232719,64.558640 
	C47.232719,62.128731 47.232719,60.739777 47.232719,59.700455 
	C48.833626,59.021591 50.299805,58.399857 52.905510,57.294914 
	C50.855774,56.626194 50.113224,56.383938 48.683998,55.878044 
M26.293293,128.101196 
	C24.690870,128.386688 23.088446,128.672165 21.000423,129.044174 
	C21.424101,131.440155 21.841982,133.803345 22.287495,136.322800 
	C24.582979,135.998077 26.668150,135.767105 28.726189,135.388611 
	C30.017632,135.151093 32.386646,134.587341 32.364292,134.348526 
	C32.141022,131.963135 31.520823,129.614899 31.012585,127.256187 
	C29.666887,127.619186 28.321190,127.982185 26.293293,128.101196 
M27.621994,149.697525 
	C30.639410,148.556259 33.656826,147.414993 36.674244,146.273727 
	C36.737129,145.812057 36.800014,145.350372 36.862896,144.888702 
	C35.004173,144.424332 33.145447,143.959961 31.110468,143.451569 
	C32.189728,141.515686 33.201221,139.701385 34.212711,137.887070 
	C31.864819,137.682510 30.414759,138.047852 29.111971,138.705124 
	C27.355659,139.591202 25.712729,140.702026 24.021137,141.716400 
	C25.579456,142.392975 27.137775,143.069534 28.200449,143.530914 
	C27.765099,145.589203 27.361723,147.496307 27.621994,149.697525 
M22.288435,100.936943 
	C25.079859,101.467926 27.871284,101.998901 30.662708,102.529884 
	C30.912043,102.015556 31.161375,101.501228 31.410709,100.986900 
	C29.738161,100.101944 28.065613,99.216980 26.409252,98.340584 
	C28.504234,97.036896 30.568508,95.752312 32.632786,94.467728 
	C32.513527,94.050751 32.394268,93.633766 32.275013,93.216789 
	C29.014996,92.519310 25.754982,91.821831 22.494967,91.124352 
	C21.729670,92.018990 20.964373,92.913628 20.199076,93.808266 
	C21.764025,94.245132 23.328976,94.681992 23.720808,94.791374 
	C22.986111,96.792747 22.259562,98.771935 22.288435,100.936943 
M197.499313,152.994995 
	C195.591385,151.828903 193.758209,150.497452 191.736328,149.583420 
	C190.995483,149.248505 189.492783,149.572784 188.875961,150.160934 
	C185.577606,153.306030 186.624680,156.591431 191.093170,157.854584 
	C192.594894,158.279083 193.983139,159.105057 196.203522,160.095642 
	C196.787659,157.853943 197.328644,155.777893 197.499313,152.994995 
M144.358963,24.353046 
	C142.785080,27.365993 141.211182,30.378942 139.378098,33.888092 
	C142.372086,34.911873 144.729767,35.718071 147.556229,36.684566 
	C147.740692,33.518021 147.877792,31.164364 148.034744,28.469921 
	C148.237686,28.469921 149.313660,28.469921 150.389648,28.469921 
	C150.534439,28.069578 150.679245,27.669235 150.824036,27.268892 
	C148.893784,26.394739 146.963531,25.520586 144.358963,24.353046 
M197.112854,105.649483 
	C197.278595,108.756584 197.444351,111.863693 197.625076,115.251534 
	C200.623856,114.086548 203.425888,113.128174 206.093842,111.882622 
	C206.899384,111.506554 207.655106,110.390312 207.810455,109.503906 
	C207.897003,109.010162 206.807587,107.998009 206.063248,107.726654 
	C203.292480,106.716568 200.445114,105.916580 197.112854,105.649483 
M198.780167,140.975845 
	C197.338379,139.774643 195.896591,138.573441 194.379837,137.309799 
	C193.139465,141.038757 192.051605,144.309250 190.832611,147.973984 
	C193.503891,147.973984 195.709000,148.281982 197.772446,147.873840 
	C199.345245,147.562759 200.738403,146.343353 202.211487,145.528046 
	C201.262131,144.167465 200.312775,142.806900 198.780167,140.975845 
M40.304165,65.132759 
	C39.025276,63.655376 37.746387,62.177998 36.062859,60.233170 
	C34.424011,62.914986 33.174267,64.960068 31.832624,67.155540 
	C35.007912,69.110107 37.855278,70.862816 41.009563,72.804459 
	C42.316654,70.205078 43.418224,68.014404 44.519798,65.823730 
	C44.119316,65.615280 43.718834,65.406830 43.318348,65.198387 
	C42.200741,66.234642 41.083130,67.270897 38.800762,69.387123 
	C39.435047,67.195114 39.651779,66.446106 40.304165,65.132759 
M58.208515,48.158848 
	C56.040138,46.409428 53.871761,44.660004 50.762852,42.151772 
	C49.755970,44.610752 48.910740,46.674946 48.065514,48.739143 
	C50.418861,49.422585 52.772209,50.106026 55.182987,50.806149 
	C54.383568,51.479198 53.238754,52.443054 52.049850,53.444031 
	C55.603397,54.940010 57.314747,53.676773 58.208515,48.158848 
M75.408829,192.831741 
	C74.680626,194.631454 73.952431,196.431168 73.087624,198.568527 
	C75.751099,199.456131 78.090919,200.235886 80.430748,201.015640 
	C80.558624,200.615219 80.686508,200.214783 80.814384,199.814362 
	C79.483711,198.890259 78.153038,197.966156 76.822372,197.042053 
	C76.452087,196.193176 76.081810,195.344315 75.711533,194.495438 
	C82.841293,200.392319 81.555214,193.570847 85.217522,192.123932 
	C81.950928,190.683838 79.797661,189.734558 77.414856,188.684082 
	C76.746803,190.111145 76.264412,191.141586 75.408829,192.831741 
M157.396439,31.400610 
	C156.558411,30.538124 155.720383,29.675636 155.530472,29.480175 
	C153.529541,32.704796 151.856812,35.400536 150.238846,38.007980 
	C152.259888,39.005482 154.982239,40.349133 158.191010,41.932854 
	C157.220413,37.523479 158.197922,34.470219 162.556656,32.614506 
	C161.057556,32.255295 159.558456,31.896078 157.396439,31.400610 
M164.631821,45.755352 
	C165.715912,47.069710 166.799988,48.384071 168.221542,50.107578 
	C169.354401,46.384850 170.303436,43.573120 171.018204,40.703045 
	C171.198380,39.979504 170.875656,38.756687 170.336166,38.331284 
	C169.776962,37.890339 168.453140,37.777817 167.847015,38.148453 
	C165.197845,39.768383 162.687912,41.616009 159.429733,43.861942 
	C161.433380,44.493164 162.732819,44.902527 164.631821,45.755352 
M116.917961,20.990032 
	C114.515022,20.189180 112.112076,19.388329 109.375839,18.476395 
	C109.375839,23.497208 109.375839,27.144491 109.375839,30.791773 
	C111.299492,29.698978 112.260933,26.915018 113.007889,26.971426 
	C117.621674,27.319834 115.959145,23.750435 116.917961,20.990032 
M180.174210,50.668968 
	C180.683411,49.909557 181.192612,49.150146 181.701813,48.390732 
	C179.692169,47.289024 176.743591,44.772629 175.856079,45.361660 
	C173.566498,46.881237 172.188034,49.773624 170.445633,52.117638 
	C172.292694,53.240410 174.326263,55.504055 175.946457,55.239174 
	C178.956879,54.747009 178.613205,52.110516 177.303757,49.761436 
	C177.076401,49.353584 177.320145,48.683128 177.346298,48.133965 
	C177.609207,48.059418 177.872101,47.984875 178.134995,47.910328 
	C178.582657,48.791351 179.030319,49.672371 180.174210,50.668968 
M194.476151,65.266441 
	C193.380432,64.603897 192.218918,63.297321 191.201508,63.401268 
	C188.312256,63.696449 185.481842,64.567665 182.566162,65.226120 
	C184.453308,68.128685 186.218948,70.844368 188.152893,73.818916 
	C190.225800,71.176125 192.239120,68.609314 194.476151,65.266441 
M33.947693,74.513443 
	C32.790165,73.214455 31.632633,71.915466 30.475103,70.616478 
	C29.965498,70.943459 29.455893,71.270439 28.946287,71.597420 
	C29.815800,73.610847 30.685312,75.624275 31.580437,77.697006 
	C26.302670,77.447792 26.302670,77.447792 26.446066,82.116280 
	C28.542765,81.777016 30.604252,81.531258 32.622742,81.089180 
	C34.249908,80.732803 35.825142,80.139305 37.423416,79.651009 
	C36.430649,78.115761 35.437885,76.580505 33.947693,74.513443 
M87.736496,204.062607 
	C93.413773,203.666183 93.715752,202.719482 90.124832,196.579346 
	C91.253662,196.297287 92.382500,196.015213 93.511330,195.733139 
	C92.898460,195.104553 92.314713,193.980194 91.667160,193.942169 
	C89.864769,193.836304 88.035896,194.181458 86.217476,194.348495 
	C86.810593,196.781479 87.403709,199.214447 88.053047,201.878082 
	C87.097908,201.464218 85.650162,200.836899 84.202408,200.209579 
	C83.974678,200.502777 83.746941,200.795959 83.519211,201.089142 
	C84.666916,202.036285 85.814629,202.983444 87.736496,204.062607 
M97.858261,203.714584 
	C98.407608,204.764771 98.956955,205.814972 99.441322,206.740952 
	C101.363480,203.010208 102.801643,200.218842 104.702431,196.529587 
	C102.356659,196.190262 99.491806,195.746735 96.610016,195.505524 
	C96.527138,195.498581 95.944229,197.704468 96.163689,198.760254 
	C96.465523,200.212372 97.311089,201.551437 97.858261,203.714584 
M67.781746,31.296473 
	C65.425735,32.885368 63.069733,34.474262 60.713726,36.063156 
	C61.016296,36.522720 61.318871,36.982281 61.621445,37.441841 
	C62.690552,37.027870 63.759659,36.613899 64.817024,36.204472 
	C66.352493,38.586304 67.743629,40.744247 69.132736,42.899040 
	C69.921562,42.387871 70.725807,42.045940 70.691147,41.862690 
	C70.008980,38.256355 69.229408,34.668446 67.781746,31.296473 
M134.746002,31.156504 
	C135.516724,28.177946 134.730743,24.083483 140.526535,24.707085 
	C140.351105,24.189106 140.175659,23.671127 140.000229,23.153147 
	C136.857269,22.404486 133.714294,21.655825 130.571335,20.907164 
	C130.256744,21.281731 129.942169,21.656298 129.627594,22.030865 
	C135.506531,24.549419 131.091843,28.372131 131.602341,31.848236 
	C132.488113,31.848236 133.430054,31.848236 134.746002,31.156504 
M72.772110,28.838272 
	C74.970978,31.446207 77.118477,34.102695 79.457832,36.577858 
	C79.664215,36.796219 81.889900,35.813869 81.881721,35.415844 
	C81.812904,32.069004 81.441559,28.728386 81.161255,25.385895 
	C80.845207,25.258623 80.529167,25.131350 80.213120,25.004076 
	C79.582962,26.791218 78.952797,28.578360 78.479042,29.921947 
	C76.755630,29.419523 75.032394,28.917150 72.772110,28.838272 
M39.712715,151.998978 
	C38.702927,152.262741 37.703537,152.579758 36.681217,152.779358 
	C34.446564,153.215637 32.200268,153.592270 28.997416,154.165253 
	C30.070181,156.190765 31.550188,158.985184 32.696037,161.148697 
	C34.844978,158.777191 36.266754,157.271469 37.612202,155.700378 
	C38.461452,154.708694 39.196640,153.619354 39.712715,151.998978 
M198.081070,77.391655 
	C198.665970,78.178635 199.250870,78.965614 199.835770,79.752594 
	C200.351700,79.477318 200.867630,79.202042 201.383545,78.926765 
	C200.073532,76.044952 198.763504,73.163139 197.453491,70.281326 
	C196.983231,70.304657 196.512970,70.327988 196.042709,70.351318 
	C197.406708,76.345291 191.803818,75.362244 188.734573,78.393997 
	C190.312775,78.818878 191.479324,79.529694 192.412216,79.298325 
	C194.148438,78.867722 195.748566,77.888351 198.081070,77.391655 
M196.870987,135.344620 
	C198.370255,129.816879 202.672424,133.265396 206.460556,132.744629 
	C204.370209,127.658508 199.682419,129.568451 195.260086,126.940132 
	C195.691376,130.804840 195.973892,133.336380 196.870987,135.344620 
M207.868149,119.455429 
	C204.390610,118.749359 200.913071,118.043297 196.848465,117.218033 
	C197.034760,120.719978 197.167770,123.220360 197.300797,125.720734 
	C197.739685,125.702538 198.178574,125.684341 198.617447,125.666138 
	C198.943802,124.143898 199.270142,122.621651 199.452606,121.770538 
	C202.595581,121.203773 205.218353,120.730812 207.868149,119.455429 
M52.748821,181.407333 
	C55.288090,179.811218 57.427917,178.036713 55.762157,174.671448 
	C54.287880,174.302734 52.804218,173.931671 51.289581,173.552872 
	C50.655556,174.923981 50.010246,176.319504 49.424400,177.586426 
	C50.405396,178.726273 51.353184,179.827545 52.748821,181.407333 
M176.261017,179.545975 
	C177.333954,178.462708 178.406876,177.379425 178.981140,176.799622 
	C178.310593,175.095917 177.779831,173.747360 177.293655,172.512131 
	C175.872955,172.909149 174.274796,173.355743 172.547531,173.838409 
	C172.319382,177.405533 172.319382,177.405533 176.261017,179.545975 
M24.362066,87.496567 
	C27.389647,88.379044 30.417229,89.261520 33.985909,90.301712 
	C33.761292,88.855438 33.878780,87.384544 33.447533,87.200684 
	C30.864874,86.099533 28.181047,85.191452 25.455883,84.527557 
	C25.133907,84.449120 24.353235,86.253532 24.362066,87.496567 
M121.024689,205.845627 
	C120.874519,202.890488 120.724350,199.935333 120.533630,196.182159 
	C118.406082,197.517654 117.241196,198.248886 116.813408,198.517410 
	C117.293793,201.151215 117.858604,203.123123 117.965271,205.119476 
	C118.096497,207.575470 118.882545,208.117310 121.024689,205.845627 
M60.323059,41.249619 
	C58.946384,40.232391 58.356808,36.245834 55.563717,40.081715 
	C57.638653,42.739899 59.683979,45.360146 61.826878,48.105392 
	C65.909645,44.820415 61.001602,43.805412 60.323059,41.249619 
M113.806404,35.015572 
	C113.395714,35.158577 112.985023,35.301582 111.824272,35.705765 
	C113.835625,35.705765 115.066597,35.705765 116.297577,35.705765 
	C116.304024,35.546993 116.310463,35.388222 116.316910,35.229450 
	C115.711281,35.147778 115.105644,35.066105 113.806404,35.015572 
z"/>
<path fill="#FFFBFA" opacity="1.000000" stroke="none" 
	d="
M162.963013,53.896717 
	C163.898087,54.066349 165.562302,54.052818 165.657898,54.433338 
	C166.911896,59.425091 167.951065,64.471153 168.957245,69.520905 
	C168.970016,69.585022 167.851791,69.874489 166.779022,69.687866 
	C166.057053,69.091461 165.817566,68.865967 165.578079,68.640465 
	C165.578079,68.640465 165.476532,68.524178 165.286865,68.258789 
	C164.803711,67.832344 164.510193,67.671295 164.216690,67.510246 
	C164.043121,67.226814 163.792740,67.056000 162.990387,66.914703 
	C162.345093,66.858459 162.174927,66.885330 162.004776,66.912209 
	C149.331833,66.823021 136.658890,66.733833 123.309807,66.580811 
	C122.242683,67.028175 121.851715,67.539383 121.460739,68.050583 
	C121.391151,95.706795 121.319221,123.363007 121.253914,151.019226 
	C121.240540,156.684738 121.275490,162.350433 121.244148,168.015793 
	C121.221306,172.144928 120.931297,176.357330 125.718475,178.864227 
	C117.679306,178.864227 109.640144,178.864227 101.338760,178.864227 
	C103.062843,176.922882 104.505966,175.297913 105.994492,172.855057 
	C106.052536,138.289536 106.077644,104.541878 106.030922,70.794319 
	C106.029114,69.487099 105.337791,68.180840 104.967766,66.874130 
	C92.627533,66.807991 80.287300,66.741844 67.115395,66.741974 
	C65.542892,66.943207 64.802071,67.078171 64.061241,67.213135 
	C62.362373,68.263847 60.663506,69.314552 58.964638,70.365257 
	C58.604694,70.144012 58.244751,69.922768 57.884808,69.701515 
	C59.087086,64.668945 60.259945,59.628750 61.557011,54.620724 
	C61.644657,54.282318 62.668499,54.186390 64.110939,54.005333 
	C97.630966,53.987556 130.296997,53.942139 162.963013,53.896717 
z"/>
<path fill="#FFFDFD" opacity="1.000000" stroke="none" 
	d="
M132.220276,158.031433 
	C132.360001,143.241882 132.563828,128.452576 132.617935,113.662720 
	C132.656845,103.025726 132.495987,92.387993 132.295410,81.113686 
	C132.101288,80.122452 131.907730,79.864326 131.585907,79.702400 
	C131.585907,79.702400 131.487518,79.554161 131.287262,79.289078 
	C130.840668,78.773003 130.541656,78.645882 130.189957,78.642624 
	C128.438217,77.550552 126.687096,75.469215 130.134933,75.457687 
	C142.700912,75.415695 155.500076,74.766106 167.767624,76.898384 
	C178.614929,78.783798 182.783646,88.888763 184.516373,98.931786 
	C187.078156,113.780159 187.050827,128.678955 183.112900,143.401642 
	C180.315964,153.858536 174.152863,161.040970 163.462448,163.804214 
	C161.650742,164.272507 159.672226,164.210526 157.771774,164.200668 
	C148.959824,164.154999 140.147446,164.078934 131.337555,163.899872 
	C130.345062,163.879700 129.367203,163.140381 128.382553,162.734558 
	C129.130890,162.040298 129.879211,161.346054 131.141006,160.245514 
	C131.843063,159.236649 132.031677,158.634033 132.220276,158.031433 
M162.610260,150.003433 
	C162.839310,149.720596 163.068344,149.437759 163.890076,148.795044 
	C165.196365,145.969131 167.395004,143.220947 167.649155,140.303391 
	C168.579590,129.622086 169.285370,118.881310 169.206635,108.169312 
	C169.168793,103.021721 167.752029,97.678192 165.933075,92.806747 
	C164.051819,87.768509 160.748459,86.958382 155.338745,88.181068 
	C153.087982,88.495995 150.837219,88.810913 148.377640,90.020859 
	C148.455338,110.078224 148.533051,130.135590 148.897110,150.936813 
	C153.295532,150.653778 157.693954,150.370728 162.024445,150.002182 
	C162.024445,150.002182 162.061157,150.105011 162.610260,150.003433 
z"/>
<path fill="#FFFDFC" opacity="1.000000" stroke="none" 
	d="
M64.914116,149.515839 
	C69.384323,154.792191 75.432343,153.987823 78.947525,146.839935 
	C78.993416,124.019249 78.984657,102.015327 78.975891,80.011398 
	C79.673950,76.382072 81.923546,75.401596 85.443779,75.686600 
	C89.732643,76.033836 94.061951,75.874863 98.372643,75.980598 
	C98.568031,75.985390 98.752373,76.440559 99.382668,77.256836 
	C93.653748,79.268753 95.024704,84.102043 95.016846,88.404350 
	C94.980354,108.388695 94.935883,128.373489 95.045212,148.357315 
	C95.073357,153.501602 93.055206,159.355774 99.861176,162.717392 
	C99.613083,163.155197 99.364990,163.593002 99.116890,164.030807 
	C91.774261,164.614990 84.295036,164.513168 77.120522,165.941681 
	C65.936432,168.168564 57.406811,163.611130 49.540981,156.818314 
	C48.281071,155.730270 47.814472,153.200394 47.774139,151.320038 
	C47.645805,145.336609 47.964252,139.345337 47.979385,133.356766 
	C48.020206,117.202797 47.982731,101.048660 47.997833,84.894608 
	C48.005886,76.281944 48.538708,75.754448 56.880264,75.753708 
	C60.467411,75.753380 64.054558,75.753654 68.018105,76.951607 
	C67.107071,77.627533 66.196037,78.303459 64.756744,79.586426 
	C64.078140,81.005112 63.797630,81.816559 63.796463,82.628426 
	C63.766434,103.538071 63.743572,124.447823 63.809185,145.357285 
	C63.813538,146.744614 64.529266,148.129700 64.914116,149.515839 
z"/>
<path fill="#F36F08" opacity="1.000000" stroke="none" 
	d="
M104.973312,67.352234 
	C105.337791,68.180840 106.029114,69.487099 106.030922,70.794319 
	C106.077644,104.541878 106.052536,138.289536 105.961685,172.497345 
	C105.588493,171.047455 105.039635,169.137878 105.036240,167.227325 
	C104.977295,134.095062 104.985397,100.962685 104.973312,67.352234 
z"/>
<path fill="#FDECE4" opacity="1.000000" stroke="none" 
	d="
M97.222549,30.030865 
	C94.796135,27.192396 93.926132,24.145498 96.728973,21.935177 
	C98.304054,20.693064 101.662643,20.035429 103.213570,20.905146 
	C104.807587,21.799028 105.955223,24.886734 105.915741,26.988436 
	C105.845695,30.717539 102.604431,31.786860 97.222549,30.030865 
z"/>
<path fill="#F36F08" opacity="1.000000" stroke="none" 
	d="
M162.661194,53.614758 
	C130.296997,53.942139 97.630966,53.987556 64.505150,53.953720 
	C65.286469,53.582291 66.527206,53.036846 67.768745,53.035000 
	C98.650742,52.989098 129.532822,52.998589 160.414871,53.015736 
	C161.063095,53.016098 161.711212,53.222507 162.661194,53.614758 
z"/>
<path fill="#FDEEE7" opacity="1.000000" stroke="none" 
	d="
M147.034073,192.066071 
	C149.295471,190.484238 151.599289,188.298523 153.758621,188.433014 
	C155.215332,188.523743 157.794693,192.132629 157.499588,193.729248 
	C157.063263,196.089844 154.519882,198.060989 152.147690,201.140411 
	C149.897385,197.330261 148.456177,194.890076 147.034073,192.066071 
z"/>
<path fill="#FDEBE2" opacity="1.000000" stroke="none" 
	d="
M136.010254,198.963409 
	C135.374146,199.488098 134.189651,200.009750 134.186752,200.537918 
	C134.157715,205.816956 130.744919,206.527481 126.885063,206.631561 
	C125.924179,204.514603 124.809319,202.760895 124.376442,200.852509 
	C124.097786,199.623947 124.415222,197.360931 125.177475,196.977692 
	C126.908524,196.107361 129.108856,195.732864 131.061325,195.885834 
	C132.495346,195.998199 133.838776,197.267166 135.609253,198.231659 
	C136.000717,198.616226 136.005493,198.789810 136.010254,198.963409 
z"/>
<path fill="#FEF1EB" opacity="1.000000" stroke="none" 
	d="
M200.222504,103.048248 
	C197.974457,100.466812 196.121277,97.915886 193.745758,94.645958 
	C198.670929,93.802925 201.902512,93.249779 205.095337,92.703270 
	C207.913849,99.557678 206.773041,102.119522 200.222504,103.048248 
z"/>
<path fill="#FDEAE0" opacity="1.000000" stroke="none" 
	d="
M20.853424,115.635963 
	C20.205952,114.250381 19.934456,112.939751 19.721273,111.910622 
	C22.882782,111.281403 25.436956,110.773056 27.991131,110.264709 
	C27.932653,109.636032 27.874178,109.007355 27.815701,108.378670 
	C25.795654,108.261475 23.764231,108.232544 21.762337,107.974518 
	C21.143658,107.894768 20.234129,107.262482 20.136389,106.752998 
	C20.041721,106.259529 20.874615,105.061691 21.205879,105.095535 
	C24.057360,105.386887 27.122490,105.395935 29.601372,106.581604 
	C30.516037,107.019096 30.927994,111.182556 29.990242,112.221733 
	C28.386951,113.998451 25.561609,114.703598 23.196938,115.738693 
	C22.649960,115.978134 21.890879,115.733032 20.853424,115.635963 
z"/>
<path fill="#FEF1EA" opacity="1.000000" stroke="none" 
	d="
M136.165253,199.270355 
	C136.005493,198.789810 136.000717,198.616226 135.982513,198.182465 
	C137.440994,192.786911 139.361862,191.589249 144.153259,193.237808 
	C142.625824,194.067673 141.352448,194.759506 139.886169,195.556137 
	C140.385529,195.862869 140.503510,195.956970 140.637268,196.014267 
	C142.679977,196.889221 144.724762,197.759354 146.769073,198.630615 
	C145.629196,200.088364 144.776169,202.056870 143.287247,202.893066 
	C140.538910,204.436523 138.171875,203.390305 136.803818,200.447891 
	C136.664230,200.147644 136.482452,199.867035 136.165253,199.270355 
z"/>
<path fill="#FEF5F0" opacity="1.000000" stroke="none" 
	d="
M49.027336,56.009865 
	C50.113224,56.383938 50.855774,56.626194 52.905510,57.294914 
	C50.299805,58.399857 48.833626,59.021591 47.232719,59.700455 
	C47.232719,60.739777 47.232719,62.128731 47.232719,64.558640 
	C43.726948,61.726822 41.065609,59.577103 37.574471,56.757107 
	C40.365219,54.820751 42.737812,52.942684 45.391388,51.634621 
	C45.713413,51.475880 47.549576,54.388741 49.027336,56.009865 
z"/>
<path fill="#FDE9DF" opacity="1.000000" stroke="none" 
	d="
M26.634392,128.223190 
	C28.321190,127.982185 29.666887,127.619186 31.012585,127.256187 
	C31.520823,129.614899 32.141022,131.963135 32.364292,134.348526 
	C32.386646,134.587341 30.017632,135.151093 28.726189,135.388611 
	C26.668150,135.767105 24.582979,135.998077 22.287495,136.322800 
	C21.841982,133.803345 21.424101,131.440155 21.000423,129.044174 
	C23.088446,128.672165 24.690870,128.386688 26.634392,128.223190 
z"/>
<path fill="#FEF0EA" opacity="1.000000" stroke="none" 
	d="
M27.290171,149.550476 
	C27.361723,147.496307 27.765099,145.589203 28.200449,143.530914 
	C27.137775,143.069534 25.579456,142.392975 24.021137,141.716400 
	C25.712729,140.702026 27.355659,139.591202 29.111971,138.705124 
	C30.414759,138.047852 31.864819,137.682510 34.212711,137.887070 
	C33.201221,139.701385 32.189728,141.515686 31.110468,143.451569 
	C33.145447,143.959961 35.004173,144.424332 36.862896,144.888702 
	C36.800014,145.350372 36.737129,145.812057 36.674244,146.273727 
	C33.656826,147.414993 30.639410,148.556259 27.290171,149.550476 
z"/>
<path fill="#FEF4EF" opacity="1.000000" stroke="none" 
	d="
M21.910725,100.844025 
	C22.259562,98.771935 22.986111,96.792747 23.720808,94.791374 
	C23.328976,94.681992 21.764025,94.245132 20.199076,93.808266 
	C20.964373,92.913628 21.729670,92.018990 22.494967,91.124352 
	C25.754982,91.821831 29.014996,92.519310 32.275013,93.216789 
	C32.394268,93.633766 32.513527,94.050751 32.632786,94.467728 
	C30.568508,95.752312 28.504234,97.036896 26.409252,98.340584 
	C28.065613,99.216980 29.738161,100.101944 31.410709,100.986900 
	C31.161375,101.501228 30.912043,102.015556 30.662708,102.529884 
	C27.871284,101.998901 25.079859,101.467926 21.910725,100.844025 
z"/>
<path fill="#FDECE4" opacity="1.000000" stroke="none" 
	d="
M197.684479,153.348419 
	C197.328644,155.777893 196.787659,157.853943 196.203522,160.095642 
	C193.983139,159.105057 192.594894,158.279083 191.093170,157.854584 
	C186.624680,156.591431 185.577606,153.306030 188.875961,150.160934 
	C189.492783,149.572784 190.995483,149.248505 191.736328,149.583420 
	C193.758209,150.497452 195.591385,151.828903 197.684479,153.348419 
z"/>
<path fill="#FDEBE2" opacity="1.000000" stroke="none" 
	d="
M144.696121,24.499741 
	C146.963531,25.520586 148.893784,26.394739 150.824036,27.268892 
	C150.679245,27.669235 150.534439,28.069578 150.389648,28.469921 
	C149.313660,28.469921 148.237686,28.469921 148.034744,28.469921 
	C147.877792,31.164364 147.740692,33.518021 147.556229,36.684566 
	C144.729767,35.718071 142.372086,34.911873 139.378098,33.888092 
	C141.211182,30.378942 142.785080,27.365993 144.696121,24.499741 
z"/>
<path fill="#FDECE4" opacity="1.000000" stroke="none" 
	d="
M197.369690,105.343605 
	C200.445114,105.916580 203.292480,106.716568 206.063248,107.726654 
	C206.807587,107.998009 207.897003,109.010162 207.810455,109.503906 
	C207.655106,110.390312 206.899384,111.506554 206.093842,111.882622 
	C203.425888,113.128174 200.623856,114.086548 197.625076,115.251534 
	C197.444351,111.863693 197.278595,108.756584 197.369690,105.343605 
z"/>
<path fill="#FEF5F1" opacity="1.000000" stroke="none" 
	d="
M199.071793,141.211090 
	C200.312775,142.806900 201.262131,144.167465 202.211487,145.528046 
	C200.738403,146.343353 199.345245,147.562759 197.772446,147.873840 
	C195.709000,148.281982 193.503891,147.973984 190.832611,147.973984 
	C192.051605,144.309250 193.139465,141.038757 194.379837,137.309799 
	C195.896591,138.573441 197.338379,139.774643 199.071793,141.211090 
z"/>
<path fill="#FDEDE5" opacity="1.000000" stroke="none" 
	d="
M40.086338,65.414932 
	C39.651779,66.446106 39.435047,67.195114 38.800762,69.387123 
	C41.083130,67.270897 42.200741,66.234642 43.318348,65.198387 
	C43.718834,65.406830 44.119316,65.615280 44.519798,65.823730 
	C43.418224,68.014404 42.316654,70.205078 41.009563,72.804459 
	C37.855278,70.862816 35.007912,69.110107 31.832624,67.155540 
	C33.174267,64.960068 34.424011,62.914986 36.062859,60.233170 
	C37.746387,62.177998 39.025276,63.655376 40.086338,65.414932 
z"/>
<path fill="#FDEEE6" opacity="1.000000" stroke="none" 
	d="
M58.377495,48.475967 
	C57.314747,53.676773 55.603397,54.940010 52.049850,53.444031 
	C53.238754,52.443054 54.383568,51.479198 55.182987,50.806149 
	C52.772209,50.106026 50.418861,49.422585 48.065514,48.739143 
	C48.910740,46.674946 49.755970,44.610752 50.762852,42.151772 
	C53.871761,44.660004 56.040138,46.409428 58.377495,48.475967 
z"/>
<path fill="#FEF1EA" opacity="1.000000" stroke="none" 
	d="
M75.595428,192.501892 
	C76.264412,191.141586 76.746803,190.111145 77.414856,188.684082 
	C79.797661,189.734558 81.950928,190.683838 85.217522,192.123932 
	C81.555214,193.570847 82.841293,200.392319 75.711533,194.495438 
	C76.081810,195.344315 76.452087,196.193176 76.822372,197.042053 
	C78.153038,197.966156 79.483711,198.890259 80.814384,199.814362 
	C80.686508,200.214783 80.558624,200.615219 80.430748,201.015640 
	C78.090919,200.235886 75.751099,199.456131 73.087624,198.568527 
	C73.952431,196.431168 74.680626,194.631454 75.595428,192.501892 
z"/>
<path fill="#FEF3ED" opacity="1.000000" stroke="none" 
	d="
M157.727905,31.468737 
	C159.558456,31.896078 161.057556,32.255295 162.556656,32.614506 
	C158.197922,34.470219 157.220413,37.523479 158.191010,41.932854 
	C154.982239,40.349133 152.259888,39.005482 150.238846,38.007980 
	C151.856812,35.400536 153.529541,32.704796 155.530472,29.480175 
	C155.720383,29.675636 156.558411,30.538124 157.727905,31.468737 
z"/>
<path fill="#FDEDE4" opacity="1.000000" stroke="none" 
	d="
M164.332031,45.533623 
	C162.732819,44.902527 161.433380,44.493164 159.429733,43.861942 
	C162.687912,41.616009 165.197845,39.768383 167.847015,38.148453 
	C168.453140,37.777817 169.776962,37.890339 170.336166,38.331284 
	C170.875656,38.756687 171.198380,39.979504 171.018204,40.703045 
	C170.303436,43.573120 169.354401,46.384850 168.221542,50.107578 
	C166.799988,48.384071 165.715912,47.069710 164.332031,45.533623 
z"/>
<path fill="#FDE5D9" opacity="1.000000" stroke="none" 
	d="
M116.813293,21.355896 
	C115.959145,23.750435 117.621674,27.319834 113.007889,26.971426 
	C112.260933,26.915018 111.299492,29.698978 109.375839,30.791773 
	C109.375839,27.144491 109.375839,23.497208 109.375839,18.476395 
	C112.112076,19.388329 114.515022,20.189180 116.813293,21.355896 
z"/>
<path fill="#FEF2EC" opacity="1.000000" stroke="none" 
	d="
M179.826096,50.611183 
	C179.030319,49.672371 178.582657,48.791351 178.134995,47.910328 
	C177.872101,47.984875 177.609207,48.059418 177.346298,48.133965 
	C177.320145,48.683128 177.076401,49.353584 177.303757,49.761436 
	C178.613205,52.110516 178.956879,54.747009 175.946457,55.239174 
	C174.326263,55.504055 172.292694,53.240410 170.445633,52.117638 
	C172.188034,49.773624 173.566498,46.881237 175.856079,45.361660 
	C176.743591,44.772629 179.692169,47.289024 181.701813,48.390732 
	C181.192612,49.150146 180.683411,49.909557 179.826096,50.611183 
z"/>
<path fill="#FEF3ED" opacity="1.000000" stroke="none" 
	d="
M194.364288,65.654472 
	C192.239120,68.609314 190.225800,71.176125 188.152893,73.818916 
	C186.218948,70.844368 184.453308,68.128685 182.566162,65.226120 
	C185.481842,64.567665 188.312256,63.696449 191.201508,63.401268 
	C192.218918,63.297321 193.380432,64.603897 194.364288,65.654472 
z"/>
<path fill="#F37111" opacity="1.000000" stroke="none" 
	d="
M64.936012,149.008179 
	C64.529266,148.129700 63.813538,146.744614 63.809185,145.357285 
	C63.743572,124.447823 63.766434,103.538071 63.796463,82.628426 
	C63.797630,81.816559 64.078140,81.005112 64.564194,79.880783 
	C64.919243,102.545578 64.938576,125.523048 64.936012,149.008179 
z"/>
<path fill="#FEF1EA" opacity="1.000000" stroke="none" 
	d="
M34.196404,74.779350 
	C35.437885,76.580505 36.430649,78.115761 37.423416,79.651009 
	C35.825142,80.139305 34.249908,80.732803 32.622742,81.089180 
	C30.604252,81.531258 28.542765,81.777016 26.446066,82.116280 
	C26.302670,77.447792 26.302670,77.447792 31.580437,77.697006 
	C30.685312,75.624275 29.815800,73.610847 28.946287,71.597420 
	C29.455893,71.270439 29.965498,70.943459 30.475103,70.616478 
	C31.632633,71.915466 32.790165,73.214455 34.196404,74.779350 
z"/>
<path fill="#FEF1EA" opacity="1.000000" stroke="none" 
	d="
M87.349411,203.996597 
	C85.814629,202.983444 84.666916,202.036285 83.519211,201.089142 
	C83.746941,200.795959 83.974678,200.502777 84.202408,200.209579 
	C85.650162,200.836899 87.097908,201.464218 88.053047,201.878082 
	C87.403709,199.214447 86.810593,196.781479 86.217476,194.348495 
	C88.035896,194.181458 89.864769,193.836304 91.667160,193.942169 
	C92.314713,193.980194 92.898460,195.104553 93.511330,195.733139 
	C92.382500,196.015213 91.253662,196.297287 90.124542,196.578156 
	C93.715752,202.719482 93.413773,203.666183 87.349411,203.996597 
z"/>
<path fill="#F36F08" opacity="1.000000" stroke="none" 
	d="
M78.678329,80.303391 
	C78.984657,102.015327 78.993416,124.019249 78.921677,146.481598 
	C78.560318,145.858963 78.037010,144.778503 78.034508,143.696823 
	C77.987427,123.306122 77.998512,102.915283 78.019478,82.524490 
	C78.020142,81.881332 78.255066,81.238419 78.678329,80.303391 
z"/>
<path fill="#FDE8DE" opacity="1.000000" stroke="none" 
	d="
M97.890976,203.326767 
	C97.311089,201.551437 96.465523,200.212372 96.163689,198.760254 
	C95.944229,197.704468 96.527138,195.498581 96.610016,195.505524 
	C99.491806,195.746735 102.356659,196.190262 104.702431,196.529587 
	C102.801643,200.218842 101.363480,203.010208 99.441322,206.740952 
	C98.956955,205.814972 98.407608,204.764771 97.890976,203.326767 
z"/>
<path fill="#FEF0EA" opacity="1.000000" stroke="none" 
	d="
M68.125717,31.186626 
	C69.229408,34.668446 70.008980,38.256355 70.691147,41.862690 
	C70.725807,42.045940 69.921562,42.387871 69.132736,42.899040 
	C67.743629,40.744247 66.352493,38.586304 64.817024,36.204472 
	C63.759659,36.613899 62.690552,37.027870 61.621445,37.441841 
	C61.318871,36.982281 61.016296,36.522720 60.713726,36.063156 
	C63.069733,34.474262 65.425735,32.885368 68.125717,31.186626 
z"/>
<path fill="#FDEDE5" opacity="1.000000" stroke="none" 
	d="
M134.558990,31.502369 
	C133.430054,31.848236 132.488113,31.848236 131.602341,31.848236 
	C131.091843,28.372131 135.506531,24.549419 129.627594,22.030865 
	C129.942169,21.656298 130.256744,21.281731 130.571335,20.907164 
	C133.714294,21.655825 136.857269,22.404486 140.000229,23.153147 
	C140.175659,23.671127 140.351105,24.189106 140.526535,24.707085 
	C134.730743,24.083483 135.516724,28.177946 134.558990,31.502369 
z"/>
<path fill="#FEF0EA" opacity="1.000000" stroke="none" 
	d="
M73.040634,28.626526 
	C75.032394,28.917150 76.755630,29.419523 78.479042,29.921947 
	C78.952797,28.578360 79.582962,26.791218 80.213120,25.004076 
	C80.529167,25.131350 80.845207,25.258623 81.161255,25.385895 
	C81.441559,28.728386 81.812904,32.069004 81.881721,35.415844 
	C81.889900,35.813869 79.664215,36.796219 79.457832,36.577858 
	C77.118477,34.102695 74.970978,31.446207 73.040634,28.626526 
z"/>
<path fill="#FEEFE8" opacity="1.000000" stroke="none" 
	d="
M39.847855,152.286392 
	C39.196640,153.619354 38.461452,154.708694 37.612202,155.700378 
	C36.266754,157.271469 34.844978,158.777191 32.696037,161.148697 
	C31.550188,158.985184 30.070181,156.190765 28.997416,154.165253 
	C32.200268,153.592270 34.446564,153.215637 36.681217,152.779358 
	C37.703537,152.579758 38.702927,152.262741 39.847855,152.286392 
z"/>
<path fill="#FEF3EE" opacity="1.000000" stroke="none" 
	d="
M197.743195,77.264534 
	C195.748566,77.888351 194.148438,78.867722 192.412216,79.298325 
	C191.479324,79.529694 190.312775,78.818878 188.734573,78.393997 
	C191.803818,75.362244 197.406708,76.345291 196.042709,70.351318 
	C196.512970,70.327988 196.983231,70.304657 197.453491,70.281326 
	C198.763504,73.163139 200.073532,76.044952 201.383545,78.926765 
	C200.867630,79.202042 200.351700,79.477318 199.835770,79.752594 
	C199.250870,78.965614 198.665970,78.178635 197.743195,77.264534 
z"/>
<path fill="#FEEFE8" opacity="1.000000" stroke="none" 
	d="
M196.563690,135.606262 
	C195.973892,133.336380 195.691376,130.804840 195.260086,126.940132 
	C199.682419,129.568451 204.370209,127.658508 206.460556,132.744629 
	C202.672424,133.265396 198.370255,129.816879 196.563690,135.606262 
z"/>
<path fill="#FEEFE8" opacity="1.000000" stroke="none" 
	d="
M207.854645,119.856636 
	C205.218353,120.730812 202.595581,121.203773 199.452606,121.770538 
	C199.270142,122.621651 198.943802,124.143898 198.617447,125.666138 
	C198.178574,125.684341 197.739685,125.702538 197.300797,125.720734 
	C197.167770,123.220360 197.034760,120.719978 196.848465,117.218033 
	C200.913071,118.043297 204.390610,118.749359 207.854645,119.856636 
z"/>
<path fill="#FEF4EF" opacity="1.000000" stroke="none" 
	d="
M52.524895,181.168076 
	C51.353184,179.827545 50.405396,178.726273 49.424400,177.586426 
	C50.010246,176.319504 50.655556,174.923981 51.289581,173.552872 
	C52.804218,173.931671 54.287880,174.302734 55.762157,174.671448 
	C57.427917,178.036713 55.288090,179.811218 52.524895,181.168076 
z"/>
<path fill="#FDECE4" opacity="1.000000" stroke="none" 
	d="
M176.132721,179.863464 
	C172.319382,177.405533 172.319382,177.405533 172.547531,173.838409 
	C174.274796,173.355743 175.872955,172.909149 177.293655,172.512131 
	C177.779831,173.747360 178.310593,175.095917 178.981140,176.799622 
	C178.406876,177.379425 177.333954,178.462708 176.132721,179.863464 
z"/>
<path fill="#FEEFE8" opacity="1.000000" stroke="none" 
	d="
M24.073631,87.340851 
	C24.353235,86.253532 25.133907,84.449120 25.455883,84.527557 
	C28.181047,85.191452 30.864874,86.099533 33.447533,87.200684 
	C33.878780,87.384544 33.761292,88.855438 33.985909,90.301712 
	C30.417229,89.261520 27.389647,88.379044 24.073631,87.340851 
z"/>
<path fill="#FEF1EB" opacity="1.000000" stroke="none" 
	d="
M120.962151,206.253693 
	C118.882545,208.117310 118.096497,207.575470 117.965271,205.119476 
	C117.858604,203.123123 117.293793,201.151215 116.813408,198.517410 
	C117.241196,198.248886 118.406082,197.517654 120.533630,196.182159 
	C120.724350,199.935333 120.874519,202.890488 120.962151,206.253693 
z"/>
<path fill="#FEF2EC" opacity="1.000000" stroke="none" 
	d="
M60.544025,41.517792 
	C61.001602,43.805412 65.909645,44.820415 61.826878,48.105392 
	C59.683979,45.360146 57.638653,42.739899 55.563717,40.081715 
	C58.356808,36.245834 58.946384,40.232391 60.544025,41.517792 
z"/>
<path fill="#FBD0BB" opacity="1.000000" stroke="none" 
	d="
M114.153214,35.000000 
	C115.105644,35.066105 115.711281,35.147778 116.316910,35.229450 
	C116.310463,35.388222 116.304024,35.546993 116.297577,35.705765 
	C115.066597,35.705765 113.835625,35.705765 111.824272,35.705765 
	C112.985023,35.301582 113.395714,35.158577 114.153214,35.000000 
z"/>
<path fill="#F58843" opacity="1.000000" stroke="none" 
	d="
M121.724930,67.984840 
	C121.851715,67.539383 122.242683,67.028175 122.847870,66.638329 
	C122.704430,67.146149 122.346771,67.532623 121.724930,67.984840 
z"/>
<path fill="#F47318" opacity="1.000000" stroke="none" 
	d="
M64.271179,67.432632 
	C64.802071,67.078171 65.542892,66.943207 66.660110,66.855316 
	C66.184708,67.152298 65.332909,67.402214 64.271179,67.432632 
z"/>
<path fill="#F69151" opacity="1.000000" stroke="none" 
	d="
M131.949402,158.196899 
	C132.031677,158.634033 131.843063,159.236649 131.357300,159.973404 
	C131.266266,159.525818 131.472397,158.944092 131.949402,158.196899 
z"/>
<path fill="#F58843" opacity="1.000000" stroke="none" 
	d="
M165.539200,68.935944 
	C165.817566,68.865967 166.057053,69.091461 166.386414,69.553604 
	C166.150970,69.603966 165.825653,69.417694 165.539200,68.935944 
z"/>
<path fill="#F58843" opacity="1.000000" stroke="none" 
	d="
M164.269592,67.805130 
	C164.510193,67.671295 164.803711,67.832344 165.231201,68.205299 
	C165.017639,68.311470 164.670074,68.205742 164.269592,67.805130 
z"/>
<path fill="#F58843" opacity="1.000000" stroke="none" 
	d="
M162.081146,67.081139 
	C162.174927,66.885330 162.345093,66.858459 162.757507,66.921417 
	C162.719040,67.090866 162.438278,67.170471 162.081146,67.081139 
z"/>
<path fill="#F69151" opacity="1.000000" stroke="none" 
	d="
M131.527832,79.958160 
	C131.907730,79.864326 132.101288,80.122452 132.153076,80.726059 
	C131.916306,80.721542 131.693024,80.467735 131.527832,79.958160 
z"/>
<path fill="#F69151" opacity="1.000000" stroke="none" 
	d="
M130.269867,78.906998 
	C130.541656,78.645882 130.840668,78.773003 131.215912,79.235962 
	C131.013123,79.355743 130.681458,79.263557 130.269867,78.906998 
z"/>
<path fill="#F47A2B" opacity="1.000000" stroke="none" 
	d="
M148.610748,150.192963 
	C148.533051,130.135590 148.455338,110.078224 148.849838,89.576233 
	C151.396179,89.046326 153.470306,88.961052 155.544449,88.875778 
	C160.748459,86.958382 164.051819,87.768509 165.933075,92.806747 
	C167.752029,97.678192 169.168793,103.021721 169.206635,108.169312 
	C169.285370,118.881310 168.579590,129.622086 167.649155,140.303391 
	C167.395004,143.220947 165.196365,145.969131 163.325836,149.037643 
	C162.528122,149.555161 162.294647,149.830093 162.061157,150.105011 
	C162.061157,150.105011 162.024445,150.002182 161.586227,150.026093 
	C156.968918,150.097672 152.789841,150.145309 148.610748,150.192963 
z"/>
<path fill="#F68E4E" opacity="1.000000" stroke="none" 
	d="
M148.753937,150.564880 
	C152.789841,150.145309 156.968918,150.097672 161.620193,150.068848 
	C157.693954,150.370728 153.295532,150.653778 148.753937,150.564880 
z"/>
<path fill="#F68E4E" opacity="1.000000" stroke="none" 
	d="
M155.441589,88.528427 
	C153.470306,88.961052 151.396179,89.046326 148.954254,89.128723 
	C150.837219,88.810913 153.087982,88.495995 155.441589,88.528427 
z"/>
<path fill="#F68E4E" opacity="1.000000" stroke="none" 
	d="
M162.335709,150.054230 
	C162.294647,149.830093 162.528122,149.555161 163.029495,149.217575 
	C163.068344,149.437759 162.839310,149.720596 162.335709,150.054230 
z"/>
</svg>