<svg version="1.1" id="Layer_1" xmlns="http://www.w3.org/2000/svg" xmlns:xlink="http://www.w3.org/1999/xlink" x="0px" y="0px"
	 width="100%" viewBox="0 0 1000 666" enable-background="new 0 0 1000 666" xml:space="preserve">
<path fill="#FFFFFF" opacity="1.000000" stroke="none" 
	d="
M632.000000,667.000000 
	C421.333405,667.000000 211.166794,667.000000 1.000141,667.000000 
	C1.000094,445.000122 1.000094,223.000259 1.000047,1.000290 
	C334.333099,1.000193 667.666199,1.000193 1000.999512,1.000097 
	C1000.999634,222.999710 1000.999634,444.999420 1000.999817,666.999573 
	C878.166687,667.000000 755.333313,667.000000 632.000000,667.000000 
M347.807037,248.870804 
	C345.037537,248.502304 342.268066,248.133804 339.227722,247.729279 
	C339.227722,250.993393 339.227722,253.907822 339.227722,257.029114 
	C348.099548,256.129517 353.069183,260.952484 356.402252,268.159546 
	C357.376373,270.265930 358.296722,272.413544 359.027191,274.613464 
	C362.376495,284.700531 365.796936,294.768921 368.837921,304.949707 
	C369.525146,307.250458 369.450500,310.217072 368.614075,312.462799 
	C363.572571,325.998779 358.214294,339.416901 352.947693,352.868835 
	C350.165131,359.976013 347.353516,367.071869 344.214783,375.036194 
	C343.290222,372.888672 342.717438,371.723480 342.276764,370.510315 
	C334.174164,348.203186 326.070221,325.896545 318.005066,303.575867 
	C314.452301,293.743347 310.653107,283.982605 307.566284,274.003510 
	C304.023285,262.549652 307.459625,257.497803 318.302246,256.924133 
	C318.557861,256.910614 318.794708,256.541626 318.891449,256.461578 
	C318.891449,253.560944 318.891449,250.795074 318.891449,247.673019 
	C297.945312,251.117462 277.267731,250.847931 256.367493,247.712875 
	C256.367493,251.071365 256.367493,253.827026 256.367493,256.984375 
	C266.585083,255.887543 271.082062,262.354218 274.384064,270.359802 
	C275.143372,272.200745 275.936584,274.031281 276.605072,275.905518 
	C288.426544,309.049103 300.223846,342.201324 312.042664,375.345856 
	C317.439240,390.480011 322.871094,405.601562 328.285583,420.725098 
	C332.275818,420.725098 335.928986,420.725098 340.023987,420.725098 
	C351.981262,389.980347 363.988281,359.107697 376.318481,327.404114 
	C386.270569,357.758850 396.118042,387.019775 405.315460,416.483612 
	C407.216187,422.572632 411.106140,420.267303 414.603607,420.871124 
	C418.358368,421.519440 419.725342,419.700623 420.760162,416.324829 
	C431.077026,382.669220 441.546051,349.060181 451.986084,315.442352 
	C456.467316,301.012421 460.909943,286.569885 465.503326,272.175598 
	C469.153137,260.738129 473.743286,257.315369 485.239563,256.977783 
	C485.689789,256.964539 486.132996,256.713745 486.583862,256.572266 
	C486.583862,253.675674 486.583862,250.922318 486.583862,248.042175 
	C478.390686,248.648087 470.463013,249.698395 462.536316,249.691162 
	C454.475220,249.683792 446.415100,248.634338 437.994812,248.014740 
	C437.994812,249.734222 437.964752,251.203842 438.003418,252.671661 
	C438.040924,254.095657 438.149017,255.517822 438.223877,256.899170 
	C454.661560,257.359161 456.240540,259.409576 451.771271,273.718048 
	C443.800812,299.235687 435.873810,324.766907 427.900726,350.283691 
	C425.971405,356.458252 423.933350,362.598816 421.616150,369.774170 
	C411.006989,336.281158 400.759155,303.997711 390.562592,271.698090 
	C387.328888,261.454712 389.887146,257.738800 400.470612,256.992218 
	C400.929993,256.959808 401.381439,256.815094 401.836670,256.722687 
	C401.836670,253.695572 401.836670,250.807938 401.836670,247.669785 
	C383.948212,250.536087 366.355011,250.906219 347.807037,248.870804 
M793.499939,418.842041 
	C801.740601,418.842041 809.981201,418.842041 818.205688,418.842041 
	C818.205688,415.353149 818.205688,412.603271 818.205688,409.920807 
	C807.457886,407.993378 806.178711,406.565643 805.544800,395.751648 
	C805.330688,392.099274 805.177185,388.436096 805.192322,384.778717 
	C805.260742,368.293457 805.562317,351.807587 805.473206,335.323608 
	C805.354004,313.274780 794.072388,299.571564 774.069580,297.157623 
	C758.459412,295.273804 744.376221,299.104370 732.229431,309.354980 
	C731.321716,310.121002 730.327881,310.784912 728.726196,311.979614 
	C728.726196,290.064697 728.726196,268.999847 728.726196,248.527740 
	C714.970520,248.527740 701.606140,248.527740 688.302002,248.527740 
	C688.302002,251.154236 688.302002,253.900848 688.302002,256.689728 
	C689.415100,256.788757 690.227661,256.878021 691.042542,256.930939 
	C698.807190,257.435272 700.364258,258.905731 701.209961,266.829712 
	C701.527100,269.801880 701.797913,272.797058 701.800903,275.782043 
	C701.839844,314.263336 701.853210,352.744720 701.782837,391.225891 
	C701.776184,394.867249 701.388184,398.546722 700.769287,402.138214 
	C700.010315,406.542572 697.417175,409.273254 692.648743,409.430054 
	C691.369934,409.472076 690.096375,409.675293 688.750549,409.811584 
	C688.750549,412.891022 688.750549,415.648499 688.750549,418.617126 
	C706.586304,418.617126 724.154968,418.617126 741.833740,418.617126 
	C741.833740,415.510986 741.833740,412.641113 741.833740,409.820251 
	C731.715271,408.673889 729.836243,406.693848 729.100952,396.704803 
	C729.039917,395.875061 729.008911,395.041138 729.008728,394.209167 
	C729.003662,374.052277 728.979553,353.895325 729.053955,333.738708 
	C729.059692,332.176483 729.370789,330.353180 730.209839,329.099579 
	C734.981140,321.970734 741.374878,316.758606 749.679688,314.335968 
	C765.597778,309.692474 777.746216,317.406860 777.930298,332.536407 
	C778.185547,353.517181 778.129395,374.504517 777.943237,395.486694 
	C777.844727,406.595276 775.995422,408.425507 765.295837,409.924072 
	C765.295837,412.794220 765.295837,415.674896 765.295837,418.842041 
	C774.562073,418.842041 783.530945,418.842041 793.499939,418.842041 
M945.825378,294.500122 
	C945.825500,316.497192 945.988098,338.496338 945.712830,360.489960 
	C945.642944,366.073242 944.845093,371.839264 943.239380,377.177704 
	C936.841003,398.449951 915.843994,410.137787 892.341980,406.571594 
	C875.765503,404.056366 865.483154,394.754059 861.330627,378.932556 
	C859.448059,371.759705 858.423096,364.175720 858.309326,356.758270 
	C857.905396,330.435547 857.969666,304.103790 858.087585,277.776489 
	C858.109680,272.844482 858.918213,267.862610 859.875671,263.004608 
	C860.683655,258.905457 863.713745,256.968201 867.921936,257.003204 
	C869.524475,257.016541 871.127319,257.005341 872.634766,257.005341 
	C872.634766,253.640549 872.634766,250.781586 872.634766,249.025330 
	C852.724182,249.025330 833.184875,249.025330 813.479797,249.025330 
	C813.479797,251.074524 813.479797,253.955154 813.479797,256.823669 
	C825.139832,257.109741 827.462280,259.432922 827.997681,271.045013 
	C828.066711,272.542358 828.142212,274.041077 828.149414,275.539459 
	C828.266724,300.028717 828.171814,324.521484 828.593323,349.005402 
	C828.738586,357.444824 829.502014,365.992859 831.133484,374.264404 
	C835.509827,396.452911 848.327393,411.236572 870.690125,417.010223 
	C882.920410,420.167847 895.415710,421.213043 907.856750,419.792358 
	C931.181702,417.128784 948.068298,405.349274 955.300720,382.344910 
	C957.609619,375.000977 958.718689,367.014862 958.845825,359.297394 
	C959.306885,331.310028 958.881775,303.308624 959.275085,275.319336 
	C959.468567,261.549408 961.579895,256.678925 975.743042,256.703461 
	C975.743042,253.796799 975.743042,250.893799 975.743042,248.875427 
	C959.662781,248.875427 943.847961,248.875427 928.086487,248.875427 
	C928.086487,251.229279 928.086487,253.980667 928.086487,256.710968 
	C941.517517,257.100616 944.989136,260.289185 945.727966,273.507172 
	C946.099365,280.152588 945.813843,286.834717 945.825378,294.500122 
M474.781952,416.827698 
	C494.664276,425.442902 512.326172,418.439941 529.788879,408.901611 
	C532.143250,415.144684 537.106506,418.002960 543.305420,418.305542 
	C551.071228,418.684601 558.869568,418.396759 566.810303,418.396759 
	C566.810303,415.394287 566.810303,412.353699 566.810303,409.349426 
	C559.431335,408.709503 557.591248,406.872070 557.035706,399.745270 
	C556.867676,397.589813 556.856384,395.418365 556.855042,393.254211 
	C556.842651,373.425812 556.933533,353.596985 556.825073,333.769165 
	C556.712524,313.197906 545.786011,300.679260 525.413696,297.987091 
	C519.337402,297.184113 513.087708,296.646606 507.007690,297.127930 
	C492.721710,298.258789 479.484528,302.352936 470.149597,314.236359 
	C465.863770,319.692261 463.845551,325.959808 465.979126,332.952698 
	C467.870300,339.151062 472.797729,341.855042 479.158081,340.331360 
	C485.960571,338.701752 489.600891,334.130157 490.008362,326.705383 
	C490.495850,317.822601 494.618164,311.981812 502.043671,309.652924 
	C516.049927,305.260071 529.446716,314.941376 529.477051,329.479065 
	C529.480835,331.311951 529.336670,333.158020 529.508606,334.974548 
	C529.757935,337.609344 528.749329,338.697540 526.106384,339.359894 
	C518.052551,341.378265 510.035736,343.588715 502.109711,346.061615 
	C491.520538,349.365387 480.817749,352.345245 471.645264,359.151398 
	C453.606873,372.536224 454.228729,406.278595 474.781952,416.827698 
M25.989296,338.500000 
	C25.988630,355.665680 26.024038,372.831512 25.969770,389.997009 
	C25.947664,396.989227 27.868347,403.468262 32.998169,408.089325 
	C37.883072,412.489685 43.263447,416.968018 49.243183,419.415375 
	C73.983681,429.541260 99.007889,438.979248 124.019287,448.428009 
	C126.071930,449.203461 128.976822,448.641296 131.204727,447.879181 
	C142.206833,444.115570 153.273499,440.462280 164.017975,436.042267 
	C180.266357,429.357971 196.554520,422.650604 212.276062,414.845734 
	C223.508865,409.269287 227.984055,398.986023 227.937622,386.291168 
	C227.740112,332.294189 227.858475,278.296051 227.836456,224.298340 
	C227.835754,222.587204 227.562027,220.876160 227.391830,218.887451 
	C193.665466,225.399353 160.426773,230.115753 126.684525,230.141327 
	C92.868782,230.166962 59.529671,225.591782 25.989296,218.805344 
	C25.989296,258.886444 25.989296,298.193237 25.989296,338.500000 
M670.640381,333.821167 
	C670.640381,323.043549 670.640381,312.265930 670.640381,301.653351 
	C665.131592,301.095306 659.824646,300.582611 654.523560,300.015167 
	C645.299377,299.027740 636.063416,297.075745 626.860535,297.227814 
	C614.496948,297.432129 602.957031,301.424225 593.536682,309.951447 
	C580.206482,322.017883 580.456055,341.798737 594.379089,353.161865 
	C599.208435,357.103302 604.811829,360.279053 610.446960,363.009369 
	C619.844727,367.562805 629.643799,371.283508 639.087341,375.749359 
	C643.086182,377.640411 647.114929,380.013702 650.256287,383.066864 
	C658.619873,391.195740 656.016296,402.821167 645.180176,407.190369 
	C637.839905,410.149994 630.254639,410.369293 622.680481,408.415680 
	C608.862305,404.851501 601.131226,394.816925 595.745667,382.442780 
	C592.477539,374.933929 592.505859,374.921600 584.302612,376.395630 
	C584.302612,390.478516 584.302612,404.549164 584.302612,419.193878 
	C587.523499,418.783966 590.408691,418.519592 593.253662,418.024200 
	C595.812561,417.578613 598.414795,416.137573 600.845886,416.424377 
	C609.897522,417.492371 618.842468,419.659119 627.908997,420.362976 
	C642.978394,421.532867 657.055237,418.379578 668.731384,407.969269 
	C683.270813,395.006134 683.722839,375.137421 669.429749,362.000580 
	C665.206482,358.119049 660.179688,354.887512 655.058960,352.258148 
	C646.959961,348.099548 638.361145,344.923340 630.187805,340.897003 
	C625.162476,338.421417 620.051575,335.702972 615.833618,332.094666 
	C607.884460,325.294495 609.288452,314.958252 618.743225,310.580780 
	C622.788574,308.707855 627.687744,307.705170 632.140930,307.870270 
	C645.373596,308.360840 653.355347,316.904205 658.267883,328.019562 
	C660.891968,333.956970 664.214661,335.587128 670.640381,333.821167 
z"/>
<path fill="#030303" opacity="1.000000" stroke="none" 
	d="
M348.261749,248.916443 
	C366.355011,250.906219 383.948212,250.536087 401.836670,247.669785 
	C401.836670,250.807938 401.836670,253.695572 401.836670,256.722687 
	C401.381439,256.815094 400.929993,256.959808 400.470612,256.992218 
	C389.887146,257.738800 387.328888,261.454712 390.562592,271.698090 
	C400.759155,303.997711 411.006989,336.281158 421.616150,369.774170 
	C423.933350,362.598816 425.971405,356.458252 427.900726,350.283691 
	C435.873810,324.766907 443.800812,299.235687 451.771271,273.718048 
	C456.240540,259.409576 454.661560,257.359161 438.223877,256.899170 
	C438.149017,255.517822 438.040924,254.095657 438.003418,252.671661 
	C437.964752,251.203842 437.994812,249.734222 437.994812,248.014740 
	C446.415100,248.634338 454.475220,249.683792 462.536316,249.691162 
	C470.463013,249.698395 478.390686,248.648087 486.583862,248.042175 
	C486.583862,250.922318 486.583862,253.675674 486.583862,256.572266 
	C486.132996,256.713745 485.689789,256.964539 485.239563,256.977783 
	C473.743286,257.315369 469.153137,260.738129 465.503326,272.175598 
	C460.909943,286.569885 456.467316,301.012421 451.986084,315.442352 
	C441.546051,349.060181 431.077026,382.669220 420.760162,416.324829 
	C419.725342,419.700623 418.358368,421.519440 414.603607,420.871124 
	C411.106140,420.267303 407.216187,422.572632 405.315460,416.483612 
	C396.118042,387.019775 386.270569,357.758850 376.318481,327.404114 
	C363.988281,359.107697 351.981262,389.980347 340.023987,420.725098 
	C335.928986,420.725098 332.275818,420.725098 328.285583,420.725098 
	C322.871094,405.601562 317.439240,390.480011 312.042664,375.345856 
	C300.223846,342.201324 288.426544,309.049103 276.605072,275.905518 
	C275.936584,274.031281 275.143372,272.200745 274.384064,270.359802 
	C271.082062,262.354218 266.585083,255.887543 256.367493,256.984375 
	C256.367493,253.827026 256.367493,251.071365 256.367493,247.712875 
	C277.267731,250.847931 297.945312,251.117462 318.891449,247.673019 
	C318.891449,250.795074 318.891449,253.560944 318.891449,256.461578 
	C318.794708,256.541626 318.557861,256.910614 318.302246,256.924133 
	C307.459625,257.497803 304.023285,262.549652 307.566284,274.003510 
	C310.653107,283.982605 314.452301,293.743347 318.005066,303.575867 
	C326.070221,325.896545 334.174164,348.203186 342.276764,370.510315 
	C342.717438,371.723480 343.290222,372.888672 344.214783,375.036194 
	C347.353516,367.071869 350.165131,359.976013 352.947693,352.868835 
	C358.214294,339.416901 363.572571,325.998779 368.614075,312.462799 
	C369.450500,310.217072 369.525146,307.250458 368.837921,304.949707 
	C365.796936,294.768921 362.376495,284.700531 359.027191,274.613464 
	C358.296722,272.413544 357.376373,270.265930 356.402252,268.159546 
	C353.069183,260.952484 348.099548,256.129517 339.227722,257.029114 
	C339.227722,253.907822 339.227722,250.993393 339.227722,247.729279 
	C342.268066,248.133804 345.037537,248.502304 348.261749,248.916443 
z"/>
<path fill="#030303" opacity="1.000000" stroke="none" 
	d="
M792.999878,418.842041 
	C783.530945,418.842041 774.562073,418.842041 765.295837,418.842041 
	C765.295837,415.674896 765.295837,412.794220 765.295837,409.924072 
	C775.995422,408.425507 777.844727,406.595276 777.943237,395.486694 
	C778.129395,374.504517 778.185547,353.517181 777.930298,332.536407 
	C777.746216,317.406860 765.597778,309.692474 749.679688,314.335968 
	C741.374878,316.758606 734.981140,321.970734 730.209839,329.099579 
	C729.370789,330.353180 729.059692,332.176483 729.053955,333.738708 
	C728.979553,353.895325 729.003662,374.052277 729.008728,394.209167 
	C729.008911,395.041138 729.039917,395.875061 729.100952,396.704803 
	C729.836243,406.693848 731.715271,408.673889 741.833740,409.820251 
	C741.833740,412.641113 741.833740,415.510986 741.833740,418.617126 
	C724.154968,418.617126 706.586304,418.617126 688.750549,418.617126 
	C688.750549,415.648499 688.750549,412.891022 688.750549,409.811584 
	C690.096375,409.675293 691.369934,409.472076 692.648743,409.430054 
	C697.417175,409.273254 700.010315,406.542572 700.769287,402.138214 
	C701.388184,398.546722 701.776184,394.867249 701.782837,391.225891 
	C701.853210,352.744720 701.839844,314.263336 701.800903,275.782043 
	C701.797913,272.797058 701.527100,269.801880 701.209961,266.829712 
	C700.364258,258.905731 698.807190,257.435272 691.042542,256.930939 
	C690.227661,256.878021 689.415100,256.788757 688.302002,256.689728 
	C688.302002,253.900848 688.302002,251.154236 688.302002,248.527740 
	C701.606140,248.527740 714.970520,248.527740 728.726196,248.527740 
	C728.726196,268.999847 728.726196,290.064697 728.726196,311.979614 
	C730.327881,310.784912 731.321716,310.121002 732.229431,309.354980 
	C744.376221,299.104370 758.459412,295.273804 774.069580,297.157623 
	C794.072388,299.571564 805.354004,313.274780 805.473206,335.323608 
	C805.562317,351.807587 805.260742,368.293457 805.192322,384.778717 
	C805.177185,388.436096 805.330688,392.099274 805.544800,395.751648 
	C806.178711,406.565643 807.457886,407.993378 818.205688,409.920807 
	C818.205688,412.603271 818.205688,415.353149 818.205688,418.842041 
	C809.981201,418.842041 801.740601,418.842041 792.999878,418.842041 
z"/>
<path fill="#030303" opacity="1.000000" stroke="none" 
	d="
M945.825378,294.000183 
	C945.813843,286.834717 946.099365,280.152588 945.727966,273.507172 
	C944.989136,260.289185 941.517517,257.100616 928.086487,256.710968 
	C928.086487,253.980667 928.086487,251.229279 928.086487,248.875427 
	C943.847961,248.875427 959.662781,248.875427 975.743042,248.875427 
	C975.743042,250.893799 975.743042,253.796799 975.743042,256.703461 
	C961.579895,256.678925 959.468567,261.549408 959.275085,275.319336 
	C958.881775,303.308624 959.306885,331.310028 958.845825,359.297394 
	C958.718689,367.014862 957.609619,375.000977 955.300720,382.344910 
	C948.068298,405.349274 931.181702,417.128784 907.856750,419.792358 
	C895.415710,421.213043 882.920410,420.167847 870.690125,417.010223 
	C848.327393,411.236572 835.509827,396.452911 831.133484,374.264404 
	C829.502014,365.992859 828.738586,357.444824 828.593323,349.005402 
	C828.171814,324.521484 828.266724,300.028717 828.149414,275.539459 
	C828.142212,274.041077 828.066711,272.542358 827.997681,271.045013 
	C827.462280,259.432922 825.139832,257.109741 813.479797,256.823669 
	C813.479797,253.955154 813.479797,251.074524 813.479797,249.025330 
	C833.184875,249.025330 852.724182,249.025330 872.634766,249.025330 
	C872.634766,250.781586 872.634766,253.640549 872.634766,257.005341 
	C871.127319,257.005341 869.524475,257.016541 867.921936,257.003204 
	C863.713745,256.968201 860.683655,258.905457 859.875671,263.004608 
	C858.918213,267.862610 858.109680,272.844482 858.087585,277.776489 
	C857.969666,304.103790 857.905396,330.435547 858.309326,356.758270 
	C858.423096,364.175720 859.448059,371.759705 861.330627,378.932556 
	C865.483154,394.754059 875.765503,404.056366 892.341980,406.571594 
	C915.843994,410.137787 936.841003,398.449951 943.239380,377.177704 
	C944.845093,371.839264 945.642944,366.073242 945.712830,360.489960 
	C945.988098,338.496338 945.825500,316.497192 945.825378,294.000183 
z"/>
<path fill="#040404" opacity="1.000000" stroke="none" 
	d="
M474.466309,416.630371 
	C454.228729,406.278595 453.606873,372.536224 471.645264,359.151398 
	C480.817749,352.345245 491.520538,349.365387 502.109711,346.061615 
	C510.035736,343.588715 518.052551,341.378265 526.106384,339.359894 
	C528.749329,338.697540 529.757935,337.609344 529.508606,334.974548 
	C529.336670,333.158020 529.480835,331.311951 529.477051,329.479065 
	C529.446716,314.941376 516.049927,305.260071 502.043671,309.652924 
	C494.618164,311.981812 490.495850,317.822601 490.008362,326.705383 
	C489.600891,334.130157 485.960571,338.701752 479.158081,340.331360 
	C472.797729,341.855042 467.870300,339.151062 465.979126,332.952698 
	C463.845551,325.959808 465.863770,319.692261 470.149597,314.236359 
	C479.484528,302.352936 492.721710,298.258789 507.007690,297.127930 
	C513.087708,296.646606 519.337402,297.184113 525.413696,297.987091 
	C545.786011,300.679260 556.712524,313.197906 556.825073,333.769165 
	C556.933533,353.596985 556.842651,373.425812 556.855042,393.254211 
	C556.856384,395.418365 556.867676,397.589813 557.035706,399.745270 
	C557.591248,406.872070 559.431335,408.709503 566.810303,409.349426 
	C566.810303,412.353699 566.810303,415.394287 566.810303,418.396759 
	C558.869568,418.396759 551.071228,418.684601 543.305420,418.305542 
	C537.106506,418.002960 532.143250,415.144684 529.788879,408.901611 
	C512.326172,418.439941 494.664276,425.442902 474.466309,416.630371 
M510.092102,401.867889 
	C514.571716,400.708832 519.048767,399.540070 523.531555,398.393433 
	C528.301025,397.173523 529.995300,394.253937 529.588379,389.284698 
	C529.128235,383.665283 529.482239,377.979218 529.482239,372.322113 
	C529.482239,365.562256 529.482239,358.802399 529.482239,350.466064 
	C518.666077,354.971222 508.825958,358.786987 499.269775,363.215363 
	C496.240692,364.619080 493.560211,367.332306 491.431030,370.011200 
	C486.122101,376.690765 484.213867,384.285522 487.952148,392.350098 
	C491.504333,400.013275 498.484528,401.872803 506.206909,401.989838 
	C507.204254,402.004974 508.202545,401.958588 510.092102,401.867889 
z"/>
<path fill="#275B37" opacity="1.000000" stroke="none" 
	d="
M25.989296,338.000000 
	C25.989296,298.193237 25.989296,258.886444 25.989296,218.805344 
	C59.529671,225.591782 92.868782,230.166962 126.684525,230.141327 
	C160.426773,230.115753 193.665466,225.399353 227.391830,218.887451 
	C227.562027,220.876160 227.835754,222.587204 227.836456,224.298340 
	C227.858475,278.296051 227.740112,332.294189 227.937622,386.291168 
	C227.984055,398.986023 223.508865,409.269287 212.276062,414.845734 
	C196.554520,422.650604 180.266357,429.357971 164.017975,436.042267 
	C153.273499,440.462280 142.206833,444.115570 131.204727,447.879181 
	C128.976822,448.641296 126.071930,449.203461 124.019287,448.428009 
	C99.007889,438.979248 73.983681,429.541260 49.243183,419.415375 
	C43.263447,416.968018 37.883072,412.489685 32.998169,408.089325 
	C27.868347,403.468262 25.947664,396.989227 25.969770,389.997009 
	C26.024038,372.831512 25.988630,355.665680 25.989296,338.000000 
M218.802567,310.984772 
	C218.736557,303.475952 218.670547,295.967133 218.769226,287.605072 
	C218.769226,268.568756 218.769226,249.532440 218.769226,230.101761 
	C187.584824,235.461273 157.340912,240.388733 126.665482,240.417908 
	C95.885139,240.447174 65.530121,235.549072 35.060589,230.072800 
	C35.060589,249.959320 35.060589,269.260132 34.942211,289.554993 
	C34.982449,297.009979 35.022686,304.464996 34.873119,312.853668 
	C34.947468,320.094635 35.021816,327.335632 34.946693,335.557526 
	C34.988285,343.013611 35.029877,350.469727 34.878387,358.855377 
	C34.866310,367.348663 35.073288,375.849426 34.785458,384.333344 
	C34.443134,394.423553 38.617970,402.026428 46.734344,407.614044 
	C49.874119,409.775574 53.080006,412.052856 56.587917,413.433502 
	C79.290421,422.368652 102.068542,431.113281 124.886108,439.750671 
	C126.364922,440.310486 128.491882,439.780853 130.125458,439.209442 
	C142.033539,435.044037 154.035187,431.092346 165.728592,426.381378 
	C178.639420,421.179993 191.483704,415.701141 203.918106,409.467712 
	C212.632675,405.099030 218.491760,397.702972 218.755905,387.357208 
	C219.006454,377.543884 218.702209,367.716400 218.817856,356.999390 
	C218.742859,349.493347 218.667847,341.987305 218.762634,333.627533 
	C218.723083,326.383209 218.683533,319.138916 218.802567,310.984772 
z"/>
<path fill="#040404" opacity="1.000000" stroke="none" 
	d="
M670.284424,334.076904 
	C664.214661,335.587128 660.891968,333.956970 658.267883,328.019562 
	C653.355347,316.904205 645.373596,308.360840 632.140930,307.870270 
	C627.687744,307.705170 622.788574,308.707855 618.743225,310.580780 
	C609.288452,314.958252 607.884460,325.294495 615.833618,332.094666 
	C620.051575,335.702972 625.162476,338.421417 630.187805,340.897003 
	C638.361145,344.923340 646.959961,348.099548 655.058960,352.258148 
	C660.179688,354.887512 665.206482,358.119049 669.429749,362.000580 
	C683.722839,375.137421 683.270813,395.006134 668.731384,407.969269 
	C657.055237,418.379578 642.978394,421.532867 627.908997,420.362976 
	C618.842468,419.659119 609.897522,417.492371 600.845886,416.424377 
	C598.414795,416.137573 595.812561,417.578613 593.253662,418.024200 
	C590.408691,418.519592 587.523499,418.783966 584.302612,419.193878 
	C584.302612,404.549164 584.302612,390.478516 584.302612,376.395630 
	C592.505859,374.921600 592.477539,374.933929 595.745667,382.442780 
	C601.131226,394.816925 608.862305,404.851501 622.680481,408.415680 
	C630.254639,410.369293 637.839905,410.149994 645.180176,407.190369 
	C656.016296,402.821167 658.619873,391.195740 650.256287,383.066864 
	C647.114929,380.013702 643.086182,377.640411 639.087341,375.749359 
	C629.643799,371.283508 619.844727,367.562805 610.446960,363.009369 
	C604.811829,360.279053 599.208435,357.103302 594.379089,353.161865 
	C580.456055,341.798737 580.206482,322.017883 593.536682,309.951447 
	C602.957031,301.424225 614.496948,297.432129 626.860535,297.227814 
	C636.063416,297.075745 645.299377,299.027740 654.523560,300.015167 
	C659.824646,300.582611 665.131592,301.095306 670.640381,301.653351 
	C670.640381,312.265930 670.640381,323.043549 670.284424,334.076904 
z"/>
<path fill="#FDFDFD" opacity="1.000000" stroke="none" 
	d="
M509.646240,401.904297 
	C508.202545,401.958588 507.204254,402.004974 506.206909,401.989838 
	C498.484528,401.872803 491.504333,400.013275 487.952148,392.350098 
	C484.213867,384.285522 486.122101,376.690765 491.431030,370.011200 
	C493.560211,367.332306 496.240692,364.619080 499.269775,363.215363 
	C508.825958,358.786987 518.666077,354.971222 529.482239,350.466064 
	C529.482239,358.802399 529.482239,365.562256 529.482239,372.322113 
	C529.482239,377.979218 529.128235,383.665283 529.588379,389.284698 
	C529.995300,394.253937 528.301025,397.173523 523.531555,398.393433 
	C519.048767,399.540070 514.571716,400.708832 509.646240,401.904297 
z"/>
<path fill="#FDFDFC" opacity="1.000000" stroke="none" 
	d="
M218.641922,357.895142 
	C218.702209,367.716400 219.006454,377.543884 218.755905,387.357208 
	C218.491760,397.702972 212.632675,405.099030 203.918106,409.467712 
	C191.483704,415.701141 178.639420,421.179993 165.728592,426.381378 
	C154.035187,431.092346 142.033539,435.044037 130.125458,439.209442 
	C128.491882,439.780853 126.364922,440.310486 124.886108,439.750671 
	C102.068542,431.113281 79.290421,422.368652 56.587917,413.433502 
	C53.080006,412.052856 49.874119,409.775574 46.734344,407.614044 
	C38.617970,402.026428 34.443134,394.423553 34.785458,384.333344 
	C35.073288,375.849426 34.866310,367.348663 35.377800,358.413879 
	C54.631485,360.708832 73.398239,363.363373 92.134415,366.218597 
	C100.643059,367.515228 109.756920,367.730133 117.371574,371.156982 
	C124.403824,374.321686 129.126099,374.594299 136.151825,371.175201 
	C142.887344,367.897339 151.220459,367.762970 158.905060,366.601746 
	C178.801590,363.595245 198.727646,360.784210 218.641922,357.895142 
M57.688034,387.492798 
	C53.148148,385.520050 49.492985,386.201355 48.481091,389.565765 
	C48.090298,390.865143 48.751705,392.684814 49.463535,393.975189 
	C49.652367,394.317505 51.799736,393.545624 53.056946,393.341339 
	C54.473568,393.111176 56.301132,392.291626 57.247414,392.872650 
	C60.037891,394.585968 63.517971,396.065063 62.182453,400.769226 
	C61.906975,401.739532 63.935822,403.363983 64.902596,404.686951 
	C65.658943,403.386658 66.473457,402.114899 67.133690,400.767517 
	C67.315086,400.397308 66.793610,399.621979 67.005028,399.336761 
	C68.687912,397.066376 70.243752,394.605286 72.351227,392.801819 
	C73.032257,392.219025 75.235260,393.451080 76.754463,393.798676 
	C77.774994,394.032227 79.085953,394.633087 79.779968,394.230377 
	C80.592827,393.758667 81.245468,392.404266 81.323830,391.383331 
	C81.595100,387.849030 77.654892,385.263031 73.878914,386.430725 
	C72.407936,386.885651 71.019905,387.608826 69.088654,388.422852 
	C71.628136,380.447693 70.462906,376.693024 64.531807,372.211090 
	C59.447441,375.826843 58.139874,380.794525 58.834435,387.209229 
	C58.678230,387.399231 58.522022,387.589233 57.688034,387.492798 
M118.778694,406.313568 
	C117.479004,405.584381 116.257904,404.592804 114.864784,404.175476 
	C110.810387,402.960846 106.404739,405.242310 105.975250,409.053131 
	C105.788261,410.712280 107.054634,412.535217 107.660965,414.283783 
	C109.142677,413.735565 110.624390,413.187317 112.106102,412.639099 
	C113.218224,412.227661 114.406433,411.328705 115.429466,411.488373 
	C120.157166,412.226044 123.732681,417.532257 123.627472,422.347931 
	C123.588600,424.127777 124.989777,425.939087 125.734177,427.736084 
	C126.339745,427.752625 126.945312,427.769196 127.550880,427.785767 
	C128.369705,426.036560 129.844070,424.301697 129.882812,422.535370 
	C129.993210,417.502472 132.236710,413.458130 137.061371,411.935577 
	C138.348633,411.529358 140.105164,412.501465 141.615982,412.944092 
	C143.031189,413.358673 145.066299,414.716949 145.660080,414.231293 
	C146.853104,413.255432 147.915253,411.278961 147.852463,409.764282 
	C147.655670,405.017609 141.875351,402.492920 137.128922,404.847809 
	C135.636703,405.588135 134.186493,406.413055 132.023483,407.570374 
	C135.837448,397.509460 133.853470,390.662964 126.463936,386.088593 
	C119.429405,392.656647 118.631187,395.239777 119.885941,406.152740 
	C119.713852,406.348877 119.541763,406.545044 118.778694,406.313568 
M191.251312,399.893005 
	C191.692673,393.998077 196.515167,391.145599 201.080139,394.031921 
	C203.886505,395.806335 205.121719,394.147308 205.466339,391.625916 
	C205.918503,388.317719 202.357925,385.480072 198.759109,386.258606 
	C197.247940,386.585480 195.836899,387.375183 194.239975,388.010254 
	C194.811905,378.186005 194.042908,376.090302 188.521683,372.185669 
	C183.171341,376.557861 181.615799,382.023285 184.542572,389.143768 
	C182.442169,387.947235 181.053696,386.475952 179.945206,386.663116 
	C177.459274,387.082794 174.915573,388.033081 172.837433,389.426514 
	C172.265717,389.809845 173.254044,392.519775 173.526520,394.162140 
	C174.789474,393.857880 176.065475,393.598419 177.311249,393.235291 
	C178.320984,392.940979 179.685379,391.915100 180.219086,392.258911 
	C183.193527,394.175171 187.396210,395.177490 186.397018,400.411041 
	C186.132935,401.794098 187.591492,403.506073 188.259048,405.067017 
	C188.777512,404.992981 189.295975,404.918976 189.814453,404.844940 
	C190.373810,403.422058 190.933182,401.999207 191.251312,399.893005 
z"/>
<path fill="#FDFDFC" opacity="1.000000" stroke="none" 
	d="
M35.060589,288.560974 
	C35.060589,269.260132 35.060589,249.959320 35.060589,230.072800 
	C65.530121,235.549072 95.885139,240.447174 126.665482,240.417908 
	C157.340912,240.388733 187.584824,235.461273 218.769226,230.101761 
	C218.769226,249.532440 218.769226,268.568756 218.297150,288.151642 
	C205.438477,290.758789 193.051865,292.819336 180.323288,294.936798 
	C180.085526,291.492340 179.907730,288.916748 179.721329,286.216553 
	C175.462891,286.890991 171.556992,287.569458 167.633026,288.119263 
	C158.092926,289.455841 148.112289,289.427094 139.121628,292.403046 
	C130.240646,295.342682 122.771011,294.553436 113.994148,292.305847 
	C101.085754,289.000275 87.547119,288.155792 73.929214,286.213287 
	C73.590340,289.098724 73.275352,291.780792 72.905983,294.925995 
	C59.966118,292.749695 47.513351,290.655334 35.060589,288.560974 
M185.926849,251.562958 
	C185.326370,254.110428 184.067657,255.497498 181.100449,255.218323 
	C178.787811,255.000732 176.409195,255.484360 174.059891,255.656372 
	C173.644302,256.050903 173.228714,256.445465 172.813110,256.839996 
	C182.035416,260.152466 182.826248,266.277222 179.328079,274.507477 
	C185.836777,267.369934 191.876053,268.171509 198.127304,274.137268 
	C197.624756,269.981506 195.593277,266.236511 196.509079,263.465607 
	C197.428574,260.683685 201.285095,258.872467 204.873367,255.748871 
	C200.320312,255.402893 196.145065,256.270996 193.824341,254.585556 
	C191.360779,252.796371 190.657135,248.583908 188.706650,244.404968 
	C187.558762,247.243164 186.839600,249.021332 185.926849,251.562958 
M56.230286,268.465057 
	C55.832504,270.124390 55.434723,271.783722 54.688885,274.894989 
	C58.819305,272.187103 61.663872,270.322205 64.693718,268.335876 
	C67.586349,270.223328 70.526733,272.141937 73.866730,274.321289 
	C73.679504,268.372925 76.251320,260.378693 79.807503,255.723328 
	C76.051651,255.406067 71.889755,256.228210 69.556610,254.533157 
	C67.137924,252.775970 66.491165,248.579819 65.069420,245.450409 
	C64.556549,245.174667 64.043686,244.898926 63.530815,244.623184 
	C63.689442,254.788544 57.319099,256.169037 49.552837,256.019073 
	C51.238132,258.037323 52.582821,259.528748 54.250912,260.403412 
	C57.598328,262.158661 58.000278,264.578583 56.230286,268.465057 
M122.733307,276.148285 
	C128.418762,270.190674 131.292984,278.773468 136.325836,278.887573 
	C135.503555,275.278442 133.446106,271.535217 134.354980,268.765320 
	C135.282974,265.937195 139.123718,264.064850 141.689285,261.774078 
	C141.772552,261.218689 141.855820,260.663300 141.939087,260.107910 
	C131.959427,263.970306 129.100830,257.803253 127.403038,250.453857 
	C126.718758,250.965012 112.184319,261.822083 111.798325,262.110413 
	C114.573128,264.273895 117.261375,266.369904 119.944847,268.462189 
	C118.970680,272.019745 118.057297,275.355347 116.755142,280.110718 
	C119.461792,278.344543 120.798958,277.471985 122.733307,276.148285 
z"/>
<path fill="#BB1133" opacity="1.000000" stroke="none" 
	d="
M35.001400,289.057983 
	C47.513351,290.655334 59.966118,292.749695 72.905983,294.925995 
	C73.275352,291.780792 73.590340,289.098724 73.929214,286.213287 
	C87.547119,288.155792 101.085754,289.000275 113.994148,292.305847 
	C122.771011,294.553436 130.240646,295.342682 139.121628,292.403046 
	C148.112289,289.427094 158.092926,289.455841 167.633026,288.119263 
	C171.556992,287.569458 175.462891,286.890991 179.721329,286.216553 
	C179.907730,288.916748 180.085526,291.492340 180.323288,294.936798 
	C193.051865,292.819336 205.438477,290.758789 218.214813,288.578247 
	C218.670547,295.967133 218.736557,303.475952 218.341492,311.494446 
	C205.346909,314.106415 192.813385,316.208710 180.428497,318.286072 
	C180.428497,325.931702 180.428497,333.112244 180.428497,341.001038 
	C193.503128,338.767456 206.047989,336.624359 218.592850,334.481262 
	C218.667847,341.987305 218.742859,349.493347 218.729889,357.447266 
	C198.727646,360.784210 178.801590,363.595245 158.905060,366.601746 
	C151.220459,367.762970 142.887344,367.897339 136.151825,371.175201 
	C129.126099,374.594299 124.403824,374.321686 117.371574,371.156982 
	C109.756920,367.730133 100.643059,367.515228 92.134415,366.218597 
	C73.398239,363.363373 54.631485,360.708832 35.474339,357.949097 
	C35.029877,350.469727 34.988285,343.013611 35.443588,335.139465 
	C48.193012,336.764526 60.445538,338.807678 73.135933,340.923828 
	C73.135933,332.862488 73.135933,325.637024 73.135933,318.228577 
	C60.271301,316.096924 47.667110,314.008453 35.062920,311.919983 
	C35.022686,304.464996 34.982449,297.009979 35.001400,289.057983 
M171.152283,314.500946 
	C171.152283,308.716583 171.152283,302.932220 171.152283,296.645813 
	C156.909592,297.828033 143.001282,297.652344 130.380569,304.272125 
	C127.703857,305.676117 125.844711,305.681091 123.155327,304.283478 
	C110.401672,297.655548 96.458595,297.623749 82.529869,296.855438 
	C82.529869,316.923248 82.529869,336.317719 82.529869,355.934845 
	C85.644333,356.324188 88.440392,356.656677 91.231613,357.025696 
	C102.718338,358.544312 114.534088,358.452942 125.133820,364.306580 
	C126.219620,364.906189 128.174362,364.209717 129.637512,363.799500 
	C135.204086,362.238831 140.643555,360.042572 146.299881,359.027863 
	C154.411804,357.572662 162.672012,356.944122 171.152313,355.928711 
	C171.152313,342.106445 171.152313,328.803436 171.152283,314.500946 
z"/>
<path fill="#FDFBFC" opacity="1.000000" stroke="none" 
	d="
M218.677734,334.054382 
	C206.047989,336.624359 193.503128,338.767456 180.428497,341.001038 
	C180.428497,333.112244 180.428497,325.931702 180.428497,318.286072 
	C192.813385,316.208710 205.346909,314.106415 218.262207,311.949341 
	C218.683533,319.138916 218.723083,326.383209 218.677734,334.054382 
z"/>
<path fill="#FEFCFD" opacity="1.000000" stroke="none" 
	d="
M34.968018,312.386841 
	C47.667110,314.008453 60.271301,316.096924 73.135933,318.228577 
	C73.135933,325.637024 73.135933,332.862488 73.135933,340.923828 
	C60.445538,338.807678 48.193012,336.764526 35.518326,334.648987 
	C35.021816,327.335632 34.947468,320.094635 34.968018,312.386841 
z"/>
<path fill="#285D39" opacity="1.000000" stroke="none" 
	d="
M120.435989,405.595673 
	C118.631187,395.239777 119.429405,392.656647 126.463936,386.088593 
	C133.853470,390.662964 135.837448,397.509460 132.023483,407.570374 
	C134.186493,406.413055 135.636703,405.588135 137.128922,404.847809 
	C141.875351,402.492920 147.655670,405.017609 147.852463,409.764282 
	C147.915253,411.278961 146.853104,413.255432 145.660080,414.231293 
	C145.066299,414.716949 143.031189,413.358673 141.615982,412.944092 
	C140.105164,412.501465 138.348633,411.529358 137.061371,411.935577 
	C132.236710,413.458130 129.993210,417.502472 129.882812,422.535370 
	C129.844070,424.301697 128.369705,426.036560 127.550880,427.785767 
	C126.945312,427.769196 126.339745,427.752625 125.734177,427.736084 
	C124.989777,425.939087 123.588600,424.127777 123.627472,422.347931 
	C123.732681,417.532257 120.157166,412.226044 115.429466,411.488373 
	C114.406433,411.328705 113.218224,412.227661 112.106102,412.639099 
	C110.624390,413.187317 109.142677,413.735565 107.660965,414.283783 
	C107.054634,412.535217 105.788261,410.712280 105.975250,409.053131 
	C106.404739,405.242310 110.810387,402.960846 114.864784,404.175476 
	C116.257904,404.592804 117.479004,405.584381 119.267014,406.780334 
	C120.122559,407.426056 120.489792,407.604980 120.857025,407.783936 
	C120.716682,407.054504 120.576340,406.325104 120.435989,405.595673 
z"/>
<path fill="#2D603D" opacity="1.000000" stroke="none" 
	d="
M191.371933,400.234680 
	C190.933182,401.999207 190.373810,403.422058 189.814453,404.844940 
	C189.295975,404.918976 188.777512,404.992981 188.259048,405.067017 
	C187.591492,403.506073 186.132935,401.794098 186.397018,400.411041 
	C187.396210,395.177490 183.193527,394.175171 180.219086,392.258911 
	C179.685379,391.915100 178.320984,392.940979 177.311249,393.235291 
	C176.065475,393.598419 174.789474,393.857880 173.526520,394.162109 
	C173.254044,392.519775 172.265717,389.809845 172.837433,389.426514 
	C174.915573,388.033081 177.459274,387.082794 179.945206,386.663116 
	C181.053696,386.475952 182.442169,387.947235 184.542572,389.143768 
	C181.615799,382.023285 183.171341,376.557861 188.521683,372.185669 
	C194.042908,376.090302 194.811905,378.186005 194.239975,388.010254 
	C195.836899,387.375183 197.247940,386.585480 198.759109,386.258606 
	C202.357925,385.480072 205.918503,388.317719 205.466339,391.625916 
	C205.121719,394.147308 203.886505,395.806335 201.080139,394.031921 
	C196.515167,391.145599 191.692673,393.998077 191.371933,400.234680 
z"/>
<path fill="#2A5E3A" opacity="1.000000" stroke="none" 
	d="
M59.342834,386.674347 
	C58.139874,380.794525 59.447441,375.826843 64.531807,372.211090 
	C70.462906,376.693024 71.628136,380.447693 69.088654,388.422852 
	C71.019905,387.608826 72.407936,386.885651 73.878914,386.430725 
	C77.654892,385.263031 81.595100,387.849030 81.323830,391.383331 
	C81.245468,392.404266 80.592827,393.758667 79.779968,394.230377 
	C79.085953,394.633087 77.774994,394.032227 76.754463,393.798676 
	C75.235260,393.451080 73.032257,392.219025 72.351227,392.801819 
	C70.243752,394.605286 68.687912,397.066376 67.005028,399.336761 
	C66.793610,399.621979 67.315086,400.397308 67.133690,400.767517 
	C66.473457,402.114899 65.658943,403.386658 64.902588,404.686951 
	C63.935822,403.363983 61.906975,401.739532 62.182453,400.769226 
	C63.517971,396.065063 60.037891,394.585968 57.247414,392.872650 
	C56.301132,392.291626 54.473568,393.111176 53.056946,393.341339 
	C51.799736,393.545624 49.652367,394.317505 49.463535,393.975189 
	C48.751705,392.684814 48.090298,390.865143 48.481091,389.565765 
	C49.492985,386.201355 53.148148,385.520050 58.218353,387.865967 
	C59.095161,388.396881 59.441650,388.554596 59.788139,388.712311 
	C59.639702,388.032990 59.491268,387.353668 59.342834,386.674347 
z"/>
<path fill="#2A5E3B" opacity="1.000000" stroke="none" 
	d="
M186.023651,251.181213 
	C186.839600,249.021332 187.558762,247.243164 188.706650,244.404968 
	C190.657135,248.583908 191.360779,252.796371 193.824341,254.585556 
	C196.145065,256.270996 200.320312,255.402893 204.873367,255.748871 
	C201.285095,258.872467 197.428574,260.683685 196.509079,263.465607 
	C195.593277,266.236511 197.624756,269.981506 198.127304,274.137268 
	C191.876053,268.171509 185.836777,267.369934 179.328079,274.507477 
	C182.826248,266.277222 182.035416,260.152466 172.813110,256.839996 
	C173.228714,256.445465 173.644302,256.050903 174.059891,255.656372 
	C176.409195,255.484360 178.787811,255.000732 181.100449,255.218323 
	C184.067657,255.497498 185.326370,254.110428 186.023651,251.181213 
z"/>
<path fill="#2B5F3C" opacity="1.000000" stroke="none" 
	d="
M56.387730,268.087494 
	C58.000278,264.578583 57.598328,262.158661 54.250912,260.403412 
	C52.582821,259.528748 51.238132,258.037323 49.552837,256.019073 
	C57.319099,256.169037 63.689442,254.788544 63.530815,244.623184 
	C64.043686,244.898926 64.556549,245.174667 65.069420,245.450409 
	C66.491165,248.579819 67.137924,252.775970 69.556610,254.533157 
	C71.889755,256.228210 76.051651,255.406067 79.807503,255.723328 
	C76.251320,260.378693 73.679504,268.372925 73.866730,274.321289 
	C70.526733,272.141937 67.586349,270.223328 64.693718,268.335876 
	C61.663872,270.322205 58.819305,272.187103 54.688885,274.894989 
	C55.434723,271.783722 55.832504,270.124390 56.387730,268.087494 
z"/>
<path fill="#285C38" opacity="1.000000" stroke="none" 
	d="
M122.434723,276.373840 
	C120.798958,277.471985 119.461792,278.344543 116.755142,280.110718 
	C118.057297,275.355347 118.970680,272.019745 119.944847,268.462189 
	C117.261375,266.369904 114.573128,264.273895 111.798325,262.110413 
	C112.184319,261.822083 126.718758,250.965012 127.403038,250.453857 
	C129.100830,257.803253 131.959427,263.970306 141.939087,260.107910 
	C141.855820,260.663300 141.772552,261.218689 141.689285,261.774078 
	C139.123718,264.064850 135.282974,265.937195 134.354980,268.765320 
	C133.446106,271.535217 135.503555,275.278442 136.325836,278.887573 
	C131.292984,278.773468 128.418762,270.190674 122.434723,276.373840 
z"/>
<path fill="#FEFDFD" opacity="1.000000" stroke="none" 
	d="
M171.152298,315.000671 
	C171.152313,328.803436 171.152313,342.106445 171.152313,355.928711 
	C162.672012,356.944122 154.411804,357.572662 146.299881,359.027863 
	C140.643555,360.042572 135.204086,362.238831 129.637512,363.799500 
	C128.174362,364.209717 126.219620,364.906189 125.133820,364.306580 
	C114.534088,358.452942 102.718338,358.544312 91.231613,357.025696 
	C88.440392,356.656677 85.644333,356.324188 82.529869,355.934845 
	C82.529869,336.317719 82.529869,316.923248 82.529869,296.855438 
	C96.458595,297.623749 110.401672,297.655548 123.155327,304.283478 
	C125.844711,305.681091 127.703857,305.676117 130.380569,304.272125 
	C143.001282,297.652344 156.909592,297.828033 171.152283,296.645813 
	C171.152283,302.932220 171.152283,308.716583 171.152298,315.000671 
z"/>
<path fill="#FDFDFC" opacity="1.000000" stroke="none" 
	d="
M120.160965,405.874207 
	C120.576340,406.325104 120.716682,407.054504 120.857025,407.783936 
	C120.489792,407.604980 120.122559,407.426056 119.562500,406.994171 
	C119.541763,406.545044 119.713852,406.348877 120.160965,405.874207 
z"/>
<path fill="#FDFDFC" opacity="1.000000" stroke="none" 
	d="
M59.088634,386.941772 
	C59.491268,387.353668 59.639702,388.032990 59.788139,388.712311 
	C59.441650,388.554596 59.095161,388.396881 58.557243,388.009216 
	C58.522022,387.589233 58.678230,387.399231 59.088634,386.941772 
z"/>
</svg>